<?xml version="1.0" encoding="UTF-8"?>
<svg version="1.1" xmlns="http://www.w3.org/2000/svg" width="220" height="220">
<path d="M0 0 C11.25894952 0.71485394 21.64282177 4.833774 32.23242188 8.48242188 C37.04825831 10.11376426 41.78896826 11.44426898 46.76489258 12.47924805 C51.60490677 13.60691056 56.29151663 15.33684597 60.98242188 16.96484375 C70.37413637 20.07245262 78.19643609 18.80115237 87.75 17.0625 C95.82827628 15.60076586 103.80532164 14.54612954 112 14 C113.35496344 17.2600751 114.22996572 19.90941732 114.4375 23.4375 C114.83213571 27.51993839 115.70687287 30.51784399 118 34 C123.45326859 37.3851858 129.71351337 36.39477849 135.75 35.125 C140.52983677 33.97330632 140.52983677 33.97330632 145 32 C145.98923106 29.10293769 146.17983666 26.27792595 146.31640625 23.234375 C146.35830078 22.34492187 146.40019531 21.45546875 146.44335938 20.5390625 C146.48267578 19.61867188 146.52199219 18.69828125 146.5625 17.75 C146.62727539 16.34621094 146.62727539 16.34621094 146.69335938 14.9140625 C146.7991805 12.60951359 146.90126557 10.30486161 147 8 C153.86824656 5.72764421 160.9157568 4.8701628 168.0625 3.875 C169.31611328 3.69324219 170.56972656 3.51148437 171.86132812 3.32421875 C177.29480164 2.55584876 182.50280154 1.89349921 188 2 C189.72897696 5.75630141 190.25373906 8.70512216 190.27124023 12.82836914 C190.28652016 14.55024193 190.28652016 14.55024193 190.30210876 16.30690002 C190.30424881 17.53722458 190.30638885 18.76754913 190.30859375 20.03515625 C190.33374296 22.64388255 190.35914113 25.25260645 190.38476562 27.86132812 C190.4155847 31.97173039 190.43780893 36.08215277 190.45629883 40.19262695 C190.47522106 44.16114863 190.51731854 48.12930388 190.55859375 52.09765625 C190.55876747 53.94617943 190.55876747 53.94617943 190.5589447 55.83204651 C190.57895287 57.54919106 190.57895287 57.54919106 190.59936523 59.30102539 C190.60443588 60.30742569 190.60950653 61.31382599 190.61473083 62.35072327 C191.06006237 65.41301472 192.10533246 66.6171312 194 69 C194.3462093 71.93123875 194.50993795 74.57327283 194.5 77.5 C194.52835938 78.25925781 194.55671875 79.01851563 194.5859375 79.80078125 C194.59970025 83.73004714 194.48546158 85.42797634 191.875 88.50390625 C188.49043732 90.26516645 186.30143614 90.50411395 182.5 90.4375 C181.3965625 90.43621094 180.293125 90.43492187 179.15625 90.43359375 C175.64235345 89.95086786 173.74996796 89.23157185 171 87 C169.8040972 84.07836403 169.49518089 81.10613469 169 78 C161.57728439 78.57641226 154.40891897 79.79627424 147.125 81.3125 C144.90757709 81.76574734 142.69012885 82.21887079 140.47265625 82.671875 C138.83321045 83.00928711 138.83321045 83.00928711 137.16064453 83.35351562 C134.29536118 83.93958625 131.42808517 84.5130756 128.55859375 85.078125 C119.58378746 86.84562822 110.63933678 88.69364852 101.73266602 90.78149414 C98.36155086 91.55583925 95.48298675 92 92 92 C92.05800781 92.95261719 92.11601563 93.90523438 92.17578125 94.88671875 C92.54634146 105.18829268 92.54634146 105.18829268 89.8125 109.25 C82.86478287 113.57302399 74.74799613 115.06410781 66.6875 113.3125 C61.56061503 111.48767654 58.04100272 109.56150408 55 105 C54.8552037 103.04524991 54.77932498 101.0848862 54.75 99.125 C54.38722297 94.18300687 54.38722297 94.18300687 51.6875 90.0625 C47.81358096 87.54491712 43.38942134 85.94727595 39.10546875 84.265625 C35.35850477 82.73856043 31.81949381 80.92209821 28.25390625 79.015625 C25.84382898 77.92962831 23.60220711 77.42222761 21 77 C20.91363281 77.60328125 20.82726562 78.2065625 20.73828125 78.828125 C20.06062479 82.68268471 19.44927217 85.40580132 17.0625 88.5625 C11.86823175 91.00062591 6.27824635 90.89979839 0.765625 89.38671875 C-3.70779431 87.58441138 -3.70779431 87.58441138 -5 85 C-5.26151272 82.0270759 -5.23142772 79.0456726 -5.25 76.0625 C-5.270625 75.23814453 -5.29125 74.41378906 -5.3125 73.56445312 C-5.32023438 72.37432617 -5.32023438 72.37432617 -5.328125 71.16015625 C-5.3374707 70.43449463 -5.34681641 69.70883301 -5.35644531 68.96118164 C-5 67 -5 67 -3.50375366 65.75917053 C-1.31034328 63.19320311 -1.60784403 61.23260785 -1.58349609 57.89208984 C-1.56692963 56.63423676 -1.55036316 55.37638367 -1.53329468 54.08041382 C-1.52984183 52.70725546 -1.52656017 51.33409665 -1.5234375 49.9609375 C-1.50912987 48.55512999 -1.49337328 47.14933654 -1.47622681 45.74356079 C-1.43436384 42.04503161 -1.40937154 38.3465896 -1.38873291 34.64788818 C-1.35291804 28.72028842 -1.29206596 22.79290343 -1.23024368 16.86552811 C-1.2110988 14.79091703 -1.19940889 12.71636347 -1.18881226 10.64169312 C-1.17341904 8.76436996 -1.17341904 8.76436996 -1.15771484 6.84912109 C-1.14797134 5.18724258 -1.14797134 5.18724258 -1.13803101 3.49179077 C-1 1 -1 1 0 0 Z M72 36 C70.45681551 39.43103382 69.75264085 42.05177727 69.828125 45.80859375 C69.84681641 46.76878418 69.86550781 47.72897461 69.88476562 48.71826172 C69.92279297 49.80123535 69.96082031 50.88420898 70 52 C70.04318359 53.24152832 70.08636719 54.48305664 70.13085938 55.76220703 C70.26340624 59.16526941 70.43963413 62.56459317 70.63476562 65.96459961 C70.71245066 67.37889525 70.78193791 68.79366201 70.84375 70.20874023 C70.93466632 72.27732322 71.05041851 74.34316962 71.171875 76.41015625 C71.2347168 77.62840088 71.29755859 78.84664551 71.36230469 80.10180664 C71.68175999 83.12503142 71.68175999 83.12503142 74.05175781 84.41186523 C75.0161377 84.70299194 75.0161377 84.70299194 76 85 C78.17676493 83.23260118 78.17676493 83.23260118 78.24723816 81.0198822 C78.24581314 80.21015457 78.24438812 79.40042694 78.24291992 78.56616211 C78.24753487 77.18979836 78.24753487 77.18979836 78.25224304 75.78562927 C78.24505753 74.79289505 78.23787201 73.80016083 78.23046875 72.77734375 C78.23001053 71.76152725 78.22955231 70.74571075 78.2290802 69.69911194 C78.22605596 67.54964023 78.21816456 65.40017075 78.20581055 63.25073242 C78.18755624 59.94767558 78.1853008 56.64489888 78.18554688 53.34179688 C78.18063179 51.25781006 78.17480351 49.17382515 78.16796875 47.08984375 C78.16685593 46.0950853 78.1657431 45.10032684 78.16459656 44.07542419 C78.15821671 43.16100052 78.15183685 42.24657684 78.14526367 41.30444336 C78.14145187 40.49551132 78.13764008 39.68657928 78.13371277 38.85313416 C78.20199875 36.98387066 78.20199875 36.98387066 77 36 C75.33382885 35.95936168 73.66611905 35.957279 72 36 Z " fill="#42311D" transform="translate(12,84)"/>
<path d="M0 0 C0 0.66 0 1.32 0 2 C0.5775 2.22558594 1.155 2.45117188 1.75 2.68359375 C8.61741065 6.70150588 13.71114416 16.50700879 16 24 C17.89839949 32.3573219 20.48071112 44.11717078 17.04296875 52.26953125 C13.78297442 55.03086488 10.15035132 55.12172151 6 55.625 C4.27197601 55.86212248 2.54410974 56.10039727 0.81640625 56.33984375 C-0.01616699 56.45054199 -0.84874023 56.56124023 -1.70654297 56.67529297 C-4.51566465 57.07300766 -7.28404832 57.61581858 -10.0625 58.1875 C-20.97454833 60.10516946 -20.97454833 60.10516946 -25 59 C-26.70380998 57.11707153 -27.72249554 55.24183574 -28.8671875 52.98046875 C-30.6322359 49.89467724 -32.68415075 49.06107176 -36 48 C-41.93634665 47.23047358 -46.12904744 48.74914545 -51 52 C-54.32457105 55.32457105 -55.94871127 58.89429439 -57.58203125 63.23046875 C-61.22930955 67.78203093 -70.16198367 67.7558515 -75.625 68.5625 C-77.28399213 68.81288968 -78.94285075 69.06416585 -80.6015625 69.31640625 C-81.37661133 69.43322754 -82.15166016 69.55004883 -82.95019531 69.67041016 C-84.50359653 69.92018286 -86.04805453 70.22639244 -87.5859375 70.55859375 C-101.6401047 73.12836866 -113.61815605 69.82253003 -126.70019531 64.86767578 C-133.53284703 62.2898367 -140.37435852 60.04749321 -147.51953125 58.55078125 C-156.43792931 56.57047554 -164.60378013 54.51090893 -172 49 C-175.19591725 42.6081655 -173.78268578 31.00551341 -172.0234375 24.25 C-168.37181802 15.28897061 -163.2408111 8.71109989 -154.23046875 4.796875 C-144.48351887 1.24342986 -136.46871279 0.64804354 -126.73828125 4.54296875 C-116.04015123 10.23541169 -107.93190424 20.65864065 -104 32 C-101.3498068 40.74677499 -100.59731156 48.88730966 -101 58 C-99.68 58 -98.36 58 -97 58 C-93.65062181 46.97946532 -96.04677298 33.99930413 -100.8125 23.75 C-104.45497469 17.08592699 -109.07554961 11.62818166 -114.77734375 6.640625 C-115.18082031 6.09921875 -115.58429688 5.5578125 -116 5 C-115.57641602 2.89746094 -115.57641602 2.89746094 -115 1 C-100.94002428 -0.66347449 -86.85970074 -1.9055177 -72.75 -3.0625 C-68.57788456 -3.4047215 -64.40605734 -3.75019957 -60.234375 -4.09765625 C-59.29374207 -4.17371597 -58.35310913 -4.2497757 -57.38397217 -4.32814026 C-52.87361194 -4.7040894 -48.45935112 -5.20197545 -44 -6 C-10.6965758 -8.87588205 -10.6965758 -8.87588205 0 0 Z " fill="#43311D" transform="translate(184,26)"/>
<path d="M0 0 C10.65167743 7.44264212 16.37059607 18.47399537 19 31 C19.90874679 36.97497892 20.48650821 42.97998444 21 49 C24.28696233 49.79953138 25.71023192 50.09658936 29 49 C29 48.01 29 47.02 29 46 C29.66 46 30.32 46 31 46 C30.62005832 48.75457718 30.1926367 49.82020574 28.125 51.75 C26 53 26 53 23 53 C22.67 53.99 22.34 54.98 22 56 C21.01 56.99 21.01 56.99 20 58 C22.64 58.33 25.28 58.66 28 59 C23.5116672 61.99222187 20.16766903 61.01212647 15 60 C9.13371702 58.46293111 3.38365283 56.51795767 -2.375 54.625 C-5.42275779 53.63264698 -8.47236731 52.64618226 -11.5234375 51.6640625 C-12.62409798 51.30911964 -12.62409798 51.30911964 -13.74699402 50.94700623 C-19.77044751 49.02590661 -25.84823303 47.45667585 -32 46 C-45.36614915 42.46741473 -45.36614915 42.46741473 -48.29296875 38.1484375 C-51.00385792 29.91092896 -49.63274433 20.29372053 -46.3359375 12.4375 C-44.11448021 8.38431476 -41.31046779 5.19683617 -38 2 C-37.2575 1.236875 -36.515 0.47375 -35.75 -0.3125 C-24.56445747 -7.17635564 -10.82895643 -7.20098118 0 0 Z " fill="#42301D" transform="translate(61,35)"/>
<path d="M0 0 C1.99609375 0.05078125 1.99609375 0.05078125 4.4375 0.3125 C5.64212891 0.43044922 5.64212891 0.43044922 6.87109375 0.55078125 C9 1 9 1 11 3 C7.7 2.67 4.4 2.34 1 2 C1 23.12 1 44.24 1 66 C-0.98 66.99 -0.98 66.99 -3 68 C-3.10792837 70.60527105 -3.18724878 73.20608311 -3.25 75.8125 C-3.28351562 76.55048828 -3.31703125 77.28847656 -3.3515625 78.04882812 C-3.44705651 82.36246011 -3.44705651 82.36246011 -1.36328125 85.9921875 C1.59315204 87.25294748 3.85250526 87.36420995 7.0625 87.3125 C8.10535156 87.30863281 9.14820313 87.30476563 10.22265625 87.30078125 C13.21003164 87.19356608 13.21003164 87.19356608 16 85 C17.01752555 82.35952748 17.01752555 82.35952748 17.6875 79.375 C17.93886719 78.37210937 18.19023437 77.36921875 18.44921875 76.3359375 C18.63097656 75.56507813 18.81273438 74.79421875 19 74 C24.21684359 74.42298732 28.32949683 76.40001419 32.98828125 78.60546875 C36.0613143 80.02839067 39.16993128 81.3015687 42.3125 82.5625 C47.93001547 84.88673792 52.54372718 86.81559076 56 92 C56.29871063 95.03404655 56.37787078 98.04280551 56.4609375 101.08984375 C57.13911575 104.75102344 58.04313565 105.77031239 61 108 C66.34061828 110.88069713 70.54265058 111.39783772 76.4375 111.1875 C77.16904297 111.17396484 77.90058594 111.16042969 78.65429688 111.14648438 C80.43652422 111.11153874 82.21836573 111.05774805 84 111 C84 110.34 84 109.68 84 109 C84.80824219 108.62230469 85.61648437 108.24460937 86.44921875 107.85546875 C89.38905397 106.1585041 89.38905397 106.1585041 89.70703125 102.42578125 C89.76660733 101.05553137 89.80097482 99.68399597 89.8125 98.3125 C89.83763672 97.61060547 89.86277344 96.90871094 89.88867188 96.18554688 C89.94744448 94.45763219 89.9766097 92.7287557 90 91 C95.90682126 88.898001 101.7372985 87.28347515 107.890625 86.09765625 C108.70967316 85.93495239 109.52872131 85.77224854 110.37258911 85.60461426 C112.99728602 85.08476402 115.62353217 84.57332037 118.25 84.0625 C120.05948436 83.70668923 121.86889172 83.35048662 123.67822266 82.99389648 C128.02625991 82.13847847 132.37564803 81.29016747 136.72546387 80.44384766 C139.80000319 79.84388925 142.87264342 79.23445502 145.9453125 78.625 C147.75507633 78.27015944 149.56495643 77.91591084 151.375 77.5625 C152.1371582 77.41111572 152.89931641 77.25973145 153.68457031 77.10375977 C159.09639589 76.06647273 164.51195908 75.4771282 170 75 C170.33 76.98 170.66 78.96 171 81 C170.34 80.01 169.68 79.02 169 78 C161.57728439 78.57641226 154.40891897 79.79627424 147.125 81.3125 C144.90757709 81.76574734 142.69012885 82.21887079 140.47265625 82.671875 C138.83321045 83.00928711 138.83321045 83.00928711 137.16064453 83.35351562 C134.29536118 83.93958625 131.42808517 84.5130756 128.55859375 85.078125 C119.58378746 86.84562822 110.63933678 88.69364852 101.73266602 90.78149414 C98.36155086 91.55583925 95.48298675 92 92 92 C92.05800781 92.95261719 92.11601563 93.90523438 92.17578125 94.88671875 C92.54634146 105.18829268 92.54634146 105.18829268 89.8125 109.25 C82.86478287 113.57302399 74.74799613 115.06410781 66.6875 113.3125 C61.56061503 111.48767654 58.04100272 109.56150408 55 105 C54.8552037 103.04524991 54.77932498 101.0848862 54.75 99.125 C54.38722297 94.18300687 54.38722297 94.18300687 51.6875 90.0625 C47.81358096 87.54491712 43.38942134 85.94727595 39.10546875 84.265625 C35.35850477 82.73856043 31.81949381 80.92209821 28.25390625 79.015625 C25.84382898 77.92962831 23.60220711 77.42222761 21 77 C20.91363281 77.60328125 20.82726562 78.2065625 20.73828125 78.828125 C20.06062479 82.68268471 19.44927217 85.40580132 17.0625 88.5625 C11.86823175 91.00062591 6.27824635 90.89979839 0.765625 89.38671875 C-3.70779431 87.58441138 -3.70779431 87.58441138 -5 85 C-5.26151272 82.0270759 -5.23142772 79.0456726 -5.25 76.0625 C-5.270625 75.23814453 -5.29125 74.41378906 -5.3125 73.56445312 C-5.32023438 72.37432617 -5.32023438 72.37432617 -5.328125 71.16015625 C-5.3374707 70.43449463 -5.34681641 69.70883301 -5.35644531 68.96118164 C-5 67 -5 67 -3.50375366 65.75917053 C-1.31034328 63.19320311 -1.60784403 61.23260785 -1.58349609 57.89208984 C-1.56692963 56.63423676 -1.55036316 55.37638367 -1.53329468 54.08041382 C-1.52984183 52.70725546 -1.52656017 51.33409665 -1.5234375 49.9609375 C-1.50912987 48.55512999 -1.49337328 47.14933654 -1.47622681 45.74356079 C-1.43436384 42.04503161 -1.40937154 38.3465896 -1.38873291 34.64788818 C-1.35291804 28.72028842 -1.29206596 22.79290343 -1.23024368 16.86552811 C-1.2110988 14.79091703 -1.19940889 12.71636347 -1.18881226 10.64169312 C-1.17341904 8.76436996 -1.17341904 8.76436996 -1.15771484 6.84912109 C-1.14797134 5.18724258 -1.14797134 5.18724258 -1.13803101 3.49179077 C-1 1 -1 1 0 0 Z " fill="#D4D1CE" transform="translate(12,84)"/>
<path d="M0 0 C13.47562602 9.89768202 20.48877536 22.611934 23 39 C23.21448039 43.34893206 23.19218168 47.65099986 23 52 C24.32 52 25.64 52 27 52 C27.66 50.68 28.32 49.36 29 48 C28.67 49.65 28.34 51.3 28 53 C25.625 53.625 25.625 53.625 23 54 C20.04939701 51.04939701 20.44453188 47.66322175 20.125 43.6875 C18.75876229 29.78337208 15.31386094 16.47443361 4.6875 6.625 C-4.60977163 -0.48224765 -12.3276143 -2.12705423 -23.85546875 -0.62890625 C-31.61661106 0.95835134 -36.99212364 4.9216668 -42 11 C-43.76978749 14.2446104 -44.98252193 17.45482484 -46 21 C-46.33 21.99 -46.66 22.98 -47 24 C-47.17209806 26.45451334 -47.26658438 28.91488918 -47.3125 31.375 C-47.34988281 32.68210938 -47.38726562 33.98921875 -47.42578125 35.3359375 C-46.92173883 39.67347685 -46.25312319 41.11342591 -43 44 C-40.33534768 45.33473075 -37.6002477 46.20799676 -34.75 47.0625 C-33.53920776 47.44571411 -33.53920776 47.44571411 -32.30395508 47.83666992 C-26.19842334 49.73322581 -20.02997504 51.26576538 -13.8046875 52.71875 C-9.80724628 53.7229723 -5.91961669 54.98458821 -2.0078125 56.28125 C-0.73092064 56.69960022 0.54601677 57.11781145 1.82299805 57.53588867 C4.34519732 58.36285679 6.85138399 59.21785083 9.35864258 60.09106445 C17.72111552 62.83572053 24.32506492 63.36726337 33 62 C34.0408374 61.84362061 35.0816748 61.68724121 36.15405273 61.52612305 C39.23542417 61.03342196 42.30477183 60.49518586 45.375 59.9375 C51.64765916 58.8002362 57.61249774 57.72110906 64 58 C64.0928125 56.7315625 64.0928125 56.7315625 64.1875 55.4375 C65.57011332 49.58798213 68.74522307 45.61524174 73.5625 42.0625 C78.75971094 39.08421213 84.18642806 39.1018358 90 40 C93.76862647 41.49295587 95.74174692 43.61262037 98 47 C97.67 47.99 97.34 48.98 97 50 C96.443125 48.8553125 96.443125 48.8553125 95.875 47.6875 C93.55218596 44.35813321 91.79790039 43.38769437 88 42 C82.06365335 41.23047358 77.87095256 42.74914545 73 46 C69.67542895 49.32457105 68.05128873 52.89429439 66.41796875 57.23046875 C62.77069045 61.78203093 53.83801633 61.7558515 48.375 62.5625 C46.71600787 62.81288968 45.05714925 63.06416585 43.3984375 63.31640625 C42.62338867 63.43322754 41.84833984 63.55004883 41.04980469 63.67041016 C39.49640347 63.92018286 37.95194547 64.22639244 36.4140625 64.55859375 C22.3598953 67.12836866 10.38184395 63.82253003 -2.70019531 58.86767578 C-9.53284703 56.2898367 -16.37435852 54.04749321 -23.51953125 52.55078125 C-32.43792931 50.57047554 -40.60378013 48.51090893 -48 43 C-51.19591725 36.6081655 -49.78268578 25.00551341 -48.0234375 18.25 C-44.37181802 9.28897061 -39.2408111 2.71109989 -30.23046875 -1.203125 C-19.49533117 -5.11683369 -10.28184362 -5.47093819 0 0 Z " fill="#D6D5D4" transform="translate(60,32)"/>
<path d="M0 0 C1.31291016 -0.05607422 1.31291016 -0.05607422 2.65234375 -0.11328125 C5.0625 0.3125 5.0625 0.3125 6.8515625 2.01953125 C10.06989325 8.11359624 8.25383629 15.51916218 6.375 21.8125 C5.23955798 25.3636767 4.59267978 26.91381821 1.58984375 29.171875 C-1.43561564 30.53730644 -2.83016443 30.34827852 -5.9375 29.3125 C-7.63248032 27.61751968 -7.54589348 25.30986656 -7.9375 23 C-8.60521398 19.06359457 -8.60521398 19.06359457 -9.484375 15.171875 C-10.51829534 10.92923638 -10.4454359 7.37454779 -8.5625 3.4375 C-6.01843386 0.11064428 -4.02591957 0.11232375 0 0 Z " fill="#413221" transform="translate(143.9375,83.6875)"/>
<path d="M0 0 C9.29278231 -0.18424352 17.26077399 0.99156978 24.65234375 7.125 C24.65234375 7.785 24.65234375 8.445 24.65234375 9.125 C25.22984375 9.35058594 25.80734375 9.57617188 26.40234375 9.80859375 C33.2697544 13.82650588 38.36348791 23.63200879 40.65234375 31.125 C42.55074324 39.4823219 45.13305487 51.24217078 41.6953125 59.39453125 C38.43531817 62.15586488 34.80269507 62.24672151 30.65234375 62.75 C28.92431976 62.98712248 27.19645349 63.22539727 25.46875 63.46484375 C24.63617676 63.57554199 23.80360352 63.68624023 22.94580078 63.80029297 C20.1366791 64.19800766 17.36829543 64.74081858 14.58984375 65.3125 C9.58894676 66.26094598 4.72762062 66.32316699 -0.34765625 66.125 C-0.34765625 65.135 -0.34765625 64.145 -0.34765625 63.125 C0.3944812 63.40899658 0.3944812 63.40899658 1.15161133 63.69873047 C4.76902348 64.31534685 8.09667886 63.5862051 11.6640625 62.9453125 C12.43289261 62.81309296 13.20172272 62.68087341 13.99385071 62.54464722 C15.61417068 62.26427431 17.2338085 61.97993396 18.8527832 61.69189453 C21.33976283 61.25001438 23.82874578 60.82129409 26.31835938 60.39453125 C27.89206124 60.12056116 29.46563386 59.84584741 31.0390625 59.5703125 C32.16087166 59.37648483 32.16087166 59.37648483 33.30534363 59.17874146 C36.77268539 58.80368246 36.77268539 58.80368246 39.65234375 57.125 C40.70678195 40.45676531 37.43768975 25.74151082 26.33984375 12.6875 C21.77608818 7.55001516 16.48537695 3.65718822 9.5769043 2.69799805 C6.08793927 2.56015797 2.64251279 2.58757889 -0.84765625 2.6875 C-2.08854004 2.70490234 -3.32942383 2.72230469 -4.60791016 2.74023438 C-12.70457392 2.904805 -20.60686589 3.53879917 -28.6171875 4.6796875 C-34.53257968 5.38581809 -40.39497377 5.29480711 -46.34765625 5.125 C-46.34765625 4.795 -46.34765625 4.465 -46.34765625 4.125 C-30.90427788 2.32338551 -15.54187977 0.5803269 0 0 Z " fill="#D0CECC" transform="translate(159.34765625,18.875)"/>
<path d="M0 0 C1.98 0 3.96 0 6 0 C7.72897696 3.75630141 8.25373906 6.70512216 8.27124023 10.82836914 C8.28142685 11.97628433 8.29161346 13.12419952 8.30210876 14.30690002 C8.30424881 15.53722458 8.30638885 16.76754913 8.30859375 18.03515625 C8.33374296 20.64388255 8.35914113 23.25260645 8.38476562 25.86132812 C8.4155847 29.97173039 8.43780893 34.08215277 8.45629883 38.19262695 C8.47522106 42.16114863 8.51731854 46.12930388 8.55859375 50.09765625 C8.55870956 51.33000504 8.55882538 52.56235382 8.5589447 53.83204651 C8.57228348 54.97680954 8.58562225 56.12157257 8.59936523 57.30102539 C8.60443588 58.30742569 8.60950653 59.31382599 8.61473083 60.35072327 C9.06006237 63.41301472 10.10533246 64.6171312 12 67 C12.3462093 69.93123875 12.50993795 72.57327283 12.5 75.5 C12.52835938 76.25925781 12.55671875 77.01851563 12.5859375 77.80078125 C12.59970025 81.73004714 12.48546158 83.42797634 9.875 86.50390625 C6.49043732 88.26516645 4.30143614 88.50411395 0.5 88.4375 C-0.6034375 88.43621094 -1.706875 88.43492187 -2.84375 88.43359375 C-6.30233709 87.95846607 -8.25221786 87.13321349 -11 85 C-11.3125 82.3125 -11.3125 82.3125 -11 80 C-9 83 -9 83 -8 85 C-5.54137599 85.05383848 -3.0839245 85.09359038 -0.625 85.125 C0.42300781 85.15013672 0.42300781 85.15013672 1.4921875 85.17578125 C3.32897486 85.19344267 5.16601963 85.10303261 7 85 C9.46484146 82.53515854 9.2855892 81.06173082 9.32226562 77.6875 C9.31743164 76.6665625 9.31743164 76.6665625 9.3125 75.625 C9.32861328 74.95210938 9.34472656 74.27921875 9.36132812 73.5859375 C9.41072876 69.56432226 9.41072876 69.56432226 7.50431824 66.16473389 C5.4879357 63.26313269 5.60277593 61.27759278 5.56762695 57.76269531 C5.54783279 56.50169006 5.52803864 55.24068481 5.50764465 53.94146729 C5.50087541 52.57035471 5.49442848 51.19924051 5.48828125 49.828125 C5.47143099 48.42135043 5.45328027 47.01459089 5.43388367 45.60784912 C5.38641461 41.91225886 5.35658559 38.21672952 5.33044434 34.52093506 C5.30062295 30.74690724 5.25409811 26.97308926 5.20898438 23.19921875 C5.12298663 15.79958336 5.05562603 8.39993265 5 1 C3.35 1 1.7 1 0 1 C0 0.67 0 0.34 0 0 Z " fill="#CFCDCC" transform="translate(194,86)"/>
<path d="M0 0 C3.3 0.33 6.6 0.66 10 1 C9.67 2.65 9.34 4.3 9 6 C7.35 6.33 5.7 6.66 4 7 C3.18747623 21.63993722 2.90221488 36.21946514 3.03710938 50.87719727 C3.04548828 52.15006592 3.05386719 53.42293457 3.0625 54.734375 C3.07410156 55.87100586 3.08570313 57.00763672 3.09765625 58.17871094 C3 61 3 61 2 64 C1.34 64 0.68 64 0 64 C0 42.88 0 21.76 0 0 Z " fill="#3B2E26" transform="translate(13,86)"/>
<path d="M0 0 C0.495 2.97 0.495 2.97 1 6 C0.01 4.515 0.01 4.515 -1 3 C-8.42271561 3.57641226 -15.59108103 4.79627424 -22.875 6.3125 C-25.09242291 6.76574734 -27.30987115 7.21887079 -29.52734375 7.671875 C-31.16678955 8.00928711 -31.16678955 8.00928711 -32.83935547 8.35351562 C-35.70463882 8.93958625 -38.57191483 9.5130756 -41.44140625 10.078125 C-50.38847829 11.84033576 -59.30530372 13.6777152 -68.17944336 15.78149414 C-71.96975232 16.65618082 -75.05648643 17 -79 17 C-79 21.29 -79 25.58 -79 30 C-79.33 30 -79.66 30 -80 30 C-80 25.38 -80 20.76 -80 16 C-74.06684694 13.92251505 -68.27687613 12.28616749 -62.109375 11.09765625 C-61.29010025 10.93495239 -60.4708255 10.77224854 -59.62672424 10.60461426 C-57.00222949 10.08491171 -54.3761958 9.57353005 -51.75 9.0625 C-49.94416642 8.70674591 -48.13842116 8.35054324 -46.33276367 7.99389648 C-35.45553038 5.8501327 -24.57256493 3.73364633 -13.67578125 1.69140625 C-11.49895814 1.28195068 -9.32449048 0.85895955 -7.15625 0.40625 C-4.73336307 -0.05023594 -2.45981082 -0.07028031 0 0 Z " fill="#C4C2C1" transform="translate(182,159)"/>
<path d="M0 0 C0.99 0.66 1.98 1.32 3 2 C3.30471206 4.57810299 3.41857771 6.86399418 3.375 9.4375 C3.38660156 10.11876953 3.39820313 10.80003906 3.41015625 11.50195312 C3.39390493 14.26738544 3.26825323 16.49564373 1.95703125 18.9609375 C-1.13790257 20.60415586 -4.27991073 20.31158588 -7.6875 20.1875 C-8.38939453 20.17396484 -9.09128906 20.16042969 -9.81445312 20.14648438 C-11.54329829 20.11120182 -13.27174765 20.05739583 -15 20 C-15 19.34 -15 18.68 -15 18 C-11.535 17.505 -11.535 17.505 -8 17 C-7.71125 15.906875 -7.4225 14.81375 -7.125 13.6875 C-6 10 -6 10 -4 7 C-4.99 6.67 -5.98 6.34 -7 6 C-6.21625 5.7525 -5.4325 5.505 -4.625 5.25 C-1.67682892 3.84610901 -1.0975223 2.99324263 0 0 Z " fill="#3C2C1C" transform="translate(201,152)"/>
<path d="M0 0 C2.71089665 1.71424347 4.18806348 3.52428273 5.96875 6.1953125 C5.63875 7.1853125 5.30875 8.1753125 4.96875 9.1953125 C4.5975 8.4321875 4.22625 7.6690625 3.84375 6.8828125 C1.52093596 3.55344571 -0.23334961 2.58300687 -4.03125 1.1953125 C-9.96759665 0.42578608 -14.16029744 1.94445795 -19.03125 5.1953125 C-22.35582105 8.51988355 -23.97996127 12.08960689 -25.61328125 16.42578125 C-29.26055955 20.97734343 -38.19323367 20.951164 -43.65625 21.7578125 C-45.31524213 22.00820218 -46.97410075 22.25947835 -48.6328125 22.51171875 C-49.4069751 22.62797607 -50.1811377 22.7442334 -50.97875977 22.86401367 C-52.54857721 23.11740278 -54.10810332 23.43532438 -55.66015625 23.78125 C-58.90681686 24.34821215 -62.05142154 24.28858192 -65.34375 24.2578125 C-66.59800781 24.24878906 -67.85226563 24.23976563 -69.14453125 24.23046875 C-70.09714844 24.21886719 -71.04976563 24.20726563 -72.03125 24.1953125 C-72.03125 23.8653125 -72.03125 23.5353125 -72.03125 23.1953125 C-65.01273737 22.01626416 -57.99301797 20.84472594 -50.97167969 19.68261719 C-49.22468664 19.39309559 -47.47787094 19.10249521 -45.73144531 18.80957031 C-39.77852864 17.81292815 -34.07474161 16.91421987 -28.03125 17.1953125 C-27.9384375 15.926875 -27.9384375 15.926875 -27.84375 14.6328125 C-26.46113668 8.78329463 -23.28602693 4.81055424 -18.46875 1.2578125 C-12.96288068 -1.8973536 -5.92452266 -2.34702244 0 0 Z " fill="#D3D1D1" transform="translate(152.03125,72.8046875)"/>
<path d="M0 0 C3.6875 -0.3125 3.6875 -0.3125 7 0 C6.67 0.99 6.34 1.98 6 3 C4.35 3 2.7 3 1 3 C-1.82743958 12.78804604 0.30740835 24.12981415 1 34.1875 C1.09668752 35.63083708 1.19304389 37.07419639 1.2890625 38.51757812 C1.52223282 42.01198268 1.75985398 45.50606707 2 49 C2.99 49.33 3.98 49.66 5 50 C5.99 49.505 5.99 49.505 7 49 C7 49.99 7 50.98 7 52 C5.02 52 3.04 52 1 52 C-0.91401293 48.7285656 -1.35930926 46.02734646 -1.6328125 42.265625 C-1.75910034 40.57880615 -1.75910034 40.57880615 -1.88793945 38.85791016 C-1.96616943 37.6672998 -2.04439941 36.47668945 -2.125 35.25 C-2.2077417 34.03747559 -2.2904834 32.82495117 -2.37573242 31.57568359 C-4.09712065 5.04189048 -4.09712065 5.04189048 0 0 Z " fill="#B5B1B0" transform="translate(83,118)"/>
<path d="M0 0 C6.26957277 0.94167496 11.05456742 1.92001812 16 6 C18.68547893 10.02821839 18.33145825 13.34030936 18.4609375 18.08984375 C19.13911575 21.75102344 20.04313565 22.77031239 23 25 C28.34061828 27.88069713 32.54265058 28.39783772 38.4375 28.1875 C39.16904297 28.17396484 39.90058594 28.16042969 40.65429688 28.14648438 C42.43652422 28.11153874 44.21836573 28.05774805 46 28 C46 27.34 46 26.68 46 26 C46.969375 25.566875 47.93875 25.13375 48.9375 24.6875 C50.70320641 23.74307585 50.70320641 23.74307585 52 22 C52.85285556 17.67135572 52.98727032 13.40446862 53 9 C53.33 9 53.66 9 54 9 C54.78177628 21.83850381 54.78177628 21.83850381 51.8125 26.25 C44.86478287 30.57302399 36.74799613 32.06410781 28.6875 30.3125 C23.56061503 28.48767654 20.04100272 26.56150408 17 22 C16.8552037 20.04524991 16.77932498 18.0848862 16.75 16.125 C16.39059415 11.12600469 16.39059415 11.12600469 13.5625 7 C9.42217501 4.29714726 4.63974493 2.64133269 0 1 C0 0.67 0 0.34 0 0 Z " fill="#D8D7D6" transform="translate(50,167)"/>
<path d="M0 0 C1.6026782 -0.10824843 3.20745748 -0.18570645 4.8125 -0.25 C5.70582031 -0.29640625 6.59914062 -0.3428125 7.51953125 -0.390625 C10 0 10 0 11.796875 1.703125 C14.99633109 7.81117754 13.19356371 15.19920124 11.3125 21.5 C10.17705798 25.0511767 9.53017978 26.60131821 6.52734375 28.859375 C3.50188436 30.22480644 2.10733557 30.03577852 -1 29 C-2.69498032 27.30501968 -2.60839348 24.99736656 -3 22.6875 C-3.66415982 18.75845211 -3.66415982 18.75845211 -4.55859375 14.87890625 C-5.25085835 11.93218702 -5.05790826 9.01122941 -5 6 C-4.67 6 -4.34 6 -4 6 C-2.2362764 12.65556077 -0.65965039 19.13963599 0 26 C1.65 26.33 3.3 26.66 5 27 C9.8704227 16.36826349 9.8704227 16.36826349 11 5 C10.10938785 3.02421261 10.10938785 3.02421261 8 2 C5.31884069 1.46059517 2.7366901 1.22431886 0 1 C0 0.67 0 0.34 0 0 Z " fill="#D2CFCE" transform="translate(139,84)"/>
<path d="M0 0 C2.3431213 0.25561323 4.67843403 0.59270772 7 1 C7.33 1.66 7.66 2.32 8 3 C5.69 2.67 3.38 2.34 1 2 C0.90203125 2.75925781 0.8040625 3.51851562 0.703125 4.30078125 C0.55359375 5.29464844 0.4040625 6.28851563 0.25 7.3125 C0.11078125 8.29863281 -0.0284375 9.28476563 -0.171875 10.30078125 C-1 13 -1 13 -2.75 14.84375 C-5.45735603 16.23503018 -7.22393795 16.30694982 -10.25 16.1875 C-11.14203125 16.16042969 -12.0340625 16.13335937 -12.953125 16.10546875 C-13.62859375 16.07066406 -14.3040625 16.03585938 -15 16 C-15 15.67 -15 15.34 -15 15 C-12.03 15 -9.06 15 -6 15 C-6.33 14.34 -6.66 13.68 -7 13 C-7.99 13 -8.98 13 -10 13 C-11.66666667 13 -13.33333333 13 -15 13 C-14.34 12.67 -13.68 12.34 -13 12 C-12.67 11.01 -12.34 10.02 -12 9 C-11.34 9 -10.68 9 -10 9 C-10 8.34 -10 7.68 -10 7 C-9.01 6.67 -8.02 6.34 -7 6 C-6.67 7.32 -6.34 8.64 -6 10 C-6 9.01 -6 8.02 -6 7 C-4.68 7 -3.36 7 -2 7 C-1.34 4.69 -0.68 2.38 0 0 Z " fill="#342719" transform="translate(30,156)"/>
<path d="M0 0 C6.2510285 0.50684015 11.4201575 3.36328252 17 6 C19.32473197 7.02208043 21.66043928 8.01218547 24 9 C20.71059245 10.64470378 17.84538626 8.95606208 14.46875 7.8984375 C11.7393353 6.90513785 9.45353952 5.54222484 7 4 C4.30745009 3.29329272 4.30745009 3.29329272 2 3 C1.91363281 3.60328125 1.82726562 4.2065625 1.73828125 4.828125 C1.06062479 8.68268471 0.44927217 11.40580132 -1.9375 14.5625 C-6.55144204 16.7282279 -10.98763712 16.31601587 -16 16 C-16 15.34 -16 14.68 -16 14 C-15.31292969 13.95101562 -14.62585938 13.90203125 -13.91796875 13.8515625 C-13.01691406 13.77679688 -12.11585937 13.70203125 -11.1875 13.625 C-10.29417969 13.55539063 -9.40085937 13.48578125 -8.48046875 13.4140625 C-5.75601501 13.13354964 -5.75601501 13.13354964 -3 11 C-1.98247445 8.35952748 -1.98247445 8.35952748 -1.3125 5.375 C-1.06113281 4.37210938 -0.80976563 3.36921875 -0.55078125 2.3359375 C-0.36902344 1.56507813 -0.18726563 0.79421875 0 0 Z " fill="#C2C0BF" transform="translate(31,158)"/>
<path d="M0 0 C0 0.33 0 0.66 0 1 C-4.87438905 1.43056467 -9.74906201 1.85770318 -14.62402344 2.28173828 C-16.28068042 2.42631573 -17.93725752 2.57181153 -19.59375 2.71826172 C-21.98156403 2.92920442 -24.36965049 3.13678869 -26.7578125 3.34375 C-27.49242706 3.40937134 -28.22704163 3.47499268 -28.98391724 3.54260254 C-33.0024884 3.88727441 -36.96700295 4.06656941 -41 4 C-40.27169594 7.11490816 -40.27169594 7.11490816 -37.8125 8.6875 C-32.23134622 13.27644866 -27.23405556 20.05131683 -25 27 C-25.33 27.99 -25.66 28.98 -26 30 C-26.53625 28.845 -27.0725 27.69 -27.625 26.5 C-31.181604 19.42422993 -35.83229472 13.84096513 -41.77734375 8.640625 C-42.18082031 8.09921875 -42.58429688 7.5578125 -43 7 C-42.57641602 4.89746094 -42.57641602 4.89746094 -42 3 C-36.74456187 2.40449931 -31.48833989 1.81729528 -26.23046875 1.24365234 C-24.42421591 1.04634057 -22.61830352 0.84591375 -20.8125 0.64453125 C-13.86845906 -0.06847295 -6.97647901 -0.09982243 0 0 Z " fill="#DAD9D8" transform="translate(111,24)"/>
<path d="M0 0 C0 0.33 0 0.66 0 1 C-3.99963002 1.64813824 -7.99976736 2.2930924 -12 2.9375 C-13.12535156 3.11990234 -14.25070313 3.30230469 -15.41015625 3.49023438 C-16.51230469 3.66748047 -17.61445313 3.84472656 -18.75 4.02734375 C-19.75546875 4.18968506 -20.7609375 4.35202637 -21.796875 4.51928711 C-25.52200955 5.07834122 -29.26223676 5.5327796 -33 6 C-33 13.59 -33 21.18 -33 29 C-34.32 29 -35.64 29 -37 29 C-36.76228882 28.15743652 -36.76228882 28.15743652 -36.51977539 27.29785156 C-35.97811638 24.90325571 -35.79358526 22.68561447 -35.68359375 20.234375 C-35.64169922 19.34492187 -35.59980469 18.45546875 -35.55664062 17.5390625 C-35.51732422 16.61867188 -35.47800781 15.69828125 -35.4375 14.75 C-35.39431641 13.81414062 -35.35113281 12.87828125 -35.30664062 11.9140625 C-35.2008195 9.60951359 -35.09873443 7.30486161 -35 5 C-29.0462415 3.09545973 -23.12665513 2.18642101 -16.9375 1.375 C-15.48633789 1.17390625 -15.48633789 1.17390625 -14.00585938 0.96875 C-9.30474419 0.33807336 -4.75580222 -0.17643786 0 0 Z " fill="#BBB9B7" transform="translate(194,87)"/>
<path d="M0 0 C7.31232092 0.75644699 7.31232092 0.75644699 11 2.0625 C17.38754177 4.0586068 23.67363812 2.87568122 30.0625 1.5 C35.09924776 0.4217377 39.82812085 -0.16141105 45 0 C45 0.33 45 0.66 45 1 C41.75128084 1.67301289 38.50083621 2.3372951 35.25 3 C34.32960937 3.19078125 33.40921875 3.3815625 32.4609375 3.578125 C31.57148437 3.75859375 30.68203125 3.9390625 29.765625 4.125 C28.94868164 4.29257813 28.13173828 4.46015625 27.29003906 4.6328125 C25 5 25 5 21 5 C21 5.66 21 6.32 21 7 C16.71 6.67 12.42 6.34 8 6 C8 5.34 8 4.68 8 4 C6.02 4 4.04 4 2 4 C1.34 2.68 0.68 1.36 0 0 Z " fill="#989390" transform="translate(66,100)"/>
<path d="M0 0 C1.5398912 3.18244182 2.15507829 5.95429885 2.4375 9.4375 C2.83213571 13.51993839 3.70687287 16.51784399 6 20 C11.45326859 23.3851858 17.71351337 22.39477849 23.75 21.125 C26.95796818 20.33845789 29.98232345 19.36282167 33 18 C33 18.66 33 19.32 33 20 C26.7798654 23.40626419 21.40945522 24.14631467 14.375 24.1875 C12.71597656 24.20876953 12.71597656 24.20876953 11.0234375 24.23046875 C8.03450819 24.00263047 6.44529322 23.68697757 4 22 C-0.64712731 16.24641381 -0.76370247 9.08892579 -1 2 C-4.63 2 -8.26 2 -12 2 C-12 1.67 -12 1.34 -12 1 C-7.95858806 0.36605303 -4.0934693 -0.12404452 0 0 Z " fill="#D0CECD" transform="translate(124,98)"/>
<path d="M0 0 C-2.86445892 2.86445892 -6.14343595 2.89557318 -10 3.5 C-11.5587954 3.75528216 -13.1173913 4.0117856 -14.67578125 4.26953125 C-15.42682129 4.39279785 -16.17786133 4.51606445 -16.95166016 4.64306641 C-19.38687579 5.06741507 -21.78218331 5.61941013 -24.1875 6.1875 C-30.38717616 7.4876054 -36.69913231 7.16342308 -43 7 C-43 6.67 -43 6.34 -43 6 C-35.00169924 4.65635588 -27.00156108 3.32408522 -19 2 C-18.23574707 1.87270508 -17.47149414 1.74541016 -16.68408203 1.61425781 C-14.91523906 1.32099184 -13.14518596 1.03504745 -11.375 0.75 C-10.45460937 0.60046875 -9.53421875 0.4509375 -8.5859375 0.296875 C-5.70541668 -0.03381923 -2.8969361 -0.05097248 0 0 Z " fill="#D2D1D1" transform="translate(123,90)"/>
<path d="M0 0 C0 0.33 0 0.66 0 1 C-3.95498727 1.84975726 -7.91442097 2.67673357 -11.875 3.5 C-13.53789062 3.85771484 -13.53789062 3.85771484 -15.234375 4.22265625 C-21.9236973 5.59986966 -28.17079009 6.34773912 -35 6 C-35 5.01 -35 4.02 -35 3 C-34.16903809 3.27154907 -34.16903809 3.27154907 -33.32128906 3.54858398 C-30.56255445 4.08506908 -28.6149436 3.75669082 -25.859375 3.22265625 C-24.87066406 3.03896484 -23.88195312 2.85527344 -22.86328125 2.66601562 C-21.83589844 2.46685547 -20.80851563 2.26769531 -19.75 2.0625 C-13.06609804 0.77254949 -6.81896861 -0.26916981 0 0 Z " fill="#C2BFBE" transform="translate(194,79)"/>
<path d="M0 0 C0.33 0 0.66 0 1 0 C1.55719726 7.24356438 -0.18574616 13.32385037 -3 20 C-3.66 20.66 -4.32 21.32 -5 22 C-7.625 21.625 -7.625 21.625 -10 21 C-10 18.69 -10 16.38 -10 14 C-8.02 13.67 -6.04 13.34 -4 13 C-4.875 16.875 -4.875 16.875 -6 18 C-5.67 18.33 -5.34 18.66 -5 19 C-4.34922704 16.95990245 -3.70460176 14.91784331 -3.0625 12.875 C-2.70285156 11.73804687 -2.34320313 10.60109375 -1.97265625 9.4296875 C-1.08101661 6.28567301 -0.46648986 3.23105607 0 0 Z " fill="#2C211B" transform="translate(149,90)"/>
<path d="M0 0 C10.25068516 1.14554863 19.41497657 4.38858122 29 8 C25.16286458 9.10508669 22.33104249 8.77689865 18.375 8.125 C17.22773437 7.94195312 16.08046875 7.75890625 14.8984375 7.5703125 C12 7 12 7 10 6 C10 5.01 10 4.02 10 3 C6.7 3 3.4 3 0 3 C0 2.01 0 1.02 0 0 Z " fill="#A7A3A1" transform="translate(23,87)"/>
<path d="M0 0 C0.33 0.99 0.66 1.98 1 3 C0.07421875 4.796875 0.07421875 4.796875 -1.3125 6.75 C-5.43197336 12.55739511 -6.30360469 18.61398036 -6.375 25.625 C-6.40335938 26.89601563 -6.43171875 28.16703125 -6.4609375 29.4765625 C-5.92839547 33.54734992 -4.81897841 35.09127883 -2 38 C-1.4225 38.598125 -0.845 39.19625 -0.25 39.8125 C0.1625 40.204375 0.575 40.59625 1 41 C-4.37694553 39.56614786 -4.37694553 39.56614786 -6.66796875 37.484375 C-8.68138053 33.72915537 -8.53076705 30.2011381 -8.5 26 C-8.49718018 25.1536499 -8.49436035 24.3072998 -8.49145508 23.43530273 C-8.26057123 14.42053297 -5.60919579 7.08962869 0 0 Z " fill="#DEDDDC" transform="translate(19,38)"/>
<path d="M0 0 C0.33 0 0.66 0 1 0 C1.66 10.23 2.32 20.46 3 31 C3.99 31.33 4.98 31.66 6 32 C6.66 31.67 7.32 31.34 8 31 C8 31.99 8 32.98 8 34 C6.02 34 4.04 34 2 34 C-0.29822325 30.35783305 -0.23128602 27.29174993 -0.1953125 23.046875 C-0.1924826 22.38665344 -0.18965271 21.72643188 -0.18673706 21.04620361 C-0.17558415 18.94728103 -0.15048946 16.84879258 -0.125 14.75 C-0.11496384 13.32292285 -0.1058391 11.89583898 -0.09765625 10.46875 C-0.07566111 6.97902672 -0.04116536 3.48955577 0 0 Z " fill="#DEDCDB" transform="translate(82,136)"/>
<path d="M0 0 C0.33 1.98 0.66 3.96 1 6 C0.34 5.01 -0.32 4.02 -1 3 C-5.97998676 3.39507202 -10.82599003 3.88065016 -15.6875 5.0625 C-19.57315943 5.99588794 -23.01306942 6.16965662 -27 6 C-19.88020142 1.25346761 -8.47247421 -0.21372007 0 0 Z " fill="#CFCDCC" transform="translate(182,159)"/>
<path d="M0 0 C6.50917032 0.27121543 10.21710814 2.66323472 15 7 C17.5 9.875 17.5 9.875 19 12 C18.01 12.33 17.02 12.66 16 13 C11.125 8.375 11.125 8.375 10 5 C9.01 5.33 8.02 5.66 7 6 C4.3125 4.6875 4.3125 4.6875 2 3 C2 2.34 2 1.68 2 1 C1.34 0.67 0.68 0.34 0 0 Z " fill="#382D24" transform="translate(169,22)"/>
<path d="M0 0 C0.33 0 0.66 0 1 0 C1.79429227 4.24049585 2.18938604 8.31130638 2.25 12.625 C2.28867188 14.28402344 2.28867188 14.28402344 2.328125 15.9765625 C1.96700388 19.30403568 1.29972431 20.62136359 -1 23 C-4.48581269 24.49391972 -8.26566177 24.0718142 -12 24 C-12 23.67 -12 23.34 -12 23 C-10.02 23 -8.04 23 -6 23 C-6 22.34 -6 21.68 -6 21 C-4.35 20.34 -2.7 19.68 -1 19 C-0.67 12.73 -0.34 6.46 0 0 Z " fill="#D9D8D8" transform="translate(200,57)"/>
<path d="M0 0 C0.66 0 1.32 0 2 0 C2 0.66 2 1.32 2 2 C3.32 2.33 4.64 2.66 6 3 C-0.43566658 4.66195785 -6.88792286 6.23825936 -13.375 7.6875 C-15.05722656 8.06455078 -15.05722656 8.06455078 -16.7734375 8.44921875 C-19.92000983 8.9863455 -22.81539116 9.10102233 -26 9 C-23.20583307 7.48627838 -20.66622535 6.57552376 -17.55859375 5.9296875 C-16.72779297 5.75566406 -15.89699219 5.58164063 -15.04101562 5.40234375 C-14.18185547 5.22832031 -13.32269531 5.05429688 -12.4375 4.875 C-11.57447266 4.69324219 -10.71144531 4.51148438 -9.82226562 4.32421875 C-3.41523731 3 -3.41523731 3 0 3 C0 2.01 0 1.02 0 0 Z " fill="#2C2219" transform="translate(131,164)"/>
<path d="M0 0 C1.6097168 0.01450195 1.6097168 0.01450195 3.25195312 0.02929688 C4.37150391 0.05443359 5.49105469 0.07957031 6.64453125 0.10546875 C7.77568359 0.11900391 8.90683594 0.13253906 10.07226562 0.14648438 C12.86766442 0.18186917 15.66211017 0.23123927 18.45703125 0.29296875 C18.45703125 0.62296875 18.45703125 0.95296875 18.45703125 1.29296875 C15.45754734 1.63162016 12.45758199 1.96401948 9.45703125 2.29296875 C8.19826172 2.43605469 8.19826172 2.43605469 6.9140625 2.58203125 C1.7256218 3.14511784 -3.32423836 3.38961191 -8.54296875 3.29296875 C-5.97630373 -0.00376988 -4.07133561 -0.06462437 0 0 Z " fill="#392F27" transform="translate(81.54296875,26.70703125)"/>
<path d="M0 0 C0.66 0 1.32 0 2 0 C2.33 4.62 2.66 9.24 3 14 C3.66 14 4.32 14 5 14 C4.67 15.32 4.34 16.64 4 18 C4.66 18.33 5.32 18.66 6 19 C3 19 3 19 1.32421875 17.484375 C-0.48538404 14.08936799 -0.32540171 10.9910259 -0.1875 7.25 C-0.17396484 6.55261719 -0.16042969 5.85523438 -0.14648438 5.13671875 C-0.1112945 3.42414459 -0.05749155 1.71197059 0 0 Z " fill="#3C3229" transform="translate(12,56)"/>
<path d="M0 0 C0.6875 1.6875 0.6875 1.6875 1 4 C-0.64076492 7.44560634 -1.78512442 8.85674962 -5 11 C-7.69921875 11.1953125 -7.69921875 11.1953125 -10.6875 11.125 C-12.17830078 11.09792969 -12.17830078 11.09792969 -13.69921875 11.0703125 C-14.45847656 11.04710937 -15.21773437 11.02390625 -16 11 C-16 10.34 -16 9.68 -16 9 C-15.31292969 8.95101562 -14.62585938 8.90203125 -13.91796875 8.8515625 C-13.01691406 8.77679688 -12.11585937 8.70203125 -11.1875 8.625 C-10.29417969 8.55539063 -9.40085937 8.48578125 -8.48046875 8.4140625 C-5.75601501 8.13354964 -5.75601501 8.13354964 -3 6 C-2.67 5.01 -2.34 4.02 -2 3 C-1.34 3 -0.68 3 0 3 C0 2.01 0 1.02 0 0 Z " fill="#C8C6C5" transform="translate(31,163)"/>
<path d="M0 0 C0.33 0 0.66 0 1 0 C2.7637236 6.65556077 4.34034961 13.13963599 5 20 C7.31 20.66 9.62 21.32 12 22 C9 24 9 24 6.375 23.6875 C4 23 4 23 3 22 C2.62702089 20.23709093 2.30119534 18.46408188 2 16.6875 C1.33584018 12.75845211 1.33584018 12.75845211 0.44140625 8.87890625 C-0.25085835 5.93218702 -0.05790826 3.01122941 0 0 Z " fill="#D7D6D5" transform="translate(134,90)"/>
<path d="M0 0 C4.69228894 -0.61714865 8.48413876 -0.88554705 12.66796875 1.55859375 C14.86698184 3.29612873 16.96534111 5.07346308 19 7 C18.01 8.485 18.01 8.485 17 10 C16.38125 9.21625 15.7625 8.4325 15.125 7.625 C11.97361888 4.39188277 8.55518962 4.0892437 4.20703125 3.5546875 C2 3 2 3 0 0 Z " fill="#443A30" transform="translate(140,69)"/>
<path d="M0 0 C0.33 0 0.66 0 1 0 C1.78177628 12.83850381 1.78177628 12.83850381 -1.1875 17.25 C-5.61688541 20.00606203 -8.7367821 21.30075531 -14 21 C-11.35261084 19.5393715 -10.10551666 19 -7 19 C-7 18.34 -7 17.68 -7 17 C-6.030625 16.566875 -5.06125 16.13375 -4.0625 15.6875 C-2.29679359 14.74307585 -2.29679359 14.74307585 -1 13 C-0.14714444 8.67135572 -0.01272968 4.40446862 0 0 Z " fill="#E3E2E2" transform="translate(103,176)"/>
<path d="M0 0 C-6.1899823 3.26655385 -12.1025811 4.28739245 -19 4 C-19 3.34 -19 2.68 -19 2 C-12.53205867 0.48766299 -6.64409958 -0.21432579 0 0 Z " fill="#CCCACA" transform="translate(134,169)"/>
<path d="M0 0 C-3.99922161 3.99922161 -11.3284764 3.88043531 -16.79296875 4.125 C-18.86239868 4.125 -20.9317188 4.06894271 -23 4 C-19.61650042 2.03591976 -16.47814132 1.44084593 -12.625 0.875 C-11.52414063 0.70742187 -10.42328125 0.53984375 -9.2890625 0.3671875 C-6.15901977 0.0177528 -3.14608144 -0.06653344 0 0 Z " fill="#C2C0C0" transform="translate(123,90)"/>
<path d="M0 0 C0.99 0.33 1.98 0.66 3 1 C2.278125 1.45375 1.55625 1.9075 0.8125 2.375 C-2.56657905 5.52880712 -3.90953649 8.64433711 -5.69140625 12.85546875 C-7 15 -7 15 -9.15234375 15.80078125 C-9.76207031 15.86652344 -10.37179688 15.93226562 -11 16 C-10.566875 15.29875 -10.13375 14.5975 -9.6875 13.875 C-7.95307914 11.03074304 -7.95307914 11.03074304 -6.625 8 C-4.83943239 4.70356748 -2.7479338 2.52512835 0 0 Z " fill="#DCDBDA" transform="translate(132,76)"/>
<path d="M0 0 C-2.43406923 2.94650486 -4.316358 3.33883349 -8 4 C-8.66 4.66 -9.32 5.32 -10 6 C-10 5.34 -10 4.68 -10 4 C-11.98 4 -13.96 4 -16 4 C-16 3.34 -16 2.68 -16 2 C-10.61972975 0.80911014 -5.54708616 -0.2919519 0 0 Z " fill="#4D453E" transform="translate(111,101)"/>
<path d="M0 0 C4 3 4 3 5 6 C6.65 6.33 8.3 6.66 10 7 C10 7.33 10 7.66 10 8 C8.35 8 6.7 8 5 8 C4.67 8.99 4.34 9.98 4 11 C3.01 11 2.02 11 1 11 C0.67 7.37 0.34 3.74 0 0 Z " fill="#473625" transform="translate(79,163)"/>
<path d="M0 0 C9.02984567 -0.63690134 15.28514567 0.1237941 23 5 C22.67 5.99 22.34 6.98 22 8 C21.45730469 7.65066406 20.91460937 7.30132812 20.35546875 6.94140625 C19.64003906 6.48636719 18.92460938 6.03132813 18.1875 5.5625 C17.47980469 5.11003906 16.77210937 4.65757813 16.04296875 4.19140625 C12.51612472 2.13464252 9.31557562 1.76716505 5.3125 1.4375 C4.31863281 1.35371094 3.32476562 1.26992188 2.30078125 1.18359375 C1.16189453 1.09271484 1.16189453 1.09271484 0 1 C0 0.67 0 0.34 0 0 Z " fill="#C9C6C4" transform="translate(40,29)"/>
<path d="M0 0 C-1.98 0.99 -1.98 0.99 -4 2 C-3.34 2.66 -2.68 3.32 -2 4 C-2.639375 4.12375 -3.27875 4.2475 -3.9375 4.375 C-4.9584375 4.684375 -4.9584375 4.684375 -6 5 C-6.33 5.66 -6.66 6.32 -7 7 C-7.66 7 -8.32 7 -9 7 C-9 6.34 -9 5.68 -9 5 C-9.99 4.67 -10.98 4.34 -12 4 C-11.34 3.67 -10.68 3.34 -10 3 C-10.33 2.34 -10.66 1.68 -11 1 C-7.32589215 -0.17571451 -3.83070817 -0.07366746 0 0 Z " fill="#504337" transform="translate(180,90)"/>
<path d="M0 0 C3.96 0 7.92 0 12 0 C11.67 0.66 11.34 1.32 11 2 C11.66 2.66 12.32 3.32 13 4 C7.73946963 4.31563182 4.55426184 3.66590937 0 1 C0 0.67 0 0.34 0 0 Z " fill="#32271C" transform="translate(20,76)"/>
<path d="M0 0 C0 0.33 0 0.66 0 1 C-7.89211879 3.31320723 -14.86776924 2.85602429 -23 2 C-23 1.67 -23 1.34 -23 1 C-15.30881404 0.24833087 -7.72772107 -0.13690844 0 0 Z " fill="#615954" transform="translate(122,24)"/>
<path d="M0 0 C0.33 0 0.66 0 1 0 C1 4.95 1 9.9 1 15 C2.32 15.66 3.64 16.32 5 17 C6.33333333 17.66666667 7.66666667 18.33333333 9 19 C7.3125 19.75 7.3125 19.75 5 20 C2.375 18.53125 2.375 18.53125 0 16 C-0.37233017 13.03327323 -0.4808246 10.68143759 -0.3125 7.75 C-0.28994141 7.00492188 -0.26738281 6.25984375 -0.24414062 5.4921875 C-0.18543561 3.660591 -0.09575757 1.83003347 0 0 Z " fill="#544E4B" transform="translate(8,152)"/>
<path d="M0 0 C2 2 2 2 2 6 C0.02 6.33 -1.96 6.66 -4 7 C-4.33 5.35 -4.66 3.7 -5 2 C-3.35 1.34 -1.7 0.68 0 0 Z " fill="#473825" transform="translate(189,164)"/>
<path d="M0 0 C3.96 0 7.92 0 12 0 C7.577168 3.317124 6.28089024 3.30466674 1 3 C0.67 2.01 0.34 1.02 0 0 Z " fill="#40322B" transform="translate(39,30)"/>
<path d="M0 0 C-1 3 -1 3 -2 4 C-2 4.66 -2 5.32 -2 6 C-3.32 6.33 -4.64 6.66 -6 7 C-6 4.69 -6 2.38 -6 0 C-3 -1 -3 -1 0 0 Z " fill="#3A2B1A" transform="translate(145,104)"/>
<path d="M0 0 C0.99 0 1.98 0 3 0 C3.2919519 5.54708616 2.19088986 10.61972975 1 16 C0.67 16 0.34 16 0 16 C0 10.72 0 5.44 0 0 Z " fill="#43372B" transform="translate(197,60)"/>
<path d="M0 0 C6.27 0 12.54 0 19 0 C18.01 0.99 17.02 1.98 16 3 C13.15021129 2.89140867 10.60504992 2.64357584 7.8125 2.1875 C6.68811523 2.02411133 6.68811523 2.02411133 5.54101562 1.85742188 C3.69176651 1.58651277 1.84552739 1.29519943 0 1 C0 0.67 0 0.34 0 0 Z " fill="#4B433C" transform="translate(88,26)"/>
<path d="M0 0 C2.0625 0.4375 2.0625 0.4375 4 1 C4 1.99 4 2.98 4 4 C1.92446352 4.5534764 0.15634036 5 -2 5 C-1.125 1.125 -1.125 1.125 0 0 Z " fill="#877E7A" transform="translate(137,85)"/>
<path d="M0 0 C0.33 0 0.66 0 1 0 C1.03738281 0.56847656 1.07476562 1.13695313 1.11328125 1.72265625 C1.56978622 7.08435193 2.63489082 11.1669508 5 16 C1.125 14.25 1.125 14.25 0 12 C-0.07065617 9.95944995 -0.08421976 7.91665743 -0.0625 5.875 C-0.05347656 4.77929688 -0.04445313 3.68359375 -0.03515625 2.5546875 C-0.02355469 1.71164063 -0.01195313 0.86859375 0 0 Z " fill="#E8E7E6" transform="translate(125,103)"/>
<path d="M0 0 C3.3 0.33 6.6 0.66 10 1 C10 1.66 10 2.32 10 3 C8.35 3.33 6.7 3.66 5 4 C5 3.34 5 2.68 5 2 C3.35 2 1.7 2 0 2 C0 1.34 0 0.68 0 0 Z " fill="#3E332B" transform="translate(13,86)"/>
<path d="M0 0 C0.66 0 1.32 0 2 0 C2 2.31 2 4.62 2 7 C-0.97 6.505 -0.97 6.505 -4 6 C-4 5.34 -4 4.68 -4 4 C-3.01 4 -2.02 4 -1 4 C-0.67 2.68 -0.34 1.36 0 0 Z " fill="#493521" transform="translate(127,139)"/>
<path d="M0 0 C2.0625 0.4375 2.0625 0.4375 4 1 C3.67 2.32 3.34 3.64 3 5 C3 4.34 3 3.68 3 3 C2.01 3.33 1.02 3.66 0 4 C-2.04296875 3.87890625 -2.04296875 3.87890625 -4.1875 3.5625 C-5.445625 3.376875 -6.70375 3.19125 -8 3 C-8 2.67 -8 2.34 -8 2 C-6.865625 1.855625 -5.73125 1.71125 -4.5625 1.5625 C-1.19222799 1.38828522 -1.19222799 1.38828522 0 0 Z " fill="#403530" transform="translate(120,99)"/>
<path d="M0 0 C2.2477975 2.05233685 3.0022242 3.00667261 4 6 C2.02 6.33 0.04 6.66 -2 7 C-2.99 5.68 -3.98 4.36 -5 3 C-2.03 3.495 -2.03 3.495 1 4 C0.67 2.68 0.34 1.36 0 0 Z " fill="#483926" transform="translate(68,85)"/>
<path d="M0 0 C1.58468677 0.45363171 3.16769924 0.91311452 4.75 1.375 C5.63171875 1.63023438 6.5134375 1.88546875 7.421875 2.1484375 C9.76080572 2.9209934 11.83442562 3.83625676 14 5 C12.22825181 4.91276622 10.45752623 4.80458345 8.6875 4.6875 C7.70136719 4.62949219 6.71523438 4.57148437 5.69921875 4.51171875 C2.75227056 3.95303537 1.77915928 3.36209201 0 1 C0 0.67 0 0.34 0 0 Z " fill="#C8C7C6" transform="translate(19,77)"/>
<path d="M0 0 C0.33 0.99 0.66 1.98 1 3 C-2.63195496 5.42130331 -4.38349348 5.21022785 -8.6875 5.125 C-9.86699219 5.10695312 -11.04648438 5.08890625 -12.26171875 5.0703125 C-13.16535156 5.04710937 -14.06898438 5.02390625 -15 5 C-15 4.67 -15 4.34 -15 4 C-14.16855469 3.96261719 -13.33710938 3.92523438 -12.48046875 3.88671875 C-11.39378906 3.82097656 -10.30710938 3.75523437 -9.1875 3.6875 C-8.10855469 3.62949219 -7.02960938 3.57148438 -5.91796875 3.51171875 C-2.82502483 2.96931493 -1.86977097 2.44710376 0 0 Z " fill="#E2E1E1" transform="translate(203,169)"/>
<path d="M0 0 C3.66666667 0 7.33333333 0 11 0 C11.33 0.99 11.66 1.98 12 3 C7.45194365 3.17835515 4.1205746 2.99785435 0 1 C0 0.67 0 0.34 0 0 Z " fill="#453729" transform="translate(12,168)"/>
<path d="M0 0 C2.31 1.98 4.62 3.96 7 6 C6.67 6.66 6.34 7.32 6 8 C5.34 8 4.68 8 4 8 C2.2856382 6.04072937 0.61594832 4.04119788 -1 2 C-0.67 1.34 -0.34 0.68 0 0 Z " fill="#3C332E" transform="translate(181,27)"/>
<path d="M0 0 C-2.36689329 2.19219402 -3.51727269 2.9871902 -6.796875 3.07421875 C-7.77140625 2.94660156 -8.7459375 2.81898437 -9.75 2.6875 C-10.73484375 2.56761719 -11.7196875 2.44773437 -12.734375 2.32421875 C-13.48203125 2.21722656 -14.2296875 2.11023438 -15 2 C-15 1.67 -15 1.34 -15 1 C-9.94997778 -0.03590199 -5.12583611 -0.10251672 0 0 Z " fill="#5E554E" transform="translate(153,21)"/>
<path d="M0 0 C0.66 0.99 1.32 1.98 2 3 C2.66 3.66 3.32 4.32 4 5 C4 5.99 4 6.98 4 8 C3.01 8 2.02 8 1 8 C1 7.34 1 6.68 1 6 C0.01 5.67 -0.98 5.34 -2 5 C-1.34 3.35 -0.68 1.7 0 0 Z " fill="#453626" transform="translate(76,61)"/>
<path d="M0 0 C0.33 0 0.66 0 1 0 C1.226875 0.9075 1.45375 1.815 1.6875 2.75 C3.18127977 6.44888324 4.75400577 7.77905658 8 10 C5.125 9.6875 5.125 9.6875 2 9 C-0.29013653 5.5647952 -0.17842973 4.014669 0 0 Z " fill="#E2E1E0" transform="translate(7,163)"/>
<path d="M0 0 C0.185625 0.61875 0.37125 1.2375 0.5625 1.875 C2.71437233 5.05602866 5.37533763 5.19451947 9 6 C6 8 6 8 3.375 7.6875 C1 7 1 7 0 6 C-0.04080783 4.00041636 -0.04254356 1.99954746 0 0 Z " fill="#E0DEDE" transform="translate(137,106)"/>
<path d="M0 0 C2.00720923 0.28674418 4.0085944 0.61866701 6 1 C5.01 2.485 5.01 2.485 4 4 C1.03 3.67 -1.94 3.34 -5 3 C-3.68 2.34 -2.36 1.68 -1 1 C-0.67 0.67 -0.34 0.34 0 0 Z " fill="#453828" transform="translate(162,158)"/>
<path d="M0 0 C2.97 0.33 5.94 0.66 9 1 C9 1.66 9 2.32 9 3 C2.84765625 2.4140625 2.84765625 2.4140625 1 2 C0.67 1.34 0.34 0.68 0 0 Z " fill="#3A2F2A" transform="translate(43,95)"/>
<path d="M0 0 C2.46800047 1.15173355 4.04783565 2.04783565 6 4 C6.125 7.125 6.125 7.125 6 10 C5.67 10 5.34 10 5 10 C5 8.35 5 6.7 5 5 C4.360625 4.731875 3.72125 4.46375 3.0625 4.1875 C1 3 1 3 0 0 Z " fill="#4B403C" transform="translate(145,85)"/>
<path d="M0 0 C2.91517292 1.07401108 4.77810176 1.77810176 7 4 C5.02 4.33 3.04 4.66 1 5 C0.67 3.35 0.34 1.7 0 0 Z " fill="#3F352C" transform="translate(54,32)"/>
<path d="M0 0 C0.99 0.33 1.98 0.66 3 1 C3 1.66 3 2.32 3 3 C4.32 3.66 5.64 4.32 7 5 C7 5.66 7 6.32 7 7 C4.13302508 5.71480435 2.02392288 4.42870746 0 2 C0 1.34 0 0.68 0 0 Z " fill="#E3E2E2" transform="translate(181,25)"/>
<path d="M0 0 C0.99 0.33 1.98 0.66 3 1 C2.67 1.99 2.34 2.98 2 4 C1.34 4 0.68 4 0 4 C0 3.34 0 2.68 0 2 C-0.66 1.67 -1.32 1.34 -2 1 C-1.34 0.67 -0.68 0.34 0 0 Z M-1 4 C-0.67 4.66 -0.34 5.32 0 6 C-1.32 6.33 -2.64 6.66 -4 7 C-4 6.34 -4 5.68 -4 5 C-3.01 4.67 -2.02 4.34 -1 4 Z " fill="#4C3924" transform="translate(152,143)"/>
<path d="M0 0 C3 1 3 1 5 4 C4.625 6.1875 4.625 6.1875 4 8 C3.34 6.35 2.68 4.7 2 3 C1.34 3 0.68 3 0 3 C0 2.01 0 1.02 0 0 Z " fill="#342C22" transform="translate(188,36)"/>
</svg>
