<?xml version="1.0" encoding="UTF-8"?>
<svg version="1.1" xmlns="http://www.w3.org/2000/svg" width="220" height="220">
<path d="M0 0 C1.13115234 0.21849609 1.13115234 0.21849609 2.28515625 0.44140625 C2.85105469 0.62574219 3.41695313 0.81007813 4 1 C5.24448777 3.48897553 5.12582965 5.14932808 5.12698364 7.93457031 C5.13121338 9.49939148 5.13121338 9.49939148 5.13552856 11.0958252 C5.13249222 12.8195636 5.13249222 12.8195636 5.12939453 14.578125 C5.13202301 16.38790833 5.13202301 16.38790833 5.13470459 18.23425293 C5.13835898 21.54823457 5.13749208 24.86215401 5.1343255 28.1761322 C5.1317985 31.63988327 5.1341404 35.10363164 5.13571167 38.56738281 C5.13753237 44.38477049 5.13512967 50.20214549 5.13037109 56.01953125 C5.12492866 62.75078472 5.12669139 69.48200791 5.1321975 76.21326065 C5.13673147 81.98653549 5.13737778 87.7598012 5.13475883 93.53307724 C5.13319762 96.98384854 5.13299804 100.43460559 5.13629532 103.88537598 C5.13971294 107.73088768 5.13497964 111.5763653 5.12939453 115.421875 C5.13141876 116.57103394 5.13344299 117.72019287 5.13552856 118.9041748 C5.13270874 119.94738892 5.12988892 120.99060303 5.12698364 122.06542969 C5.1264181 123.43039581 5.1264181 123.43039581 5.12584114 124.82293701 C5 127 5 127 4 129 C-2.28263546 129.22572343 -8.39308031 129.00915108 -14.62548828 128.23291016 C-25.55669909 126.87297132 -36.0396729 126.99733578 -47 128 C-48.73443359 128.15275391 -48.73443359 128.15275391 -50.50390625 128.30859375 C-57.22810716 129.15898161 -62.56013716 131.43173453 -68.50390625 134.66015625 C-71 136 -71 136 -74 137 C-74.66 136.67 -75.32 136.34 -76 136 C-76.11682287 120.04920694 -76.20498274 104.09855272 -76.25906086 88.14743519 C-76.28483818 80.74096688 -76.31997918 73.33476445 -76.37719727 65.9284668 C-76.4270473 59.47280804 -76.45929446 53.01734184 -76.47044247 46.56149596 C-76.47695873 43.14333775 -76.49226241 39.72573038 -76.52865028 36.30774879 C-76.5648578 32.49104547 -76.56994848 28.67548954 -76.56762695 24.85864258 C-76.58560333 23.72647812 -76.60357971 22.59431366 -76.62210083 21.42784119 C-76.5715407 13.76425903 -76.5715407 13.76425903 -73.67546082 9.89164734 C-52.9795606 -4.74110091 -24.12892536 -5.15704021 0 0 Z " fill="#473521" transform="translate(189,26)"/>
<path d="M0 0 C3.08977968 3.00824427 3.02685252 4.47024147 3.0847168 8.73291016 C3.09992874 9.39374603 3.11514069 10.05458191 3.1308136 10.73544312 C3.17534094 12.99144173 3.18300502 15.24603452 3.19018555 17.50244141 C3.2125409 19.13324169 3.23652508 20.76402028 3.26196289 22.39477539 C3.32671573 27.21962055 3.35056336 32.04403205 3.36590576 36.8692627 C3.37643043 39.94780918 3.39133018 43.02630338 3.4081316 46.10482121 C3.45457085 54.64425706 3.48359143 63.18366165 3.49883652 71.72320938 C3.50138698 73.15065687 3.50419395 74.57810393 3.507267 76.00555038 C3.54199897 92.79968818 3.40803996 109.5464514 2.37768555 126.31494141 C1.12850342 126.17999268 -0.12067871 126.04504395 -1.40771484 125.90600586 C-2.46171227 125.79214287 -2.46171227 125.79214287 -3.53700256 125.67597961 C-6.77621243 125.11516253 -9.61465639 123.61617353 -12.62231445 122.31494141 C-15.6178228 121.56693409 -18.63206618 121.07980376 -21.68481445 120.62744141 C-22.52189941 120.50151611 -23.35898438 120.37559082 -24.22143555 120.24584961 C-35.65332407 118.63130578 -46.46751481 119.21077527 -57.83325195 120.87744141 C-62.19211592 121.39706191 -66.53895103 121.36450639 -70.92163086 121.34228516 C-71.66314896 121.34031128 -72.40466705 121.3383374 -73.1686554 121.33630371 C-74.98654847 121.33117953 -76.80443353 121.32333385 -78.62231445 121.31494141 C-78.71497166 95.03183489 -78.45793341 68.75534506 -78.15875244 42.47418213 C-78.09708841 37.02202812 -78.03753942 31.56985098 -77.9777832 26.11767578 C-77.86129915 15.51674142 -77.74257316 4.91583357 -77.62231445 -5.68505859 C-55.11290742 -13.43171307 -20.55696592 -13.20958745 0 0 Z " fill="#42301D" transform="translate(103.622314453125,33.68505859375)"/>
<path d="M0 0 C1.23771218 2.47542436 1.12309772 4.10282236 1.12025452 6.87210083 C1.12162918 7.90137695 1.12300385 8.93065308 1.12442017 9.99111938 C1.12082489 11.12471893 1.11722961 12.25831848 1.11352539 13.42626953 C1.11367142 14.61649719 1.11381744 15.80672485 1.1139679 17.03302002 C1.11338958 20.3014094 1.10836573 23.56975627 1.10139394 26.83813715 C1.09515317 30.25210543 1.09455603 33.6660745 1.09336853 37.08004761 C1.09025735 43.54694473 1.08204683 50.01382499 1.07201904 56.48071468 C1.06085129 63.84216642 1.05534578 71.20361896 1.05032361 78.56507707 C1.03986405 93.71006078 1.02226873 108.85502871 1 124 C1.74249056 123.88179429 2.48498112 123.76358858 3.24997139 123.64180088 C6.65316888 123.10233205 10.0572758 122.56882439 13.46142578 122.03540039 C14.6293013 121.84936501 15.79717682 121.66332962 17.0004425 121.4716568 C25.68363024 120.11722917 34.07427025 119.32829343 42.875 119.4375 C44.81669067 119.45176025 44.81669067 119.45176025 46.79760742 119.46630859 C60.38593836 119.75874888 74.71577141 121.32719778 85.83203125 129.86328125 C89.09080564 131.57193593 91.35786729 131.39918991 95 131 C97.8278439 129.95172631 100.42297051 128.57661565 103.0625 127.125 C121.5027732 117.25064368 142.93177725 118.31340351 163.07421875 122.265625 C168.36138977 123.25466794 173.63526249 123.6949463 179 124 C179.96566093 121.1030172 180.12683414 119.27381088 180.13130188 116.26234436 C180.13531006 115.28795914 180.13931824 114.31357391 180.14344788 113.30966187 C180.14291916 112.2420462 180.14239044 111.17443054 180.1418457 110.07446289 C180.14532013 108.9490358 180.14879456 107.8236087 180.15237427 106.66407776 C180.15973356 104.21683816 180.16507802 101.76959187 180.16866493 99.32234383 C180.1758191 95.45218074 180.19147688 91.58214528 180.21000671 87.71202087 C180.26253336 76.70720227 180.31091566 65.70245189 180.32592773 54.69750977 C180.33519896 47.97011535 180.3652623 41.24308803 180.40724754 34.5158062 C180.4195881 31.94854596 180.42467327 29.38124043 180.42244911 26.81395149 C180.42010596 23.22726071 180.44218836 19.64149742 180.4699707 16.05493164 C180.46336929 14.98934021 180.45676788 13.92374878 180.44996643 12.8258667 C180.54112971 5.68055836 180.54112971 5.68055836 182.81437683 2.30906677 C185 1 185 1 188.5 1 C192.30431968 2.08694848 193.74231758 2.78714425 196 6 C196.81433437 9.85275016 197.1288549 13.54046085 197.14717102 17.47132874 C197.15790398 19.06313713 197.15790398 19.06313713 197.16885376 20.68710327 C197.17154266 21.83586945 197.17423157 22.98463562 197.17700195 24.16821289 C197.18357315 25.39000748 197.19014435 26.61180206 197.19691467 27.87062073 C197.21659125 31.90463512 197.22829992 35.93860994 197.23828125 39.97265625 C197.24233182 41.36493893 197.24644883 42.75722142 197.25063133 44.14950371 C197.2696505 50.68646791 197.28389351 57.223421 197.2922433 63.76040751 C197.30203156 71.29766684 197.32840577 78.83463375 197.36874419 86.37178999 C197.3988969 92.20633825 197.41371098 98.04080253 197.41702431 103.87542719 C197.41937392 107.35710226 197.42832368 110.83846372 197.45348549 114.32005501 C197.48108222 118.20052633 197.47693767 122.08061083 197.4699707 125.96118164 C197.48918579 127.68736725 197.48918579 127.68736725 197.50878906 129.44842529 C197.45807189 137.17880322 197.45807189 137.17880322 195.22062683 141.18992615 C190.96260823 144.66071557 187.09268837 144.10502036 181.7121582 144.03417969 C180.98475937 144.02629425 180.25736053 144.01840881 179.50791931 144.01028442 C177.93101603 143.9931128 176.35413387 143.97390858 174.77727699 143.95290375 C171.41544094 143.91078231 168.05355727 143.88735219 164.69155407 143.86287308 C158.43743751 143.8172126 152.18362769 143.76443137 145.92993164 143.67773438 C141.57459916 143.61807704 137.21966643 143.58329873 132.86397362 143.56455231 C131.21062508 143.55286484 129.55731317 143.53213928 127.9041996 143.50191498 C118.85755172 143.34076278 111.52817802 143.32426393 104 149 C97.15213836 152.94637171 90.7476955 152.77730424 83 152 C78.84158147 150.63394947 75.9919257 148.14152198 73 145 C69.34676997 143.78225666 65.96905397 143.83169725 62.16381836 143.81054688 C61.36680008 143.80225357 60.5697818 143.79396027 59.74861145 143.78541565 C58.018386 143.76802211 56.28813709 143.75285339 54.55787468 143.73963928 C51.82242043 143.71861609 49.08708435 143.6915942 46.35169983 143.66296387 C39.55937567 143.59312098 32.76696745 143.53368385 25.97454834 143.47393799 C20.23360232 143.42305548 14.49272033 143.36824957 8.75186348 143.30812073 C6.05187492 143.28149194 3.35188055 143.26071206 0.65184021 143.2401123 C-0.99651375 143.22351408 -2.64486499 143.20664266 -4.29321289 143.18945312 C-5.04806976 143.18526871 -5.80292664 143.18108429 -6.58065796 143.17677307 C-11.77230789 143.11384605 -11.77230789 143.11384605 -14 142 C-14 96.46 -14 50.92 -14 4 C-6.125 -0.5 -6.125 -0.5 0 0 Z " fill="#716558" transform="translate(19,39)"/>
<path d="M0 0 C0 40.26 0 80.52 0 122 C8.58 120.68 17.16 119.36 26 118 C31.55828133 117.69012216 36.84648049 117.47094866 42.375 117.5625 C44.26605469 117.55186523 44.26605469 117.55186523 46.1953125 117.54101562 C54.19639765 117.59496485 61.34396949 118.67556326 69 121 C69 121.66 69 122.32 69 123 C70.4540625 123.185625 70.4540625 123.185625 71.9375 123.375 C72.948125 123.58125 73.95875 123.7875 75 124 C75.33 124.66 75.66 125.32 76 126 C72.7 125.34 69.4 124.68 66 124 C65.67 125.65 65.34 127.3 65 129 C64.484375 129.495 63.96875 129.99 63.4375 130.5 C61.71343023 131.97875026 61.71343023 131.97875026 61.8125 134.6875 C61.874375 135.450625 61.93625 136.21375 62 137 C62.66 137 63.32 137 64 137 C64 137.66 64 138.32 64 139 C55.55675589 140.09042675 47.15835894 140.16353424 38.65625 140.16796875 C37.19559701 140.17118823 35.73494433 140.17455281 34.27429199 140.17805481 C31.23526255 140.18400088 28.1962614 140.18589893 25.15722656 140.18530273 C21.25878902 140.18520028 17.36053022 140.19895761 13.46213531 140.21607494 C10.45620888 140.22716277 7.45032651 140.2292231 4.44438171 140.22869301 C3.00582756 140.22987394 1.56727231 140.23430203 0.1287384 140.24202538 C-1.87183294 140.2517783 -3.87245746 140.24769521 -5.87304688 140.24291992 C-7.01092651 140.24434494 -8.14880615 140.24576996 -9.32116699 140.24723816 C-12 140 -12 140 -14 138 C-14.24609566 135.64555931 -14.24609566 135.64555931 -14.24050903 132.6343689 C-14.24325836 131.49570877 -14.24600769 130.35704865 -14.24884033 129.18388367 C-14.24164978 127.92872452 -14.23445923 126.67356537 -14.22705078 125.38037109 C-14.22734283 124.06334702 -14.22763489 122.74632294 -14.22793579 121.38938904 C-14.22851103 117.77180004 -14.21672924 114.15434292 -14.20278788 110.53678465 C-14.19030886 106.75846743 -14.18911226 102.98014739 -14.18673706 99.20181274 C-14.18051395 92.04428311 -14.16409193 84.88681437 -14.14403808 77.72931159 C-14.12170489 69.58190762 -14.11069215 61.43450079 -14.10064721 53.28707385 C-14.07972639 36.52468022 -14.04453433 19.76234787 -14 3 C-12.8033603 2.29234251 -11.59188424 1.60974879 -10.375 0.9375 C-9.70210937 0.55464844 -9.02921875 0.17179687 -8.3359375 -0.22265625 C-6 -1 -6 -1 0 0 Z " fill="#3D2B19" transform="translate(20,41)"/>
<path d="M0 0 C0.33 0 0.66 0 1 0 C1.495 3.465 1.495 3.465 2 7 C2.33 7 2.66 7 3 7 C3.33 22.18 3.66 37.36 4 53 C4.66 49.04 5.32 45.08 6 41 C7.32 40.67 8.64 40.34 10 40 C9.98952637 38.99098633 9.97905273 37.98197266 9.96826172 36.94238281 C9.93201503 33.19274453 9.90908257 29.4431217 9.89013672 25.69335938 C9.88008977 24.07158808 9.86644985 22.44983484 9.84912109 20.828125 C9.82481507 18.49474626 9.81350387 16.1616074 9.8046875 13.828125 C9.79436493 13.10506165 9.78404236 12.38199829 9.77340698 11.63702393 C9.77255958 7.82020192 10.15961548 5.31660044 12 2 C12.20056685 18.24599484 12.38388315 34.49207803 12.54658794 50.73849201 C12.6225358 58.28175247 12.70415674 65.82487232 12.79907227 73.36791992 C12.88177316 79.94139511 12.95389189 86.514886 13.01323253 93.08861512 C13.04503327 96.57033234 13.08218017 100.05180951 13.13199425 103.53331947 C13.18736541 107.4170576 13.21911337 111.30079057 13.2487793 115.18481445 C13.27898415 116.92189919 13.27898415 116.92189919 13.30979919 118.69407654 C13.31408936 119.74996979 13.31837952 120.80586304 13.32279968 121.89375305 C13.33293941 122.81278066 13.34307913 123.73180826 13.35352612 124.67868519 C13 127 13 127 11.69693756 128.79659271 C8.8245787 130.83356665 5.52314387 130.38895799 2.13208008 130.34057617 C1.33184921 130.34101425 0.53161835 130.34145233 -0.29286194 130.34190369 C-2.93897872 130.33981297 -5.5844626 130.31646894 -8.23046875 130.29296875 C-10.06463779 130.28737379 -11.89881132 130.28310322 -13.73298645 130.28010559 C-18.56147633 130.26864891 -23.38969566 130.23917465 -28.21807861 130.20599365 C-33.14469747 130.17531051 -38.07136002 130.16160401 -42.99804688 130.14648438 C-52.66548348 130.11430574 -62.33271925 130.06309943 -72 130 C-72.33 129.34 -72.66 128.68 -73 128 C-66.565 127.505 -66.565 127.505 -60 127 C-60.33 125.35 -60.66 123.7 -61 122 C-61 122.66 -61 123.32 -61 124 C-61.66 124 -62.32 124 -63 124 C-62.67 122.68 -62.34 121.36 -62 120 C-62.804375 120.495 -62.804375 120.495 -63.625 121 C-66.5391061 122.22699204 -68.86867708 122.14233286 -72 122 C-71.67 120.35 -71.34 118.7 -71 117 C-71.67546875 117.20496094 -72.3509375 117.40992188 -73.046875 117.62109375 C-73.93890625 117.89050781 -74.8309375 118.15992188 -75.75 118.4375 C-76.63171875 118.70433594 -77.5134375 118.97117187 -78.421875 119.24609375 C-80.60565835 119.88468494 -82.78835498 120.46775833 -85 121 C-82.07284059 117.75376635 -79.37089537 115.99483841 -75.375 114.25 C-74.41335937 113.82203125 -73.45171875 113.3940625 -72.4609375 112.953125 C-70 112 -70 112 -68 112 C-68 111.34 -68 110.68 -68 110 C-60.61238766 108.21540946 -53.58805774 107.649769 -46 107.6875 C-44.91726807 107.68878906 -43.83453613 107.69007813 -42.71899414 107.69140625 C-33.25918684 107.80308405 -24.2344223 109.01866801 -15 111 C-15 111.66 -15 112.32 -15 113 C-12.85423363 113.02685938 -10.70837355 113.04633088 -8.5625 113.0625 C-7.36753906 113.07410156 -6.17257813 113.08570313 -4.94140625 113.09765625 C-2.11126659 113.33901792 -2.11126659 113.33901792 -1 112 C-0.89228095 110.5456272 -0.85318741 109.08610424 -0.84178162 107.62779236 C-0.8319928 106.68403244 -0.82220398 105.74027252 -0.81211853 104.76791382 C-0.80636307 103.72422638 -0.8006076 102.68053894 -0.79467773 101.60522461 C-0.78477814 100.51267868 -0.77487854 99.42013275 -0.76467896 98.29447937 C-0.7329555 94.66378994 -0.70826382 91.03308741 -0.68359375 87.40234375 C-0.66303358 84.89270171 -0.64203737 82.38306322 -0.62062073 79.87342834 C-0.5709649 73.93068679 -0.52572477 67.98792189 -0.48259836 62.04513031 C-0.42843131 54.61794064 -0.36745412 47.19080958 -0.30664062 39.76367188 C-0.1989408 26.50915442 -0.09733302 13.25459743 0 0 Z " fill="#423324" transform="translate(201,51)"/>
<path d="M0 0 C0.76610596 0.11754639 1.53221191 0.23509277 2.3215332 0.35620117 C7.13134867 1.19081268 11.2082659 2.60732312 15.625 4.6875 C11.01109476 6.22546841 6.79643477 4.38085369 2.22460938 3.15820312 C1.49693359 2.97322266 0.76925781 2.78824219 0.01953125 2.59765625 C-0.63168701 2.42371338 -1.28290527 2.24977051 -1.95385742 2.07055664 C-5.38721227 1.52735469 -8.89893989 1.6875 -12.375 1.6875 C-7.095 2.3475 -1.815 3.0075 3.625 3.6875 C3.625 4.3475 3.625 5.0075 3.625 5.6875 C4.615 5.6875 5.605 5.6875 6.625 5.6875 C6.625 7.0075 6.625 8.3275 6.625 9.6875 C9.595 10.6775 9.595 10.6775 12.625 11.6875 C12.295 13.3375 11.965 14.9875 11.625 16.6875 C12.285 17.0175 12.945 17.3475 13.625 17.6875 C12.14 18.1825 12.14 18.1825 10.625 18.6875 C9.965 18.3575 9.305 18.0275 8.625 17.6875 C8.625 18.3475 8.625 19.0075 8.625 19.6875 C7.33266393 21.06060707 6.00062854 22.39784824 4.625 23.6875 C5.615 24.0175 6.605 24.3475 7.625 24.6875 C7.295 26.9975 6.965 29.3075 6.625 31.6875 C5.965 31.6875 5.305 31.6875 4.625 31.6875 C4.295 33.0075 3.965 34.3275 3.625 35.6875 C4.615 36.0175 5.605 36.3475 6.625 36.6875 C6.625 37.3475 6.625 38.0075 6.625 38.6875 C4.645 39.3475 2.665 40.0075 0.625 40.6875 C0.295 40.0275 -0.035 39.3675 -0.375 38.6875 C-0.045 38.3575 0.285 38.0275 0.625 37.6875 C-2.72933109 38.63683899 -6.06746505 39.58498835 -9.375 40.6875 C-9.375 41.3475 -9.375 42.0075 -9.375 42.6875 C-12.75 42.875 -12.75 42.875 -16.375 42.6875 C-18.375 39.6875 -18.375 39.6875 -18 37 C-17.79375 36.236875 -17.5875 35.47375 -17.375 34.6875 C-19.355 35.1825 -19.355 35.1825 -21.375 35.6875 C-21.375 35.0275 -21.375 34.3675 -21.375 33.6875 C-20.715 33.6875 -20.055 33.6875 -19.375 33.6875 C-20.035 31.7075 -20.695 29.7275 -21.375 27.6875 C-22.5196875 27.935 -22.5196875 27.935 -23.6875 28.1875 C-26.375 28.6875 -26.375 28.6875 -29.375 28.6875 C-29.705 27.6975 -30.035 26.7075 -30.375 25.6875 C-29.715 24.6975 -29.055 23.7075 -28.375 22.6875 C-27.385 22.6875 -26.395 22.6875 -25.375 22.6875 C-25.375 22.0275 -25.375 21.3675 -25.375 20.6875 C-30.02552872 20.41817479 -30.02552872 20.41817479 -34.375 21.6875 C-36.5 20.75 -36.5 20.75 -38.375 19.6875 C-38.705 20.3475 -39.035 21.0075 -39.375 21.6875 C-37.725 22.0175 -36.075 22.3475 -34.375 22.6875 C-33.8215236 24.76303648 -33.375 26.53115964 -33.375 28.6875 C-33.16875 29.285625 -32.9625 29.88375 -32.75 30.5 C-32.22340314 33.57181505 -32.767229 35.0311827 -34.375 37.6875 C-35.344375 37.97625 -36.31375 38.265 -37.3125 38.5625 C-38.323125 38.93375 -39.33375 39.305 -40.375 39.6875 C-41.39465427 42.01231174 -42.39559602 44.34544699 -43.375 46.6875 C-46.0625 47.625 -46.0625 47.625 -48.375 47.6875 C-47.88 44.7175 -47.88 44.7175 -47.375 41.6875 C-48.035 41.6875 -48.695 41.6875 -49.375 41.6875 C-49.36976318 40.57189697 -49.36452637 39.45629395 -49.35913086 38.30688477 C-49.34108225 34.18270667 -49.32956851 30.05853209 -49.32006836 25.93432617 C-49.31502782 24.14655979 -49.30819546 22.35879755 -49.29956055 20.57104492 C-49.2874827 18.00698832 -49.28176906 15.44298603 -49.27734375 12.87890625 C-49.27218246 12.0747377 -49.26702118 11.27056915 -49.26170349 10.44203186 C-49.26150785 8.52348285 -49.31298017 6.60504632 -49.375 4.6875 C-49.705 4.3575 -50.035 4.0275 -50.375 3.6875 C-50.375 37.6775 -50.375 71.6675 -50.375 106.6875 C-49.715 106.6875 -49.055 106.6875 -48.375 106.6875 C-48.27168969 114.11436315 -48.37637301 121.32262596 -49.375 128.6875 C-43.765 128.3575 -38.155 128.0275 -32.375 127.6875 C-32.375 128.0175 -32.375 128.3475 -32.375 128.6875 C-37.23229645 129.66049156 -41.8250625 129.80788805 -46.75 129.75 C-47.48605469 129.74548828 -48.22210938 129.74097656 -48.98046875 129.73632812 C-50.77868158 129.72465142 -52.57685197 129.70672011 -54.375 129.6875 C-54.4676572 103.40439349 -54.21061896 77.12790365 -53.91143799 50.84674072 C-53.84977396 45.39458671 -53.79022497 39.94240957 -53.73046875 34.49023438 C-53.61398469 23.88930002 -53.49525871 13.28839217 -53.375 2.6875 C-36.70960621 -3.0479264 -17.25586018 -2.65540115 0 0 Z M-33.375 24.6875 C-31.375 25.6875 -31.375 25.6875 -31.375 25.6875 Z " fill="#473522" transform="translate(79.375,25.3125)"/>
<path d="M0 0 C0.33 0 0.66 0 1 0 C1 40.26 1 80.52 1 122 C9.58 120.68 18.16 119.36 27 118 C32.55828133 117.69012216 37.84648049 117.47094866 43.375 117.5625 C45.26605469 117.55186523 45.26605469 117.55186523 47.1953125 117.54101562 C55.19639765 117.59496485 62.34396949 118.67556326 70 121 C70 121.66 70 122.32 70 123 C71.4540625 123.185625 71.4540625 123.185625 72.9375 123.375 C73.948125 123.58125 74.95875 123.7875 76 124 C76.33 124.66 76.66 125.32 77 126 C73.7 125.34 70.4 124.68 67 124 C66.67 125.65 66.34 127.3 66 129 C65.484375 129.495 64.96875 129.99 64.4375 130.5 C62.71343023 131.97875026 62.71343023 131.97875026 62.8125 134.6875 C62.874375 135.450625 62.93625 136.21375 63 137 C63.66 137 64.32 137 65 137 C65 137.66 65 138.32 65 139 C51.8 139 38.6 139 25 139 C25 138.01 25 137.02 25 136 C23.02 136.33 21.04 136.66 19 137 C18.67 136.01 18.34 135.02 18 134 C19.3125 132.5 19.3125 132.5 21 131 C21.99 131 22.98 131 24 131 C24 130.34 24 129.68 24 129 C24.66 129 25.32 129 26 129 C26 128.34 26 127.68 26 127 C24.68 127 23.36 127 22 127 C22 127.99 22 128.98 22 130 C21.34 130 20.68 130 20 130 C18.875 126.25 18.875 126.25 20 124 C18.35 124 16.7 124 15 124 C15 123.67 15 123.34 15 123 C17.64 123 20.28 123 23 123 C23.33 123.99 23.66 124.98 24 126 C24.99 126 25.98 126 27 126 C27 124.35 27 122.7 27 121 C35.91 120.67 44.82 120.34 54 120 C36.90094023 119.53786325 20.86140559 121.21262321 4 124 C6.97 124 9.94 124 13 124 C11.515 124.495 11.515 124.495 10 125 C10 126.32 10 127.64 10 129 C10.66 129 11.32 129 12 129 C11.125 133.875 11.125 133.875 10 135 C9.01 135.33 8.02 135.66 7 136 C7 136.66 7 137.32 7 138 C7.58007812 137.91621094 8.16015625 137.83242187 8.7578125 137.74609375 C13.42315303 137.13790579 17.35442117 136.92794335 22 138 C22 138.33 22 138.66 22 139 C17.43751341 139.02906612 12.8750507 139.04682113 8.3125 139.0625 C7.01892578 139.07087891 5.72535156 139.07925781 4.39257812 139.08789062 C3.14541016 139.09111328 1.89824219 139.09433594 0.61328125 139.09765625 C-0.53358154 139.10289307 -1.68044434 139.10812988 -2.86206055 139.11352539 C-6 139 -6 139 -11 138 C-11 94.44 -11 50.88 -11 6 C-10.67 6 -10.34 6 -10 6 C-9.67 43.29 -9.34 80.58 -9 119 C-6.525 118.505 -6.525 118.505 -4 118 C-4.33 115.69 -4.66 113.38 -5 111 C-4.01 111 -3.02 111 -2 111 C-2 114.63 -2 118.26 -2 122 C-1.34 122 -0.68 122 0 122 C0 81.74 0 41.48 0 0 Z " fill="#412E1A" transform="translate(19,41)"/>
<path d="M0 0 C3.80431968 1.08694848 5.24231758 1.78714425 7.5 5 C8.31433437 8.85275016 8.6288549 12.54046085 8.64717102 16.47132874 C8.65432632 17.53253433 8.66148163 18.59373993 8.66885376 19.68710327 C8.67154266 20.83586945 8.67423157 21.98463562 8.67700195 23.16821289 C8.68357315 24.39000748 8.69014435 25.61180206 8.69691467 26.87062073 C8.71659125 30.90463512 8.72829992 34.93860994 8.73828125 38.97265625 C8.74233182 40.36493893 8.74644883 41.75722142 8.75063133 43.14950371 C8.7696505 49.68646791 8.78389351 56.223421 8.7922433 62.76040751 C8.80203156 70.29766684 8.82840577 77.83463375 8.86874419 85.37178999 C8.8988969 91.20633825 8.91371098 97.04080253 8.91702431 102.87542719 C8.91937392 106.35710226 8.92832368 109.83846372 8.95348549 113.32005501 C8.98108222 117.20052633 8.97693767 121.08061083 8.9699707 124.96118164 C8.98278076 126.11197205 8.99559082 127.26276245 9.00878906 128.44842529 C8.95807189 136.17880322 8.95807189 136.17880322 6.72062683 140.18992615 C2.49272581 143.63616619 -1.40257551 143.12261467 -6.74707031 143.11352539 C-7.8305928 143.11374443 -7.8305928 143.11374443 -8.93600464 143.1139679 C-11.31674228 143.11327284 -13.69740108 143.1054995 -16.078125 143.09765625 C-17.73150591 143.09579063 -19.38488738 143.0943674 -21.03826904 143.09336853 C-25.38494397 143.08955473 -29.73158537 143.07973415 -34.07824707 143.06866455 C-38.51570177 143.05842599 -42.95316189 143.05386567 -47.390625 143.04882812 C-56.09376537 143.03811086 -64.79687851 143.02104809 -73.5 143 C-73.5 142.67 -73.5 142.34 -73.5 142 C-72.5965535 141.99191315 -71.69310699 141.98382629 -70.76228333 141.97549438 C-62.24307103 141.89751425 -53.72401602 141.81021311 -45.2050066 141.71247292 C-40.82542392 141.6625531 -36.44586485 141.61622269 -32.06616211 141.578125 C-27.83854209 141.54121766 -23.61112172 141.49484294 -19.38367271 141.44193649 C-17.7718017 141.42342149 -16.15988793 141.40830285 -14.54795265 141.39665604 C-12.28802729 141.37974388 -10.02855627 141.35069749 -7.76879883 141.31884766 C-6.48306473 141.30552399 -5.19733063 141.29220032 -3.87263489 141.2784729 C-0.60735248 141.00886392 1.64037465 140.58372945 4.5 139 C5.45493512 136.13519465 5.61272854 134.42921481 5.58229065 131.46321106 C5.57173141 130.06868965 5.57173141 130.06868965 5.56095886 128.64599609 C5.54801285 127.62820068 5.53506683 126.61040527 5.52172852 125.56176758 C5.51212097 124.48843674 5.50251343 123.4151059 5.49261475 122.30924988 C5.45957998 118.75427787 5.41926453 115.19942704 5.37890625 111.64453125 C5.35460952 109.18259613 5.33076574 106.7206565 5.30735779 104.25871277 C5.24447243 97.77315136 5.17541831 91.2876696 5.10510254 84.80218506 C5.03445933 78.1865197 4.96961835 71.57079779 4.90429688 64.95507812 C4.77522713 51.96999024 4.63984087 38.98497612 4.5 26 C4.50580078 27.01392822 4.51160156 28.02785645 4.51757812 29.07250977 C4.52227099 30.42464146 4.52682067 31.77677366 4.53125 33.12890625 C4.53543945 33.79458618 4.53962891 34.46026611 4.54394531 35.14611816 C4.55703018 40.48638146 4.19712376 45.70932859 3.5 51 C2.015 51.495 2.015 51.495 0.5 52 C0.31824219 53.28197266 0.31824219 53.28197266 0.1328125 54.58984375 C-0.03476563 55.69457031 -0.20234375 56.79929688 -0.375 57.9375 C-0.53742188 59.03964844 -0.69984375 60.14179687 -0.8671875 61.27734375 C-1.07601562 62.17582031 -1.28484375 63.07429688 -1.5 64 C-2.49 64.495 -2.49 64.495 -3.5 65 C-3.83 84.14 -4.16 103.28 -4.5 123 C-8.89594806 125.19797403 -10.49267976 125.10073202 -15.25 124.625 C-16.42046875 124.51414062 -17.5909375 124.40328125 -18.796875 124.2890625 C-19.68890625 124.19367188 -20.5809375 124.09828125 -21.5 124 C-21.5 123.67 -21.5 123.34 -21.5 123 C-17.54 123 -13.58 123 -9.5 123 C-8.53433907 120.1030172 -8.37316586 118.27381088 -8.36869812 115.26234436 C-8.36468994 114.28795914 -8.36068176 113.31357391 -8.35655212 112.30966187 C-8.35708084 111.2420462 -8.35760956 110.17443054 -8.3581543 109.07446289 C-8.35294266 107.38632225 -8.35294266 107.38632225 -8.34762573 105.66407776 C-8.34026644 103.21683816 -8.33492198 100.76959187 -8.33133507 98.32234383 C-8.3241809 94.45218074 -8.30852312 90.58214528 -8.28999329 86.71202087 C-8.23746664 75.70720227 -8.18908434 64.70245189 -8.17407227 53.69750977 C-8.16480104 46.97011535 -8.1347377 40.24308803 -8.09275246 33.5158062 C-8.0804119 30.94854596 -8.07532673 28.38124043 -8.07755089 25.81395149 C-8.07989404 22.22726071 -8.05781164 18.64149742 -8.0300293 15.05493164 C-8.03993141 13.45654449 -8.03993141 13.45654449 -8.05003357 11.8258667 C-7.95887029 4.68055836 -7.95887029 4.68055836 -5.68562317 1.30906677 C-3.5 0 -3.5 0 0 0 Z " fill="#645950" transform="translate(207.5,40)"/>
<path d="M0 0 C0.77527542 -0.0066568 1.55055084 -0.0133136 2.34931946 -0.02017212 C3.99595784 -0.03029335 5.64263719 -0.0349893 7.28930664 -0.03466797 C9.74765154 -0.03896953 12.2040908 -0.07508784 14.66210938 -0.11328125 C30.24106004 -0.22552606 44.56362995 2.24101714 58.11328125 10.3359375 C59.11328125 11.3359375 59.11328125 11.3359375 59.23632908 13.1768961 C59.23540729 13.98715213 59.23448549 14.79740816 59.23353577 15.63221741 C59.23559776 17.02261482 59.23559776 17.02261482 59.23770142 18.44110107 C59.2323085 19.97858002 59.2323085 19.97858002 59.22680664 21.54711914 C59.22695267 22.62015793 59.22709869 23.69319672 59.22724915 24.79875183 C59.22654949 28.36455266 59.21875463 31.93030199 59.2109375 35.49609375 C59.20907351 37.96089143 59.20764952 40.42568949 59.20664978 42.89048767 C59.20282312 49.39247655 59.19299157 55.89444325 59.1819458 62.39642334 C59.17119873 69.02534567 59.16715284 75.65427443 59.16210938 82.28320312 C59.15136944 95.30079074 59.13448222 108.31836294 59.11328125 121.3359375 C58.78328125 121.3359375 58.45328125 121.3359375 58.11328125 121.3359375 C58.11328125 96.2559375 58.11328125 71.1759375 58.11328125 45.3359375 C56.79328125 45.6659375 55.47328125 45.9959375 54.11328125 46.3359375 C53.61828125 47.3259375 53.61828125 47.3259375 53.11328125 48.3359375 C52.78328125 47.3459375 52.45328125 46.3559375 52.11328125 45.3359375 C49.14328125 45.8309375 49.14328125 45.8309375 46.11328125 46.3359375 C47.43328125 47.3259375 48.75328125 48.3159375 50.11328125 49.3359375 C49.45328125 49.3359375 48.79328125 49.3359375 48.11328125 49.3359375 C48.60828125 51.3159375 48.60828125 51.3159375 49.11328125 53.3359375 C48.12328125 53.6659375 47.13328125 53.9959375 46.11328125 54.3359375 C45.61828125 55.3259375 45.61828125 55.3259375 45.11328125 56.3359375 C45.11328125 55.6759375 45.11328125 55.0159375 45.11328125 54.3359375 C44.55640625 54.8515625 43.99953125 55.3671875 43.42578125 55.8984375 C41.11328125 57.3359375 41.11328125 57.3359375 38.36328125 57.0234375 C37.62078125 56.7965625 36.87828125 56.5696875 36.11328125 56.3359375 C36.11328125 56.9959375 36.11328125 57.6559375 36.11328125 58.3359375 C37.10328125 58.8309375 37.10328125 58.8309375 38.11328125 59.3359375 C36.99953125 59.4184375 35.88578125 59.5009375 34.73828125 59.5859375 C31.05574181 59.91467537 31.05574181 59.91467537 29.67578125 62.3984375 C29.39734375 63.3575 29.39734375 63.3575 29.11328125 64.3359375 C27.23828125 64.0859375 27.23828125 64.0859375 25.11328125 63.3359375 C23.86328125 61.2734375 23.86328125 61.2734375 23.11328125 59.3359375 C22.12328125 59.6659375 21.13328125 59.9959375 20.11328125 60.3359375 C20.11328125 59.6759375 20.11328125 59.0159375 20.11328125 58.3359375 C18.62828125 57.8409375 18.62828125 57.8409375 17.11328125 57.3359375 C17.48828125 55.3984375 17.48828125 55.3984375 18.11328125 53.3359375 C19.10328125 52.8409375 19.10328125 52.8409375 20.11328125 52.3359375 C21.24678659 50.31923923 21.24678659 50.31923923 22.11328125 48.3359375 C22.77328125 48.3359375 23.43328125 48.3359375 24.11328125 48.3359375 C24.11328125 48.9959375 24.11328125 49.6559375 24.11328125 50.3359375 C25.10328125 50.6659375 26.09328125 50.9959375 27.11328125 51.3359375 C26.12328125 52.3259375 25.13328125 53.3159375 24.11328125 54.3359375 C29.93993699 54.36060537 29.93993699 54.36060537 34.98828125 51.8359375 C36.4085061 48.67988227 36.66285271 45.79207994 36.90234375 42.359375 C37.11328125 40.3359375 37.11328125 40.3359375 38.11328125 38.3359375 C38.77328125 38.3359375 39.43328125 38.3359375 40.11328125 38.3359375 C40.11328125 37.6759375 40.11328125 37.0159375 40.11328125 36.3359375 C39.12328125 36.6659375 38.13328125 36.9959375 37.11328125 37.3359375 C36.78328125 36.3459375 36.45328125 35.3559375 36.11328125 34.3359375 C36.77328125 33.3459375 37.43328125 32.3559375 38.11328125 31.3359375 C38.77328125 31.3359375 39.43328125 31.3359375 40.11328125 31.3359375 C39.61828125 29.8509375 39.61828125 29.8509375 39.11328125 28.3359375 C39.77328125 28.3359375 40.43328125 28.3359375 41.11328125 28.3359375 C40.76541417 26.36057005 40.76541417 26.36057005 40.11328125 24.3359375 C39.45328125 24.0059375 38.79328125 23.6759375 38.11328125 23.3359375 C38.77328125 22.0159375 39.43328125 20.6959375 40.11328125 19.3359375 C40.77328125 19.3359375 41.43328125 19.3359375 42.11328125 19.3359375 C42.11328125 18.6759375 42.11328125 18.0159375 42.11328125 17.3359375 C43.10328125 17.0059375 44.09328125 16.6759375 45.11328125 16.3359375 C45.44328125 14.6859375 45.77328125 13.0359375 46.11328125 11.3359375 C45.18515625 11.119375 45.18515625 11.119375 44.23828125 10.8984375 C42.11328125 10.3359375 42.11328125 10.3359375 40.11328125 9.3359375 C40.11328125 8.0159375 40.11328125 6.6959375 40.11328125 5.3359375 C39.12328125 5.3359375 38.13328125 5.3359375 37.11328125 5.3359375 C37.11328125 4.6759375 37.11328125 4.0159375 37.11328125 3.3359375 C25.92822964 2.49630135 14.82728394 2.2072966 3.61328125 2.2734375 C2.09635568 2.27847334 0.57942845 2.28303249 -0.9375 2.28710938 C-4.58727515 2.29792514 -8.23698554 2.31506904 -11.88671875 2.3359375 C-8.12616267 -0.10693143 -4.33331768 0.01311535 0 0 Z M43.11328125 48.3359375 C44.10328125 49.8209375 44.10328125 49.8209375 45.11328125 51.3359375 C45.44328125 50.3459375 45.77328125 49.3559375 46.11328125 48.3359375 C45.12328125 48.3359375 44.13328125 48.3359375 43.11328125 48.3359375 Z " fill="#412E1A" transform="translate(45.88671875,25.6640625)"/>
<path d="M0 0 C0 36.96 0 73.92 0 112 C-0.33 112 -0.66 112 -1 112 C-1.33 82.96 -1.66 53.92 -2 24 C-6.63019987 24.4452998 -6.63019987 24.4452998 -8 26 C-9.66617115 26.04063832 -11.33388095 26.042721 -13 26 C-12.34 25.01 -11.68 24.02 -11 23 C-11.66 22.38125 -12.32 21.7625 -13 21.125 C-15 19 -15 19 -15 17 C-13.35 17 -11.7 17 -10 17 C-10 16.34 -10 15.68 -10 15 C-10.99 14.67 -11.98 14.34 -13 14 C-13.495 13.01 -13.495 13.01 -14 12 C-14.99 11.67 -15.98 11.34 -17 11 C-17.33 11.66 -17.66 12.32 -18 13 C-18 12.34 -18 11.68 -18 11 C-18.99 11 -19.98 11 -21 11 C-20.67 9.68 -20.34 8.36 -20 7 C-20 7.66 -20 8.32 -20 9 C-19.34 9 -18.68 9 -18 9 C-18.99 7.68 -19.98 6.36 -21 5 C-20.34 4.34 -19.68 3.68 -19 3 C-21.32357511 2.81509993 -21.32357511 2.81509993 -24 5 C-24.99 5 -25.98 5 -27 5 C-27.495 3.515 -27.495 3.515 -28 2 C-28 3.65 -28 5.3 -28 7 C-30.64 7.99 -33.28 8.98 -36 10 C-36 10.66 -36 11.32 -36 12 C-37.32 11.34 -38.64 10.68 -40 10 C-39.67 9.34 -39.34 8.68 -39 8 C-40.98 8 -42.96 8 -45 8 C-45.33 8.66 -45.66 9.32 -46 10 C-46 9.01 -46 8.02 -46 7 C-48.64 7.33 -51.28 7.66 -54 8 C-53.34 7.67 -52.68 7.34 -52 7 C-52 5.68 -52 4.36 -52 3 C-56.0845326 1.27748246 -59.36973696 2.92719437 -63.25 4.4375 C-64.22453125 4.80198242 -64.22453125 4.80198242 -65.21875 5.17382812 C-66.81616817 5.77285994 -68.40860594 6.38514321 -70 7 C-70 6.34 -70 5.68 -70 5 C-48.63063559 -5.23948711 -22.76323816 -5.69080954 0 0 Z " fill="#382717" transform="translate(192,28)"/>
<path d="M0 0 C0.33 0 0.66 0 1 0 C1 40.26 1 80.52 1 122 C9.58 120.68 18.16 119.36 27 118 C32.55828133 117.69012216 37.84648049 117.47094866 43.375 117.5625 C45.26605469 117.55186523 45.26605469 117.55186523 47.1953125 117.54101562 C55.19639765 117.59496485 62.34396949 118.67556326 70 121 C70 121.33 70 121.66 70 122 C67.66705225 122.04241723 65.33297433 122.04092937 63 122 C62.67 121.67 62.34 121.34 62 121 C42.54297005 117.94058013 23.25038306 120.81769882 4 124 C6.97 124 9.94 124 13 124 C11.515 124.495 11.515 124.495 10 125 C10 126.32 10 127.64 10 129 C10.66 129 11.32 129 12 129 C11.125 133.875 11.125 133.875 10 135 C9.01 135.33 8.02 135.66 7 136 C7 136.66 7 137.32 7 138 C7.58007812 137.91621094 8.16015625 137.83242187 8.7578125 137.74609375 C13.42315303 137.13790579 17.35442117 136.92794335 22 138 C22 138.33 22 138.66 22 139 C17.43751341 139.02906612 12.8750507 139.04682113 8.3125 139.0625 C7.01892578 139.07087891 5.72535156 139.07925781 4.39257812 139.08789062 C3.14541016 139.09111328 1.89824219 139.09433594 0.61328125 139.09765625 C-0.53358154 139.10289307 -1.68044434 139.10812988 -2.86206055 139.11352539 C-6 139 -6 139 -11 138 C-11 94.44 -11 50.88 -11 6 C-10.67 6 -10.34 6 -10 6 C-9.67 43.29 -9.34 80.58 -9 119 C-6.525 118.505 -6.525 118.505 -4 118 C-4.33 115.69 -4.66 113.38 -5 111 C-4.01 111 -3.02 111 -2 111 C-2 114.63 -2 118.26 -2 122 C-1.34 122 -0.68 122 0 122 C0 81.74 0 41.48 0 0 Z " fill="#463521" transform="translate(19,41)"/>
<path d="M0 0 C0 0.33 0 0.66 0 1 C-2.97 1.99 -5.94 2.98 -9 4 C-7.68 4.33 -6.36 4.66 -5 5 C-5 5.66 -5 6.32 -5 7 C-3.7018576 5.8509288 -3.7018576 5.8509288 -3 3 C0.465 2.505 0.465 2.505 4 2 C4 2.99 4 3.98 4 5 C4.66 5.33 5.32 5.66 6 6 C5.34 6 4.68 6 4 6 C4 6.99 4 7.98 4 9 C4.33 8.34 4.66 7.68 5 7 C6.32 7.66 7.64 8.32 9 9 C9 9.66 9 10.32 9 11 C8.34 11.33 7.68 11.66 7 12 C7.66 13.32 8.32 14.64 9 16 C9.66 15.67 10.32 15.34 11 15 C12.99960012 14.960008 15.00047242 14.95653201 17 15 C14.69 14.34 12.38 13.68 10 13 C10 11.68 10 10.36 10 9 C11.32 9 12.64 9 14 9 C13.34 8.34 12.68 7.68 12 7 C12.66 7 13.32 7 14 7 C14.66 5.02 15.32 3.04 16 1 C20.455 0.505 20.455 0.505 25 0 C25 0.66 25 1.32 25 2 C25.99 2.33 26.98 2.66 28 3 C28.5625 4.9375 28.5625 4.9375 29 7 C29.66 7.66 30.32 8.32 31 9 C29.68 9 28.36 9 27 9 C26.67 9.99 26.34 10.98 26 12 C25.01 12.66 24.02 13.32 23 14 C23 14.66 23 15.32 23 16 C25.41645782 16.16687448 25.41645782 16.16687448 28 16 C28.66 15.34 29.32 14.68 30 14 C30 14.99 30 15.98 30 17 C39.57 17 49.14 17 59 17 C59 17.33 59 17.66 59 18 C35.24 18 11.48 18 -13 18 C-13 17.67 -13 17.34 -13 17 C-6.565 16.505 -6.565 16.505 0 16 C-0.33 14.35 -0.66 12.7 -1 11 C-1 11.66 -1 12.32 -1 13 C-1.66 13 -2.32 13 -3 13 C-2.67 11.68 -2.34 10.36 -2 9 C-2.53625 9.33 -3.0725 9.66 -3.625 10 C-6.5391061 11.22699204 -8.86867708 11.14233286 -12 11 C-11.67 9.35 -11.34 7.7 -11 6 C-11.67546875 6.20496094 -12.3509375 6.40992188 -13.046875 6.62109375 C-14.38492188 7.02521484 -14.38492188 7.02521484 -15.75 7.4375 C-17.07257813 7.83775391 -17.07257813 7.83775391 -18.421875 8.24609375 C-20.60565835 8.88468494 -22.78835498 9.46775833 -25 10 C-18.7755952 3.05042182 -9.29805497 -1.09388882 0 0 Z " fill="#443422" transform="translate(141,162)"/>
<path d="M0 0 C0.33 0 0.66 0 1 0 C1 44.22 1 88.44 1 134 C6.94 134 12.88 134 19 134 C19 133.34 19 132.68 19 132 C19.66 131.67 20.32 131.34 21 131 C20.34 130.34 19.68 129.68 19 129 C20.32 129 21.64 129 23 129 C23.33 127.68 23.66 126.36 24 125 C23.34 125 22.68 125 22 125 C22 123.68 22 122.36 22 121 C19.03 121 16.06 121 13 121 C17.78128008 117.81247995 23.19187115 117.6723941 28.8125 116.875 C30.0595874 116.69759277 31.3066748 116.52018555 32.59155273 116.33740234 C40.59626588 115.2731005 48.48656478 114.62637008 56.5625 114.625 C57.93402222 114.62282471 57.93402222 114.62282471 59.33325195 114.62060547 C65.59115173 114.72743449 65.59115173 114.72743449 69 117 C59.1 117 49.2 117 39 117 C39 117.66 39 118.32 39 119 C39.99 119.495 39.99 119.495 41 120 C40.34 120 39.68 120 39 120 C39 120.66 39 121.32 39 122 C38.01 122 37.02 122 36 122 C35.67 121.34 35.34 120.68 35 120 C34.01 120 33.02 120 32 120 C32 121.98 32 123.96 32 126 C32.66 125.67 33.32 125.34 34 125 C34 124.01 34 123.02 34 122 C35.32 122.33 36.64 122.66 38 123 C38 123.66 38 124.32 38 125 C37.34 125 36.68 125 36 125 C36 125.66 36 126.32 36 127 C35.01 127 34.02 127 33 127 C32.67 127.99 32.34 128.98 32 130 C31.34 130 30.68 130 30 130 C30.495 130.99 30.495 130.99 31 132 C32.98 132 34.96 132 37 132 C37 132.99 37 133.98 37 135 C46.9 135 56.8 135 67 135 C67 135.33 67 135.66 67 136 C58.4119428 136.02312635 49.82389851 136.04091658 41.23581791 136.05181217 C37.248428 136.05704036 33.26105933 136.06413684 29.27368164 136.07543945 C25.42874886 136.08627061 21.58383655 136.09227732 17.73888969 136.09487724 C16.26881017 136.09673108 14.79873182 136.10035091 13.32866096 136.10573006 C11.27645533 136.11294355 9.22433533 136.11399081 7.17211914 136.11352539 C6.00185684 136.115746 4.83159454 136.11796661 3.62586975 136.12025452 C1 136 1 136 0 135 C-0.09629597 133.25373476 -0.12187539 131.50354095 -0.12025452 129.75462341 C-0.12162918 128.61733795 -0.12300385 127.48005249 -0.12442017 126.30830383 C-0.12082489 125.04954941 -0.11722961 123.79079498 -0.11352539 122.49389648 C-0.11367142 121.17701843 -0.11381744 119.86014038 -0.1139679 118.50335693 C-0.11425587 114.88161732 -0.10835924 111.25991054 -0.10139394 107.63817859 C-0.0951603 103.85718116 -0.09455659 100.07618305 -0.09336853 96.29518127 C-0.09025524 89.1305571 -0.08204189 81.9659481 -0.07201904 74.80133063 C-0.06085782 66.64668838 -0.05534743 58.49204543 -0.05032361 50.33739746 C-0.03985928 33.55825607 -0.02225989 16.77912997 0 0 Z " fill="#2C2015" transform="translate(7,45)"/>
<path d="M0 0 C0 12.21 0 24.42 0 37 C-0.66 36.01 -1.32 35.02 -2 34 C-2.99 34 -3.98 34 -5 34 C-8 31 -8 31 -9 5 C-9.33 48.56 -9.66 92.12 -10 137 C-10.33 137 -10.66 137 -11 137 C-11 92.45 -11 47.9 -11 2 C-4 0 -4 0 0 0 Z " fill="#433525" transform="translate(17,42)"/>
<path d="M0 0 C0.33 0 0.66 0 1 0 C2.0042434 5.80654227 2.13044613 11.42365793 2.09765625 17.30859375 C2.0962413 18.27531509 2.09482635 19.24203644 2.09336853 20.23805237 C2.08780221 23.30456732 2.07525599 26.37100738 2.0625 29.4375 C2.05748065 31.52538957 2.0529185 33.61328028 2.04882812 35.70117188 C2.03784382 40.8008098 2.02060255 45.90039223 2 51 C-4.875 49.125 -4.875 49.125 -6 48 C-6.0927833 46.61839885 -6.11747043 45.23211962 -6.11352539 43.84741211 C-6.11341209 42.52615578 -6.11341209 42.52615578 -6.11329651 41.1782074 C-6.10555458 39.74227989 -6.10555458 39.74227989 -6.09765625 38.27734375 C-6.0962413 37.30213272 -6.09482635 36.32692169 -6.09336853 35.32215881 C-6.08775133 32.19390857 -6.07519593 29.06572877 -6.0625 25.9375 C-6.05748722 23.82226666 -6.05292393 21.70703219 -6.04882812 19.59179688 C-6.03777631 14.39450704 -6.02102146 9.19725855 -6 4 C-4.35 3.67 -2.7 3.34 -1 3 C-0.67 2.01 -0.34 1.02 0 0 Z " fill="#422F1B" transform="translate(210,103)"/>
<path d="M0 0 C0.77527542 -0.0066568 1.55055084 -0.0133136 2.34931946 -0.02017212 C3.99595784 -0.03029335 5.64263719 -0.0349893 7.28930664 -0.03466797 C9.74765154 -0.03896953 12.2040908 -0.07508784 14.66210938 -0.11328125 C30.24106004 -0.22552606 44.56362995 2.24101714 58.11328125 10.3359375 C59.11328125 11.3359375 59.11328125 11.3359375 59.23632908 13.1768961 C59.23540729 13.98715213 59.23448549 14.79740816 59.23353577 15.63221741 C59.23559776 17.02261482 59.23559776 17.02261482 59.23770142 18.44110107 C59.2323085 19.97858002 59.2323085 19.97858002 59.22680664 21.54711914 C59.22695267 22.62015793 59.22709869 23.69319672 59.22724915 24.79875183 C59.22654949 28.36455266 59.21875463 31.93030199 59.2109375 35.49609375 C59.20907351 37.96089143 59.20764952 40.42568949 59.20664978 42.89048767 C59.20282312 49.39247655 59.19299157 55.89444325 59.1819458 62.39642334 C59.17119873 69.02534567 59.16715284 75.65427443 59.16210938 82.28320312 C59.15136944 95.30079074 59.13448222 108.31836294 59.11328125 121.3359375 C58.78328125 121.3359375 58.45328125 121.3359375 58.11328125 121.3359375 C58.10781281 119.46671883 58.10781281 119.46671883 58.10223389 117.55973816 C58.06533677 105.83174762 58.00762216 94.10402094 57.92937851 82.37623119 C57.88982289 76.34643125 57.85767409 70.31677912 57.84228516 64.28686523 C57.82717185 58.47063795 57.79282123 52.65481682 57.74497223 46.83876991 C57.73010335 44.61678911 57.7222371 42.39475034 57.7213974 40.17271996 C57.71904256 37.06677007 57.69208239 33.96195628 57.65917969 30.85620117 C57.66421005 29.93191315 57.66924042 29.00762512 57.67442322 28.05532837 C57.74113569 23.13543407 57.74113569 23.13543407 55.0791626 19.24092102 C54.10605133 18.79295418 54.10605133 18.79295418 53.11328125 18.3359375 C52.12328125 18.8309375 52.12328125 18.8309375 51.11328125 19.3359375 C50.45328125 19.0059375 49.79328125 18.6759375 49.11328125 18.3359375 C49.11328125 17.3459375 49.11328125 16.3559375 49.11328125 15.3359375 C47.79328125 15.6659375 46.47328125 15.9959375 45.11328125 16.3359375 C45.44328125 14.6859375 45.77328125 13.0359375 46.11328125 11.3359375 C45.18515625 11.119375 45.18515625 11.119375 44.23828125 10.8984375 C42.11328125 10.3359375 42.11328125 10.3359375 40.11328125 9.3359375 C40.11328125 8.0159375 40.11328125 6.6959375 40.11328125 5.3359375 C39.12328125 5.3359375 38.13328125 5.3359375 37.11328125 5.3359375 C37.11328125 4.6759375 37.11328125 4.0159375 37.11328125 3.3359375 C25.92822964 2.49630135 14.82728394 2.2072966 3.61328125 2.2734375 C2.09635568 2.27847334 0.57942845 2.28303249 -0.9375 2.28710938 C-4.58727515 2.29792514 -8.23698554 2.31506904 -11.88671875 2.3359375 C-8.12616267 -0.10693143 -4.33331768 0.01311535 0 0 Z " fill="#2A1B11" transform="translate(45.88671875,25.6640625)"/>
<path d="M0 0 C0.33 0 0.66 0 1 0 C1 40.26 1 80.52 1 122 C9.58 120.68 18.16 119.36 27 118 C32.55828133 117.69012216 37.84648049 117.47094866 43.375 117.5625 C45.26605469 117.55186523 45.26605469 117.55186523 47.1953125 117.54101562 C55.19639765 117.59496485 62.34396949 118.67556326 70 121 C70 121.33 70 121.66 70 122 C67.66705225 122.04241723 65.33297433 122.04092937 63 122 C62.67 121.67 62.34 121.34 62 121 C43.39196638 118.07407616 24.9877974 120.59755931 6.56176758 123.6328125 C4 124 4 124 1 124 C1 124.99 1 125.98 1 127 C0.34 127 -0.32 127 -1 127 C-1.495 128.485 -1.495 128.485 -2 130 C-3.65 130 -5.3 130 -7 130 C-7.185625 131.175625 -7.185625 131.175625 -7.375 132.375 C-8 135 -8 135 -10 137 C-10 131.39 -10 125.78 -10 120 C-7.03 119.01 -7.03 119.01 -4 118 C-4.33 115.69 -4.66 113.38 -5 111 C-4.01 111 -3.02 111 -2 111 C-2 114.63 -2 118.26 -2 122 C-1.34 122 -0.68 122 0 122 C0 81.74 0 41.48 0 0 Z " fill="#9C958D" transform="translate(19,41)"/>
<path d="M0 0 C-3.78245731 2.52163821 -7.76642206 3.94434942 -11.9921875 5.5859375 C-16.44067682 7.66615002 -16.44067682 7.66615002 -20 11 C-20.80580795 14.89753888 -20.74868684 18.77619483 -20.7512207 22.74511719 C-20.77145798 23.94539047 -20.79169525 25.14566376 -20.81254578 26.38230896 C-20.86314466 29.66928239 -20.89184396 32.95557351 -20.91082788 36.24285412 C-20.93584859 39.67974237 -20.98883961 43.11619654 -21.03886414 46.55279541 C-21.12931266 53.05845029 -21.1946039 59.56410476 -21.25086039 66.07013535 C-21.31613841 73.47784297 -21.40945756 80.88511425 -21.50513327 88.2924819 C-21.70129199 103.52805099 -21.86223333 118.76378427 -22 134 C-20.68 133.67 -19.36 133.34 -18 133 C-18.66 133.99 -19.32 134.98 -20 136 C-21.32 135.67 -22.64 135.34 -24 135 C-24.11682287 119.04920694 -24.20498274 103.09855272 -24.25906086 87.14743519 C-24.28483818 79.74096688 -24.31997918 72.33476445 -24.37719727 64.9284668 C-24.4270473 58.47280804 -24.45929446 52.01734184 -24.47044247 45.56149596 C-24.47695873 42.14333775 -24.49226241 38.72573038 -24.52865028 35.30774879 C-24.5648578 31.49104547 -24.56994848 27.67548954 -24.56762695 23.85864258 C-24.58560333 22.72647812 -24.60357971 21.59431366 -24.62210083 20.42784119 C-24.5715407 12.76425903 -24.5715407 12.76425903 -21.67546082 8.89164734 C-15.4815832 4.51235236 -7.88468269 -0.71678934 0 0 Z " fill="#D7D5D3" transform="translate(137,27)"/>
<path d="M0 0 C2.0625 0.4375 2.0625 0.4375 4 1 C3.01 1.495 3.01 1.495 2 2 C2 35.99 2 69.98 2 105 C2.66 105 3.32 105 4 105 C4.10331031 112.42686315 3.99862699 119.63512596 3 127 C11.415 126.505 11.415 126.505 20 126 C20 126.33 20 126.66 20 127 C15.14270355 127.97299156 10.5499375 128.12038805 5.625 128.0625 C4.88894531 128.05798828 4.15289062 128.05347656 3.39453125 128.04882812 C1.59631842 128.03715142 -0.20185197 128.01922011 -2 128 C-2.0777015 102.7994411 -1.8895765 77.60340389 -1.62768555 52.40429688 C-1.57161699 46.98309004 -1.52183218 41.56184263 -1.47328281 36.14056396 C-1.43453305 31.93201124 -1.39142224 27.72351161 -1.34705925 23.51501465 C-1.32669358 21.51185696 -1.30797112 19.50868186 -1.29092598 17.50549316 C-1.26701357 14.74317433 -1.23697259 11.98098943 -1.20532227 9.21875 C-1.19668907 7.98345551 -1.19668907 7.98345551 -1.18788147 6.72320557 C-1.11414391 1.11414391 -1.11414391 1.11414391 0 0 Z " fill="#C1BEBB" transform="translate(27,27)"/>
<path d="M0 0 C0 40.26 0 80.52 0 122 C-0.66 122 -1.32 122 -2 122 C-2 82.07 -2 42.14 -2 1 C-4.64 1.66 -7.28 2.32 -10 3 C-10 2.34 -10 1.68 -10 1 C-5.81354102 -1.03342293 -4.92422885 -0.98484577 0 0 Z " fill="#2F2924" transform="translate(19,41)"/>
<path d="M0 0 C1.08273193 0.00128906 2.16546387 0.00257813 3.28100586 0.00390625 C12.74081316 0.11558405 21.7655777 1.33116801 31 3.3125 C31 3.6425 31 3.9725 31 4.3125 C30.29617187 4.25191406 29.59234375 4.19132813 28.8671875 4.12890625 C25.57865961 3.84985362 22.28953588 3.5794141 19 3.3125 C17.824375 3.21710938 16.64875 3.12171875 15.4375 3.0234375 C8.60033274 2.49865493 1.85692368 2.20860722 -5 2.3125 C1.93 2.8075 1.93 2.8075 9 3.3125 C9 3.6425 9 3.9725 9 4.3125 C6.69 4.3125 4.38 4.3125 2 4.3125 C2 5.9625 2 7.6125 2 9.3125 C1.01 9.8075 1.01 9.8075 0 10.3125 C0.66 10.9725 1.32 11.6325 2 12.3125 C1.34 12.3125 0.68 12.3125 0 12.3125 C-0.33 12.9725 -0.66 13.6325 -1 14.3125 C-1.99 13.6525 -2.98 12.9925 -4 12.3125 C-4 13.6325 -4 14.9525 -4 16.3125 C-1.69 16.3125 0.62 16.3125 3 16.3125 C3 16.9725 3 17.6325 3 18.3125 C-0.96 18.8075 -0.96 18.8075 -5 19.3125 C-5.99 17.9925 -6.98 16.6725 -8 15.3125 C-7.67 14.6525 -7.34 13.9925 -7 13.3125 C-6.34 13.6425 -5.68 13.9725 -5 14.3125 C-5.99 13.3225 -6.98 12.3325 -8 11.3125 C-10.16666667 12.14583333 -10.16666667 12.14583333 -11 14.3125 C-11.33 13.3225 -11.66 12.3325 -12 11.3125 C-11.34 11.3125 -10.68 11.3125 -10 11.3125 C-10 9.3325 -10 7.3525 -10 5.3125 C-12.31 5.9725 -14.62 6.6325 -17 7.3125 C-17.1546875 8.2715625 -17.1546875 8.2715625 -17.3125 9.25 C-17.539375 9.930625 -17.76625 10.61125 -18 11.3125 C-18.99 11.6425 -19.98 11.9725 -21 12.3125 C-21 11.6525 -21 10.9925 -21 10.3125 C-20.34 10.3125 -19.68 10.3125 -19 10.3125 C-19 9.6525 -19 8.9925 -19 8.3125 C-21.31 8.3125 -23.62 8.3125 -26 8.3125 C-25 6.3125 -25 6.3125 -21.9375 5.1875 C-20.4834375 4.754375 -20.4834375 4.754375 -19 4.3125 C-19.99 3.6525 -20.98 2.9925 -22 2.3125 C-14.61238766 0.52790946 -7.58805774 -0.037731 0 0 Z " fill="#6E6053" transform="translate(155,158.6875)"/>
<path d="M0 0 C0 0.33 0 0.66 0 1 C-2.97 1.99 -5.94 2.98 -9 4 C-7.68 4.33 -6.36 4.66 -5 5 C-5 5.66 -5 6.32 -5 7 C-3.7018576 5.8509288 -3.7018576 5.8509288 -3 3 C0.465 2.505 0.465 2.505 4 2 C4 2.99 4 3.98 4 5 C4.66 5.33 5.32 5.66 6 6 C5.34 6 4.68 6 4 6 C4 6.99 4 7.98 4 9 C4.33 8.34 4.66 7.68 5 7 C6.32 7.66 7.64 8.32 9 9 C9 9.66 9 10.32 9 11 C8.34 11.33 7.68 11.66 7 12 C7.66 13.32 8.32 14.64 9 16 C5.62182575 16.84454356 3.32534757 17.10844919 0 16 C-0.33 14.35 -0.66 12.7 -1 11 C-1 11.66 -1 12.32 -1 13 C-1.66 13 -2.32 13 -3 13 C-2.67 11.68 -2.34 10.36 -2 9 C-2.53625 9.33 -3.0725 9.66 -3.625 10 C-6.5391061 11.22699204 -8.86867708 11.14233286 -12 11 C-11.67 9.35 -11.34 7.7 -11 6 C-11.67546875 6.20496094 -12.3509375 6.40992188 -13.046875 6.62109375 C-14.38492188 7.02521484 -14.38492188 7.02521484 -15.75 7.4375 C-17.07257813 7.83775391 -17.07257813 7.83775391 -18.421875 8.24609375 C-20.60565835 8.88468494 -22.78835498 9.46775833 -25 10 C-18.7755952 3.05042182 -9.29805497 -1.09388882 0 0 Z " fill="#422E1A" transform="translate(141,162)"/>
<path d="M0 0 C2.0625 0.4375 2.0625 0.4375 4 1 C3.01 1.495 3.01 1.495 2 2 C1.34 42.92 0.68 83.84 0 126 C-0.33 126 -0.66 126 -1 126 C-1.02332902 109.71929697 -1.04097919 93.43859933 -1.05181217 77.15788364 C-1.05697512 69.59898381 -1.0640178 62.04009435 -1.07543945 54.48120117 C-1.08538632 47.89520334 -1.09185343 41.30921302 -1.09408849 34.72320789 C-1.0953956 31.23386929 -1.09848142 27.74455216 -1.10573006 24.25522041 C-1.11374398 20.36618768 -1.11399114 16.47717622 -1.11352539 12.58813477 C-1.11712067 11.42288773 -1.12071594 10.25764069 -1.12442017 9.05708313 C-1.1230455 8.00393921 -1.12167084 6.95079529 -1.12025452 5.86573792 C-1.12163721 4.48443113 -1.12163721 4.48443113 -1.12304783 3.07521915 C-1 1 -1 1 0 0 Z " fill="#1E1914" transform="translate(29,28)"/>
<path d="M0 0 C0 0.33 0 0.66 0 1 C-1.98 1 -3.96 1 -6 1 C-6.33 1.99 -6.66 2.98 -7 4 C-7.66 4 -8.32 4 -9 4 C-9.00331015 4.60629683 -9.00662029 5.21259365 -9.01003075 5.83726311 C-9.09117769 20.57567108 -9.18324264 35.31398269 -9.28752708 50.05224419 C-9.33769333 57.17950154 -9.38413566 64.30674715 -9.421875 71.43408203 C-9.45827789 78.307058 -9.50497399 85.17990164 -9.55806351 92.05276871 C-9.57665501 94.68029705 -9.59174519 97.30785248 -9.60334396 99.93542099 C-9.62012517 103.60405261 -9.64914036 107.2723922 -9.68115234 110.94091797 C-9.68331253 112.03711456 -9.68547272 113.13331116 -9.68769836 114.26272583 C-9.69886185 115.25834534 -9.71002533 116.25396484 -9.7215271 117.27975464 C-9.72705786 118.14808363 -9.73258862 119.01641262 -9.73828697 119.91105461 C-10 122 -10 122 -12 124 C-15.0390625 123.9765625 -15.0390625 123.9765625 -18.625 123.625 C-19.81351563 123.51414062 -21.00203125 123.40328125 -22.2265625 123.2890625 C-23.14179688 123.19367188 -24.05703125 123.09828125 -25 123 C-25 122.67 -25 122.34 -25 122 C-21.04 122 -17.08 122 -13 122 C-12.03433907 119.1030172 -11.87316586 117.27381088 -11.86869812 114.26234436 C-11.86468994 113.28795914 -11.86068176 112.31357391 -11.85655212 111.30966187 C-11.85708084 110.2420462 -11.85760956 109.17443054 -11.8581543 108.07446289 C-11.85467987 106.9490358 -11.85120544 105.8236087 -11.84762573 104.66407776 C-11.84026644 102.21683816 -11.83492198 99.76959187 -11.83133507 97.32234383 C-11.8241809 93.45218074 -11.80852312 89.58214528 -11.78999329 85.71202087 C-11.73746664 74.70720227 -11.68908434 63.70245189 -11.67407227 52.69750977 C-11.66480104 45.97011535 -11.6347377 39.24308803 -11.59275246 32.5158062 C-11.5804119 29.94854596 -11.57532673 27.38124043 -11.57755089 24.81395149 C-11.57989404 21.22726071 -11.55781164 17.64149742 -11.5300293 14.05493164 C-11.53663071 12.98934021 -11.54323212 11.92374878 -11.55003357 10.8258667 C-11.45899905 3.69064983 -11.45899905 3.69064983 -9.20124817 0.29344177 C-5.9439436 -1.62053315 -3.5701949 -0.82389113 0 0 Z " fill="#E0E0DF" transform="translate(211,41)"/>
<path d="M0 0 C4.34161825 -0.04952706 8.68308575 -0.08577954 13.02490234 -0.10986328 C14.50116847 -0.11990591 15.97741479 -0.13354265 17.45361328 -0.15087891 C19.57850034 -0.17520421 21.70312385 -0.1865004 23.828125 -0.1953125 C25.1059082 -0.20578613 26.38369141 -0.21625977 27.70019531 -0.22705078 C30.77469299 -0.01550278 32.43738352 0.36873092 35 2 C33.62652901 2.19839025 32.25108154 2.38310983 30.875 2.5625 C29.72644531 2.71912109 29.72644531 2.71912109 28.5546875 2.87890625 C25.57043076 3.02036184 22.94464648 2.49563357 20 2 C17.54245859 1.93421998 15.08331222 1.91430838 12.625 1.9375 C11.37976563 1.94652344 10.13453125 1.95554688 8.8515625 1.96484375 C7.91054688 1.97644531 6.96953125 1.98804688 6 2 C5.67 2.99 5.34 3.98 5 5 C5 4.34 5 3.68 5 3 C4.34 3 3.68 3 3 3 C3 3.66 3 4.32 3 5 C2.34 5 1.68 5 1 5 C1 5.66 1 6.32 1 7 C4.96 7.33 8.92 7.66 13 8 C13 8.33 13 8.66 13 9 C11.02 9 9.04 9 7 9 C7 9.66 7 10.32 7 11 C7.99 11.33 8.98 11.66 10 12 C8.35 12.33 6.7 12.66 5 13 C5 12.01 5 11.02 5 10 C4.38125 9.855625 3.7625 9.71125 3.125 9.5625 C1 9 1 9 -1 8 C-1 7.34 -1 6.68 -1 6 C-2.32 6 -3.64 6 -5 6 C-5 6.99 -5 7.98 -5 9 C-5.66 9 -6.32 9 -7 9 C-8.125 5.25 -8.125 5.25 -7 3 C-8.65 3 -10.3 3 -12 3 C-12 2.67 -12 2.34 -12 2 C-9.36 2 -6.72 2 -4 2 C-3.67 2.99 -3.34 3.98 -3 5 C-2.01 5 -1.02 5 0 5 C0 3.35 0 1.7 0 0 Z M-3 8 C-2.34 8.33 -1.68 8.66 -1 9 C-2.32 10.32 -3.64 11.64 -5 13 C-5.66 12.67 -6.32 12.34 -7 12 C-6.67 11.34 -6.34 10.68 -6 10 C-5.01 10 -4.02 10 -3 10 C-3 9.34 -3 8.68 -3 8 Z " fill="#45331F" transform="translate(46,162)"/>
<path d="M0 0 C2 1 2 1 5 3 C4.67 4.65 4.34 6.3 4 8 C3.01 8 2.02 8 1 8 C1 8.99 1 9.98 1 11 C1.66 11.66 2.32 12.32 3 13 C0.12464028 12.59878702 -2.47525375 12.23035309 -5.14453125 11.05859375 C-9.02825385 9.61880056 -12.91474684 9.05200957 -17 8.4375 C-18.25453979 8.24353638 -18.25453979 8.24353638 -19.53442383 8.0456543 C-26.34274213 7.02587456 -33.12266055 6.35806615 -40 6 C-40 5.67 -40 5.34 -40 5 C-36.97959421 4.74955676 -33.96066888 4.5241441 -30.9375 4.3125 C-29.66616211 4.20325195 -29.66616211 4.20325195 -28.36914062 4.09179688 C-22.6140678 3.71405078 -19.1466863 4.42338704 -14 7 C-9.747938 7.4252062 -6.85430443 6.81379032 -3 5 C-3.495 3.515 -3.495 3.515 -4 2 C-3.34 2 -2.68 2 -2 2 C-1.67 1.67 -1.34 1.34 -1 1 C-0.67 0.67 -0.34 0.34 0 0 Z " fill="#5C5043" transform="translate(99,146)"/>
<path d="M0 0 C-0.875 6.875 -0.875 6.875 -2 8 C-4.8843382 8.08865208 -7.74462158 8.11521296 -10.62890625 8.09765625 C-11.92525246 8.09553383 -11.92525246 8.09553383 -13.24778748 8.09336853 C-16.01939292 8.08775239 -18.7909188 8.07519719 -21.5625 8.0625 C-23.4368478 8.05748708 -25.31119685 8.05292381 -27.18554688 8.04882812 C-31.79039544 8.03777772 -36.39518421 8.0205023 -41 8 C-41 7.67 -41 7.34 -41 7 C-36.63106263 6.15937224 -32.5164802 5.88267044 -28.0703125 5.90234375 C-26.78125 5.90556641 -25.4921875 5.90878906 -24.1640625 5.91210938 C-22.81770764 5.92046267 -21.47135348 5.92892759 -20.125 5.9375 C-18.75520996 5.9425217 -17.38541815 5.94708343 -16.015625 5.95117188 C-12.6770381 5.96292746 -9.33854185 5.97936036 -6 6 C-6.495 4.515 -6.495 4.515 -7 3 C-7.99 3 -8.98 3 -10 3 C-10 2.01 -10 1.02 -10 0 C-3.375 -1.125 -3.375 -1.125 0 0 Z " fill="#35281E" transform="translate(179,144)"/>
<path d="M0 0 C1.37152222 -0.00217529 1.37152222 -0.00217529 2.77075195 -0.00439453 C9.02865173 0.10243449 9.02865173 0.10243449 12.4375 2.375 C2.5375 2.375 -7.3625 2.375 -17.5625 2.375 C-17.5625 3.035 -17.5625 3.695 -17.5625 4.375 C-16.9025 4.705 -16.2425 5.035 -15.5625 5.375 C-16.2225 5.375 -16.8825 5.375 -17.5625 5.375 C-17.5625 6.035 -17.5625 6.695 -17.5625 7.375 C-18.5525 7.375 -19.5425 7.375 -20.5625 7.375 C-20.8925 6.715 -21.2225 6.055 -21.5625 5.375 C-23.31241334 5.34784617 -25.06244945 5.32853449 -26.8125 5.3125 C-27.78703125 5.30089844 -28.7615625 5.28929687 -29.765625 5.27734375 C-32.24263874 5.36383166 -34.18959653 5.74222574 -36.5625 6.375 C-38.89550933 6.41388349 -41.22959801 6.4198635 -43.5625 6.375 C-38.78121992 3.18747995 -33.37062885 3.0473941 -27.75 2.25 C-26.5029126 2.07259277 -25.2558252 1.89518555 -23.97094727 1.71240234 C-15.96623412 0.6481005 -8.07593522 0.00137008 0 0 Z " fill="#231911" transform="translate(63.5625,159.625)"/>
<path d="M0 0 C0.33 0 0.66 0 1 0 C1.66 16.83 2.32 33.66 3 51 C3.66 51.33 4.32 51.66 5 52 C3.35 52.66 1.7 53.32 0 54 C0 36.18 0 18.36 0 0 Z " fill="#362C25" transform="translate(115,107)"/>
<path d="M0 0 C0 0.33 0 0.66 0 1 C-2.97 1.99 -5.94 2.98 -9 4 C-7.68 4.33 -6.36 4.66 -5 5 C-5 5.66 -5 6.32 -5 7 C-5.66 7 -6.32 7 -7 7 C-6.67 8.32 -6.34 9.64 -6 11 C-7.98 11 -9.96 11 -12 11 C-11.67 9.35 -11.34 7.7 -11 6 C-11.67546875 6.20496094 -12.3509375 6.40992188 -13.046875 6.62109375 C-14.38492188 7.02521484 -14.38492188 7.02521484 -15.75 7.4375 C-17.07257813 7.83775391 -17.07257813 7.83775391 -18.421875 8.24609375 C-20.60565835 8.88468494 -22.78835498 9.46775833 -25 10 C-18.7755952 3.05042182 -9.29805497 -1.09388882 0 0 Z " fill="#36261B" transform="translate(141,162)"/>
<path d="M0 0 C7.32360897 0.27124478 11.9731443 2.96151268 18 7 C17.01 7.495 17.01 7.495 16 8 C14.865625 7.484375 13.73125 6.96875 12.5625 6.4375 C11.386875 5.963125 10.21125 5.48875 9 5 C8.01 5.66 7.02 6.32 6 7 C3.24921116 7.91692961 1.64051087 8.10886083 -1.1875 8.0625 C-3.0746875 8.0315625 -3.0746875 8.0315625 -5 8 C-5 7.01 -5 6.02 -5 5 C-4.34 4.67 -3.68 4.34 -3 4 C-3 3.34 -3 2.68 -3 2 C-0.03 2.33 2.94 2.66 6 3 C4.02 2.34 2.04 1.68 0 1 C0 0.67 0 0.34 0 0 Z " fill="#72655A" transform="translate(89,163)"/>
<path d="M0 0 C1.66611905 -0.042721 3.33382885 -0.04063832 5 0 C5.33 0.33 5.66 0.66 6 1 C8.47511803 1.53650099 10.96281184 1.96392114 13.45703125 2.40234375 C15.90380998 2.97739313 17.81317927 3.78170127 20 5 C16.06329512 6.31223496 13.87511856 5.24296256 10 4 C10 4.66 10 5.32 10 6 C6.59598052 7.13732426 4.22543336 6.83989957 0.75 6.0625 C-0.14203125 5.86785156 -1.0340625 5.67320312 -1.953125 5.47265625 C-2.96632813 5.23869141 -2.96632813 5.23869141 -4 5 C-4.33 5.66 -4.66 6.32 -5 7 C-5.99 6.34 -6.98 5.68 -8 5 C-8 4.34 -8 3.68 -8 3 C-5.36 3 -2.72 3 0 3 C0 2.01 0 1.02 0 0 Z " fill="#3A2912" transform="translate(76,161)"/>
<path d="M0 0 C1.6097168 0.07250977 1.6097168 0.07250977 3.25195312 0.14648438 C4.37150391 0.20255859 5.49105469 0.25863281 6.64453125 0.31640625 C8.34125977 0.3947168 8.34125977 0.3947168 10.07226562 0.47460938 C12.86746405 0.60434432 15.66231065 0.73931266 18.45703125 0.87890625 C18.45703125 1.20890625 18.45703125 1.53890625 18.45703125 1.87890625 C17.585625 1.92789063 16.71421875 1.976875 15.81640625 2.02734375 C0.60139928 2.81036089 0.60139928 2.81036089 -13.54296875 7.87890625 C-14.53296875 7.54890625 -15.52296875 7.21890625 -16.54296875 6.87890625 C-11.61846944 1.60265699 -7.23600332 -0.34457159 0 0 Z " fill="#938E8A" transform="translate(137.54296875,151.12109375)"/>
<path d="M0 0 C1.98 0 3.96 0 6 0 C5.34 0.66 4.68 1.32 4 2 C6.64 1.67 9.28 1.34 12 1 C12.66 1.99 13.32 2.98 14 4 C16.42521494 4.58189266 16.42521494 4.58189266 19.125 4.6875 C20.49011719 4.78611328 20.49011719 4.78611328 21.8828125 4.88671875 C22.58148438 4.92410156 23.28015625 4.96148437 24 5 C24 5.33 24 5.66 24 6 C16.08 6 8.16 6 0 6 C0.66 4.68 1.32 3.36 2 2 C1.34 2 0.68 2 0 2 C0 1.34 0 0.68 0 0 Z " fill="#443325" transform="translate(44,174)"/>
<path d="M0 0 C0.99 0 1.98 0 3 0 C4.18681726 3.56045177 4.09689832 6.43808337 4.0625 10.1875 C4.05347656 11.45980469 4.04445312 12.73210937 4.03515625 14.04296875 C4.02355469 15.01878906 4.01195312 15.99460938 4 17 C0.7 17 -2.6 17 -6 17 C-6 16.34 -6 15.68 -6 15 C-3.03 15 -0.06 15 3 15 C3 12.03 3 9.06 3 6 C2.01 6.495 2.01 6.495 1 7 C1 7.66 1 8.32 1 9 C0.01 9 -0.98 9 -2 9 C-2.33 6.69 -2.66 4.38 -3 2 C-2.34 2 -1.68 2 -1 2 C-0.67 1.34 -0.34 0.68 0 0 Z " fill="#36291E" transform="translate(188,137)"/>
<path d="M0 0 C0.33 1.32 0.66 2.64 1 4 C2.65 3.67 4.3 3.34 6 3 C6 3.66 6 4.32 6 5 C6.62567871 4.98952637 7.25135742 4.97905273 7.89599609 4.96826172 C10.7222901 4.92676809 13.54852011 4.90069527 16.375 4.875 C17.35984375 4.85824219 18.3446875 4.84148437 19.359375 4.82421875 C20.77089844 4.81455078 20.77089844 4.81455078 22.2109375 4.8046875 C23.08024902 4.79421387 23.94956055 4.78374023 24.84521484 4.77294922 C27 5 27 5 29 7 C16.13 7 3.26 7 -10 7 C-10 6.67 -10 6.34 -10 6 C-7.03 5.34 -4.06 4.68 -1 4 C-0.67 2.68 -0.34 1.36 0 0 Z " fill="#4A3827" transform="translate(146,144)"/>
<path d="M0 0 C1.4835001 0.42257276 2.96176424 0.86356322 4.4375 1.3125 C5.67306641 1.67794922 5.67306641 1.67794922 6.93359375 2.05078125 C7.61550781 2.36402344 8.29742187 2.67726562 9 3 C9.33 3.99 9.66 4.98 10 6 C10.99 5.7215625 10.99 5.7215625 12 5.4375 C15.89330114 4.86972692 19.11375479 5.40718293 23 6 C20.4645326 8.5354674 19.39793851 8.35408781 15.875 8.4375 C10.14455964 8.34713826 6.27636299 6.80478412 2 3 C1.34 2.01 0.68 1.02 0 0 Z " fill="#30271D" transform="translate(93,182)"/>
<path d="M0 0 C5.61 0 11.22 0 17 0 C17 0.33 17 0.66 17 1 C14.36 1 11.72 1 9 1 C9 1.99 9 2.98 9 4 C10.32 4.33 11.64 4.66 13 5 C11.75 6.5 11.75 6.5 10 8 C8.68 8 7.36 8 6 8 C5.67 8.66 5.34 9.32 5 10 C4.34 9.67 3.68 9.34 3 9 C3.66 8.01 4.32 7.02 5 6 C5 4.68 5 3.36 5 2 C3.35 1.67 1.7 1.34 0 1 C0 0.67 0 0.34 0 0 Z " fill="#473320" transform="translate(49,27)"/>
<path d="M0 0 C4.19920237 -0.04953687 8.39824869 -0.08578411 12.59765625 -0.10986328 C14.02542078 -0.11990427 15.45316483 -0.13353981 16.88085938 -0.15087891 C18.93624941 -0.17521152 20.99136692 -0.18650202 23.046875 -0.1953125 C24.28276367 -0.20578613 25.51865234 -0.21625977 26.79199219 -0.22705078 C29.81659371 -0.01298081 31.46985651 0.40346841 34 2 C32.62652901 2.19839025 31.25108154 2.38310983 29.875 2.5625 C29.10929687 2.66691406 28.34359375 2.77132812 27.5546875 2.87890625 C24.57208318 3.02028352 21.94092208 2.50003083 19 2 C16.83374168 1.95793673 14.66627373 1.95873764 12.5 2 C8.18416504 2.08220638 4.24230226 1.81779321 0 1 C0 0.67 0 0.34 0 0 Z " fill="#4B3C2B" transform="translate(47,162)"/>
<path d="M0 0 C1.0725 0.2475 2.145 0.495 3.25 0.75 C3.25 1.08 3.25 1.41 3.25 1.75 C1.27 1.75 -0.71 1.75 -2.75 1.75 C-3.08 2.74 -3.41 3.73 -3.75 4.75 C-4.41 4.75 -5.07 4.75 -5.75 4.75 C-6.08 10.36 -6.41 15.97 -6.75 21.75 C-7.08 21.75 -7.41 21.75 -7.75 21.75 C-7.85806144 18.83234109 -7.93732877 15.91868875 -8 13 C-8.03351563 12.175 -8.06703125 11.35 -8.1015625 10.5 C-8.19986781 4.40507067 -8.19986781 4.40507067 -5.96875 1.15625 C-3.75 -0.25 -3.75 -0.25 0 0 Z " fill="#E0DFDE" transform="translate(207.75,40.25)"/>
<path d="M0 0 C1.32567199 0.68177416 2.65753688 1.35191436 4 2 C1.83203125 1.78320312 1.83203125 1.78320312 -0.3359375 1.56640625 C-1.70637207 1.42936279 -1.70637207 1.42936279 -3.10449219 1.28955078 C-4.53776855 1.14622314 -4.53776855 1.14622314 -6 1 C-6.89106445 0.91089355 -7.78212891 0.82178711 -8.70019531 0.72998047 C-13.90771484 0.20922852 -19.11523438 -0.31152344 -24.32275391 -0.83227539 C-24.87624512 -0.88762451 -25.42973633 -0.94297363 -26 -1 C-26 -1.33 -26 -1.66 -26 -2 C-23.47958689 -2.19667089 -20.95911728 -2.38254317 -18.4375 -2.5625 C-17.73302734 -2.61857422 -17.02855469 -2.67464844 -16.30273438 -2.73242188 C-10.42685148 -3.1385889 -5.06216342 -3.37477562 0 0 Z " fill="#959291" transform="translate(85,153)"/>
<path d="M0 0 C0.99 0.33 1.98 0.66 3 1 C2.01 2.485 2.01 2.485 1 4 C1.33 4.99 1.66 5.98 2 7 C1.01 7 0.02 7 -1 7 C-1.33 14.26 -1.66 21.52 -2 29 C-2.33 29 -2.66 29 -3 29 C-3.08714316 25.08347368 -3.14043985 21.16719689 -3.1875 17.25 C-3.21263672 16.13882813 -3.23777344 15.02765625 -3.26367188 13.8828125 C-3.27333984 12.81289063 -3.28300781 11.74296875 -3.29296875 10.640625 C-3.3086792 9.65610352 -3.32438965 8.67158203 -3.34057617 7.65722656 C-2.94823511 4.59612251 -1.99214467 3.29905772 0 1 C0 0.67 0 0.34 0 0 Z " fill="#453828" transform="translate(120,34)"/>
<path d="M0 0 C4.875 1.875 4.875 1.875 6 3 C6.33 2.34 6.66 1.68 7 1 C7.99 1.66 8.98 2.32 10 3 C9.67 3.99 9.34 4.98 9 6 C6.03 6 3.06 6 0 6 C0 5.34 0 4.68 0 4 C-0.99 4 -1.98 4 -3 4 C-3 3.34 -3 2.68 -3 2 C-2.01 2 -1.02 2 0 2 C0 1.34 0 0.68 0 0 Z " fill="#493621" transform="translate(167,138)"/>
<path d="M0 0 C-2.90353406 1.93568937 -5.51099325 3.0506027 -8.75 4.3125 C-13.76935779 6.35922842 -17.76873406 8.63422028 -22 12 C-21.7578125 10.16015625 -21.7578125 10.16015625 -21 8 C-19.1796875 6.62109375 -19.1796875 6.62109375 -16.875 5.4375 C-16.06289062 5.01984375 -15.25078125 4.6021875 -14.4140625 4.171875 C-13.61742188 3.78515625 -12.82078125 3.3984375 -12 3 C-11.34773438 2.67515625 -10.69546875 2.3503125 -10.0234375 2.015625 C-6.56519446 0.40076261 -3.81391833 -0.34671985 0 0 Z " fill="#D7D4D3" transform="translate(137,27)"/>
<path d="M0 0 C1.88343932 3.76687864 2.22057835 5.02958963 2 9 C3.32 9.33 4.64 9.66 6 10 C5.34 11.65 4.68 13.3 4 15 C2.68 14.67 1.36 14.34 0 14 C0 9.38 0 4.76 0 0 Z " fill="#4A3B30" transform="translate(117,145)"/>
<path d="M0 0 C0.99 0.33 1.98 0.66 3 1 C5.63804589 0.60602665 5.63804589 0.60602665 8 0 C8 0.66 8 1.32 8 2 C7.0409375 2.1546875 7.0409375 2.1546875 6.0625 2.3125 C5.381875 2.539375 4.70125 2.76625 4 3 C3.67 3.99 3.34 4.98 3 6 C-0.63 5.67 -4.26 5.34 -8 5 C-8 4.67 -8 4.34 -8 4 C-6.35 4 -4.7 4 -3 4 C-3 3.34 -3 2.68 -3 2 C-2.01 2 -1.02 2 0 2 C0 1.34 0 0.68 0 0 Z " fill="#473522" transform="translate(78,145)"/>
<path d="M0 0 C0.33 0 0.66 0 1 0 C1 3.96 1 7.92 1 12 C-0.65 11.67 -2.3 11.34 -4 11 C-4.33 9.35 -4.66 7.7 -5 6 C-3.68 6.33 -2.36 6.66 -1 7 C-0.67 4.69 -0.34 2.38 0 0 Z " fill="#2E231B" transform="translate(104,147)"/>
<path d="M0 0 C5.65394631 -0.34615998 9.03006806 0.56574762 14 3 C10.06329512 4.31223496 7.87511856 3.24296256 4 2 C4 2.66 4 3.32 4 4 C2.68 4.33 1.36 4.66 0 5 C0 3.33333333 0 1.66666667 0 0 Z " fill="#2E2016" transform="translate(82,163)"/>
<path d="M0 0 C1.32 0 2.64 0 4 0 C4.33 1.98 4.66 3.96 5 6 C3.68 6 2.36 6 1 6 C-0.34164079 6.2981424 -1.67851173 6.62243192 -3 7 C-3 6.34 -3 5.68 -3 5 C-2.01 4.67 -1.02 4.34 0 4 C0 2.68 0 1.36 0 0 Z " fill="#47341F" transform="translate(177,172)"/>
<path d="M0 0 C0.66 0.33 1.32 0.66 2 1 C1.67 1.99 1.34 2.98 1 4 C1.66 4.33 2.32 4.66 3 5 C2.01 5.33 1.02 5.66 0 6 C-0.66 5.67 -1.32 5.34 -2 5 C-2 5.66 -2 6.32 -2 7 C-3.32 7.33 -4.64 7.66 -6 8 C-5.1875 5.5625 -5.1875 5.5625 -4 3 C-3.01 2.67 -2.02 2.34 -1 2 C-0.67 1.34 -0.34 0.68 0 0 Z " fill="#4A3621" transform="translate(90,38)"/>
<path d="M0 0 C0.99 0.33 1.98 0.66 3 1 C3 1.66 3 2.32 3 3 C2.34 3 1.68 3 1 3 C0.67 5.31 0.34 7.62 0 10 C-0.66 10 -1.32 10 -2 10 C-2 8.35 -2 6.7 -2 5 C-2.66 4.67 -3.32 4.34 -4 4 C-2.68 2.68 -1.36 1.36 0 0 Z " fill="#513E29" transform="translate(152,61)"/>
<path d="M0 0 C-0.33 1.32 -0.66 2.64 -1 4 C-2.98 4 -4.96 4 -7 4 C-6.67 3.01 -6.34 2.02 -6 1 C-3 0 -3 0 0 0 Z " fill="#3C2C18" transform="translate(130,168)"/>
<path d="M0 0 C1.65 0 3.3 0 5 0 C5.33 0.99 5.66 1.98 6 3 C6.66 3.33 7.32 3.66 8 4 C6.02 4.99 6.02 4.99 4 6 C4 5.01 4 4.02 4 3 C2.68 2.34 1.36 1.68 0 1 C0 0.67 0 0.34 0 0 Z " fill="#34291D" transform="translate(76,161)"/>
<path d="M0 0 C2.31 0.33 4.62 0.66 7 1 C7 1.33 7 1.66 7 2 C5.02 2 3.04 2 1 2 C0.67 2.99 0.34 3.98 0 5 C-0.66 5 -1.32 5 -2 5 C-1.34 3.35 -0.68 1.7 0 0 Z " fill="#8C8783" transform="translate(204,40)"/>
<path d="M0 0 C-0.33 0.99 -0.66 1.98 -1 3 C-3.64 2.67 -6.28 2.34 -9 2 C-5.5647952 -0.29013653 -4.014669 -0.17842973 0 0 Z " fill="#453E36" transform="translate(89,151)"/>
</svg>
