<?xml version="1.0" encoding="UTF-8"?>
<!DOCTYPE svg PUBLIC "-//W3C//DTD SVG 1.1//EN" "http://www.w3.org/Graphics/SVG/1.1/DTD/svg11.dtd">
<svg xmlns="http://www.w3.org/2000/svg" version="1.1" width="190px" height="190px" style="shape-rendering:geometricPrecision; text-rendering:geometricPrecision; image-rendering:optimizeQuality; fill-rule:evenodd; clip-rule:evenodd" xmlns:xlink="http://www.w3.org/1999/xlink">
<g><path style="opacity:0.125" fill="#ccc7c3" d="M 124.5,20.5 C 124.5,21.1667 124.5,21.8333 124.5,22.5C 124.167,22.5 123.833,22.5 123.5,22.5C 121.621,19.8852 119.288,17.7186 116.5,16C 112.037,14.344 107.704,12.5107 103.5,10.5C 98.1194,10.2702 92.786,9.60353 87.5,8.5C 81.9217,9.80632 76.5884,11.473 71.5,13.5C 67.827,15.0002 64.4937,17.0002 61.5,19.5C 54.7318,23.9313 49.3984,29.598 45.5,36.5C 45.7553,33.9837 46.5886,31.6504 48,29.5C 71.1407,3.72008 96.6407,0.720081 124.5,20.5 Z"/></g>
<g><path style="opacity:1" fill="#362515" d="M 103.5,10.5 C 102.027,12.3947 100.36,14.0613 98.5,15.5C 97.1667,15.5 95.8333,15.5 94.5,15.5C 91.894,14.1501 91.894,12.6501 94.5,11C 88.4454,10.0001 82.7788,10.8334 77.5,13.5C 76.8333,13.5 76.1667,13.5 75.5,13.5C 73.965,14.3543 72.6316,14.3543 71.5,13.5C 76.5884,11.473 81.9217,9.80632 87.5,8.5C 92.786,9.60353 98.1194,10.2702 103.5,10.5 Z"/></g>
<g><path style="opacity:1" fill="#372512" d="M 94.5,15.5 C 94.4142,16.4959 94.7476,17.3292 95.5,18C 94.2068,18.49 92.8734,18.6567 91.5,18.5C 91.5774,17.2502 92.244,16.4169 93.5,16C 92.2341,15.6905 91.0674,15.1905 90,14.5C 89.6012,14.7284 89.4346,15.0618 89.5,15.5C 87.8762,15.3601 86.7096,16.0267 86,17.5C 85.2917,16.6195 84.4584,15.9528 83.5,15.5C 81.4537,14.0347 79.6204,14.368 78,16.5C 77.5172,15.552 77.3505,14.552 77.5,13.5C 82.7788,10.8334 88.4454,10.0001 94.5,11C 91.894,12.6501 91.894,14.1501 94.5,15.5 Z"/></g>
<g><path style="opacity:1" fill="#3a2613" d="M 71.5,13.5 C 72.6316,14.3543 73.965,14.3543 75.5,13.5C 75.6567,14.8734 75.49,16.2068 75,17.5C 73.6124,16.4464 72.1124,16.2797 70.5,17C 73.2337,17.7183 73.9004,19.2183 72.5,21.5C 70.9246,22.4565 69.258,23.1231 67.5,23.5C 65.9218,23.5737 64.2552,23.2403 62.5,22.5C 64.129,20.8041 63.7957,19.8041 61.5,19.5C 64.4937,17.0002 67.827,15.0002 71.5,13.5 Z"/></g>
<g><path style="opacity:1" fill="#3a2914" d="M 75.5,13.5 C 76.1667,13.5 76.8333,13.5 77.5,13.5C 77.3505,14.552 77.5172,15.552 78,16.5C 79.6204,14.368 81.4537,14.0347 83.5,15.5C 82.2264,16.1894 82.2264,17.0228 83.5,18C 81.1224,18.9745 81.4557,19.6411 84.5,20C 83.6634,21.0113 83.33,22.1779 83.5,23.5C 82.325,23.719 81.325,23.3857 80.5,22.5C 79.8973,21.3652 79.5639,20.3652 79.5,19.5C 77.7869,19.8793 76.7869,20.8793 76.5,22.5C 75.0222,22.238 73.6888,22.5713 72.5,23.5C 72.7093,24.086 73.0426,24.586 73.5,25C 71.5795,26.1223 69.5795,26.9556 67.5,27.5C 67.5,26.1667 67.5,24.8333 67.5,23.5C 69.258,23.1231 70.9246,22.4565 72.5,21.5C 73.9004,19.2183 73.2337,17.7183 70.5,17C 72.1124,16.2797 73.6124,16.4464 75,17.5C 75.49,16.2068 75.6567,14.8734 75.5,13.5 Z"/></g>
<g><path style="opacity:1" fill="#382712" d="M 103.5,10.5 C 107.704,12.5107 112.037,14.344 116.5,16C 119.288,17.7186 121.621,19.8852 123.5,22.5C 120.115,22.1543 116.782,21.4877 113.5,20.5C 111.945,22.1458 110.279,22.4791 108.5,21.5C 107.708,22.6998 107.708,24.0331 108.5,25.5C 107.25,25.4226 106.417,24.756 106,23.5C 104.414,24.376 102.914,25.376 101.5,26.5C 100.893,26.3764 100.56,26.0431 100.5,25.5C 100.326,22.1551 101.659,20.9884 104.5,22C 102.269,20.853 99.9355,19.853 97.5,19C 98.8333,18.6667 100.167,18.3333 101.5,18C 100.058,17.6232 99.0577,16.7899 98.5,15.5C 100.36,14.0613 102.027,12.3947 103.5,10.5 Z"/></g>
<g><path style="opacity:1" fill="#402e19" d="M 83.5,15.5 C 84.4584,15.9528 85.2917,16.6195 86,17.5C 86.7096,16.0267 87.8762,15.3601 89.5,15.5C 88.4887,17.199 87.1554,18.699 85.5,20C 86.0085,21.1685 86.8419,22.0019 88,22.5C 88.7175,21.5494 89.5509,21.3828 90.5,22C 89.6667,22.8333 88.8333,23.6667 88,24.5C 87.0347,22.7397 85.868,22.4063 84.5,23.5C 85.0253,24.1924 85.6919,24.6924 86.5,25C 84.4233,25.1922 82.4233,25.6922 80.5,26.5C 81.9023,27.8425 81.5689,28.6758 79.5,29C 81.2072,29.1953 82.8739,29.1953 84.5,29C 83.7476,29.6708 83.4142,30.5041 83.5,31.5C 81.7085,31.634 80.0418,31.3007 78.5,30.5C 78.19,29.2617 77.69,29.2617 77,30.5C 76.5357,29.9056 76.369,29.2389 76.5,28.5C 77.2389,28.631 77.9056,28.4643 78.5,28C 77.5,27.1667 76.5,26.3333 75.5,25.5C 76.1667,24.8333 76.8333,24.1667 77.5,23.5C 77.3764,22.8933 77.0431,22.56 76.5,22.5C 76.7869,20.8793 77.7869,19.8793 79.5,19.5C 79.5639,20.3652 79.8973,21.3652 80.5,22.5C 81.325,23.3857 82.325,23.719 83.5,23.5C 83.33,22.1779 83.6634,21.0113 84.5,20C 81.4557,19.6411 81.1224,18.9745 83.5,18C 82.2264,17.0228 82.2264,16.1894 83.5,15.5 Z"/></g>
<g><path style="opacity:1" fill="#3c2914" d="M 91.5,18.5 C 92.9516,19.3019 94.6183,19.8019 96.5,20C 95.035,21.7742 93.7017,23.6075 92.5,25.5C 91.325,25.281 90.325,25.6143 89.5,26.5C 91.0203,29.1553 90.5203,29.8219 88,28.5C 86.8315,29.0085 85.9981,29.8419 85.5,31C 86.8412,32.2948 88.1745,32.7948 89.5,32.5C 89.3863,34.4186 88.7196,36.4186 87.5,38.5C 87.1667,38.5 86.8333,38.5 86.5,38.5C 86.0195,35.9217 85.0195,33.5884 83.5,31.5C 83.4142,30.5041 83.7476,29.6708 84.5,29C 82.8739,29.1953 81.2072,29.1953 79.5,29C 81.5689,28.6758 81.9023,27.8425 80.5,26.5C 82.4233,25.6922 84.4233,25.1922 86.5,25C 85.6919,24.6924 85.0253,24.1924 84.5,23.5C 85.868,22.4063 87.0347,22.7397 88,24.5C 88.8333,23.6667 89.6667,22.8333 90.5,22C 89.5509,21.3828 88.7175,21.5494 88,22.5C 86.8419,22.0019 86.0085,21.1685 85.5,20C 87.1554,18.699 88.4887,17.199 89.5,15.5C 89.4346,15.0618 89.6012,14.7284 90,14.5C 91.0674,15.1905 92.2341,15.6905 93.5,16C 92.244,16.4169 91.5774,17.2502 91.5,18.5 Z"/></g>
<g><path style="opacity:1" fill="#382610" d="M 62.5,22.5 C 64.2552,23.2403 65.9218,23.5737 67.5,23.5C 67.5,24.8333 67.5,26.1667 67.5,27.5C 69.5795,26.9556 71.5795,26.1223 73.5,25C 73.0426,24.586 72.7093,24.086 72.5,23.5C 73.6888,22.5713 75.0222,22.238 76.5,22.5C 77.0431,22.56 77.3764,22.8933 77.5,23.5C 76.8333,24.1667 76.1667,24.8333 75.5,25.5C 76.5,26.3333 77.5,27.1667 78.5,28C 77.9056,28.4643 77.2389,28.631 76.5,28.5C 75.2652,28.2786 74.2652,27.6119 73.5,26.5C 73.1667,26.8333 72.8333,27.1667 72.5,27.5C 74.9224,29.2855 74.9224,30.9522 72.5,32.5C 73.376,33.2508 74.376,33.7508 75.5,34C 73.2462,35.1505 70.9129,35.4838 68.5,35C 69.1667,34.6667 69.8333,34.3333 70.5,34C 69.365,33.2506 68.365,33.4173 67.5,34.5C 66.9661,36.6145 65.9661,38.4478 64.5,40C 65.448,40.4828 66.448,40.6495 67.5,40.5C 67.3433,39.1266 67.51,37.7932 68,36.5C 69.2837,37.5719 69.6171,38.9052 69,40.5C 69.6667,39.8333 70.3333,39.1667 71,38.5C 71.4169,39.756 72.2502,40.4226 73.5,40.5C 71.6829,43.5746 69.0162,44.7413 65.5,44C 66.5,43.6667 67.5,43.3333 68.5,43C 66.2992,42.1751 64.4659,42.6751 63,44.5C 61.9806,42.7306 61.814,41.0639 62.5,39.5C 61.3112,38.5713 59.9778,38.238 58.5,38.5C 60.6979,37.8347 63.0312,37.1681 65.5,36.5C 64.0499,35.1502 63.3832,33.4835 63.5,31.5C 65.8205,30.3751 68.1538,30.2084 70.5,31C 68.4839,27.985 66.3172,27.8184 64,30.5C 63,27.8333 62,27.8333 61,30.5C 60.2588,29.3595 59.4255,29.3595 58.5,30.5C 57.7025,30.0431 57.3691,29.3764 57.5,28.5C 58.3163,25.8927 59.9829,23.8927 62.5,22.5 Z"/></g>
<g><path style="opacity:1" fill="#423019" d="M 123.5,22.5 C 123.833,22.5 124.167,22.5 124.5,22.5C 125.167,22.5 125.5,22.8333 125.5,23.5C 124.599,25.7572 122.932,27.2572 120.5,28C 121.563,29.1882 122.897,29.6882 124.5,29.5C 124.5,30.5 124.5,31.5 124.5,32.5C 122.027,32.0882 120.694,33.0882 120.5,35.5C 119.833,35.5 119.167,35.5 118.5,35.5C 119.388,32.9455 119.721,30.2788 119.5,27.5C 117.64,28.0715 115.973,28.0715 114.5,27.5C 113.504,27.4142 112.671,27.7476 112,28.5C 111.544,27.2559 112.044,26.4226 113.5,26C 111.865,25.4604 110.532,25.9604 109.5,27.5C 108.702,27.0431 108.369,26.3764 108.5,25.5C 107.708,24.0331 107.708,22.6998 108.5,21.5C 110.279,22.4791 111.945,22.1458 113.5,20.5C 116.782,21.4877 120.115,22.1543 123.5,22.5 Z"/></g>
<g><path style="opacity:1" fill="#402e17" d="M 94.5,15.5 C 95.8333,15.5 97.1667,15.5 98.5,15.5C 99.0577,16.7899 100.058,17.6232 101.5,18C 100.167,18.3333 98.8333,18.6667 97.5,19C 99.9355,19.853 102.269,20.853 104.5,22C 101.659,20.9884 100.326,22.1551 100.5,25.5C 98.9122,22.7817 97.5788,22.9484 96.5,26C 96.7591,27.2613 97.4258,28.2613 98.5,29C 97.1854,30.3946 97.5188,31.3946 99.5,32C 96.854,32.4974 94.1873,32.6641 91.5,32.5C 91.0217,29.7224 92.0217,27.7224 94.5,26.5C 94.0431,25.7025 93.3764,25.3691 92.5,25.5C 93.7017,23.6075 95.035,21.7742 96.5,20C 94.6183,19.8019 92.9516,19.3019 91.5,18.5C 92.8734,18.6567 94.2068,18.49 95.5,18C 94.7476,17.3292 94.4142,16.4959 94.5,15.5 Z"/></g>
<g><path style="opacity:1" fill="#3a2813" d="M 114.5,27.5 C 115.973,28.0715 117.64,28.0715 119.5,27.5C 119.721,30.2788 119.388,32.9455 118.5,35.5C 118.158,36.3382 117.492,36.6716 116.5,36.5C 115.868,33.5081 114.201,32.8414 111.5,34.5C 111.167,33.1667 110.833,31.8333 110.5,30.5C 109.77,31.9337 108.77,33.1004 107.5,34C 108.451,34.7175 108.617,35.5509 108,36.5C 107.329,35.7476 106.496,35.4142 105.5,35.5C 105.611,34.8826 105.944,34.3826 106.5,34C 105.376,33.7508 104.376,33.2508 103.5,32.5C 105.509,31.1537 107.509,29.8204 109.5,28.5C 111.62,30.0093 113.287,29.676 114.5,27.5 Z"/></g>
<g><path style="opacity:1" fill="#3e2c16" d="M 76.5,28.5 C 76.369,29.2389 76.5357,29.9056 77,30.5C 77.69,29.2617 78.19,29.2617 78.5,30.5C 77.5269,32.0683 77.3603,33.735 78,35.5C 79.016,34.3659 79.6827,34.6992 80,36.5C 80.9078,34.5614 82.4078,33.5614 84.5,33.5C 84.6795,35.9541 84.0128,38.1208 82.5,40C 82.7355,40.8732 83.0688,41.7065 83.5,42.5C 83.1543,43.6956 82.6543,43.6956 82,42.5C 81.8508,45.2785 81.0174,45.7785 79.5,44C 80.9277,40.5259 80.4277,40.0259 78,42.5C 77.8333,42.1667 77.6667,41.8333 77.5,41.5C 78.6053,40.1076 79.9386,38.941 81.5,38C 80.1971,37.7902 78.8638,37.9569 77.5,38.5C 76.2588,37.9628 75.0921,37.2961 74,36.5C 72.1886,37.4235 72.3553,38.2569 74.5,39C 73.944,39.3826 73.6107,39.8826 73.5,40.5C 72.2502,40.4226 71.4169,39.756 71,38.5C 70.3333,39.1667 69.6667,39.8333 69,40.5C 69.6171,38.9052 69.2837,37.5719 68,36.5C 67.51,37.7932 67.3433,39.1266 67.5,40.5C 66.448,40.6495 65.448,40.4828 64.5,40C 65.9661,38.4478 66.9661,36.6145 67.5,34.5C 68.365,33.4173 69.365,33.2506 70.5,34C 69.8333,34.3333 69.1667,34.6667 68.5,35C 70.9129,35.4838 73.2462,35.1505 75.5,34C 74.376,33.7508 73.376,33.2508 72.5,32.5C 74.9224,30.9522 74.9224,29.2855 72.5,27.5C 72.8333,27.1667 73.1667,26.8333 73.5,26.5C 74.2652,27.6119 75.2652,28.2786 76.5,28.5 Z"/></g>
<g><path style="opacity:1" fill="#3b2916" d="M 135.5,31.5 C 136.822,31.33 137.989,31.6634 139,32.5C 140.333,35.8333 141.667,39.1667 143,42.5C 143.667,46.1667 143.667,49.8333 143,53.5C 142.292,54.3805 141.458,55.0472 140.5,55.5C 138.682,54.5011 137.015,53.1678 135.5,51.5C 136.506,50.6043 136.506,49.9377 135.5,49.5C 130.477,50.4173 125.477,50.084 120.5,48.5C 121.529,48.7036 122.529,48.2036 123.5,47C 120.691,44.9436 119.358,45.7769 119.5,49.5C 118.761,49.631 118.094,49.4643 117.5,49C 116.252,47.6003 115.252,46.1003 114.5,44.5C 115.167,42.5 116.5,41.1667 118.5,40.5C 118.897,41.525 119.563,41.6917 120.5,41C 120.93,40.0805 121.264,39.2472 121.5,38.5C 123.726,40.9222 126.06,40.9222 128.5,38.5C 129.442,38.6082 130.275,38.9415 131,39.5C 131.167,39.1667 131.333,38.8333 131.5,38.5C 130.624,37.7492 129.624,37.2492 128.5,37C 130.444,34.5422 132.778,32.7089 135.5,31.5 Z"/></g>
<g><path style="opacity:1" fill="#3d2a14" d="M 57.5,28.5 C 57.3691,29.3764 57.7025,30.0431 58.5,30.5C 59.4255,29.3595 60.2588,29.3595 61,30.5C 62,27.8333 63,27.8333 64,30.5C 66.3172,27.8184 68.4839,27.985 70.5,31C 68.1538,30.2084 65.8205,30.3751 63.5,31.5C 63.3832,33.4835 64.0499,35.1502 65.5,36.5C 63.0312,37.1681 60.6979,37.8347 58.5,38.5C 58.6198,41.2048 57.6198,41.8715 55.5,40.5C 54.4805,41.6872 53.3139,42.6872 52,43.5C 51.2828,42.9558 50.7828,42.2891 50.5,41.5C 50.0825,40.7784 49.4158,40.2784 48.5,40C 49.5,39.6667 50.5,39.3333 51.5,39C 50.9645,36.0923 50.7978,33.259 51,30.5C 52.7889,28.771 54.9556,28.1043 57.5,28.5 Z"/></g>
<g><path style="opacity:1" fill="#3e2b16" d="M 125.5,23.5 C 128.818,26.1624 132.151,28.8291 135.5,31.5C 132.778,32.7089 130.444,34.5422 128.5,37C 129.624,37.2492 130.624,37.7492 131.5,38.5C 131.333,38.8333 131.167,39.1667 131,39.5C 130.275,38.9415 129.442,38.6082 128.5,38.5C 126.06,40.9222 123.726,40.9222 121.5,38.5C 121.264,39.2472 120.93,40.0805 120.5,41C 119.563,41.6917 118.897,41.525 118.5,40.5C 119.441,38.9505 120.107,37.2838 120.5,35.5C 120.694,33.0882 122.027,32.0882 124.5,32.5C 124.5,31.5 124.5,30.5 124.5,29.5C 122.897,29.6882 121.563,29.1882 120.5,28C 122.932,27.2572 124.599,25.7572 125.5,23.5 Z"/></g>
<g><path style="opacity:0.047" fill="#dcd9d7" d="M 124.5,20.5 C 128.771,24.975 133.771,28.475 139.5,31C 143.048,36.8373 145.381,43.1706 146.5,50C 145.821,53.0081 144.321,55.5081 142,57.5C 141.502,60.8168 141.335,64.1501 141.5,67.5C 140.518,64.0381 140.185,60.3714 140.5,56.5C 140.5,56.1667 140.5,55.8333 140.5,55.5C 141.458,55.0472 142.292,54.3805 143,53.5C 143.667,49.8333 143.667,46.1667 143,42.5C 141.667,39.1667 140.333,35.8333 139,32.5C 137.989,31.6634 136.822,31.33 135.5,31.5C 132.151,28.8291 128.818,26.1624 125.5,23.5C 125.5,22.8333 125.167,22.5 124.5,22.5C 124.5,21.8333 124.5,21.1667 124.5,20.5 Z"/></g>
<g><path style="opacity:1" fill="#382711" d="M 100.5,25.5 C 100.56,26.0431 100.893,26.3764 101.5,26.5C 102.914,25.376 104.414,24.376 106,23.5C 106.417,24.756 107.25,25.4226 108.5,25.5C 108.369,26.3764 108.702,27.0431 109.5,27.5C 110.532,25.9604 111.865,25.4604 113.5,26C 112.044,26.4226 111.544,27.2559 112,28.5C 112.671,27.7476 113.504,27.4142 114.5,27.5C 113.287,29.676 111.62,30.0093 109.5,28.5C 107.509,29.8204 105.509,31.1537 103.5,32.5C 104.376,33.2508 105.376,33.7508 106.5,34C 105.944,34.3826 105.611,34.8826 105.5,35.5C 104.883,35.3893 104.383,35.056 104,34.5C 103.691,35.7659 103.191,36.9326 102.5,38C 104.107,39.049 104.773,40.549 104.5,42.5C 102.665,41.8777 101.498,40.5444 101,38.5C 96.3252,40.334 94.4919,38.6673 95.5,33.5C 93.6916,33.4914 92.0249,33.9914 90.5,35C 95.8333,35.6667 95.8333,36.3333 90.5,37C 90.8333,37.3333 91.1667,37.6667 91.5,38C 90.2068,38.49 88.8734,38.6567 87.5,38.5C 88.7196,36.4186 89.3863,34.4186 89.5,32.5C 88.1745,32.7948 86.8412,32.2948 85.5,31C 85.9981,29.8419 86.8315,29.0085 88,28.5C 90.5203,29.8219 91.0203,29.1553 89.5,26.5C 90.325,25.6143 91.325,25.281 92.5,25.5C 93.3764,25.3691 94.0431,25.7025 94.5,26.5C 92.0217,27.7224 91.0217,29.7224 91.5,32.5C 94.1873,32.6641 96.854,32.4974 99.5,32C 97.5188,31.3946 97.1854,30.3946 98.5,29C 97.4258,28.2613 96.7591,27.2613 96.5,26C 97.5788,22.9484 98.9122,22.7817 100.5,25.5 Z"/></g>
<g><path style="opacity:1" fill="#3e2c17" d="M 116.5,36.5 C 115.036,38.6297 113.036,39.963 110.5,40.5C 110.771,42.3797 110.104,43.713 108.5,44.5C 108.082,43.7784 107.416,43.2784 106.5,43C 107.451,42.2825 107.617,41.4491 107,40.5C 106.292,41.3805 105.458,42.0472 104.5,42.5C 104.773,40.549 104.107,39.049 102.5,38C 103.191,36.9326 103.691,35.7659 104,34.5C 104.383,35.056 104.883,35.3893 105.5,35.5C 106.496,35.4142 107.329,35.7476 108,36.5C 108.617,35.5509 108.451,34.7175 107.5,34C 108.77,33.1004 109.77,31.9337 110.5,30.5C 110.833,31.8333 111.167,33.1667 111.5,34.5C 114.201,32.8414 115.868,33.5081 116.5,36.5 Z"/></g>
<g><path style="opacity:1" fill="#362516" d="M 61.5,19.5 C 63.7957,19.8041 64.129,20.8041 62.5,22.5C 59.9829,23.8927 58.3163,25.8927 57.5,28.5C 54.9556,28.1043 52.7889,28.771 51,30.5C 50.7978,33.259 50.9645,36.0923 51.5,39C 50.5,39.3333 49.5,39.6667 48.5,40C 49.4158,40.2784 50.0825,40.7784 50.5,41.5C 49.1667,41.5 48.5,42.1667 48.5,43.5C 47.5,43.5 46.5,43.5 45.5,43.5C 45.5,41.8333 45.5,40.1667 45.5,38.5C 45.5,37.8333 45.5,37.1667 45.5,36.5C 49.3984,29.598 54.7318,23.9313 61.5,19.5 Z"/></g>
<g><path style="opacity:1" fill="#382711" d="M 78.5,30.5 C 80.0418,31.3007 81.7085,31.634 83.5,31.5C 85.0195,33.5884 86.0195,35.9217 86.5,38.5C 86.5198,40.143 85.8532,41.4763 84.5,42.5C 84.7093,43.086 85.0426,43.586 85.5,44C 87.2317,42.4147 90.565,41.748 95.5,42C 94.1667,42.3333 92.8333,42.6667 91.5,43C 90.7476,43.6708 90.4142,44.5041 90.5,45.5C 88.9537,45.7239 87.287,46.0573 85.5,46.5C 87.7476,47.324 87.9142,48.324 86,49.5C 83.2628,48.3895 80.4294,48.2228 77.5,49C 78.8333,49.6667 78.8333,50.3333 77.5,51C 78.8333,51.3333 80.1667,51.6667 81.5,52C 77.9178,52.5954 77.5845,53.9288 80.5,56C 80.2716,56.3988 79.9382,56.5654 79.5,56.5C 76.5,56.5 73.5,56.5 70.5,56.5C 72.0251,54.9642 74.0251,53.9642 76.5,53.5C 74.2573,52.5258 71.924,52.1924 69.5,52.5C 70.911,50.461 72.911,49.461 75.5,49.5C 75.1367,47.0885 76.1367,45.5885 78.5,45C 76.9379,43.3664 75.2713,41.8664 73.5,40.5C 73.6107,39.8826 73.944,39.3826 74.5,39C 72.3553,38.2569 72.1886,37.4235 74,36.5C 75.0921,37.2961 76.2588,37.9628 77.5,38.5C 78.8638,37.9569 80.1971,37.7902 81.5,38C 79.9386,38.941 78.6053,40.1076 77.5,41.5C 77.6667,41.8333 77.8333,42.1667 78,42.5C 80.4277,40.0259 80.9277,40.5259 79.5,44C 81.0174,45.7785 81.8508,45.2785 82,42.5C 82.6543,43.6956 83.1543,43.6956 83.5,42.5C 83.0688,41.7065 82.7355,40.8732 82.5,40C 84.0128,38.1208 84.6795,35.9541 84.5,33.5C 82.4078,33.5614 80.9078,34.5614 80,36.5C 79.6827,34.6992 79.016,34.3659 78,35.5C 77.3603,33.735 77.5269,32.0683 78.5,30.5 Z"/></g>
<g><path style="opacity:1" fill="#3d2c15" d="M 104.5,42.5 C 105.458,42.0472 106.292,41.3805 107,40.5C 107.617,41.4491 107.451,42.2825 106.5,43C 107.416,43.2784 108.082,43.7784 108.5,44.5C 104.236,44.3442 100.236,45.0109 96.5,46.5C 94.9317,47.4731 93.265,47.6397 91.5,47C 95.2259,45.9568 94.8926,45.4568 90.5,45.5C 90.4142,44.5041 90.7476,43.6708 91.5,43C 92.8333,42.6667 94.1667,42.3333 95.5,42C 90.565,41.748 87.2317,42.4147 85.5,44C 85.0426,43.586 84.7093,43.086 84.5,42.5C 85.8532,41.4763 86.5198,40.143 86.5,38.5C 86.8333,38.5 87.1667,38.5 87.5,38.5C 88.8734,38.6567 90.2068,38.49 91.5,38C 91.1667,37.6667 90.8333,37.3333 90.5,37C 95.8333,36.3333 95.8333,35.6667 90.5,35C 92.0249,33.9914 93.6916,33.4914 95.5,33.5C 94.4919,38.6673 96.3252,40.334 101,38.5C 101.498,40.5444 102.665,41.8777 104.5,42.5 Z"/></g>
<g><path style="opacity:0.325" fill="#d2cecb" d="M 45.5,36.5 C 45.5,37.1667 45.5,37.8333 45.5,38.5C 44.3654,41.9018 43.0321,45.2351 41.5,48.5C 41.4703,43.9215 42.8037,39.9215 45.5,36.5 Z"/></g>
<g><path style="opacity:1" fill="#412f19" d="M 58.5,38.5 C 59.9778,38.238 61.3112,38.5713 62.5,39.5C 61.814,41.0639 61.9806,42.7306 63,44.5C 64.4659,42.6751 66.2992,42.1751 68.5,43C 67.5,43.3333 66.5,43.6667 65.5,44C 69.0162,44.7413 71.6829,43.5746 73.5,40.5C 75.2713,41.8664 76.9379,43.3664 78.5,45C 76.1367,45.5885 75.1367,47.0885 75.5,49.5C 72.911,49.461 70.911,50.461 69.5,52.5C 68.4711,51.8743 67.4711,51.041 66.5,50C 68.0589,49.0201 69.7256,48.1867 71.5,47.5C 71.3333,47.1667 71.1667,46.8333 71,46.5C 68.2111,46.6196 65.3777,46.9529 62.5,47.5C 61.6143,46.675 61.281,45.675 61.5,44.5C 60.1266,44.3433 58.7932,44.51 57.5,45C 59.5951,45.5556 59.7618,46.0556 58,46.5C 57.0979,46.2568 56.2646,45.9234 55.5,45.5C 55.631,44.7611 55.4643,44.0944 55,43.5C 53.9148,44.2931 52.7481,44.9598 51.5,45.5C 50.7348,44.3881 49.7348,43.7214 48.5,43.5C 48.5,42.1667 49.1667,41.5 50.5,41.5C 50.7828,42.2891 51.2828,42.9558 52,43.5C 53.3139,42.6872 54.4805,41.6872 55.5,40.5C 57.6198,41.8715 58.6198,41.2048 58.5,38.5 Z"/></g>
<g><path style="opacity:0.043" fill="#d5d1cc" d="M 118.5,35.5 C 119.167,35.5 119.833,35.5 120.5,35.5C 120.107,37.2838 119.441,38.9505 118.5,40.5C 116.5,41.1667 115.167,42.5 114.5,44.5C 110.633,46.5644 106.633,48.231 102.5,49.5C 103.263,48.7321 104.263,48.2321 105.5,48C 102.986,46.7475 100.32,46.2475 97.5,46.5C 97.5,47.5 97.5,48.5 97.5,49.5C 98.8333,49.5 100.167,49.5 101.5,49.5C 101.5,49.8333 101.5,50.1667 101.5,50.5C 100.833,50.5 100.167,50.5 99.5,50.5C 98.1667,50.5 96.8333,50.5 95.5,50.5C 95.8333,49.1667 96.1667,47.8333 96.5,46.5C 100.236,45.0109 104.236,44.3442 108.5,44.5C 110.104,43.713 110.771,42.3797 110.5,40.5C 113.036,39.963 115.036,38.6297 116.5,36.5C 117.492,36.6716 118.158,36.3382 118.5,35.5 Z M 102.5,49.5 C 102.167,49.5 101.833,49.5 101.5,49.5C 100.167,49.5 98.8333,49.5 97.5,49.5C 97.5,48.5 97.5,47.5 97.5,46.5C 100.32,46.2475 102.986,46.7475 105.5,48C 104.263,48.2321 103.263,48.7321 102.5,49.5 Z"/></g>
<g><path style="opacity:1" fill="#47341e" d="M 90.5,45.5 C 94.8926,45.4568 95.2259,45.9568 91.5,47C 93.265,47.6397 94.9317,47.4731 96.5,46.5C 96.1667,47.8333 95.8333,49.1667 95.5,50.5C 94.2652,50.2786 93.2652,49.6119 92.5,48.5C 91.0815,49.0047 90.4148,50.0047 90.5,51.5C 87.9153,52.0724 85.2487,52.2391 82.5,52C 83.1667,52.3333 83.8333,52.6667 84.5,53C 83.7069,54.0852 83.0402,55.2519 82.5,56.5C 83.3742,58.7466 83.7076,61.0799 83.5,63.5C 82.235,61.2088 80.9017,58.8754 79.5,56.5C 79.9382,56.5654 80.2716,56.3988 80.5,56C 77.5845,53.9288 77.9178,52.5954 81.5,52C 80.1667,51.6667 78.8333,51.3333 77.5,51C 78.8333,50.3333 78.8333,49.6667 77.5,49C 80.4294,48.2228 83.2628,48.3895 86,49.5C 87.9142,48.324 87.7476,47.324 85.5,46.5C 87.287,46.0573 88.9537,45.7239 90.5,45.5 Z"/></g>
<g><path style="opacity:1" fill="#3d2b15" d="M 69.5,52.5 C 71.924,52.1924 74.2573,52.5258 76.5,53.5C 74.0251,53.9642 72.0251,54.9642 70.5,56.5C 70.5,57.1667 70.1667,57.5 69.5,57.5C 68.4583,56.2089 67.2917,56.2089 66,57.5C 65.6667,56.5 65.3333,55.5 65,54.5C 63.6439,55.3802 62.1439,55.7135 60.5,55.5C 61.2625,54.7321 62.2625,54.2321 63.5,54C 62.9747,53.3076 62.3081,52.8076 61.5,52.5C 60.3348,53.4911 59.1681,54.4911 58,55.5C 58.0577,54.02 56.8911,53.1867 54.5,53C 55.435,50.6194 55.7683,48.1194 55.5,45.5C 56.2646,45.9234 57.0979,46.2568 58,46.5C 59.7618,46.0556 59.5951,45.5556 57.5,45C 58.7932,44.51 60.1266,44.3433 61.5,44.5C 61.281,45.675 61.6143,46.675 62.5,47.5C 65.3777,46.9529 68.2111,46.6196 71,46.5C 71.1667,46.8333 71.3333,47.1667 71.5,47.5C 69.7256,48.1867 68.0589,49.0201 66.5,50C 67.4711,51.041 68.4711,51.8743 69.5,52.5 Z"/></g>
<g><path style="opacity:0.957" fill="#7d6f5b" d="M 95.5,50.5 C 96.8333,50.5 98.1667,50.5 99.5,50.5C 96.7131,51.4767 93.7131,51.81 90.5,51.5C 90.4148,50.0047 91.0815,49.0047 92.5,48.5C 93.2652,49.6119 94.2652,50.2786 95.5,50.5 Z"/></g>
<g><path style="opacity:1" fill="#392611" d="M 140.5,55.5 C 138.738,55.6427 137.071,55.3094 135.5,54.5C 134.841,57.8237 132.841,59.1571 129.5,58.5C 131.164,56.3209 130.83,54.4875 128.5,53C 129.549,52.5078 130.549,52.6744 131.5,53.5C 132.696,53.1543 132.696,52.6543 131.5,52C 129.782,51.654 128.115,51.154 126.5,50.5C 125.396,51.6313 125.729,52.4646 127.5,53C 126.333,53.5 125.5,54.3333 125,55.5C 123.887,54.2889 122.72,54.2889 121.5,55.5C 120.792,53.8974 120.125,51.8974 119.5,49.5C 119.358,45.7769 120.691,44.9436 123.5,47C 122.529,48.2036 121.529,48.7036 120.5,48.5C 125.477,50.084 130.477,50.4173 135.5,49.5C 136.506,49.9377 136.506,50.6043 135.5,51.5C 137.015,53.1678 138.682,54.5011 140.5,55.5 Z"/></g>
<g><path style="opacity:1" fill="#55463c" d="M 45.5,38.5 C 45.5,40.1667 45.5,41.8333 45.5,43.5C 45.8333,44.1667 46.1667,44.8333 46.5,45.5C 45.8141,46.8484 44.8141,48.015 43.5,49C 44.1667,52 44.8333,55 45.5,58C 44.8333,58.3333 44.1667,58.6667 43.5,59C 43.6638,61.6988 43.8305,64.5321 44,67.5C 45.0495,66.4829 46.2161,66.3162 47.5,67C 45.9371,67.7589 44.9371,68.9256 44.5,70.5C 43.2028,68.6287 42.2028,66.6287 41.5,64.5C 40.1979,59.0671 40.1979,53.7337 41.5,48.5C 43.0321,45.2351 44.3654,41.9018 45.5,38.5 Z"/></g>
<g><path style="opacity:1" fill="#3b2914" d="M 99.5,50.5 C 100.167,50.5 100.833,50.5 101.5,50.5C 103.764,51.2186 106.097,51.552 108.5,51.5C 107.62,53.6112 107.62,55.6112 108.5,57.5C 107.504,57.5858 106.671,57.2524 106,56.5C 106.409,58.2251 106.242,59.8918 105.5,61.5C 102.979,62.7853 100.313,63.4519 97.5,63.5C 96.3215,61.4935 96.8215,61.1602 99,62.5C 99.7805,61.0563 99.6139,59.723 98.5,58.5C 96.8983,59.55 96.065,58.8833 96,56.5C 95.9546,59.334 95.1213,61.834 93.5,64C 93.8333,64.3333 94.1667,64.6667 94.5,65C 92.5594,65.7429 90.7261,65.5762 89,64.5C 89.1519,66.0761 89.9852,67.4095 91.5,68.5C 89.604,69.4656 87.604,69.7989 85.5,69.5C 87.3865,66.509 86.7198,64.509 83.5,63.5C 83.7076,61.0799 83.3742,58.7466 82.5,56.5C 83.0402,55.2519 83.7069,54.0852 84.5,53C 83.8333,52.6667 83.1667,52.3333 82.5,52C 85.2487,52.2391 87.9153,52.0724 90.5,51.5C 93.7131,51.81 96.7131,51.4767 99.5,50.5 Z"/></g>
<g><path style="opacity:1" fill="#3b2a14" d="M 45.5,43.5 C 46.5,43.5 47.5,43.5 48.5,43.5C 49.7348,43.7214 50.7348,44.3881 51.5,45.5C 52.7481,44.9598 53.9148,44.2931 55,43.5C 55.4643,44.0944 55.631,44.7611 55.5,45.5C 55.7683,48.1194 55.435,50.6194 54.5,53C 56.8911,53.1867 58.0577,54.02 58,55.5C 59.1681,54.4911 60.3348,53.4911 61.5,52.5C 62.3081,52.8076 62.9747,53.3076 63.5,54C 62.2625,54.2321 61.2625,54.7321 60.5,55.5C 61.5381,57.1084 60.8714,58.1084 58.5,58.5C 57.5224,58.0233 56.6891,57.3567 56,56.5C 56.1953,58.1261 56.1953,59.7928 56,61.5C 55.131,58.6697 53.9643,56.003 52.5,53.5C 51.9478,55.0026 51.9478,56.6693 52.5,58.5C 45.7152,57.9025 44.0485,54.7358 47.5,49C 46.6634,47.9887 46.33,46.8221 46.5,45.5C 46.1667,44.8333 45.8333,44.1667 45.5,43.5 Z"/></g>
<g><path style="opacity:1" fill="#3d2b17" d="M 114.5,44.5 C 115.252,46.1003 116.252,47.6003 117.5,49C 118.094,49.4643 118.761,49.631 119.5,49.5C 120.125,51.8974 120.792,53.8974 121.5,55.5C 122.72,54.2889 123.887,54.2889 125,55.5C 125.5,54.3333 126.333,53.5 127.5,53C 125.729,52.4646 125.396,51.6313 126.5,50.5C 128.115,51.154 129.782,51.654 131.5,52C 132.696,52.6543 132.696,53.1543 131.5,53.5C 130.549,52.6744 129.549,52.5078 128.5,53C 130.83,54.4875 131.164,56.3209 129.5,58.5C 130.091,59.1515 130.757,59.8182 131.5,60.5C 130.132,62.637 129.132,64.9703 128.5,67.5C 127.893,67.3764 127.56,67.0431 127.5,66.5C 127.5,64.5 127.5,62.5 127.5,60.5C 122.803,61.1726 118.803,63.1726 115.5,66.5C 113.54,67.1383 111.707,67.1383 110,66.5C 109.289,64.6332 109.789,63.1332 111.5,62C 109.193,61.6458 108.859,60.6458 110.5,59C 110.164,57.9701 109.497,57.4701 108.5,57.5C 107.62,55.6112 107.62,53.6112 108.5,51.5C 106.097,51.552 103.764,51.2186 101.5,50.5C 101.5,50.1667 101.5,49.8333 101.5,49.5C 101.833,49.5 102.167,49.5 102.5,49.5C 106.633,48.231 110.633,46.5644 114.5,44.5 Z"/></g>
<g><path style="opacity:1" fill="#3b2915" d="M 140.5,55.5 C 140.5,55.8333 140.5,56.1667 140.5,56.5C 139.833,56.5 139.5,56.8333 139.5,57.5C 138.514,61.97 138.181,66.6367 138.5,71.5C 135.366,72.6221 132.699,72.6221 130.5,71.5C 129.791,70.596 128.791,70.2627 127.5,70.5C 127.443,69.391 127.11,68.391 126.5,67.5C 126.5,66.8333 126.833,66.5 127.5,66.5C 127.56,67.0431 127.893,67.3764 128.5,67.5C 129.132,64.9703 130.132,62.637 131.5,60.5C 130.757,59.8182 130.091,59.1515 129.5,58.5C 132.841,59.1571 134.841,57.8237 135.5,54.5C 137.071,55.3094 138.738,55.6427 140.5,55.5 Z"/></g>
<g><path style="opacity:1" fill="#372613" d="M 46.5,45.5 C 46.33,46.8221 46.6634,47.9887 47.5,49C 44.0485,54.7358 45.7152,57.9025 52.5,58.5C 51.9478,56.6693 51.9478,55.0026 52.5,53.5C 53.9643,56.003 55.131,58.6697 56,61.5C 56.1953,59.7928 56.1953,58.1261 56,56.5C 56.6891,57.3567 57.5224,58.0233 58.5,58.5C 60.8714,58.1084 61.5381,57.1084 60.5,55.5C 62.1439,55.7135 63.6439,55.3802 65,54.5C 65.3333,55.5 65.6667,56.5 66,57.5C 67.2917,56.2089 68.4583,56.2089 69.5,57.5C 64.2778,62.6934 61.9444,69.0267 62.5,76.5C 62.7845,78.4147 62.4511,80.0813 61.5,81.5C 61.0203,75.809 60.3536,70.1423 59.5,64.5C 60.8333,64.5 62.1667,64.5 63.5,64.5C 63.2865,62.8561 63.6198,61.3561 64.5,60C 62.1794,58.2865 61.1794,59.1198 61.5,62.5C 57.9267,62.9588 54.9267,61.9588 52.5,59.5C 50.7445,59.3595 49.0778,59.8595 47.5,61C 48.549,64.0528 49.2157,67.2195 49.5,70.5C 46.0099,72.8009 45.6766,75.4675 48.5,78.5C 49.1818,77.7573 49.8485,77.0906 50.5,76.5C 50.4142,77.4959 50.7476,78.3292 51.5,79C 50.354,79.6449 49.354,80.4783 48.5,81.5C 47.8182,80.7573 47.1515,80.0906 46.5,79.5C 45.8333,76.5 45.1667,73.5 44.5,70.5C 44.9371,68.9256 45.9371,67.7589 47.5,67C 46.2161,66.3162 45.0495,66.4829 44,67.5C 43.8305,64.5321 43.6638,61.6988 43.5,59C 44.1667,58.6667 44.8333,58.3333 45.5,58C 44.8333,55 44.1667,52 43.5,49C 44.8141,48.015 45.8141,46.8484 46.5,45.5 Z"/></g>
<g><path style="opacity:1" fill="#3c2b15" d="M 61.5,81.5 C 61.5654,81.9382 61.3988,82.2716 61,82.5C 60.6667,81.8333 60.3333,81.1667 60,80.5C 59,81.8333 58,81.8333 57,80.5C 56.776,77.8895 57.276,75.3895 58.5,73C 55.3716,70.6446 54.2049,71.1446 55,74.5C 54,73.8333 53,73.1667 52,72.5C 51.5439,73.7441 52.0439,74.5774 53.5,75C 52.7562,76.0386 51.7562,76.5386 50.5,76.5C 49.8485,77.0906 49.1818,77.7573 48.5,78.5C 45.6766,75.4675 46.0099,72.8009 49.5,70.5C 49.2157,67.2195 48.549,64.0528 47.5,61C 49.0778,59.8595 50.7445,59.3595 52.5,59.5C 54.9267,61.9588 57.9267,62.9588 61.5,62.5C 61.1794,59.1198 62.1794,58.2865 64.5,60C 63.6198,61.3561 63.2865,62.8561 63.5,64.5C 62.1667,64.5 60.8333,64.5 59.5,64.5C 60.3536,70.1423 61.0203,75.809 61.5,81.5 Z"/></g>
<g><path style="opacity:1" fill="#3d2c16" d="M 108.5,57.5 C 108.973,60.8329 107.64,62.9996 104.5,64C 105.833,64.3333 107.167,64.6667 108.5,65C 107.167,65.6667 107.167,66.3333 108.5,67C 107.833,67.3333 107.167,67.6667 106.5,68C 109.714,68.41 110.38,69.91 108.5,72.5C 108.667,73.1667 108.833,73.8333 109,74.5C 109.654,73.3044 110.154,73.3044 110.5,74.5C 110.081,75.6721 109.415,76.6721 108.5,77.5C 106.929,76.6906 105.262,76.3573 103.5,76.5C 103.5,76.1667 103.5,75.8333 103.5,75.5C 102.482,73.4813 101.482,71.3146 100.5,69C 101.951,69.2626 103.284,69.0959 104.5,68.5C 101.493,68.0146 99.4931,67.0146 98.5,65.5C 97.7375,64.7321 96.7375,64.2321 95.5,64C 96.0944,63.5357 96.7611,63.369 97.5,63.5C 100.313,63.4519 102.979,62.7853 105.5,61.5C 106.242,59.8918 106.409,58.2251 106,56.5C 106.671,57.2524 107.504,57.5858 108.5,57.5 Z"/></g>
<g><path style="opacity:1" fill="#42321e" d="M 78.5,62.5 C 77.6981,63.9516 77.1981,65.6183 77,67.5C 76.2496,68.1258 75.4162,68.6258 74.5,69C 74.8333,69.3333 75.1667,69.6667 75.5,70C 73.6891,69.293 71.6891,68.793 69.5,68.5C 69.7573,71.9322 70.424,75.2655 71.5,78.5C 72.8734,78.6567 74.2068,78.49 75.5,78C 72.8875,76.9288 72.8875,76.0955 75.5,75.5C 77.2252,75.8425 77.7252,76.8425 77,78.5C 74.6742,78.88 72.8409,79.88 71.5,81.5C 71.1667,81.5 70.8333,81.5 70.5,81.5C 70.7709,79.6203 70.1042,78.287 68.5,77.5C 67.5249,71.9161 68.8582,67.0827 72.5,63C 74.5654,61.4577 76.5654,61.291 78.5,62.5 Z"/></g>
<g><path style="opacity:0.051" fill="#d4d2cf" d="M 41.5,64.5 C 42.2028,66.6287 43.2028,68.6287 44.5,70.5C 45.1667,73.5 45.8333,76.5 46.5,79.5C 46.2155,81.4147 46.5489,83.0813 47.5,84.5C 47.8023,88.7905 47.1357,92.7905 45.5,96.5C 45.3444,93.9339 45.6777,91.4339 46.5,89C 44.9341,80.8051 43.2674,72.6384 41.5,64.5 Z"/></g>
<g><path style="opacity:1" fill="#44321c" d="M 97.5,63.5 C 96.7611,63.369 96.0944,63.5357 95.5,64C 96.7375,64.2321 97.7375,64.7321 98.5,65.5C 94.0438,65.8962 93.7105,66.8962 97.5,68.5C 96.7261,69.7112 95.8928,69.7112 95,68.5C 90.9564,70.2024 86.7897,71.5357 82.5,72.5C 82.3601,70.8762 83.0267,69.7096 84.5,69C 82.6992,68.6827 82.3659,68.016 83.5,67C 82.244,66.5831 81.5774,65.7498 81.5,64.5C 82.4916,64.6716 83.1583,64.3382 83.5,63.5C 86.7198,64.509 87.3865,66.509 85.5,69.5C 87.604,69.7989 89.604,69.4656 91.5,68.5C 89.9852,67.4095 89.1519,66.0761 89,64.5C 90.7261,65.5762 92.5594,65.7429 94.5,65C 94.1667,64.6667 93.8333,64.3333 93.5,64C 95.1213,61.834 95.9546,59.334 96,56.5C 96.065,58.8833 96.8983,59.55 98.5,58.5C 99.6139,59.723 99.7805,61.0563 99,62.5C 96.8215,61.1602 96.3215,61.4935 97.5,63.5 Z"/></g>
<g><path style="opacity:1" fill="#392610" d="M 108.5,57.5 C 109.497,57.4701 110.164,57.9701 110.5,59C 108.859,60.6458 109.193,61.6458 111.5,62C 109.789,63.1332 109.289,64.6332 110,66.5C 111.707,67.1383 113.54,67.1383 115.5,66.5C 115.288,68.3841 114.288,69.7174 112.5,70.5C 114.5,71.3333 116.5,72.1667 118.5,73C 116.423,73.1922 114.423,73.6922 112.5,74.5C 112.709,75.086 113.043,75.586 113.5,76C 110.034,77.1062 109.368,78.6062 111.5,80.5C 110.508,80.3284 109.842,80.6618 109.5,81.5C 107.49,82.5266 105.324,83.5266 103,84.5C 102.5,84.1667 102,83.8333 101.5,83.5C 103.173,81.4775 103.84,79.1441 103.5,76.5C 105.262,76.3573 106.929,76.6906 108.5,77.5C 109.415,76.6721 110.081,75.6721 110.5,74.5C 110.154,73.3044 109.654,73.3044 109,74.5C 108.833,73.8333 108.667,73.1667 108.5,72.5C 110.38,69.91 109.714,68.41 106.5,68C 107.167,67.6667 107.833,67.3333 108.5,67C 107.167,66.3333 107.167,65.6667 108.5,65C 107.167,64.6667 105.833,64.3333 104.5,64C 107.64,62.9996 108.973,60.8329 108.5,57.5 Z"/></g>
<g><path style="opacity:0.106" fill="#d5d2cf" d="M 127.5,66.5 C 126.833,66.5 126.5,66.8333 126.5,67.5C 126.167,67.5 125.833,67.5 125.5,67.5C 126.038,65.8828 126.371,64.2161 126.5,62.5C 123.345,62.6053 120.678,63.7719 118.5,66C 120.547,68.3377 122.881,69.171 125.5,68.5C 125.167,69.8333 124.833,71.1667 124.5,72.5C 124.5,72.8333 124.5,73.1667 124.5,73.5C 123.883,73.6107 123.383,73.944 123,74.5C 121.736,70.7343 119.236,68.0676 115.5,66.5C 118.803,63.1726 122.803,61.1726 127.5,60.5C 127.5,62.5 127.5,64.5 127.5,66.5 Z"/></g>
<g><path style="opacity:0.992" fill="#978571" d="M 125.5,67.5 C 125.833,67.5 126.167,67.5 126.5,67.5C 127.11,68.391 127.443,69.391 127.5,70.5C 126.5,71.1667 125.5,71.8333 124.5,72.5C 124.833,71.1667 125.167,69.8333 125.5,68.5C 125.5,68.1667 125.5,67.8333 125.5,67.5 Z"/></g>
<g><path style="opacity:1" fill="#392811" d="M 78.5,62.5 C 80.0269,62.427 81.0269,63.0937 81.5,64.5C 81.5774,65.7498 82.244,66.5831 83.5,67C 82.3659,68.016 82.6992,68.6827 84.5,69C 83.0267,69.7096 82.3601,70.8762 82.5,72.5C 86.7897,71.5357 90.9564,70.2024 95,68.5C 95.8928,69.7112 96.7261,69.7112 97.5,68.5C 93.7105,66.8962 94.0438,65.8962 98.5,65.5C 99.4931,67.0146 101.493,68.0146 104.5,68.5C 103.284,69.0959 101.951,69.2626 100.5,69C 101.482,71.3146 102.482,73.4813 103.5,75.5C 102.833,75.5 102.167,75.5 101.5,75.5C 100.942,74.2101 99.9423,73.3768 98.5,73C 101.076,71.6166 100.742,70.7833 97.5,70.5C 92.8489,72.491 88.1822,74.491 83.5,76.5C 82.06,75.1305 79.7267,74.1305 76.5,73.5C 77.0606,70.8133 76.3939,70.8133 74.5,73.5C 74.8627,74.1835 75.1961,74.8501 75.5,75.5C 72.8875,76.0955 72.8875,76.9288 75.5,78C 74.2068,78.49 72.8734,78.6567 71.5,78.5C 70.424,75.2655 69.7573,71.9322 69.5,68.5C 71.6891,68.793 73.6891,69.293 75.5,70C 75.1667,69.6667 74.8333,69.3333 74.5,69C 75.4162,68.6258 76.2496,68.1258 77,67.5C 77.1981,65.6183 77.6981,63.9516 78.5,62.5 Z"/></g>
<g><path style="opacity:0.014" fill="#dddbd9" d="M 70.5,56.5 C 73.5,56.5 76.5,56.5 79.5,56.5C 80.9017,58.8754 82.235,61.2088 83.5,63.5C 83.1583,64.3382 82.4916,64.6716 81.5,64.5C 81.0269,63.0937 80.0269,62.427 78.5,62.5C 76.5654,61.291 74.5654,61.4577 72.5,63C 68.8582,67.0827 67.5249,71.9161 68.5,77.5C 66.1525,74.0256 65.9858,70.3589 68,66.5C 70.4625,62.0145 74.2958,59.6812 79.5,59.5C 78.4729,57.976 76.9729,57.3094 75,57.5C 72.9658,57.3536 71.2991,58.0203 70,59.5C 63.5856,67.8004 62.9189,76.467 68,85.5C 71.4845,87.1498 74.6512,89.1498 77.5,91.5C 77.5,91.8333 77.5,92.1667 77.5,92.5C 76.5,92.5 75.5,92.5 74.5,92.5C 71.2123,89.5507 67.879,86.5507 64.5,83.5C 64.0733,80.9902 63.4067,78.6568 62.5,76.5C 61.9444,69.0267 64.2778,62.6934 69.5,57.5C 70.1667,57.5 70.5,57.1667 70.5,56.5 Z"/></g>
<g><path style="opacity:1" fill="#43301b" d="M 115.5,66.5 C 119.236,68.0676 121.736,70.7343 123,74.5C 123.383,73.944 123.883,73.6107 124.5,73.5C 124.714,75.1439 124.38,76.6439 123.5,78C 120.668,78.2121 118.002,78.3787 115.5,78.5C 114.479,79.0016 114.312,79.6683 115,80.5C 115.977,79.2264 116.811,79.2264 117.5,80.5C 116.379,82.0894 116.546,83.7561 118,85.5C 118.308,84.6919 118.808,84.0253 119.5,83.5C 119.94,84.698 120.273,85.8647 120.5,87C 118.186,88.0873 116.852,89.9206 116.5,92.5C 114.517,92.8432 113.183,92.1765 112.5,90.5C 116.796,90.9199 117.463,89.2532 114.5,85.5C 114.709,84.914 115.043,84.414 115.5,84C 114.207,83.51 112.873,83.3433 111.5,83.5C 111.5,82.5 111.5,81.5 111.5,80.5C 109.368,78.6062 110.034,77.1062 113.5,76C 113.043,75.586 112.709,75.086 112.5,74.5C 114.423,73.6922 116.423,73.1922 118.5,73C 116.5,72.1667 114.5,71.3333 112.5,70.5C 114.288,69.7174 115.288,68.3841 115.5,66.5 Z"/></g>
<g><path style="opacity:1" fill="#372511" d="M 127.5,70.5 C 128.791,70.2627 129.791,70.596 130.5,71.5C 129.602,72.1577 128.602,72.8243 127.5,73.5C 129.078,74.2978 130.744,74.7978 132.5,75C 132.167,75.3333 131.833,75.6667 131.5,76C 132.899,76.5946 134.232,76.4279 135.5,75.5C 136.192,76.0253 136.692,76.6919 137,77.5C 138.183,76.269 139.349,76.269 140.5,77.5C 138.881,77.9048 136.881,78.4048 134.5,79C 135.308,79.3076 135.975,79.8076 136.5,80.5C 135.311,81.4287 133.978,81.762 132.5,81.5C 131.624,81.6309 130.957,81.2975 130.5,80.5C 131.506,79.6043 131.506,78.9377 130.5,78.5C 129.218,81.6418 126.885,82.9752 123.5,82.5C 124.681,80.9328 126.347,80.0995 128.5,80C 124.871,79.5925 121.371,80.0925 118,81.5C 117.601,81.2716 117.435,80.9382 117.5,80.5C 116.811,79.2264 115.977,79.2264 115,80.5C 114.312,79.6683 114.479,79.0016 115.5,78.5C 118.002,78.3787 120.668,78.2121 123.5,78C 124.38,76.6439 124.714,75.1439 124.5,73.5C 124.5,73.1667 124.5,72.8333 124.5,72.5C 125.5,71.8333 126.5,71.1667 127.5,70.5 Z"/></g>
<g><path style="opacity:0.071" fill="#dcdad8" d="M 140.5,56.5 C 140.185,60.3714 140.518,64.0381 141.5,67.5C 142.605,74.1811 144.771,80.5144 148,86.5C 148.637,90.0616 147.47,92.8949 144.5,95C 138.769,95.2096 133.103,95.8763 127.5,97C 125.369,98.8881 125.369,100.388 127.5,101.5C 131.257,99.5816 135.257,99.0816 139.5,100C 143.516,103.428 143.183,106.261 138.5,108.5C 140.704,103.923 139.371,101.256 134.5,100.5C 130.121,101.845 125.788,103.179 121.5,104.5C 121.158,103.662 120.492,103.328 119.5,103.5C 122.328,101.934 124.328,99.6008 125.5,96.5C 131.79,95.169 138.123,94.0023 144.5,93C 145.944,91.874 146.61,90.374 146.5,88.5C 146.281,86.3069 145.615,84.3069 144.5,82.5C 140.162,74.7808 138.496,66.4475 139.5,57.5C 139.5,56.8333 139.833,56.5 140.5,56.5 Z"/></g>
<g><path style="opacity:1" fill="#45341e" d="M 61.5,81.5 C 62.4511,80.0813 62.7845,78.4147 62.5,76.5C 63.4067,78.6568 64.0733,80.9902 64.5,83.5C 62.2452,83.3471 60.5785,84.6804 59.5,87.5C 60.325,88.3857 61.325,88.719 62.5,88.5C 62.33,89.8221 62.6634,90.9887 63.5,92C 62.1807,92.195 60.8474,92.0283 59.5,91.5C 58.7375,90.7321 57.7375,90.2321 56.5,90C 58.8776,89.0255 58.5443,88.3589 55.5,88C 56.2529,86.513 57.0862,86.3463 58,87.5C 58.4828,86.552 58.6495,85.552 58.5,84.5C 57.5,84.5 56.5,84.5 55.5,84.5C 55.7358,80.5656 54.4025,79.3989 51.5,81C 54.1667,81.6667 54.1667,82.3333 51.5,83C 53.4812,83.6054 53.8146,84.6054 52.5,86C 49.9362,86.4502 48.4362,85.2836 48,82.5C 47.5357,83.0944 47.369,83.7611 47.5,84.5C 46.5489,83.0813 46.2155,81.4147 46.5,79.5C 47.1515,80.0906 47.8182,80.7573 48.5,81.5C 49.354,80.4783 50.354,79.6449 51.5,79C 50.7476,78.3292 50.4142,77.4959 50.5,76.5C 51.7562,76.5386 52.7562,76.0386 53.5,75C 52.0439,74.5774 51.5439,73.7441 52,72.5C 53,73.1667 54,73.8333 55,74.5C 54.2049,71.1446 55.3716,70.6446 58.5,73C 57.276,75.3895 56.776,77.8895 57,80.5C 58,81.8333 59,81.8333 60,80.5C 60.3333,81.1667 60.6667,81.8333 61,82.5C 61.3988,82.2716 61.5654,81.9382 61.5,81.5 Z"/></g>
<g><path style="opacity:0.353" fill="#c5c0bb" d="M 68.5,77.5 C 70.1042,78.287 70.7709,79.6203 70.5,81.5C 68.8958,80.713 68.2291,79.3797 68.5,77.5 Z"/></g>
<g><path style="opacity:1" fill="#42311a" d="M 101.5,75.5 C 99.0905,76.3835 96.7571,77.5502 94.5,79C 94.0426,79.414 93.7093,79.914 93.5,80.5C 94.6034,80.9976 95.6034,81.3309 96.5,81.5C 95.675,82.3857 94.675,82.719 93.5,82.5C 93.6495,83.552 93.4828,84.552 93,85.5C 91.927,84.7203 90.7604,84.887 89.5,86C 92.5614,86.8952 92.7281,88.7286 90,91.5C 89.3333,90.1667 88.6667,88.8333 88,87.5C 87.6667,87.8333 87.3333,88.1667 87,88.5C 86.51,87.2068 86.3433,85.8734 86.5,84.5C 87.552,84.6495 88.552,84.4828 89.5,84C 88.2341,83.6905 87.0674,83.1905 86,82.5C 85.1932,86.449 84.6932,86.449 84.5,82.5C 81.6644,82.2022 81.1644,82.8689 83,84.5C 83.4974,87.146 83.6641,89.8127 83.5,92.5C 83.5,94.8333 83.5,97.1667 83.5,99.5C 82.5318,97.3926 82.1984,95.0593 82.5,92.5C 82.7989,90.396 82.4656,88.396 81.5,86.5C 80.8933,86.6236 80.56,86.9569 80.5,87.5C 76.3086,87.2407 73.3086,85.2407 71.5,81.5C 72.8409,79.88 74.6742,78.88 77,78.5C 77.7252,76.8425 77.2252,75.8425 75.5,75.5C 75.1961,74.8501 74.8627,74.1835 74.5,73.5C 76.3939,70.8133 77.0606,70.8133 76.5,73.5C 79.7267,74.1305 82.06,75.1305 83.5,76.5C 88.1822,74.491 92.8489,72.491 97.5,70.5C 100.742,70.7833 101.076,71.6166 98.5,73C 99.9423,73.3768 100.942,74.2101 101.5,75.5 Z"/></g>
<g><path style="opacity:1" fill="#44311a" d="M 101.5,75.5 C 102.167,75.5 102.833,75.5 103.5,75.5C 103.5,75.8333 103.5,76.1667 103.5,76.5C 103.84,79.1441 103.173,81.4775 101.5,83.5C 102,83.8333 102.5,84.1667 103,84.5C 105.324,83.5266 107.49,82.5266 109.5,81.5C 109.938,81.4346 110.272,81.6012 110.5,82C 109.833,82.3333 109.167,82.6667 108.5,83C 112.687,85.8001 112.354,87.3001 107.5,87.5C 107.719,86.325 107.386,85.325 106.5,84.5C 105.904,85.7161 105.737,87.0494 106,88.5C 105.667,88.1667 105.333,87.8333 105,87.5C 103.385,88.3862 101.885,89.3862 100.5,90.5C 98.1582,90.2252 98.1582,89.3919 100.5,88C 94.52,86.6957 94.52,84.3624 100.5,81C 99.9781,80.4387 99.6448,79.772 99.5,79C 100.429,77.9231 101.096,76.7564 101.5,75.5 Z"/></g>
<g><path style="opacity:1" fill="#43321f" d="M 139.5,57.5 C 138.496,66.4475 140.162,74.7808 144.5,82.5C 143.5,82.5 142.5,82.5 141.5,82.5C 141.333,79.0429 140.333,78.7096 138.5,81.5C 140.925,82.6493 140.925,83.316 138.5,83.5C 136.416,82.7517 134.416,82.7517 132.5,83.5C 131.537,83.0302 131.537,82.3635 132.5,81.5C 133.978,81.762 135.311,81.4287 136.5,80.5C 135.975,79.8076 135.308,79.3076 134.5,79C 136.881,78.4048 138.881,77.9048 140.5,77.5C 139.349,76.269 138.183,76.269 137,77.5C 136.692,76.6919 136.192,76.0253 135.5,75.5C 134.232,76.4279 132.899,76.5946 131.5,76C 131.833,75.6667 132.167,75.3333 132.5,75C 130.744,74.7978 129.078,74.2978 127.5,73.5C 128.602,72.8243 129.602,72.1577 130.5,71.5C 132.699,72.6221 135.366,72.6221 138.5,71.5C 138.181,66.6367 138.514,61.97 139.5,57.5 Z"/></g>
<g><path style="opacity:0.09" fill="#dedad8" d="M 70.5,81.5 C 70.8333,81.5 71.1667,81.5 71.5,81.5C 73.3086,85.2407 76.3086,87.2407 80.5,87.5C 77.3445,88.9654 74.5112,88.2987 72,85.5C 71.2086,84.255 70.7086,82.9217 70.5,81.5 Z"/></g>
<g><path style="opacity:1" fill="#392711" d="M 101.5,75.5 C 101.096,76.7564 100.429,77.9231 99.5,79C 99.6448,79.772 99.9781,80.4387 100.5,81C 94.52,84.3624 94.52,86.6957 100.5,88C 98.1582,89.3919 98.1582,90.2252 100.5,90.5C 100.423,91.7498 99.756,92.5831 98.5,93C 99.4158,93.2784 100.082,93.7784 100.5,94.5C 99.8333,94.5 99.5,94.8333 99.5,95.5C 98.3569,95.0919 97.3569,94.4252 96.5,93.5C 97.5063,92.6043 97.5063,91.9377 96.5,91.5C 94.9579,92.7468 93.4579,92.7468 92,91.5C 91.5172,92.448 91.3505,93.448 91.5,94.5C 89.4078,94.4386 87.9078,93.4386 87,91.5C 85.9887,92.3366 84.8221,92.67 83.5,92.5C 83.6641,89.8127 83.4974,87.146 83,84.5C 81.1644,82.8689 81.6644,82.2022 84.5,82.5C 84.6932,86.449 85.1932,86.449 86,82.5C 87.0674,83.1905 88.2341,83.6905 89.5,84C 88.552,84.4828 87.552,84.6495 86.5,84.5C 86.3433,85.8734 86.51,87.2068 87,88.5C 87.3333,88.1667 87.6667,87.8333 88,87.5C 88.6667,88.8333 89.3333,90.1667 90,91.5C 92.7281,88.7286 92.5614,86.8952 89.5,86C 90.7604,84.887 91.927,84.7203 93,85.5C 93.4828,84.552 93.6495,83.552 93.5,82.5C 94.675,82.719 95.675,82.3857 96.5,81.5C 95.6034,81.3309 94.6034,80.9976 93.5,80.5C 93.7093,79.914 94.0426,79.414 94.5,79C 96.7571,77.5502 99.0905,76.3835 101.5,75.5 Z"/></g>
<g><path style="opacity:0.259" fill="#d7d5d1" d="M 80.5,87.5 C 80.56,86.9569 80.8933,86.6236 81.5,86.5C 82.4656,88.396 82.7989,90.396 82.5,92.5C 81.8333,90.8333 81.1667,89.1667 80.5,87.5 Z"/></g>
<g><path style="opacity:1" fill="#392713" d="M 64.5,83.5 C 67.879,86.5507 71.2123,89.5507 74.5,92.5C 73.9907,93.3413 74.6573,93.8413 76.5,94C 75.255,94.7914 73.9217,95.2914 72.5,95.5C 71.3473,96.3132 71.3473,97.3132 72.5,98.5C 70.7931,102.136 69.6264,102.136 69,98.5C 67.7553,98.4615 66.4219,98.7948 65,99.5C 63.9701,99.8361 63.4701,100.503 63.5,101.5C 63.44,102.043 63.1067,102.376 62.5,102.5C 60.3432,101.95 58.3432,101.283 56.5,100.5C 62.7323,100.973 63.3989,100.139 58.5,98C 59.8989,97.4054 61.2322,97.5721 62.5,98.5C 63.5,97.5 64.5,96.5 65.5,95.5C 65.1924,94.6919 64.6924,94.0253 64,93.5C 63.5814,94.6721 62.9147,95.6721 62,96.5C 61.2411,94.9371 60.0744,93.9371 58.5,93.5C 58.3284,92.5084 58.6618,91.8417 59.5,91.5C 60.8474,92.0283 62.1807,92.195 63.5,92C 62.6634,90.9887 62.33,89.8221 62.5,88.5C 61.325,88.719 60.325,88.3857 59.5,87.5C 60.5785,84.6804 62.2452,83.3471 64.5,83.5 Z"/></g>
<g><path style="opacity:1" fill="#3c2912" d="M 123.5,82.5 C 125.704,83.4448 128.038,83.6115 130.5,83C 128.999,84.2515 127.332,85.2515 125.5,86C 126.167,86.3333 126.833,86.6667 127.5,87C 125.22,87.2326 123.22,88.066 121.5,89.5C 122.274,90.7112 123.107,90.7112 124,89.5C 124.483,90.448 124.649,91.448 124.5,92.5C 123.508,92.3284 122.842,92.6618 122.5,93.5C 121.141,94.0065 120.141,95.0065 119.5,96.5C 118.066,95.4116 117.066,94.0783 116.5,92.5C 116.852,89.9206 118.186,88.0873 120.5,87C 120.273,85.8647 119.94,84.698 119.5,83.5C 118.808,84.0253 118.308,84.6919 118,85.5C 116.546,83.7561 116.379,82.0894 117.5,80.5C 117.435,80.9382 117.601,81.2716 118,81.5C 121.371,80.0925 124.871,79.5925 128.5,80C 126.347,80.0995 124.681,80.9328 123.5,82.5 Z"/></g>
<g><path style="opacity:1" fill="#372614" d="M 144.5,82.5 C 145.615,84.3069 146.281,86.3069 146.5,88.5C 146.61,90.374 145.944,91.874 144.5,93C 138.123,94.0023 131.79,95.169 125.5,96.5C 124.292,97.2341 122.959,97.5674 121.5,97.5C 121.433,96.0413 121.766,94.7079 122.5,93.5C 122.842,92.6618 123.508,92.3284 124.5,92.5C 128.288,92.0675 131.955,91.0675 135.5,89.5C 133.622,89.3775 131.789,89.3775 130,89.5C 128.812,88.4366 128.312,87.1033 128.5,85.5C 130.2,85.6261 131.7,86.2927 133,87.5C 135.285,86.7042 137.119,85.3709 138.5,83.5C 140.925,83.316 140.925,82.6493 138.5,81.5C 140.333,78.7096 141.333,79.0429 141.5,82.5C 142.5,82.5 143.5,82.5 144.5,82.5 Z"/></g>
<g><path style="opacity:1" fill="#3c2a13" d="M 109.5,81.5 C 109.842,80.6618 110.508,80.3284 111.5,80.5C 111.5,81.5 111.5,82.5 111.5,83.5C 112.873,83.3433 114.207,83.51 115.5,84C 115.043,84.414 114.709,84.914 114.5,85.5C 117.463,89.2532 116.796,90.9199 112.5,90.5C 110.547,93.2565 108.38,95.9231 106,98.5C 105.781,97.062 105.281,95.7287 104.5,94.5C 102.977,94.2072 101.643,94.2072 100.5,94.5C 100.082,93.7784 99.4158,93.2784 98.5,93C 99.756,92.5831 100.423,91.7498 100.5,90.5C 101.885,89.3862 103.385,88.3862 105,87.5C 105.333,87.8333 105.667,88.1667 106,88.5C 105.737,87.0494 105.904,85.7161 106.5,84.5C 107.386,85.325 107.719,86.325 107.5,87.5C 112.354,87.3001 112.687,85.8001 108.5,83C 109.167,82.6667 109.833,82.3333 110.5,82C 110.272,81.6012 109.938,81.4346 109.5,81.5 Z"/></g>
<g><path style="opacity:1" fill="#412f19" d="M 132.5,81.5 C 131.537,82.3635 131.537,83.0302 132.5,83.5C 134.416,82.7517 136.416,82.7517 138.5,83.5C 137.119,85.3709 135.285,86.7042 133,87.5C 131.7,86.2927 130.2,85.6261 128.5,85.5C 128.312,87.1033 128.812,88.4366 130,89.5C 131.789,89.3775 133.622,89.3775 135.5,89.5C 131.955,91.0675 128.288,92.0675 124.5,92.5C 124.649,91.448 124.483,90.448 124,89.5C 123.107,90.7112 122.274,90.7112 121.5,89.5C 123.22,88.066 125.22,87.2326 127.5,87C 126.833,86.6667 126.167,86.3333 125.5,86C 127.332,85.2515 128.999,84.2515 130.5,83C 128.038,83.6115 125.704,83.4448 123.5,82.5C 126.885,82.9752 129.218,81.6418 130.5,78.5C 131.506,78.9377 131.506,79.6043 130.5,80.5C 130.957,81.2975 131.624,81.6309 132.5,81.5 Z"/></g>
<g><path style="opacity:1" fill="#3f2e1a" d="M 99.5,95.5 C 100.263,96.2679 101.263,96.7679 102.5,97C 103.696,97.6543 103.696,98.1543 102.5,98.5C 100.068,97.6003 97.5684,96.9337 95,96.5C 92.79,97.5658 90.6234,97.7325 88.5,97C 89.6537,97.9138 89.487,98.7471 88,99.5C 87.7582,102.697 87.5915,105.697 87.5,108.5C 87.1667,108.5 86.8333,108.5 86.5,108.5C 85.4878,105.743 84.4878,103.076 83.5,100.5C 83.5,100.167 83.5,99.8333 83.5,99.5C 83.5,97.1667 83.5,94.8333 83.5,92.5C 84.8221,92.67 85.9887,92.3366 87,91.5C 87.9078,93.4386 89.4078,94.4386 91.5,94.5C 91.3505,93.448 91.5172,92.448 92,91.5C 93.4579,92.7468 94.9579,92.7468 96.5,91.5C 97.5063,91.9377 97.5063,92.6043 96.5,93.5C 97.3569,94.4252 98.3569,95.0919 99.5,95.5 Z"/></g>
<g><path style="opacity:1" fill="#3f2c17" d="M 58.5,93.5 C 60.0744,93.9371 61.2411,94.9371 62,96.5C 62.9147,95.6721 63.5814,94.6721 64,93.5C 64.6924,94.0253 65.1924,94.6919 65.5,95.5C 64.5,96.5 63.5,97.5 62.5,98.5C 61.2322,97.5721 59.8989,97.4054 58.5,98C 63.3989,100.139 62.7323,100.973 56.5,100.5C 56.6107,99.8826 56.944,99.3826 57.5,99C 55.9238,98.5604 54.5904,97.727 53.5,96.5C 52.5224,96.9767 51.6891,97.6433 51,98.5C 49.7114,95.6492 49.2114,92.6492 49.5,89.5C 52.237,90.031 54.9036,90.8644 57.5,92C 53.7741,93.0432 54.1074,93.5432 58.5,93.5 Z"/></g>
<g><path style="opacity:1" fill="#3c2b15" d="M 112.5,90.5 C 113.183,92.1765 114.517,92.8432 116.5,92.5C 117.066,94.0783 118.066,95.4116 119.5,96.5C 120.141,95.0065 121.141,94.0065 122.5,93.5C 121.766,94.7079 121.433,96.0413 121.5,97.5C 122.959,97.5674 124.292,97.2341 125.5,96.5C 124.328,99.6008 122.328,101.934 119.5,103.5C 119.5,103.833 119.5,104.167 119.5,104.5C 119.167,104.5 118.833,104.5 118.5,104.5C 117.508,104.328 116.842,104.662 116.5,105.5C 111.885,100.983 109.051,101.983 108,108.5C 107.667,106.5 107.333,104.5 107,102.5C 106.085,103.328 105.419,104.328 105,105.5C 104.517,104.552 104.351,103.552 104.5,102.5C 103.041,102.433 101.708,102.766 100.5,103.5C 100.906,101.891 100.906,100.557 100.5,99.5C 99.0653,100.824 98.0653,102.49 97.5,104.5C 95.509,102.389 93.509,101.056 91.5,100.5C 88.2374,101.369 87.9041,102.703 90.5,104.5C 90.1852,106.483 89.1852,107.816 87.5,108.5C 87.5915,105.697 87.7582,102.697 88,99.5C 89.487,98.7471 89.6537,97.9138 88.5,97C 90.6234,97.7325 92.79,97.5658 95,96.5C 97.5684,96.9337 100.068,97.6003 102.5,98.5C 103.696,98.1543 103.696,97.6543 102.5,97C 101.263,96.7679 100.263,96.2679 99.5,95.5C 99.5,94.8333 99.8333,94.5 100.5,94.5C 101.643,94.2072 102.977,94.2072 104.5,94.5C 105.281,95.7287 105.781,97.062 106,98.5C 108.38,95.9231 110.547,93.2565 112.5,90.5 Z"/></g>
<g><path style="opacity:1" fill="#392815" d="M 59.5,91.5 C 58.6618,91.8417 58.3284,92.5084 58.5,93.5C 54.1074,93.5432 53.7741,93.0432 57.5,92C 54.9036,90.8644 52.237,90.031 49.5,89.5C 49.2114,92.6492 49.7114,95.6492 51,98.5C 51.6891,97.6433 52.5224,96.9767 53.5,96.5C 54.5904,97.727 55.9238,98.5604 57.5,99C 56.944,99.3826 56.6107,99.8826 56.5,100.5C 55.448,100.351 54.448,100.517 53.5,101C 53.8333,101.333 54.1667,101.667 54.5,102C 50.2238,105.218 50.8905,106.884 56.5,107C 55.5,107.333 54.5,107.667 53.5,108C 58.5977,109.415 58.5977,110.915 53.5,112.5C 50.8333,112.5 48.1667,112.5 45.5,112.5C 45.1667,112.5 44.8333,112.5 44.5,112.5C 44.6133,107.482 44.9466,102.482 45.5,97.5C 45.5,97.1667 45.5,96.8333 45.5,96.5C 47.1357,92.7905 47.8023,88.7905 47.5,84.5C 47.369,83.7611 47.5357,83.0944 48,82.5C 48.4362,85.2836 49.9362,86.4502 52.5,86C 53.8146,84.6054 53.4812,83.6054 51.5,83C 54.1667,82.3333 54.1667,81.6667 51.5,81C 54.4025,79.3989 55.7358,80.5656 55.5,84.5C 56.5,84.5 57.5,84.5 58.5,84.5C 58.6495,85.552 58.4828,86.552 58,87.5C 57.0862,86.3463 56.2529,86.513 55.5,88C 58.5443,88.3589 58.8776,89.0255 56.5,90C 57.7375,90.2321 58.7375,90.7321 59.5,91.5 Z"/></g>
<g><path style="opacity:1" fill="#42301b" d="M 100.5,103.5 C 101.66,105.203 100.993,105.869 98.5,105.5C 98.7373,106.791 98.404,107.791 97.5,108.5C 96.1783,106.737 94.6783,105.07 93,103.5C 92.5,104 92,104.5 91.5,105C 92.8333,105.667 92.8333,106.333 91.5,107C 92.1667,107.333 92.8333,107.667 93.5,108C 89.7767,110.284 89.7767,112.284 93.5,114C 92.7476,114.671 92.4142,115.504 92.5,116.5C 91.8333,116.167 91.1667,115.833 90.5,115.5C 89.7729,113.046 88.7729,110.713 87.5,108.5C 89.1852,107.816 90.1852,106.483 90.5,104.5C 87.9041,102.703 88.2374,101.369 91.5,100.5C 93.509,101.056 95.509,102.389 97.5,104.5C 98.0653,102.49 99.0653,100.824 100.5,99.5C 100.906,100.557 100.906,101.891 100.5,103.5 Z"/></g>
<g><path style="opacity:0.376" fill="#cac6c2" d="M 45.5,97.5 C 44.9466,102.482 44.6133,107.482 44.5,112.5C 42.0438,107.398 42.3771,102.398 45.5,97.5 Z"/></g>
<g><path style="opacity:1" fill="#45321b" d="M 56.5,100.5 C 58.3432,101.283 60.3432,101.95 62.5,102.5C 63.1067,102.376 63.44,102.043 63.5,101.5C 65.1947,102.011 66.8614,102.678 68.5,103.5C 67.6086,104.59 66.6086,104.59 65.5,103.5C 64.4777,103.855 63.811,104.522 63.5,105.5C 61.9606,107.982 60.4606,107.982 59,105.5C 58.5172,106.448 58.3505,107.448 58.5,108.5C 62.5,109.167 62.5,109.833 58.5,110.5C 58.7678,112.099 58.4345,113.432 57.5,114.5C 56.8166,112.824 55.4832,112.157 53.5,112.5C 58.5977,110.915 58.5977,109.415 53.5,108C 54.5,107.667 55.5,107.333 56.5,107C 50.8905,106.884 50.2238,105.218 54.5,102C 54.1667,101.667 53.8333,101.333 53.5,101C 54.448,100.517 55.448,100.351 56.5,100.5 Z"/></g>
<g><path style="opacity:1" fill="#3b2a1b" d="M 138.5,108.5 C 137.5,108.5 136.5,108.5 135.5,108.5C 138.13,117.108 138.13,125.775 135.5,134.5C 135.452,130.78 135.119,126.947 134.5,123C 136.325,121.534 136.825,119.701 136,117.5C 135.329,118.252 134.496,118.586 133.5,118.5C 133.62,116.801 133.954,115.135 134.5,113.5C 134.132,112.09 133.299,111.09 132,110.5C 129.681,112.936 127.181,113.103 124.5,111C 125.167,110.667 125.833,110.333 126.5,110C 124.19,109.503 121.857,109.337 119.5,109.5C 119.392,107.486 120.058,105.82 121.5,104.5C 125.788,103.179 130.121,101.845 134.5,100.5C 139.371,101.256 140.704,103.923 138.5,108.5 Z"/></g>
<g><path style="opacity:0.114" fill="#dfddda" d="M 83.5,100.5 C 84.4878,103.076 85.4878,105.743 86.5,108.5C 84.0181,106.497 83.0181,103.831 83.5,100.5 Z"/></g>
<g><path style="opacity:1" fill="#412e18" d="M 116.5,105.5 C 115.153,108.193 113.82,110.86 112.5,113.5C 110.908,112.398 110.075,113.065 110,115.5C 109.125,113.487 107.791,113.487 106,115.5C 105.333,114.833 105.333,114.167 106,113.5C 107.205,112.929 108.372,112.262 109.5,111.5C 108.609,110.41 107.609,110.41 106.5,111.5C 106.511,110.559 106.011,109.892 105,109.5C 103.187,110.691 102.354,112.024 102.5,113.5C 101.5,112.167 100.5,112.167 99.5,113.5C 98.6143,112.675 98.281,111.675 98.5,110.5C 95.075,110.633 94.7417,109.967 97.5,108.5C 98.404,107.791 98.7373,106.791 98.5,105.5C 100.993,105.869 101.66,105.203 100.5,103.5C 101.708,102.766 103.041,102.433 104.5,102.5C 104.351,103.552 104.517,104.552 105,105.5C 105.419,104.328 106.085,103.328 107,102.5C 107.333,104.5 107.667,106.5 108,108.5C 109.051,101.983 111.885,100.983 116.5,105.5 Z"/></g>
<g><path style="opacity:1" fill="#3d2b15" d="M 72.5,95.5 C 73.5062,98.1764 74.5062,100.843 75.5,103.5C 76.675,103.281 77.675,103.614 78.5,104.5C 77.635,105.583 76.635,105.749 75.5,105C 73.7756,104.552 73.109,103.718 73.5,102.5C 72.8586,104.296 71.8586,105.796 70.5,107C 71.3757,108.585 72.7091,109.585 74.5,110C 73.2532,111.458 73.2532,112.958 74.5,114.5C 73.1916,115.626 71.8583,115.626 70.5,114.5C 69.8333,114.833 69.1667,115.167 68.5,115.5C 68.2249,113.242 67.2249,112.908 65.5,114.5C 64.3279,114.081 63.3279,113.415 62.5,112.5C 63.7366,111.719 64.7366,110.719 65.5,109.5C 65.1543,108.304 64.6543,108.304 64,109.5C 63.51,108.207 63.3433,106.873 63.5,105.5C 63.811,104.522 64.4777,103.855 65.5,103.5C 66.6086,104.59 67.6086,104.59 68.5,103.5C 66.8614,102.678 65.1947,102.011 63.5,101.5C 63.4701,100.503 63.9701,99.8361 65,99.5C 66.4219,98.7948 67.7553,98.4615 69,98.5C 69.6264,102.136 70.7931,102.136 72.5,98.5C 71.3473,97.3132 71.3473,96.3132 72.5,95.5 Z"/></g>
<g><path style="opacity:1" fill="#3a2a17" d="M 74.5,92.5 C 75.5,92.5 76.5,92.5 77.5,92.5C 78.7685,103.299 82.4352,113.299 88.5,122.5C 87.8333,122.5 87.1667,122.5 86.5,122.5C 84.7512,121.015 82.7512,120.015 80.5,119.5C 79.3157,118.312 79.3157,117.145 80.5,116C 78.1656,115.661 75.8322,115.828 73.5,116.5C 71.9704,116.36 70.9704,115.693 70.5,114.5C 71.8583,115.626 73.1916,115.626 74.5,114.5C 73.2532,112.958 73.2532,111.458 74.5,110C 72.7091,109.585 71.3757,108.585 70.5,107C 71.8586,105.796 72.8586,104.296 73.5,102.5C 73.109,103.718 73.7756,104.552 75.5,105C 76.635,105.749 77.635,105.583 78.5,104.5C 77.675,103.614 76.675,103.281 75.5,103.5C 74.5062,100.843 73.5062,98.1764 72.5,95.5C 73.9217,95.2914 75.255,94.7914 76.5,94C 74.6573,93.8413 73.9907,93.3413 74.5,92.5 Z"/></g>
<g><path style="opacity:1" fill="#3a2811" d="M 97.5,108.5 C 94.7417,109.967 95.075,110.633 98.5,110.5C 98.281,111.675 98.6143,112.675 99.5,113.5C 100.5,112.167 101.5,112.167 102.5,113.5C 102.354,112.024 103.187,110.691 105,109.5C 106.011,109.892 106.511,110.559 106.5,111.5C 107.609,110.41 108.609,110.41 109.5,111.5C 108.372,112.262 107.205,112.929 106,113.5C 105.333,114.167 105.333,114.833 106,115.5C 107.791,113.487 109.125,113.487 110,115.5C 110.075,113.065 110.908,112.398 112.5,113.5C 113.833,113.5 115.167,113.5 116.5,113.5C 115.737,114.268 114.737,114.768 113.5,115C 113.833,115.333 114.167,115.667 114.5,116C 113.244,116.417 112.577,117.25 112.5,118.5C 111.178,118.33 110.011,118.663 109,119.5C 107.796,118.529 107.296,117.529 107.5,116.5C 104.539,117.183 104.205,118.016 106.5,119C 104.934,119.608 103.6,120.442 102.5,121.5C 101.005,121.585 100.005,120.919 99.5,119.5C 100.833,118.38 101.333,117.047 101,115.5C 98.4583,117.838 95.6249,118.172 92.5,116.5C 92.4142,115.504 92.7476,114.671 93.5,114C 89.7767,112.284 89.7767,110.284 93.5,108C 92.8333,107.667 92.1667,107.333 91.5,107C 92.8333,106.333 92.8333,105.667 91.5,105C 92,104.5 92.5,104 93,103.5C 94.6783,105.07 96.1783,106.737 97.5,108.5 Z"/></g>
<g><path style="opacity:0.067" fill="#d2cecb" d="M 118.5,104.5 C 118.833,105.833 119.167,105.833 119.5,104.5C 120.167,104.5 120.833,104.5 121.5,104.5C 120.058,105.82 119.392,107.486 119.5,109.5C 118.833,109.833 118.167,110.167 117.5,110.5C 116.596,111.209 116.263,112.209 116.5,113.5C 115.167,113.5 113.833,113.5 112.5,113.5C 113.82,110.86 115.153,108.193 116.5,105.5C 116.842,104.662 117.508,104.328 118.5,104.5 Z"/></g>
<g><path style="opacity:0.027" fill="#bcb7b3" d="M 45.5,112.5 C 48.1667,112.5 50.8333,112.5 53.5,112.5C 55.4832,112.157 56.8166,112.824 57.5,114.5C 57.5,115.167 57.1667,115.5 56.5,115.5C 55.9779,117.219 54.9779,118.552 53.5,119.5C 54.1495,117.565 54.4828,115.565 54.5,113.5C 51.2038,115.052 48.2038,114.719 45.5,112.5 Z"/></g>
<g><path style="opacity:0.192" fill="#d4d1cf" d="M 86.5,108.5 C 86.8333,108.5 87.1667,108.5 87.5,108.5C 88.7729,110.713 89.7729,113.046 90.5,115.5C 88.058,113.879 86.7247,111.546 86.5,108.5 Z"/></g>
<g><path style="opacity:1" fill="#3a2914" d="M 119.5,109.5 C 121.857,109.337 124.19,109.503 126.5,110C 125.833,110.333 125.167,110.667 124.5,111C 127.181,113.103 129.681,112.936 132,110.5C 133.299,111.09 134.132,112.09 134.5,113.5C 133.954,115.135 133.62,116.801 133.5,118.5C 132.5,118.5 131.5,118.5 130.5,118.5C 130.5,120.167 130.5,121.833 130.5,123.5C 128.801,123.66 127.134,123.494 125.5,123C 126.5,122.667 127.5,122.333 128.5,122C 127.09,120.628 125.423,119.795 123.5,119.5C 122.758,117.574 121.758,115.741 120.5,114C 120.833,113.667 121.167,113.333 121.5,113C 120.24,111.887 119.073,111.72 118,112.5C 117.536,111.906 117.369,111.239 117.5,110.5C 118.167,110.167 118.833,109.833 119.5,109.5 Z"/></g>
<g><path style="opacity:0.008" fill="#e1dfde" d="M 90.5,115.5 C 91.1667,115.833 91.8333,116.167 92.5,116.5C 93.973,118.395 95.6397,120.061 97.5,121.5C 93.9111,120.908 91.5778,118.908 90.5,115.5 Z"/></g>
<g><path style="opacity:1" fill="#392711" d="M 63.5,105.5 C 63.3433,106.873 63.51,108.207 64,109.5C 64.6543,108.304 65.1543,108.304 65.5,109.5C 64.7366,110.719 63.7366,111.719 62.5,112.5C 63.3279,113.415 64.3279,114.081 65.5,114.5C 67.2249,112.908 68.2249,113.242 68.5,115.5C 67.791,116.404 66.791,116.737 65.5,116.5C 65.5,117.833 65.5,119.167 65.5,120.5C 64.8423,119.602 64.1757,118.602 63.5,117.5C 59.777,118.511 59.777,119.845 63.5,121.5C 61.4332,122.134 59.5998,123.134 58,124.5C 57.3076,123.975 56.8076,123.308 56.5,122.5C 57.0525,120.273 57.0525,117.939 56.5,115.5C 57.1667,115.5 57.5,115.167 57.5,114.5C 58.4345,113.432 58.7678,112.099 58.5,110.5C 62.5,109.833 62.5,109.167 58.5,108.5C 58.3505,107.448 58.5172,106.448 59,105.5C 60.4606,107.982 61.9606,107.982 63.5,105.5 Z"/></g>
<g><path style="opacity:1" fill="#3c2a13" d="M 117.5,110.5 C 117.369,111.239 117.536,111.906 118,112.5C 119.073,111.72 120.24,111.887 121.5,113C 121.167,113.333 120.833,113.667 120.5,114C 121.758,115.741 122.758,117.574 123.5,119.5C 125.06,121.129 124.727,122.296 122.5,123C 123.672,123.419 124.672,124.085 125.5,125C 125.272,125.399 124.938,125.565 124.5,125.5C 122.903,124.91 121.569,123.91 120.5,122.5C 120.511,123.441 120.011,124.108 119,124.5C 117.775,124.138 116.609,123.638 115.5,123C 117.373,121.915 119.04,120.582 120.5,119C 119.095,117.731 117.429,117.231 115.5,117.5C 115.5,118.5 115.5,119.5 115.5,120.5C 113.801,120.66 112.134,120.494 110.5,120C 112.343,119.841 113.009,119.341 112.5,118.5C 112.577,117.25 113.244,116.417 114.5,116C 114.167,115.667 113.833,115.333 113.5,115C 114.737,114.768 115.737,114.268 116.5,113.5C 116.263,112.209 116.596,111.209 117.5,110.5 Z"/></g>
<g><path style="opacity:1" fill="#402f18" d="M 70.5,114.5 C 70.9704,115.693 71.9704,116.36 73.5,116.5C 75.8322,115.828 78.1656,115.661 80.5,116C 79.3157,117.145 79.3157,118.312 80.5,119.5C 79.8501,119.804 79.1835,120.137 78.5,120.5C 78.0024,119.397 77.6691,118.397 77.5,117.5C 75.9066,119.896 75.24,122.229 75.5,124.5C 73.4378,122.275 71.1045,121.942 68.5,123.5C 67.7022,121.922 67.2022,120.256 67,118.5C 66.7216,119.416 66.2216,120.082 65.5,120.5C 65.5,119.167 65.5,117.833 65.5,116.5C 66.791,116.737 67.791,116.404 68.5,115.5C 69.1667,115.167 69.8333,114.833 70.5,114.5 Z"/></g>
<g><path style="opacity:1" fill="#45331c" d="M 112.5,118.5 C 113.009,119.341 112.343,119.841 110.5,120C 112.134,120.494 113.801,120.66 115.5,120.5C 115.5,119.5 115.5,118.5 115.5,117.5C 117.429,117.231 119.095,117.731 120.5,119C 119.04,120.582 117.373,121.915 115.5,123C 116.609,123.638 117.775,124.138 119,124.5C 120.011,124.108 120.511,123.441 120.5,122.5C 121.569,123.91 122.903,124.91 124.5,125.5C 119.563,125.545 114.229,125.711 108.5,126C 107.366,124.984 107.699,124.317 109.5,124C 108.216,123.316 107.049,123.483 106,124.5C 105.383,123.551 105.549,122.718 106.5,122C 105.207,121.51 103.873,121.343 102.5,121.5C 103.6,120.442 104.934,119.608 106.5,119C 104.205,118.016 104.539,117.183 107.5,116.5C 107.296,117.529 107.796,118.529 109,119.5C 110.011,118.663 111.178,118.33 112.5,118.5 Z"/></g>
<g><path style="opacity:1" fill="#392812" d="M 80.5,119.5 C 82.7512,120.015 84.7512,121.015 86.5,122.5C 82.4549,120.57 79.2883,121.57 77,125.5C 76.2797,127.112 76.4464,128.612 77.5,130C 76.1971,130.21 74.8638,130.043 73.5,129.5C 72.2867,129.747 71.62,130.414 71.5,131.5C 69.4727,131.662 67.4727,131.495 65.5,131C 63.7756,130.552 63.109,129.718 63.5,128.5C 59.0166,129.4 58.6833,130.733 62.5,132.5C 60.5989,133.935 60.2655,135.602 61.5,137.5C 62.7678,136.572 64.1011,136.405 65.5,137C 64.0997,138.438 62.433,139.271 60.5,139.5C 57.9089,140.524 57.0756,142.191 58,144.5C 56.4815,143.837 55.3149,142.837 54.5,141.5C 55.2389,141.631 55.9056,141.464 56.5,141C 54.7444,140.798 53.0777,140.298 51.5,139.5C 53.5096,138.935 55.1763,137.935 56.5,136.5C 55.1945,134.069 54.1945,134.403 53.5,137.5C 52.8933,137.376 52.56,137.043 52.5,136.5C 53.29,135.391 53.79,134.058 54,132.5C 55.1827,133.731 56.3493,133.731 57.5,132.5C 56.624,131.749 55.624,131.249 54.5,131C 56.9042,130.492 57.5709,129.325 56.5,127.5C 59.7889,125.377 62.7889,123.044 65.5,120.5C 66.2216,120.082 66.7216,119.416 67,118.5C 67.2022,120.256 67.7022,121.922 68.5,123.5C 71.1045,121.942 73.4378,122.275 75.5,124.5C 75.24,122.229 75.9066,119.896 77.5,117.5C 77.6691,118.397 78.0024,119.397 78.5,120.5C 79.1835,120.137 79.8501,119.804 80.5,119.5 Z"/></g>
<g><path style="opacity:0.2" fill="#d0ccc9" d="M 53.5,119.5 C 53.851,122.812 52.5177,125.145 49.5,126.5C 50.5839,123.996 51.9172,121.663 53.5,119.5 Z"/></g>
<g><path style="opacity:1" fill="#422e18" d="M 86.5,122.5 C 87.1667,122.5 87.8333,122.5 88.5,122.5C 89.1667,122.5 89.5,122.833 89.5,123.5C 88.9569,123.56 88.6236,123.893 88.5,124.5C 89.1667,125.167 89.8333,125.833 90.5,126.5C 87.1761,128.752 83.5094,130.252 79.5,131C 83.3273,132.58 83.1606,134.08 79,135.5C 78.5774,134.044 77.7441,133.544 76.5,134C 77.731,135.183 77.731,136.349 76.5,137.5C 75.7492,136.624 75.2492,135.624 75,134.5C 73.8438,135.993 73.0104,135.826 72.5,134C 75.3895,132.108 75.0562,131.275 71.5,131.5C 71.62,130.414 72.2867,129.747 73.5,129.5C 74.8638,130.043 76.1971,130.21 77.5,130C 76.4464,128.612 76.2797,127.112 77,125.5C 79.2883,121.57 82.4549,120.57 86.5,122.5 Z"/></g>
<g><path style="opacity:0.075" fill="#dad7d6" d="M 99.5,122.5 C 104.061,123.946 107.728,126.613 110.5,130.5C 106.648,128.075 102.981,125.409 99.5,122.5 Z"/></g>
<g><path style="opacity:1" fill="#3d2c19" d="M 102.5,121.5 C 103.873,121.343 105.207,121.51 106.5,122C 105.549,122.718 105.383,123.551 106,124.5C 107.049,123.483 108.216,123.316 109.5,124C 107.699,124.317 107.366,124.984 108.5,126C 114.229,125.711 119.563,125.545 124.5,125.5C 124.938,125.565 125.272,125.399 125.5,125C 124.672,124.085 123.672,123.419 122.5,123C 124.727,122.296 125.06,121.129 123.5,119.5C 125.423,119.795 127.09,120.628 128.5,122C 127.5,122.333 126.5,122.667 125.5,123C 127.134,123.494 128.801,123.66 130.5,123.5C 130.5,121.833 130.5,120.167 130.5,118.5C 131.5,118.5 132.5,118.5 133.5,118.5C 134.496,118.586 135.329,118.252 136,117.5C 136.825,119.701 136.325,121.534 134.5,123C 135.119,126.947 135.452,130.78 135.5,134.5C 133.764,140.575 129.764,143.575 123.5,143.5C 123.108,141.821 122.608,140.154 122,138.5C 118.545,135.197 114.711,132.531 110.5,130.5C 107.728,126.613 104.061,123.946 99.5,122.5C 98.5084,122.672 97.8417,122.338 97.5,121.5C 95.6397,120.061 93.973,118.395 92.5,116.5C 95.6249,118.172 98.4583,117.838 101,115.5C 101.333,117.047 100.833,118.38 99.5,119.5C 100.005,120.919 101.005,121.585 102.5,121.5 Z"/></g>
<g><path style="opacity:0.098" fill="#e2e0de" d="M 77.5,92.5 C 77.5,92.1667 77.5,91.8333 77.5,91.5C 78.4972,91.4701 79.1639,91.9701 79.5,93C 81.2126,102.691 84.3793,111.858 89,120.5C 90.1667,121.667 91.3333,122.833 92.5,124C 97.8964,126.115 103.063,128.615 108,131.5C 106.926,134.986 106.093,138.652 105.5,142.5C 105.692,144.577 106.192,146.577 107,148.5C 114.092,153.59 119.759,159.924 124,167.5C 126.08,172.618 126.913,177.951 126.5,183.5C 125.5,183.5 124.5,183.5 123.5,183.5C 125.73,175.532 124.063,168.532 118.5,162.5C 117.833,161.167 116.833,160.167 115.5,159.5C 112.638,155.624 109.138,152.291 105,149.5C 104.501,144.845 104.334,140.179 104.5,135.5C 105.391,134.739 106.058,133.739 106.5,132.5C 104.971,131.237 103.305,130.237 101.5,129.5C 97.2165,128.025 93.2165,126.025 89.5,123.5C 89.5,122.833 89.1667,122.5 88.5,122.5C 82.4352,113.299 78.7685,103.299 77.5,92.5 Z"/></g>
<g><path style="opacity:0.424" fill="#c2bdb9" d="M 49.5,126.5 C 49.1667,127.167 48.8333,127.833 48.5,128.5C 46.9505,129.441 45.2838,130.107 43.5,130.5C 45.1475,128.674 47.1475,127.34 49.5,126.5 Z"/></g>
<g><path style="opacity:0.024" fill="#d9d6d4" d="M 171.5,141.5 C 171.66,139.801 171.494,138.134 171,136.5C 167.167,132 163.333,127.5 159.5,123C 158.5,122.333 157.5,122.333 156.5,123C 153.904,125.423 151.571,127.923 149.5,130.5C 150.779,124.371 154.446,121.537 160.5,122C 164.673,125.841 168.507,130.007 172,134.5C 174.041,137.265 173.874,139.599 171.5,141.5 Z"/></g>
<g><path style="opacity:1" fill="#423118" d="M 71.5,131.5 C 70.3192,133.067 68.6526,133.901 66.5,134C 67.8802,135.324 68.2135,136.657 67.5,138C 69.0581,138.21 70.3915,138.71 71.5,139.5C 68.0579,139.945 65.3912,141.612 63.5,144.5C 62.2839,142.696 61.2839,141.029 60.5,139.5C 62.433,139.271 64.0997,138.438 65.5,137C 64.1011,136.405 62.7678,136.572 61.5,137.5C 60.2655,135.602 60.5989,133.935 62.5,132.5C 58.6833,130.733 59.0166,129.4 63.5,128.5C 63.109,129.718 63.7756,130.552 65.5,131C 67.4727,131.495 69.4727,131.662 71.5,131.5 Z"/></g>
<g><path style="opacity:0.365" fill="#c5c1bd" d="M 43.5,130.5 C 40.236,132.423 37.236,134.756 34.5,137.5C 31.2911,139.265 28.2911,141.265 25.5,143.5C 23.9582,144.301 22.2915,144.634 20.5,144.5C 26.9228,141.107 32.9228,136.94 38.5,132C 40.0249,130.991 41.6916,130.491 43.5,130.5 Z"/></g>
<g><path style="opacity:1" fill="#3e2b18" d="M 56.5,115.5 C 57.0525,117.939 57.0525,120.273 56.5,122.5C 56.8076,123.308 57.3076,123.975 58,124.5C 59.5998,123.134 61.4332,122.134 63.5,121.5C 59.777,119.845 59.777,118.511 63.5,117.5C 64.1757,118.602 64.8423,119.602 65.5,120.5C 62.7889,123.044 59.7889,125.377 56.5,127.5C 57.5709,129.325 56.9042,130.492 54.5,131C 55.624,131.249 56.624,131.749 57.5,132.5C 56.3493,133.731 55.1827,133.731 54,132.5C 53.79,134.058 53.29,135.391 52.5,136.5C 52.2792,133.903 51.7792,133.903 51,136.5C 49.955,135.627 49.1217,134.627 48.5,133.5C 48.7024,132.636 49.0357,131.636 49.5,130.5C 50.1924,131.025 50.6924,131.692 51,132.5C 51.49,131.207 51.6567,129.873 51.5,128.5C 50.5,128.5 49.5,128.5 48.5,128.5C 48.8333,127.833 49.1667,127.167 49.5,126.5C 52.5177,125.145 53.851,122.812 53.5,119.5C 54.9779,118.552 55.9779,117.219 56.5,115.5 Z"/></g>
<g><path style="opacity:0.063" fill="#dfdddc" d="M 110.5,130.5 C 114.711,132.531 118.545,135.197 122,138.5C 122.608,140.154 123.108,141.821 123.5,143.5C 122.034,142.653 121.2,141.32 121,139.5C 117.335,136.601 113.835,133.601 110.5,130.5 Z"/></g>
<g><path style="opacity:0.11" fill="#e2dfdd" d="M 149.5,130.5 C 149.326,133.763 147.659,135.43 144.5,135.5C 146.333,133.937 148,132.27 149.5,130.5 Z"/></g>
<g><path style="opacity:1" fill="#3e2c1b" d="M 171.5,141.5 C 171.167,141.5 170.833,141.5 170.5,141.5C 168.5,141.5 166.5,141.5 164.5,141.5C 164.802,144.059 164.468,146.393 163.5,148.5C 163.795,146.265 163.461,144.265 162.5,142.5C 161.659,141.991 161.159,142.657 161,144.5C 160.16,141.536 159.16,141.203 158,143.5C 157.667,142.5 157.333,141.5 157,140.5C 155.887,141.305 154.721,141.972 153.5,142.5C 152.791,141.596 151.791,141.263 150.5,141.5C 150.185,137.2 147.851,135.533 143.5,136.5C 143.5,137.5 143.5,138.5 143.5,139.5C 143.167,139.5 142.833,139.5 142.5,139.5C 142.157,137.517 142.824,136.183 144.5,135.5C 147.659,135.43 149.326,133.763 149.5,130.5C 151.571,127.923 153.904,125.423 156.5,123C 157.5,122.333 158.5,122.333 159.5,123C 163.333,127.5 167.167,132 171,136.5C 171.494,138.134 171.66,139.801 171.5,141.5 Z"/></g>
<g><path style="opacity:1" fill="#382714" d="M 48.5,128.5 C 49.5,128.5 50.5,128.5 51.5,128.5C 51.6567,129.873 51.49,131.207 51,132.5C 50.6924,131.692 50.1924,131.025 49.5,130.5C 49.0357,131.636 48.7024,132.636 48.5,133.5C 47.6457,134.632 47.6457,135.965 48.5,137.5C 47.7515,138.531 47.0848,139.698 46.5,141C 46.8333,141.333 47.1667,141.667 47.5,142C 46.3474,143.883 44.6807,144.716 42.5,144.5C 40.281,143.172 38.9477,141.172 38.5,138.5C 36.901,138.768 35.5676,138.434 34.5,137.5C 37.236,134.756 40.236,132.423 43.5,130.5C 45.2838,130.107 46.9505,129.441 48.5,128.5 Z"/></g>
<g><path style="opacity:0.055" fill="#dfdddc" d="M 138.5,108.5 C 138.196,109.15 137.863,109.817 137.5,110.5C 139.472,118.067 139.639,125.734 138,133.5C 136.365,136.632 134.532,139.632 132.5,142.5C 129.53,144.503 126.53,144.837 123.5,143.5C 129.764,143.575 133.764,140.575 135.5,134.5C 138.13,125.775 138.13,117.108 135.5,108.5C 136.5,108.5 137.5,108.5 138.5,108.5 Z"/></g>
<g><path style="opacity:1" fill="#3d2b15" d="M 95.5,136.5 C 95.7126,137.992 95.7126,139.658 95.5,141.5C 94.8333,142.167 94.1667,142.833 93.5,143.5C 92.0052,142.295 90.6719,142.295 89.5,143.5C 87.9167,142.373 85.9167,142.373 83.5,143.5C 83.5,142.5 83.5,141.5 83.5,140.5C 80.4775,140.895 79.4775,139.895 80.5,137.5C 83.1071,136.682 85.7737,136.182 88.5,136C 80.7025,135.449 80.7025,134.449 88.5,133C 87.269,131.817 87.269,130.651 88.5,129.5C 88.5249,134.192 90.8582,136.525 95.5,136.5 Z"/></g>
<g><path style="opacity:1" fill="#3b2a17" d="M 34.5,137.5 C 35.5676,138.434 36.901,138.768 38.5,138.5C 38.9477,141.172 40.281,143.172 42.5,144.5C 42.5774,145.75 43.244,146.583 44.5,147C 43.9056,147.464 43.2389,147.631 42.5,147.5C 40.8267,146.657 39.66,145.324 39,143.5C 37.0125,147.367 36.5125,147.367 37.5,143.5C 36.3915,140.497 34.7249,139.997 32.5,142C 33.624,142.249 34.624,142.749 35.5,143.5C 34.1667,144.167 32.8333,144.833 31.5,145.5C 32.2458,146.736 32.5792,148.07 32.5,149.5C 30.8008,149.66 29.1341,149.494 27.5,149C 30.5443,148.641 30.8776,147.974 28.5,147C 29.1667,146.667 29.8333,146.333 30.5,146C 29.2068,145.51 27.8734,145.343 26.5,145.5C 28.0311,144.075 27.6977,143.409 25.5,143.5C 28.2911,141.265 31.2911,139.265 34.5,137.5 Z"/></g>
<g><path style="opacity:1" fill="#392713" d="M 60.5,139.5 C 61.2839,141.029 62.2839,142.696 63.5,144.5C 62.9094,145.151 62.2427,145.818 61.5,146.5C 62.981,147.944 62.6477,148.611 60.5,148.5C 57.9333,147.525 55.2666,146.858 52.5,146.5C 52.2627,147.791 52.596,148.791 53.5,149.5C 53.6309,150.376 53.2975,151.043 52.5,151.5C 51.2813,150.354 49.9479,149.354 48.5,148.5C 48.9719,146.556 50.3053,144.722 52.5,143C 52.1667,142.667 51.8333,142.333 51.5,142C 52.448,141.517 53.448,141.351 54.5,141.5C 55.3149,142.837 56.4815,143.837 58,144.5C 57.0756,142.191 57.9089,140.524 60.5,139.5 Z"/></g>
<g><path style="opacity:1" fill="#382712" d="M 89.5,123.5 C 93.2165,126.025 97.2165,128.025 101.5,129.5C 100.954,131.303 100.12,132.97 99,134.5C 98.6667,133.833 98.3333,133.167 98,132.5C 96.6012,133.227 95.1012,133.727 93.5,134C 94.8333,134.333 96.1667,134.667 97.5,135C 96.9558,135.717 96.2891,136.217 95.5,136.5C 90.8582,136.525 88.5249,134.192 88.5,129.5C 87.269,130.651 87.269,131.817 88.5,133C 80.7025,134.449 80.7025,135.449 88.5,136C 85.7737,136.182 83.1071,136.682 80.5,137.5C 79.4775,139.895 80.4775,140.895 83.5,140.5C 83.5,141.5 83.5,142.5 83.5,143.5C 82.5041,143.586 81.6708,143.252 81,142.5C 80,144.167 78.6667,145.5 77,146.5C 75.414,145.624 73.914,144.624 72.5,143.5C 73.7161,142.904 75.0494,142.737 76.5,143C 75.6721,142.085 74.6721,141.419 73.5,141C 74.3081,140.692 74.9747,140.192 75.5,139.5C 74.3002,138.708 72.9669,138.708 71.5,139.5C 70.3915,138.71 69.0581,138.21 67.5,138C 68.2135,136.657 67.8802,135.324 66.5,134C 68.6526,133.901 70.3192,133.067 71.5,131.5C 75.0562,131.275 75.3895,132.108 72.5,134C 73.0104,135.826 73.8438,135.993 75,134.5C 75.2492,135.624 75.7492,136.624 76.5,137.5C 77.731,136.349 77.731,135.183 76.5,134C 77.7441,133.544 78.5774,134.044 79,135.5C 83.1606,134.08 83.3273,132.58 79.5,131C 83.5094,130.252 87.1761,128.752 90.5,126.5C 89.8333,125.833 89.1667,125.167 88.5,124.5C 88.6236,123.893 88.9569,123.56 89.5,123.5 Z"/></g>
<g><path style="opacity:0.998" fill="#392616" d="M 153.5,142.5 C 152.761,142.369 152.094,142.536 151.5,143C 157.432,144.445 157.432,146.778 151.5,150C 159.119,151.985 159.452,153.818 152.5,155.5C 154.006,156.747 155.506,156.747 157,155.5C 157.219,156.938 157.719,158.271 158.5,159.5C 159.189,156.592 160.355,153.925 162,151.5C 162.498,148.518 162.665,145.518 162.5,142.5C 163.461,144.265 163.795,146.265 163.5,148.5C 163.664,151.187 163.497,153.854 163,156.5C 161.277,158.717 159.777,161.05 158.5,163.5C 157.032,162.194 155.699,160.694 154.5,159C 153.552,158.517 152.552,158.351 151.5,158.5C 151.633,161.925 150.967,162.258 149.5,159.5C 149.5,157.833 149.5,156.167 149.5,154.5C 149.5,150.167 149.5,145.833 149.5,141.5C 147.102,141.741 145.102,141.074 143.5,139.5C 143.5,138.5 143.5,137.5 143.5,136.5C 147.851,135.533 150.185,137.2 150.5,141.5C 151.791,141.263 152.791,141.596 153.5,142.5 Z"/></g>
<g><path style="opacity:1" fill="#412f19" d="M 101.5,129.5 C 103.305,130.237 104.971,131.237 106.5,132.5C 106.058,133.739 105.391,134.739 104.5,135.5C 103.375,134.986 102.209,134.653 101,134.5C 100.5,135.667 99.6667,136.5 98.5,137C 99.5,137.333 100.5,137.667 101.5,138C 98.5537,140.149 98.3871,141.982 101,143.5C 100.932,145.342 101.099,147.009 101.5,148.5C 99.1841,152.107 97.0174,152.107 95,148.5C 93.9887,149.337 92.8221,149.67 91.5,149.5C 88.5493,150.809 87.2159,153.143 87.5,156.5C 84.2819,156.349 83.9485,155.516 86.5,154C 85.552,153.517 84.552,153.351 83.5,153.5C 83.3893,152.883 83.056,152.383 82.5,152C 84.6633,151.755 86.33,150.755 87.5,149C 85.5758,148.821 83.9091,148.654 82.5,148.5C 85.8541,147.901 88.8541,146.568 91.5,144.5C 91.0431,143.702 90.3764,143.369 89.5,143.5C 90.6719,142.295 92.0052,142.295 93.5,143.5C 94.1667,142.833 94.8333,142.167 95.5,141.5C 95.7126,139.658 95.7126,137.992 95.5,136.5C 96.2891,136.217 96.9558,135.717 97.5,135C 96.1667,134.667 94.8333,134.333 93.5,134C 95.1012,133.727 96.6012,133.227 98,132.5C 98.3333,133.167 98.6667,133.833 99,134.5C 100.12,132.97 100.954,131.303 101.5,129.5 Z"/></g>
<g><path style="opacity:0.333" fill="#cecac8" d="M 142.5,139.5 C 142.833,139.5 143.167,139.5 143.5,139.5C 145.102,141.074 147.102,141.741 149.5,141.5C 149.5,145.833 149.5,150.167 149.5,154.5C 148.797,156.629 147.797,158.629 146.5,160.5C 146.538,157.049 147.205,153.716 148.5,150.5C 147.936,148.181 147.436,145.847 147,143.5C 144.882,142.717 143.382,141.384 142.5,139.5 Z"/></g>
<g><path style="opacity:1" fill="#412f1a" d="M 162.5,142.5 C 162.665,145.518 162.498,148.518 162,151.5C 160.355,153.925 159.189,156.592 158.5,159.5C 157.719,158.271 157.219,156.938 157,155.5C 155.506,156.747 154.006,156.747 152.5,155.5C 159.452,153.818 159.119,151.985 151.5,150C 157.432,146.778 157.432,144.445 151.5,143C 152.094,142.536 152.761,142.369 153.5,142.5C 154.721,141.972 155.887,141.305 157,140.5C 157.333,141.5 157.667,142.5 158,143.5C 159.16,141.203 160.16,141.536 161,144.5C 161.159,142.657 161.659,141.991 162.5,142.5 Z"/></g>
<g><path style="opacity:1" fill="#3a2914" d="M 48.5,137.5 C 49.3764,137.369 50.0431,137.702 50.5,138.5C 49.1667,140.167 49.1667,141.833 50.5,143.5C 49.7376,143.911 48.7376,144.077 47.5,144C 47.8333,144.333 48.1667,144.667 48.5,145C 40.9392,151.624 41.9392,155.957 51.5,158C 52.0659,158.995 52.7326,159.828 53.5,160.5C 49.659,160.669 45.659,160.669 41.5,160.5C 40.4937,160.938 40.4937,161.604 41.5,162.5C 42.376,163.251 43.376,163.751 44.5,164C 43.2625,164.232 42.2625,164.732 41.5,165.5C 40.5084,165.672 39.8417,165.338 39.5,164.5C 39.5,163.167 39.5,161.833 39.5,160.5C 37.901,160.768 36.5676,160.434 35.5,159.5C 37.8057,157.616 37.639,155.616 35,153.5C 34.3333,151.833 34.3333,150.167 35,148.5C 37.5582,148.515 40.0582,148.182 42.5,147.5C 43.2389,147.631 43.9056,147.464 44.5,147C 43.244,146.583 42.5774,145.75 42.5,144.5C 44.6807,144.716 46.3474,143.883 47.5,142C 47.1667,141.667 46.8333,141.333 46.5,141C 47.0848,139.698 47.7515,138.531 48.5,137.5 Z"/></g>
<g><path style="opacity:1" fill="#402f19" d="M 83.5,143.5 C 84.3984,144.158 85.3984,144.824 86.5,145.5C 84.9936,146.747 83.4936,146.747 82,145.5C 81.5172,146.448 81.3505,147.448 81.5,148.5C 76.407,148.612 76.407,149.445 81.5,151C 79.0035,153.17 77.1701,152.67 76,149.5C 75.4115,151.863 73.9115,152.863 71.5,152.5C 71.5875,149.402 71.0875,149.068 70,151.5C 68.5619,150.1 67.7286,148.433 67.5,146.5C 66.448,146.351 65.448,146.517 64.5,147C 65.6216,149.037 67.2883,151.204 69.5,153.5C 73.7785,153.547 77.7785,153.88 81.5,154.5C 78.4961,155.149 75.4961,156.315 72.5,158C 74.74,158.977 77.0733,159.477 79.5,159.5C 79.1667,160.167 78.8333,160.833 78.5,161.5C 76.8008,161.34 75.1341,161.506 73.5,162C 74.448,162.483 75.448,162.649 76.5,162.5C 76.5,163.5 76.5,164.5 76.5,165.5C 73.0022,165.522 71.6689,164.022 72.5,161C 71.9056,160.536 71.2389,160.369 70.5,160.5C 69.4937,160.062 69.4937,159.396 70.5,158.5C 68.5,157.167 66.8333,155.5 65.5,153.5C 64.027,151.605 62.3603,149.939 60.5,148.5C 62.6477,148.611 62.981,147.944 61.5,146.5C 62.2427,145.818 62.9094,145.151 63.5,144.5C 65.3912,141.612 68.0579,139.945 71.5,139.5C 72.9669,138.708 74.3002,138.708 75.5,139.5C 74.9747,140.192 74.3081,140.692 73.5,141C 74.6721,141.419 75.6721,142.085 76.5,143C 75.0494,142.737 73.7161,142.904 72.5,143.5C 73.914,144.624 75.414,145.624 77,146.5C 78.6667,145.5 80,144.167 81,142.5C 81.6708,143.252 82.5041,143.586 83.5,143.5 Z"/></g>
<g><path style="opacity:0.039" fill="#d2cdc9" d="M 60.5,148.5 C 62.3603,149.939 64.027,151.605 65.5,153.5C 65.1788,155.048 64.1788,155.715 62.5,155.5C 60.6316,154.737 58.9649,153.737 57.5,152.5C 56.205,151.512 54.8717,150.512 53.5,149.5C 52.596,148.791 52.2627,147.791 52.5,146.5C 55.2666,146.858 57.9333,147.525 60.5,148.5 Z M 55.5,149.5 C 56.2506,148.427 57.2506,148.26 58.5,149C 59.7287,150.529 61.2287,151.696 63,152.5C 63.6667,153.167 63.6667,153.833 63,154.5C 60.6182,152.611 58.1182,150.945 55.5,149.5 Z"/></g>
<g><path style="opacity:1" fill="#372613" d="M 42.5,147.5 C 40.0582,148.182 37.5582,148.515 35,148.5C 34.3333,150.167 34.3333,151.833 35,153.5C 37.639,155.616 37.8057,157.616 35.5,159.5C 35.719,158.325 35.3857,157.325 34.5,156.5C 33.5,157.833 32.5,157.833 31.5,156.5C 29.5425,154.564 27.8758,152.398 26.5,150C 25.3922,148.323 25.3922,146.823 26.5,145.5C 27.8734,145.343 29.2068,145.51 30.5,146C 29.8333,146.333 29.1667,146.667 28.5,147C 30.8776,147.974 30.5443,148.641 27.5,149C 29.1341,149.494 30.8008,149.66 32.5,149.5C 32.5792,148.07 32.2458,146.736 31.5,145.5C 32.8333,144.833 34.1667,144.167 35.5,143.5C 34.624,142.749 33.624,142.249 32.5,142C 34.7249,139.997 36.3915,140.497 37.5,143.5C 36.5125,147.367 37.0125,147.367 39,143.5C 39.66,145.324 40.8267,146.657 42.5,147.5 Z"/></g>
<g><path style="opacity:1" fill="#3f2d17" d="M 48.5,133.5 C 49.1217,134.627 49.955,135.627 51,136.5C 51.7792,133.903 52.2792,133.903 52.5,136.5C 52.56,137.043 52.8933,137.376 53.5,137.5C 54.1945,134.403 55.1945,134.069 56.5,136.5C 55.1763,137.935 53.5096,138.935 51.5,139.5C 53.0777,140.298 54.7444,140.798 56.5,141C 55.9056,141.464 55.2389,141.631 54.5,141.5C 53.448,141.351 52.448,141.517 51.5,142C 51.8333,142.333 52.1667,142.667 52.5,143C 50.3053,144.722 48.9719,146.556 48.5,148.5C 49.9479,149.354 51.2813,150.354 52.5,151.5C 53.2975,151.043 53.6309,150.376 53.5,149.5C 54.8717,150.512 56.205,151.512 57.5,152.5C 55.8793,152.787 54.8793,153.787 54.5,155.5C 55.5821,155.749 56.9154,155.915 58.5,156C 56.0087,156.626 56.0087,157.459 58.5,158.5C 57.782,159.137 56.782,159.137 55.5,158.5C 54.2867,158.747 53.62,159.414 53.5,160.5C 52.7326,159.828 52.0659,158.995 51.5,158C 41.9392,155.957 40.9392,151.624 48.5,145C 48.1667,144.667 47.8333,144.333 47.5,144C 48.7376,144.077 49.7376,143.911 50.5,143.5C 49.1667,141.833 49.1667,140.167 50.5,138.5C 50.0431,137.702 49.3764,137.369 48.5,137.5C 47.6457,135.965 47.6457,134.632 48.5,133.5 Z"/></g>
<g><path style="opacity:0.184" fill="#c7c2be" d="M 20.5,148.5 C 22.2624,149.262 23.2624,150.596 23.5,152.5C 21.0882,152.306 20.0882,150.973 20.5,148.5 Z"/></g>
<g><path style="opacity:1" fill="#443527" d="M 25.5,143.5 C 27.6977,143.409 28.0311,144.075 26.5,145.5C 25.3922,146.823 25.3922,148.323 26.5,150C 27.8758,152.398 29.5425,154.564 31.5,156.5C 32.5,157.833 33.5,157.833 34.5,156.5C 35.3857,157.325 35.719,158.325 35.5,159.5C 36.5676,160.434 37.901,160.768 39.5,160.5C 39.5,161.833 39.5,163.167 39.5,164.5C 38.078,163.075 36.4113,162.075 34.5,161.5C 31.4797,158.484 28.1464,155.817 24.5,153.5C 23.8333,153.5 23.5,153.167 23.5,152.5C 23.2624,150.596 22.2624,149.262 20.5,148.5C 19.1667,147.167 19.1667,145.833 20.5,144.5C 22.2915,144.634 23.9582,144.301 25.5,143.5 Z"/></g>
<g><path style="opacity:1" fill="#382711" d="M 89.5,143.5 C 90.3764,143.369 91.0431,143.702 91.5,144.5C 88.8541,146.568 85.8541,147.901 82.5,148.5C 83.9091,148.654 85.5758,148.821 87.5,149C 86.33,150.755 84.6633,151.755 82.5,152C 83.056,152.383 83.3893,152.883 83.5,153.5C 82.5084,153.328 81.8417,153.662 81.5,154.5C 77.7785,153.88 73.7785,153.547 69.5,153.5C 67.2883,151.204 65.6216,149.037 64.5,147C 65.448,146.517 66.448,146.351 67.5,146.5C 67.7286,148.433 68.5619,150.1 70,151.5C 71.0875,149.068 71.5875,149.402 71.5,152.5C 73.9115,152.863 75.4115,151.863 76,149.5C 77.1701,152.67 79.0035,153.17 81.5,151C 76.407,149.445 76.407,148.612 81.5,148.5C 81.3505,147.448 81.5172,146.448 82,145.5C 83.4936,146.747 84.9936,146.747 86.5,145.5C 85.3984,144.824 84.3984,144.158 83.5,143.5C 85.9167,142.373 87.9167,142.373 89.5,143.5 Z"/></g>
<g><path style="opacity:1" fill="#422f19" d="M 101.5,148.5 C 102.376,148.369 103.043,148.702 103.5,149.5C 104.026,151.265 104.359,152.932 104.5,154.5C 102.451,154.706 102.117,155.539 103.5,157C 103,157.5 102.5,158 102,158.5C 101.667,157.167 101.333,155.833 101,154.5C 99.3117,155.325 99.1451,156.325 100.5,157.5C 99.5,158.333 98.5,159.167 97.5,160C 99.3839,160.216 101.051,160.883 102.5,162C 100.384,161.529 98.3845,162.029 96.5,163.5C 95.2502,163.577 94.4169,164.244 94,165.5C 93.6824,163.939 92.8491,162.772 91.5,162C 95.6068,161.125 96.2735,159.291 93.5,156.5C 92.3652,155.897 91.3652,155.564 90.5,155.5C 92.9734,153.902 92.9734,152.402 90.5,151C 91.056,150.617 91.3893,150.117 91.5,149.5C 92.8221,149.67 93.9887,149.337 95,148.5C 97.0174,152.107 99.1841,152.107 101.5,148.5 Z"/></g>
<g><path style="opacity:0.737" fill="#7a6c58" d="M 65.5,153.5 C 66.8333,155.5 68.5,157.167 70.5,158.5C 67.9963,157.361 65.3297,156.694 62.5,156.5C 62.5,156.167 62.5,155.833 62.5,155.5C 64.1788,155.715 65.1788,155.048 65.5,153.5 Z"/></g>
<g><path style="opacity:1" fill="#3e2d1a" d="M 104.5,135.5 C 104.334,140.179 104.501,144.845 105,149.5C 109.138,152.291 112.638,155.624 115.5,159.5C 113.926,159.063 112.759,158.063 112,156.5C 110.887,158.8 109.387,159.133 107.5,157.5C 105.825,157.132 104.825,156.132 104.5,154.5C 104.359,152.932 104.026,151.265 103.5,149.5C 103.043,148.702 102.376,148.369 101.5,148.5C 101.099,147.009 100.932,145.342 101,143.5C 98.3871,141.982 98.5537,140.149 101.5,138C 100.5,137.667 99.5,137.333 98.5,137C 99.6667,136.5 100.5,135.667 101,134.5C 102.209,134.653 103.375,134.986 104.5,135.5 Z"/></g>
<g><path style="opacity:0.031" fill="#e2e1de" d="M 24.5,153.5 C 28.1464,155.817 31.4797,158.484 34.5,161.5C 31.4838,160.657 28.8171,159.157 26.5,157C 25.1772,156.184 24.5106,155.017 24.5,153.5 Z"/></g>
<g><path style="opacity:1" fill="#372510" d="M 91.5,149.5 C 91.3893,150.117 91.056,150.617 90.5,151C 92.9734,152.402 92.9734,153.902 90.5,155.5C 91.3652,155.564 92.3652,155.897 93.5,156.5C 96.2735,159.291 95.6068,161.125 91.5,162C 92.8491,162.772 93.6824,163.939 94,165.5C 94.4169,164.244 95.2502,163.577 96.5,163.5C 96.2882,165.384 95.2882,166.717 93.5,167.5C 96.1306,169.005 95.7973,169.671 92.5,169.5C 92.2784,166.099 90.6117,163.599 87.5,162C 88.4491,161.383 89.2825,161.549 90,162.5C 90.658,160.892 90.158,159.725 88.5,159C 89.1667,158.667 89.8333,158.333 90.5,158C 88.7111,157.48 87.0444,157.813 85.5,159C 85.8333,159.333 86.1667,159.667 86.5,160C 83.972,161.017 83.972,162.184 86.5,163.5C 84.9928,164.739 83.8261,164.405 83,162.5C 82.6667,162.833 82.3333,163.167 82,163.5C 81.6068,161.801 82.1068,160.301 83.5,159C 81.8788,155.688 81.5455,155.688 82.5,159C 81.2559,159.456 80.4226,158.956 80,157.5C 79.5357,158.094 79.369,158.761 79.5,159.5C 77.0733,159.477 74.74,158.977 72.5,158C 75.4961,156.315 78.4961,155.149 81.5,154.5C 81.8417,153.662 82.5084,153.328 83.5,153.5C 84.552,153.351 85.552,153.517 86.5,154C 83.9485,155.516 84.2819,156.349 87.5,156.5C 87.2159,153.143 88.5493,150.809 91.5,149.5 Z"/></g>
<g><path style="opacity:1" fill="#392714" d="M 57.5,152.5 C 58.9649,153.737 60.6316,154.737 62.5,155.5C 62.5,155.833 62.5,156.167 62.5,156.5C 60.0478,158.754 60.0478,160.921 62.5,163C 59.0841,166.221 55.7508,166.054 52.5,162.5C 49.9135,164.818 50.5802,166.151 54.5,166.5C 53.3984,167.176 52.3984,167.842 51.5,168.5C 49.5001,167.357 48.8334,165.857 49.5,164C 46.8206,164.158 44.154,164.658 41.5,165.5C 42.2625,164.732 43.2625,164.232 44.5,164C 43.376,163.751 42.376,163.251 41.5,162.5C 40.4937,161.604 40.4937,160.938 41.5,160.5C 45.659,160.669 49.659,160.669 53.5,160.5C 53.62,159.414 54.2867,158.747 55.5,158.5C 56.782,159.137 57.782,159.137 58.5,158.5C 56.0087,157.459 56.0087,156.626 58.5,156C 56.9154,155.915 55.5821,155.749 54.5,155.5C 54.8793,153.787 55.8793,152.787 57.5,152.5 Z"/></g>
<g><path style="opacity:1" fill="#3c2c18" d="M 158.5,163.5 C 157.811,166.189 156.144,167.856 153.5,168.5C 151.533,168.739 149.699,168.406 148,167.5C 147.855,164.739 148.355,162.073 149.5,159.5C 150.967,162.258 151.633,161.925 151.5,158.5C 152.552,158.351 153.552,158.517 154.5,159C 155.699,160.694 157.032,162.194 158.5,163.5 Z"/></g>
<g><path style="opacity:0.016" fill="#e0dddb" d="M 170.5,141.5 C 168.958,142.163 167.291,142.83 165.5,143.5C 166.943,154.084 163.61,162.917 155.5,170C 151.424,172.805 146.924,174.638 142,175.5C 139.479,175.178 137.979,173.844 137.5,171.5C 143.446,174.307 148.779,173.307 153.5,168.5C 156.144,167.856 157.811,166.189 158.5,163.5C 159.777,161.05 161.277,158.717 163,156.5C 163.497,153.854 163.664,151.187 163.5,148.5C 164.468,146.393 164.802,144.059 164.5,141.5C 166.5,141.5 168.5,141.5 170.5,141.5 Z"/></g>
<g><path style="opacity:1" fill="#3d2c16" d="M 62.5,156.5 C 65.3297,156.694 67.9963,157.361 70.5,158.5C 69.4937,159.396 69.4937,160.062 70.5,160.5C 68.537,161.168 66.537,161.502 64.5,161.5C 65.2634,162.719 66.2634,163.719 67.5,164.5C 66.0977,165.842 66.4311,166.676 68.5,167C 67.7476,167.671 67.4142,168.504 67.5,169.5C 65.7376,169.643 64.0709,169.309 62.5,168.5C 61.3961,169.631 61.7295,170.465 63.5,171C 62.3379,171.827 61.1712,172.66 60,173.5C 59.5,173.333 59,173.167 58.5,173C 59.6405,172.259 59.6405,171.425 58.5,170.5C 56.2933,169.365 53.9599,168.699 51.5,168.5C 52.3984,167.842 53.3984,167.176 54.5,166.5C 50.5802,166.151 49.9135,164.818 52.5,162.5C 55.7508,166.054 59.0841,166.221 62.5,163C 60.0478,160.921 60.0478,158.754 62.5,156.5 Z"/></g>
<g><path style="opacity:0.255" fill="#d6d2cf" d="M 34.5,161.5 C 36.4113,162.075 38.078,163.075 39.5,164.5C 39.8417,165.338 40.5084,165.672 41.5,165.5C 41.5,165.833 41.5,166.167 41.5,166.5C 38.3567,166.031 36.0233,164.364 34.5,161.5 Z"/></g>
<g><path style="opacity:1" fill="#382712" d="M 70.5,160.5 C 71.2389,160.369 71.9056,160.536 72.5,161C 71.6689,164.022 73.0022,165.522 76.5,165.5C 76.5,164.5 76.5,163.5 76.5,162.5C 75.448,162.649 74.448,162.483 73.5,162C 75.1341,161.506 76.8008,161.34 78.5,161.5C 79.6921,162.566 79.3588,163.399 77.5,164C 78.3279,164.915 79.3279,165.581 80.5,166C 78.7444,166.202 77.0777,166.702 75.5,167.5C 75.1667,169.167 74.1667,170.167 72.5,170.5C 70.8653,169.954 69.1986,169.62 67.5,169.5C 67.4142,168.504 67.7476,167.671 68.5,167C 66.4311,166.676 66.0977,165.842 67.5,164.5C 66.2634,163.719 65.2634,162.719 64.5,161.5C 66.537,161.502 68.537,161.168 70.5,160.5 Z"/></g>
<g><path style="opacity:1" fill="#3f2d17" d="M 92.5,169.5 C 89.6416,167.876 88.9749,168.543 90.5,171.5C 90.5,172.5 90.5,173.5 90.5,174.5C 89.609,175.11 88.609,175.443 87.5,175.5C 87.4226,174.25 86.756,173.417 85.5,173C 88.5443,172.641 88.8776,171.974 86.5,171C 87.3567,170.311 88.0233,169.478 88.5,168.5C 86.0827,167.426 83.7494,166.593 81.5,166C 82.1466,167.609 82.98,169.109 84,170.5C 84.3076,169.692 84.8076,169.025 85.5,168.5C 86.5063,168.938 86.5063,169.604 85.5,170.5C 81.6614,173.67 77.328,175.337 72.5,175.5C 71.234,174.91 69.9007,174.41 68.5,174C 69.624,173.751 70.624,173.251 71.5,172.5C 69.8164,171.85 68.4831,170.85 67.5,169.5C 69.1986,169.62 70.8653,169.954 72.5,170.5C 74.1667,170.167 75.1667,169.167 75.5,167.5C 77.0777,166.702 78.7444,166.202 80.5,166C 79.3279,165.581 78.3279,164.915 77.5,164C 79.3588,163.399 79.6921,162.566 78.5,161.5C 78.8333,160.833 79.1667,160.167 79.5,159.5C 79.369,158.761 79.5357,158.094 80,157.5C 80.4226,158.956 81.2559,159.456 82.5,159C 81.5455,155.688 81.8788,155.688 83.5,159C 82.1068,160.301 81.6068,161.801 82,163.5C 82.3333,163.167 82.6667,162.833 83,162.5C 83.8261,164.405 84.9928,164.739 86.5,163.5C 83.972,162.184 83.972,161.017 86.5,160C 86.1667,159.667 85.8333,159.333 85.5,159C 87.0444,157.813 88.7111,157.48 90.5,158C 89.8333,158.333 89.1667,158.667 88.5,159C 90.158,159.725 90.658,160.892 90,162.5C 89.2825,161.549 88.4491,161.383 87.5,162C 90.6117,163.599 92.2784,166.099 92.5,169.5 Z"/></g>
<g><path style="opacity:0.361" fill="#c2beb9" d="M 146.5,160.5 C 146.676,164.192 145.009,166.192 141.5,166.5C 143.633,164.909 145.299,162.909 146.5,160.5 Z"/></g>
<g><path style="opacity:0.239" fill="#d4d1d0" d="M 141.5,166.5 C 140.205,167.488 138.872,168.488 137.5,169.5C 137.694,167.088 139.027,166.088 141.5,166.5 Z"/></g>
<g><path style="opacity:1" fill="#3e2c16" d="M 104.5,154.5 C 104.825,156.132 105.825,157.132 107.5,157.5C 109.387,159.133 110.887,158.8 112,156.5C 112.759,158.063 113.926,159.063 115.5,159.5C 116.833,160.167 117.833,161.167 118.5,162.5C 117.168,164.138 115.834,165.804 114.5,167.5C 112.098,168.367 109.932,169.7 108,171.5C 107.29,170.027 106.124,169.36 104.5,169.5C 105.134,172.801 107.134,174.801 110.5,175.5C 109.328,176.705 107.995,176.705 106.5,175.5C 104.614,174.15 103.114,172.483 102,170.5C 101.922,172.657 101.755,174.657 101.5,176.5C 100.749,175.624 100.249,174.624 100,173.5C 98.1598,174.833 97.6598,174.666 98.5,173C 95.953,172.933 93.7863,172.099 92,170.5C 91.6174,171.056 91.1174,171.389 90.5,171.5C 88.9749,168.543 89.6416,167.876 92.5,169.5C 95.7973,169.671 96.1306,169.005 93.5,167.5C 95.2882,166.717 96.2882,165.384 96.5,163.5C 98.3845,162.029 100.384,161.529 102.5,162C 101.051,160.883 99.3839,160.216 97.5,160C 98.5,159.167 99.5,158.333 100.5,157.5C 99.1451,156.325 99.3117,155.325 101,154.5C 101.333,155.833 101.667,157.167 102,158.5C 102.5,158 103,157.5 103.5,157C 102.117,155.539 102.451,154.706 104.5,154.5 Z"/></g>
<g><path style="opacity:0.004" fill="#e4e1e0" d="M 41.5,166.5 C 44.6417,166.996 47.3084,168.33 49.5,170.5C 46.3714,170.026 43.7047,168.692 41.5,166.5 Z"/></g>
<g><path style="opacity:1" fill="#37281b" d="M 149.5,154.5 C 149.5,156.167 149.5,157.833 149.5,159.5C 148.355,162.073 147.855,164.739 148,167.5C 149.699,168.406 151.533,168.739 153.5,168.5C 148.779,173.307 143.446,174.307 137.5,171.5C 137.5,170.833 137.5,170.167 137.5,169.5C 138.872,168.488 140.205,167.488 141.5,166.5C 145.009,166.192 146.676,164.192 146.5,160.5C 147.797,158.629 148.797,156.629 149.5,154.5 Z"/></g>
<g><path style="opacity:1" fill="#635344" d="M 118.5,162.5 C 124.063,168.532 125.73,175.532 123.5,183.5C 112.833,184.833 102.167,184.833 91.5,183.5C 101.681,183.827 111.681,183.494 121.5,182.5C 122.046,179.766 122.212,176.766 122,173.5C 118.483,173.638 114.983,173.138 111.5,172C 112.981,171.02 114.315,169.853 115.5,168.5C 115.376,167.893 115.043,167.56 114.5,167.5C 115.834,165.804 117.168,164.138 118.5,162.5 Z"/></g>
<g><path style="opacity:1" fill="#3e2e1e" d="M 51.5,168.5 C 53.9599,168.699 56.2933,169.365 58.5,170.5C 59.6405,171.425 59.6405,172.259 58.5,173C 59,173.167 59.5,173.333 60,173.5C 61.1712,172.66 62.3379,171.827 63.5,171C 61.7295,170.465 61.3961,169.631 62.5,168.5C 64.0709,169.309 65.7376,169.643 67.5,169.5C 68.4831,170.85 69.8164,171.85 71.5,172.5C 70.624,173.251 69.624,173.751 68.5,174C 69.9007,174.41 71.234,174.91 72.5,175.5C 73.8333,175.5 74.5,176.167 74.5,177.5C 73.209,177.263 72.209,177.596 71.5,178.5C 68.198,177.706 64.8647,177.04 61.5,176.5C 60.5084,176.672 59.8417,176.338 59.5,175.5C 57.8185,173.992 55.8185,172.992 53.5,172.5C 51.847,172.34 50.5137,171.674 49.5,170.5C 47.3084,168.33 44.6417,166.996 41.5,166.5C 41.5,166.167 41.5,165.833 41.5,165.5C 44.154,164.658 46.8206,164.158 49.5,164C 48.8334,165.857 49.5001,167.357 51.5,168.5 Z"/></g>
<g><path style="opacity:1" fill="#392813" d="M 114.5,167.5 C 115.043,167.56 115.376,167.893 115.5,168.5C 114.315,169.853 112.981,171.02 111.5,172C 114.983,173.138 118.483,173.638 122,173.5C 122.212,176.766 122.046,179.766 121.5,182.5C 117.232,181.627 112.898,181.294 108.5,181.5C 110.982,179.915 111.648,177.915 110.5,175.5C 107.134,174.801 105.134,172.801 104.5,169.5C 106.124,169.36 107.29,170.027 108,171.5C 109.932,169.7 112.098,168.367 114.5,167.5 Z"/></g>
<g><path style="opacity:1" fill="#392812" d="M 87.5,175.5 C 86.7375,176.268 85.7375,176.768 84.5,177C 85.938,177.219 87.2713,177.719 88.5,178.5C 88,178.833 87.5,179.167 87,179.5C 82.8249,178.796 78.6583,178.129 74.5,177.5C 74.5,176.167 73.8333,175.5 72.5,175.5C 77.328,175.337 81.6614,173.67 85.5,170.5C 86.5063,169.604 86.5063,168.938 85.5,168.5C 84.8076,169.025 84.3076,169.692 84,170.5C 82.98,169.109 82.1466,167.609 81.5,166C 83.7494,166.593 86.0827,167.426 88.5,168.5C 88.0233,169.478 87.3567,170.311 86.5,171C 88.8776,171.974 88.5443,172.641 85.5,173C 86.756,173.417 87.4226,174.25 87.5,175.5 Z"/></g>
<g><path style="opacity:0.169" fill="#d1cfcd" d="M 53.5,172.5 C 55.8185,172.992 57.8185,173.992 59.5,175.5C 56.911,175.539 54.911,174.539 53.5,172.5 Z"/></g>
<g><path style="opacity:0.043" fill="#dbd9d8" d="M 61.5,176.5 C 64.8647,177.04 68.198,177.706 71.5,178.5C 72.4916,178.328 73.1583,178.662 73.5,179.5C 69.076,179.728 65.076,178.728 61.5,176.5 Z"/></g>
<g><path style="opacity:1" fill="#382b1d" d="M 90.5,174.5 C 91.3556,175.092 92.5222,175.092 94,174.5C 97.666,175.337 98.4993,176.837 96.5,179C 96.6667,179.5 96.8333,180 97,180.5C 97.6667,179.167 98.6667,178.167 100,177.5C 100.318,179.061 101.151,180.228 102.5,181C 104.473,181.495 106.473,181.662 108.5,181.5C 112.898,181.294 117.232,181.627 121.5,182.5C 111.681,183.494 101.681,183.827 91.5,183.5C 87.7331,181.973 83.7331,180.973 79.5,180.5C 77.4352,180.483 75.4352,180.15 73.5,179.5C 73.1583,178.662 72.4916,178.328 71.5,178.5C 72.209,177.596 73.209,177.263 74.5,177.5C 78.6583,178.129 82.8249,178.796 87,179.5C 87.5,179.167 88,178.833 88.5,178.5C 87.2713,177.719 85.938,177.219 84.5,177C 85.7375,176.768 86.7375,176.268 87.5,175.5C 88.609,175.443 89.609,175.11 90.5,174.5 Z"/></g>
<g><path style="opacity:1" fill="#3a2813" d="M 110.5,175.5 C 111.648,177.915 110.982,179.915 108.5,181.5C 106.473,181.662 104.473,181.495 102.5,181C 101.151,180.228 100.318,179.061 100,177.5C 98.6667,178.167 97.6667,179.167 97,180.5C 96.8333,180 96.6667,179.5 96.5,179C 98.4993,176.837 97.666,175.337 94,174.5C 92.5222,175.092 91.3556,175.092 90.5,174.5C 90.5,173.5 90.5,172.5 90.5,171.5C 91.1174,171.389 91.6174,171.056 92,170.5C 93.7863,172.099 95.953,172.933 98.5,173C 97.6598,174.666 98.1598,174.833 100,173.5C 100.249,174.624 100.749,175.624 101.5,176.5C 101.755,174.657 101.922,172.657 102,170.5C 103.114,172.483 104.614,174.15 106.5,175.5C 107.995,176.705 109.328,176.705 110.5,175.5 Z"/></g>
<g><path style="opacity:0.102" fill="#c8c5c3" d="M 79.5,180.5 C 83.7331,180.973 87.7331,181.973 91.5,183.5C 87.0981,183.692 83.0981,182.692 79.5,180.5 Z"/></g>
</svg>
