<?xml version="1.0" encoding="UTF-8"?>
<!DOCTYPE svg PUBLIC "-//W3C//DTD SVG 1.1//EN" "http://www.w3.org/Graphics/SVG/1.1/DTD/svg11.dtd">
<svg xmlns="http://www.w3.org/2000/svg" version="1.1" width="190px" height="190px" style="shape-rendering:geometricPrecision; text-rendering:geometricPrecision; image-rendering:optimizeQuality; fill-rule:evenodd; clip-rule:evenodd" xmlns:xlink="http://www.w3.org/1999/xlink">
<g><path style="opacity:0.518" fill="#b9b4af" d="M 95.5,5.5 C 95.5,5.83333 95.5,6.16667 95.5,6.5C 93.5,6.5 91.5,6.5 89.5,6.5C 88.8333,6.5 88.1667,6.5 87.5,6.5C 87.5,6.16667 87.5,5.83333 87.5,5.5C 90.272,4.23293 92.9387,4.23293 95.5,5.5 Z"/></g>
<g><path style="opacity:0.99" fill="#5c4d3f" d="M 87.5,6.5 C 88.1667,6.5 88.8333,6.5 89.5,6.5C 88.5,7.16667 87.5,7.83333 86.5,8.5C 85.0813,9.45115 83.4147,9.78448 81.5,9.5C 83.1815,7.99249 85.1815,6.99249 87.5,6.5 Z"/></g>
<g><path style="opacity:1" fill="#342417" d="M 89.5,6.5 C 91.5,6.5 93.5,6.5 95.5,6.5C 100.454,9.64896 105.787,11.649 111.5,12.5C 111.5,12.8333 111.5,13.1667 111.5,13.5C 108.455,13.4921 105.455,13.1587 102.5,12.5C 98.5142,12.3749 94.8476,11.3749 91.5,9.5C 90.4168,9.53944 89.4168,9.87277 88.5,10.5C 87.8182,9.75731 87.1515,9.09065 86.5,8.5C 87.5,7.83333 88.5,7.16667 89.5,6.5 Z"/></g>
<g><path style="opacity:1" fill="#392815" d="M 86.5,8.5 C 87.1515,9.09065 87.8182,9.75731 88.5,10.5C 89.4168,9.87277 90.4168,9.53944 91.5,9.5C 90.0101,11.2798 88.0101,11.9465 85.5,11.5C 85.2939,14.2384 84.2939,16.5718 82.5,18.5C 82.0831,17.8761 81.4164,17.5427 80.5,17.5C 78.0276,18.9917 75.3609,19.6584 72.5,19.5C 71.0048,19.0113 69.6715,18.3446 68.5,17.5C 70.5492,17.2942 70.8825,16.4609 69.5,15C 72.4757,14.2952 75.1423,13.1286 77.5,11.5C 78.6049,10.3995 79.9382,9.73286 81.5,9.5C 83.4147,9.78448 85.0813,9.45115 86.5,8.5 Z"/></g>
<g><path style="opacity:1" fill="#392712" d="M 91.5,9.5 C 94.8476,11.3749 98.5142,12.3749 102.5,12.5C 102.768,14.099 102.434,15.4324 101.5,16.5C 98.4545,16.6582 95.6212,15.9915 93,14.5C 92.7902,15.8029 92.9569,17.1362 93.5,18.5C 93.3333,19.1667 93.1667,19.8333 93,20.5C 92.1932,16.551 91.6932,16.551 91.5,20.5C 90.1667,20.5 88.8333,20.5 87.5,20.5C 87.5,21.5 87.5,22.5 87.5,23.5C 86.2505,24.7775 84.7505,25.7775 83,26.5C 82.342,28.108 82.842,29.2747 84.5,30C 83.944,30.3826 83.6107,30.8826 83.5,31.5C 82.5188,33.3092 81.0188,34.6426 79,35.5C 78.6012,35.2716 78.4346,34.9382 78.5,34.5C 77.9094,33.8485 77.2427,33.1818 76.5,32.5C 79.0539,29.7762 80.7206,26.6095 81.5,23C 80.8333,22.3333 80.1667,22.3333 79.5,23C 77.8473,28.2539 76.8473,28.4206 76.5,23.5C 75.0222,23.762 73.6888,23.4287 72.5,22.5C 75.3044,21.6949 78.1377,21.0283 81,20.5C 82.0299,20.1639 82.5299,19.4972 82.5,18.5C 84.2939,16.5718 85.2939,14.2384 85.5,11.5C 88.0101,11.9465 90.0101,11.2798 91.5,9.5 Z"/></g>
<g><path style="opacity:1" fill="#382712" d="M 102.5,12.5 C 105.455,13.1587 108.455,13.4921 111.5,13.5C 112.263,14.2679 113.263,14.7679 114.5,15C 113.422,15.6739 112.755,16.6739 112.5,18C 113.63,19.9039 113.63,21.7373 112.5,23.5C 111.566,22.4324 111.232,21.099 111.5,19.5C 109.774,19.8146 108.107,19.9813 106.5,20C 107.784,18.7025 107.617,17.5358 106,16.5C 105.105,18.8045 104.271,21.1378 103.5,23.5C 101.929,22.6906 100.262,22.3573 98.5,22.5C 97.2905,22.0679 96.2905,21.4013 95.5,20.5C 98.1194,20.2317 100.619,20.565 103,21.5C 103.182,19.6698 102.682,18.0031 101.5,16.5C 102.434,15.4324 102.768,14.099 102.5,12.5 Z"/></g>
<g><path style="opacity:1" fill="#3b2918" d="M 111.5,12.5 C 119.671,16.4162 128.004,20.0829 136.5,23.5C 136.265,24.0967 135.765,24.4301 135,24.5C 131.007,21.5905 127.674,22.2572 125,26.5C 123.929,23.8875 123.095,23.8875 122.5,26.5C 121.041,26.5674 119.708,26.2341 118.5,25.5C 117.631,23.283 117.298,20.9496 117.5,18.5C 116.127,18.3433 114.793,18.51 113.5,19C 115.851,20.854 115.517,22.354 112.5,23.5C 113.63,21.7373 113.63,19.9039 112.5,18C 112.755,16.6739 113.422,15.6739 114.5,15C 113.263,14.7679 112.263,14.2679 111.5,13.5C 111.5,13.1667 111.5,12.8333 111.5,12.5 Z"/></g>
<g><path style="opacity:0.118" fill="#c7c3bf" d="M 95.5,5.5 C 116.22,13.5143 137.22,21.0143 158.5,28C 163.245,29.5664 165.912,32.7331 166.5,37.5C 166.818,42.0323 166.485,46.3656 165.5,50.5C 165.5,46.5 165.5,42.5 165.5,38.5C 165.657,37.1266 165.49,35.7932 165,34.5C 162.833,33 160.667,31.5 158.5,30C 151.264,28.3084 144.264,26.1418 137.5,23.5C 137.167,23.5 136.833,23.5 136.5,23.5C 128.004,20.0829 119.671,16.4162 111.5,12.5C 105.787,11.649 100.454,9.64896 95.5,6.5C 95.5,6.16667 95.5,5.83333 95.5,5.5 Z"/></g>
<g><path style="opacity:1" fill="#422f1d" d="M 77.5,11.5 C 75.1423,13.1286 72.4757,14.2952 69.5,15C 70.8825,16.4609 70.5492,17.2942 68.5,17.5C 67.4246,16.4376 66.4246,16.4376 65.5,17.5C 65.5331,18.989 66.0331,20.3224 67,21.5C 68.8402,20.1669 69.3402,20.3335 68.5,22C 66.3211,23.2567 64.3211,24.7567 62.5,26.5C 60.6837,25.2651 59.017,25.2651 57.5,26.5C 55.8657,25.0283 54.3657,23.3617 53,21.5C 51.5557,23.1554 49.7224,23.822 47.5,23.5C 56.844,18.2323 66.844,14.2323 77.5,11.5 Z"/></g>
<g><path style="opacity:0.118" fill="#dcd9d7" d="M 87.5,5.5 C 87.5,5.83333 87.5,6.16667 87.5,6.5C 85.1815,6.99249 83.1815,7.99249 81.5,9.5C 79.9382,9.73286 78.6049,10.3995 77.5,11.5C 66.844,14.2323 56.844,18.2323 47.5,23.5C 46.5,23.5 45.5,23.5 44.5,23.5C 49.6132,20.4409 54.9466,17.6076 60.5,15C 69.6915,12.1397 78.6915,8.97301 87.5,5.5 Z"/></g>
<g><path style="opacity:1" fill="#3e2c16" d="M 101.5,16.5 C 102.682,18.0031 103.182,19.6698 103,21.5C 100.619,20.565 98.1194,20.2317 95.5,20.5C 93.1218,22.2631 93.1218,24.2631 95.5,26.5C 94.0095,27.2436 92.5095,27.9103 91,28.5C 91.3333,27.1667 91.6667,25.8333 92,24.5C 90.5944,23.3318 89.4277,23.6652 88.5,25.5C 87.7025,25.0431 87.3691,24.3764 87.5,23.5C 87.5,22.5 87.5,21.5 87.5,20.5C 88.8333,20.5 90.1667,20.5 91.5,20.5C 91.6932,16.551 92.1932,16.551 93,20.5C 93.1667,19.8333 93.3333,19.1667 93.5,18.5C 92.9569,17.1362 92.7902,15.8029 93,14.5C 95.6212,15.9915 98.4545,16.6582 101.5,16.5 Z"/></g>
<g><path style="opacity:1" fill="#3b2813" d="M 95.5,20.5 C 96.2905,21.4013 97.2905,22.0679 98.5,22.5C 98.238,23.9778 98.5713,25.3112 99.5,26.5C 99.8333,25.8333 100.167,25.1667 100.5,24.5C 101.167,25.1667 101.833,25.8333 102.5,26.5C 103.609,25.4104 104.609,25.4104 105.5,26.5C 104.007,27.1411 103.007,28.1411 102.5,29.5C 101.883,29.3893 101.383,29.056 101,28.5C 100.316,32.0932 98.8156,32.4265 96.5,29.5C 93.8353,30.8477 91.1687,31.181 88.5,30.5C 86.9536,32.484 85.2869,32.8174 83.5,31.5C 83.6107,30.8826 83.944,30.3826 84.5,30C 82.842,29.2747 82.342,28.108 83,26.5C 84.7505,25.7775 86.2505,24.7775 87.5,23.5C 87.3691,24.3764 87.7025,25.0431 88.5,25.5C 89.4277,23.6652 90.5944,23.3318 92,24.5C 91.6667,25.8333 91.3333,27.1667 91,28.5C 92.5095,27.9103 94.0095,27.2436 95.5,26.5C 93.1218,24.2631 93.1218,22.2631 95.5,20.5 Z"/></g>
<g><path style="opacity:1" fill="#3a2914" d="M 112.5,23.5 C 115.517,22.354 115.851,20.854 113.5,19C 114.793,18.51 116.127,18.3433 117.5,18.5C 117.298,20.9496 117.631,23.283 118.5,25.5C 118.167,25.5 117.833,25.5 117.5,25.5C 116.5,25.5 115.5,25.5 114.5,25.5C 114.473,27.1993 113.806,28.5326 112.5,29.5C 111.865,32.8248 110.865,36.1581 109.5,39.5C 106.083,40.6168 103.416,42.6168 101.5,45.5C 101.634,43.7085 101.301,42.0418 100.5,40.5C 103.572,39.6822 103.905,38.5155 101.5,37C 102.973,36.2904 103.64,35.1238 103.5,33.5C 103.768,31.901 103.434,30.5676 102.5,29.5C 103.007,28.1411 104.007,27.1411 105.5,26.5C 104.609,25.4104 103.609,25.4104 102.5,26.5C 101.833,25.8333 101.167,25.1667 100.5,24.5C 100.167,25.1667 99.8333,25.8333 99.5,26.5C 98.5713,25.3112 98.238,23.9778 98.5,22.5C 100.262,22.3573 101.929,22.6906 103.5,23.5C 104.271,21.1378 105.105,18.8045 106,16.5C 107.617,17.5358 107.784,18.7025 106.5,20C 108.107,19.9813 109.774,19.8146 111.5,19.5C 111.232,21.099 111.566,22.4324 112.5,23.5 Z"/></g>
<g><path style="opacity:1" fill="#3c2b13" d="M 57.5,26.5 C 59.0858,27.1481 60.7525,27.6481 62.5,28C 63.3366,29.0113 63.67,30.1779 63.5,31.5C 60.5647,32.4771 57.8981,33.6437 55.5,35C 54.269,33.8173 54.269,32.6507 55.5,31.5C 56.1667,31.8333 56.8333,32.1667 57.5,32.5C 58.7187,31.3539 60.0521,30.3539 61.5,29.5C 58.4911,28.9775 55.4911,29.4775 52.5,31C 54.0432,33.0449 53.7099,34.5449 51.5,35.5C 51.7852,33.712 51.4519,32.0453 50.5,30.5C 48.9907,32.6564 47.9907,34.9897 47.5,37.5C 46.8525,35.5018 46.0192,33.5018 45,31.5C 44.0853,32.3279 43.4186,33.3279 43,34.5C 40.816,31.6655 41.316,30.3322 44.5,30.5C 44.5,29.1667 44.5,27.8333 44.5,26.5C 45.8734,26.6567 47.2068,26.49 48.5,26C 47.7476,25.3292 47.4142,24.4959 47.5,23.5C 49.7224,23.822 51.5557,23.1554 53,21.5C 54.3657,23.3617 55.8657,25.0283 57.5,26.5 Z"/></g>
<g><path style="opacity:1" fill="#3c2b13" d="M 68.5,17.5 C 69.6715,18.3446 71.0048,19.0113 72.5,19.5C 70.5901,20.684 70.2568,22.184 71.5,24C 69.0085,25.2492 69.1751,26.4158 72,27.5C 74.0545,26.505 75.2212,27.3384 75.5,30C 73.3465,31.1788 70.6798,32.3455 67.5,33.5C 69.2914,34.1698 70.9581,34.8365 72.5,35.5C 70.5229,36.1495 68.6895,36.1495 67,35.5C 63.5265,39.2299 63.8598,39.8966 68,37.5C 68.6667,38.1667 68.6667,38.8333 68,39.5C 66.3005,40.4061 64.4672,40.7394 62.5,40.5C 61.3054,40.1344 60.6387,39.301 60.5,38C 61.0304,35.5568 62.0304,33.3901 63.5,31.5C 63.67,30.1779 63.3366,29.0113 62.5,28C 60.7525,27.6481 59.0858,27.1481 57.5,26.5C 59.017,25.2651 60.6837,25.2651 62.5,26.5C 64.3211,24.7567 66.3211,23.2567 68.5,22C 69.3402,20.3335 68.8402,20.1669 67,21.5C 66.0331,20.3224 65.5331,18.989 65.5,17.5C 66.4246,16.4376 67.4246,16.4376 68.5,17.5 Z"/></g>
<g><path style="opacity:1" fill="#3c2a19" d="M 137.5,23.5 C 144.264,26.1418 151.264,28.3084 158.5,30C 160.667,31.5 162.833,33 165,34.5C 165.49,35.7932 165.657,37.1266 165.5,38.5C 164.833,37.5 164.167,36.5 163.5,35.5C 163.565,35.0618 163.399,34.7284 163,34.5C 158.937,38.8329 156.937,37.8329 157,31.5C 156,32.1667 155,32.8333 154,33.5C 150.016,26.9283 147.682,27.2617 147,34.5C 146.5,33.3333 145.667,32.5 144.5,32C 144.833,31.6667 145.167,31.3333 145.5,31C 144.234,30.6905 143.067,30.1905 142,29.5C 141.963,31.9739 141.13,33.9739 139.5,35.5C 138.706,33.1272 137.706,30.7938 136.5,28.5C 137.167,27.8333 137.833,27.1667 138.5,26.5C 137.873,25.5832 137.539,24.5832 137.5,23.5 Z"/></g>
<g><path style="opacity:1" fill="#3b2812" d="M 136.5,23.5 C 136.833,23.5 137.167,23.5 137.5,23.5C 137.539,24.5832 137.873,25.5832 138.5,26.5C 137.833,27.1667 137.167,27.8333 136.5,28.5C 137.706,30.7938 138.706,33.1272 139.5,35.5C 139.232,37.099 139.566,38.4324 140.5,39.5C 141.679,41.5065 141.179,41.8398 139,40.5C 138.809,42.7078 138.309,44.7078 137.5,46.5C 136.851,44.5229 136.851,42.6895 137.5,41C 136.047,35.2034 134.38,34.7034 132.5,39.5C 133.325,40.3857 134.325,40.719 135.5,40.5C 135.657,41.8734 135.49,43.2068 135,44.5C 133.301,43.5939 131.467,43.2606 129.5,43.5C 128.427,42.7494 128.26,41.7494 129,40.5C 129.333,40.8333 129.667,41.1667 130,41.5C 130.977,39.26 131.477,36.9267 131.5,34.5C 136.443,34.7124 137.11,33.7124 133.5,31.5C 133.709,30.914 134.043,30.414 134.5,30C 132.953,29.6666 131.62,30.1666 130.5,31.5C 129.264,30.7542 127.93,30.4208 126.5,30.5C 126.5,31.5 126.5,32.5 126.5,33.5C 123.203,33.6713 122.869,33.0046 125.5,31.5C 125.167,31.1667 124.833,30.8333 124.5,30.5C 122.802,31.6808 121.135,31.6808 119.5,30.5C 120.325,29.6143 121.325,29.281 122.5,29.5C 122.5,28.5 122.5,27.5 122.5,26.5C 123.095,23.8875 123.929,23.8875 125,26.5C 127.674,22.2572 131.007,21.5905 135,24.5C 135.765,24.4301 136.265,24.0967 136.5,23.5 Z"/></g>
<g><path style="opacity:0.749" fill="#7d7369" d="M 34.5,28.5 C 32.9674,30.2451 30.9674,31.2451 28.5,31.5C 30.0326,29.7549 32.0326,28.7549 34.5,28.5 Z"/></g>
<g><path style="opacity:0.114" fill="#d0cdca" d="M 44.5,23.5 C 43.0252,25.6899 41.0252,27.0233 38.5,27.5C 37.2921,28.2341 35.9587,28.5674 34.5,28.5C 32.0326,28.7549 30.0326,29.7549 28.5,31.5C 27.8333,31.5 27.5,31.8333 27.5,32.5C 24.4823,33.855 23.149,36.1884 23.5,39.5C 23.5,55.1667 23.5,70.8333 23.5,86.5C 22.5035,70.0084 22.1702,53.3417 22.5,36.5C 22.7438,33.7374 24.0771,31.5707 26.5,30C 32.4237,27.5343 38.4237,25.3676 44.5,23.5 Z"/></g>
<g><path style="opacity:1" fill="#402e18" d="M 82.5,18.5 C 82.5299,19.4972 82.0299,20.1639 81,20.5C 78.1377,21.0283 75.3044,21.6949 72.5,22.5C 73.6888,23.4287 75.0222,23.762 76.5,23.5C 76.8473,28.4206 77.8473,28.2539 79.5,23C 80.1667,22.3333 80.8333,22.3333 81.5,23C 80.7206,26.6095 79.0539,29.7762 76.5,32.5C 77.2427,33.1818 77.9094,33.8485 78.5,34.5C 76.4508,34.7058 76.1175,35.5391 77.5,37C 79.3668,37.7112 80.8668,37.2112 82,35.5C 83.7286,35.9743 84.8953,36.9743 85.5,38.5C 81.5516,37.4432 80.8849,38.4432 83.5,41.5C 81.4006,42.6118 79.0673,43.2785 76.5,43.5C 76.6107,42.8826 76.944,42.3826 77.5,42C 76.2068,41.51 74.8734,41.3433 73.5,41.5C 73.4208,40.0695 73.7542,38.7362 74.5,37.5C 74.1445,36.4777 73.4778,35.811 72.5,35.5C 70.9581,34.8365 69.2914,34.1698 67.5,33.5C 70.6798,32.3455 73.3465,31.1788 75.5,30C 75.2212,27.3384 74.0545,26.505 72,27.5C 69.1751,26.4158 69.0085,25.2492 71.5,24C 70.2568,22.184 70.5901,20.684 72.5,19.5C 75.3609,19.6584 78.0276,18.9917 80.5,17.5C 81.4164,17.5427 82.0831,17.8761 82.5,18.5 Z"/></g>
<g><path style="opacity:1" fill="#3c2a14" d="M 163.5,35.5 C 163.5,37.5 163.5,39.5 163.5,41.5C 162.996,43.6108 161.496,45.6108 159,47.5C 157.507,45.4402 155.674,45.1068 153.5,46.5C 152.754,47.7362 152.421,49.0695 152.5,50.5C 148.757,50.4592 148.59,51.1259 152,52.5C 153.579,51.2004 154.745,51.5337 155.5,53.5C 153.843,53.931 151.843,54.5977 149.5,55.5C 148.069,55.1193 147.236,54.1193 147,52.5C 146.189,53.9597 145.355,54.293 144.5,53.5C 145.104,50.6191 146.438,48.2858 148.5,46.5C 150.199,45.4887 151.699,44.1554 153,42.5C 154.678,44.282 156.511,44.6153 158.5,43.5C 161.439,37.888 160.606,37.2213 156,41.5C 154.338,39.4269 152.671,38.0935 151,37.5C 149.167,39.8333 147.333,42.1667 145.5,44.5C 143.652,42.3187 143.318,39.9853 144.5,37.5C 142.655,36.6054 141.322,37.2721 140.5,39.5C 139.566,38.4324 139.232,37.099 139.5,35.5C 141.13,33.9739 141.963,31.9739 142,29.5C 143.067,30.1905 144.234,30.6905 145.5,31C 145.167,31.3333 144.833,31.6667 144.5,32C 145.667,32.5 146.5,33.3333 147,34.5C 147.682,27.2617 150.016,26.9283 154,33.5C 155,32.8333 156,32.1667 157,31.5C 156.937,37.8329 158.937,38.8329 163,34.5C 163.399,34.7284 163.565,35.0618 163.5,35.5 Z"/></g>
<g><path style="opacity:1" fill="#43301a" d="M 102.5,29.5 C 103.434,30.5676 103.768,31.901 103.5,33.5C 99.1272,32.3139 94.7939,32.3139 90.5,33.5C 86.9608,34.7959 86.6275,36.6293 89.5,39C 88.0715,39.5791 86.7382,39.4124 85.5,38.5C 84.8953,36.9743 83.7286,35.9743 82,35.5C 80.8668,37.2112 79.3668,37.7112 77.5,37C 76.1175,35.5391 76.4508,34.7058 78.5,34.5C 78.4346,34.9382 78.6012,35.2716 79,35.5C 81.0188,34.6426 82.5188,33.3092 83.5,31.5C 85.2869,32.8174 86.9536,32.484 88.5,30.5C 91.1687,31.181 93.8353,30.8477 96.5,29.5C 98.8156,32.4265 100.316,32.0932 101,28.5C 101.383,29.056 101.883,29.3893 102.5,29.5 Z"/></g>
<g><path style="opacity:1" fill="#392713" d="M 103.5,33.5 C 103.64,35.1238 102.973,36.2904 101.5,37C 103.905,38.5155 103.572,39.6822 100.5,40.5C 96.9581,40.1872 93.6248,40.5206 90.5,41.5C 88.1667,41.5 85.8333,41.5 83.5,41.5C 80.8849,38.4432 81.5516,37.4432 85.5,38.5C 86.7382,39.4124 88.0715,39.5791 89.5,39C 86.6275,36.6293 86.9608,34.7959 90.5,33.5C 94.7939,32.3139 99.1272,32.3139 103.5,33.5 Z"/></g>
<g><path style="opacity:1" fill="#433019" d="M 117.5,25.5 C 117.833,25.5 118.167,25.5 118.5,25.5C 119.708,26.2341 121.041,26.5674 122.5,26.5C 122.5,27.5 122.5,28.5 122.5,29.5C 121.325,29.281 120.325,29.6143 119.5,30.5C 121.135,31.6808 122.802,31.6808 124.5,30.5C 124.833,30.8333 125.167,31.1667 125.5,31.5C 122.869,33.0046 123.203,33.6713 126.5,33.5C 126.5,32.5 126.5,31.5 126.5,30.5C 127.93,30.4208 129.264,30.7542 130.5,31.5C 131.62,30.1666 132.953,29.6666 134.5,30C 134.043,30.414 133.709,30.914 133.5,31.5C 137.11,33.7124 136.443,34.7124 131.5,34.5C 130.833,33.1667 130.167,33.1667 129.5,34.5C 126.402,34.4125 126.068,34.9125 128.5,36C 127.975,36.6924 127.308,37.1924 126.5,37.5C 124.571,36.6198 122.737,35.6198 121,34.5C 119.521,35.8731 119.688,37.3731 121.5,39C 120.906,39.4643 120.239,39.631 119.5,39.5C 118.653,38.0337 117.32,37.2004 115.5,37C 117.87,34.4975 119.203,31.4975 119.5,28C 118.244,27.5831 117.577,26.7498 117.5,25.5 Z"/></g>
<g><path style="opacity:1" fill="#372712" d="M 38.5,27.5 C 39.4785,30.0721 40.4785,33.0721 41.5,36.5C 41.1667,36.8333 40.8333,37.1667 40.5,37.5C 39.2807,36.7366 38.2807,35.7366 37.5,34.5C 36.7025,34.9569 36.3691,35.6236 36.5,36.5C 35.1667,37.1667 33.8333,37.8333 32.5,38.5C 32.5,37.5 32.5,36.5 32.5,35.5C 35.5476,35.506 36.0476,34.506 34,32.5C 33.3333,33.1667 32.6667,33.8333 32,34.5C 30.3775,33.9011 28.8775,33.2344 27.5,32.5C 27.5,31.8333 27.8333,31.5 28.5,31.5C 30.9674,31.2451 32.9674,30.2451 34.5,28.5C 35.9587,28.5674 37.2921,28.2341 38.5,27.5 Z"/></g>
<g><path style="opacity:1" fill="#3c2913" d="M 129.5,34.5 C 130.954,37.3999 129.954,38.7332 126.5,38.5C 126.292,40.9201 126.626,43.2534 127.5,45.5C 126.234,46.3624 124.901,47.0291 123.5,47.5C 122.081,47.3611 120.748,46.8611 119.5,46C 119.833,45.6667 120.167,45.3333 120.5,45C 119.061,44.0094 118.061,42.676 117.5,41C 118.044,40.2828 118.711,39.7828 119.5,39.5C 120.239,39.631 120.906,39.4643 121.5,39C 119.688,37.3731 119.521,35.8731 121,34.5C 122.737,35.6198 124.571,36.6198 126.5,37.5C 127.308,37.1924 127.975,36.6924 128.5,36C 126.068,34.9125 126.402,34.4125 129.5,34.5 Z"/></g>
<g><path style="opacity:1" fill="#3f2d17" d="M 44.5,23.5 C 45.5,23.5 46.5,23.5 47.5,23.5C 47.4142,24.4959 47.7476,25.3292 48.5,26C 47.2068,26.49 45.8734,26.6567 44.5,26.5C 44.5,27.8333 44.5,29.1667 44.5,30.5C 41.316,30.3322 40.816,31.6655 43,34.5C 43.4186,33.3279 44.0853,32.3279 45,31.5C 46.0192,33.5018 46.8525,35.5018 47.5,37.5C 47.8333,38.1667 48.1667,38.8333 48.5,39.5C 47.0597,40.3629 45.7264,40.3629 44.5,39.5C 43.0948,42.8518 41.7615,43.0185 40.5,40C 39.552,39.5172 38.552,39.3505 37.5,39.5C 37.7373,38.209 37.404,37.209 36.5,36.5C 36.3691,35.6236 36.7025,34.9569 37.5,34.5C 38.2807,35.7366 39.2807,36.7366 40.5,37.5C 40.8333,37.1667 41.1667,36.8333 41.5,36.5C 40.4785,33.0721 39.4785,30.0721 38.5,27.5C 41.0252,27.0233 43.0252,25.6899 44.5,23.5 Z"/></g>
<g><path style="opacity:1" fill="#483520" d="M 131.5,34.5 C 131.477,36.9267 130.977,39.26 130,41.5C 129.667,41.1667 129.333,40.8333 129,40.5C 128.26,41.7494 128.427,42.7494 129.5,43.5C 128.852,45.0858 128.352,46.7525 128,48.5C 126.038,48.0306 124.205,48.6973 122.5,50.5C 124.278,51.7258 125.278,53.3925 125.5,55.5C 125.5,55.8333 125.5,56.1667 125.5,56.5C 124.026,54.8627 122.192,53.8627 120,53.5C 117.645,54.5657 115.479,55.8991 113.5,57.5C 113.5,56.5 113.5,55.5 113.5,54.5C 114.222,54.0825 114.722,53.4158 115,52.5C 115.333,52.8333 115.667,53.1667 116,53.5C 117.401,51.8078 119.234,51.1412 121.5,51.5C 121.229,49.6203 121.896,48.287 123.5,47.5C 124.901,47.0291 126.234,46.3624 127.5,45.5C 126.626,43.2534 126.292,40.9201 126.5,38.5C 129.954,38.7332 130.954,37.3999 129.5,34.5C 130.167,33.1667 130.833,33.1667 131.5,34.5 Z"/></g>
<g><path style="opacity:1" fill="#433119" d="M 27.5,32.5 C 28.8775,33.2344 30.3775,33.9011 32,34.5C 32.6667,33.8333 33.3333,33.1667 34,32.5C 36.0476,34.506 35.5476,35.506 32.5,35.5C 32.5,36.5 32.5,37.5 32.5,38.5C 32.6727,41.9826 31.6727,44.9826 29.5,47.5C 28.8333,47.5 28.1667,47.5 27.5,47.5C 28.8408,45.1658 28.1741,43.4991 25.5,42.5C 25.6621,40.4727 25.4955,38.4727 25,36.5C 24.7679,37.7375 24.2679,38.7375 23.5,39.5C 23.149,36.1884 24.4823,33.855 27.5,32.5 Z"/></g>
<g><path style="opacity:1" fill="#3b2812" d="M 36.5,36.5 C 37.404,37.209 37.7373,38.209 37.5,39.5C 38.552,39.3505 39.552,39.5172 40.5,40C 41.7615,43.0185 43.0948,42.8518 44.5,39.5C 45.7264,40.3629 47.0597,40.3629 48.5,39.5C 46.4159,41.7565 46.0825,44.2565 47.5,47C 47,47.5 46.5,48 46,48.5C 44.8869,47.2889 43.7202,47.2889 42.5,48.5C 41.7189,47.2713 41.2189,45.938 41,44.5C 40.3292,45.2524 39.4959,45.5858 38.5,45.5C 37.6236,45.6309 36.9569,45.2975 36.5,44.5C 37.5,43.8333 38.5,43.1667 39.5,42.5C 37.9223,41.7022 36.2556,41.2022 34.5,41C 36.1066,39.951 36.7733,38.451 36.5,36.5 Z"/></g>
<g><path style="opacity:1" fill="#46331b" d="M 148.5,46.5 C 147.292,47.2341 145.959,47.5674 144.5,47.5C 144.5,48.5 144.5,49.5 144.5,50.5C 142.362,50.703 140.695,51.703 139.5,53.5C 138.808,52.9747 138.308,52.3081 138,51.5C 137.598,52.8721 137.098,54.2054 136.5,55.5C 138.124,56.8689 138.624,58.5355 138,60.5C 136.856,58.0829 135.19,57.4162 133,58.5C 132.949,54.4497 134.115,50.4497 136.5,46.5C 136.833,46.5 137.167,46.5 137.5,46.5C 138.309,44.7078 138.809,42.7078 139,40.5C 141.179,41.8398 141.679,41.5065 140.5,39.5C 141.322,37.2721 142.655,36.6054 144.5,37.5C 143.318,39.9853 143.652,42.3187 145.5,44.5C 147.333,42.1667 149.167,39.8333 151,37.5C 152.671,38.0935 154.338,39.4269 156,41.5C 160.606,37.2213 161.439,37.888 158.5,43.5C 156.511,44.6153 154.678,44.282 153,42.5C 151.699,44.1554 150.199,45.4887 148.5,46.5 Z"/></g>
<g><path style="opacity:0.969" fill="#605246" d="M 90.5,41.5 C 93.6248,40.5206 96.9581,40.1872 100.5,40.5C 101.301,42.0418 101.634,43.7085 101.5,45.5C 101.167,45.5 100.833,45.5 100.5,45.5C 100.67,44.1779 100.337,43.0113 99.5,42C 96.5184,41.502 93.5184,41.3354 90.5,41.5 Z"/></g>
<g><path style="opacity:1" fill="#3c2913" d="M 117.5,25.5 C 117.577,26.7498 118.244,27.5831 119.5,28C 119.203,31.4975 117.87,34.4975 115.5,37C 117.32,37.2004 118.653,38.0337 119.5,39.5C 118.711,39.7828 118.044,40.2828 117.5,41C 118.061,42.676 119.061,44.0094 120.5,45C 120.167,45.3333 119.833,45.6667 119.5,46C 120.748,46.8611 122.081,47.3611 123.5,47.5C 121.896,48.287 121.229,49.6203 121.5,51.5C 119.234,51.1412 117.401,51.8078 116,53.5C 115.667,53.1667 115.333,52.8333 115,52.5C 114.722,53.4158 114.222,54.0825 113.5,54.5C 112.161,51.2638 113.161,48.7638 116.5,47C 115.551,46.3828 114.718,46.5494 114,47.5C 113.43,44.1562 112.264,43.8228 110.5,46.5C 110.167,46.1667 109.833,45.8333 109.5,45.5C 110.432,43.2046 111.265,40.8713 112,38.5C 112.654,39.6956 113.154,39.6956 113.5,38.5C 113.167,37.8333 112.833,37.1667 112.5,36.5C 114.475,35.7248 115.309,34.3914 115,32.5C 114.333,33.1667 113.667,33.8333 113,34.5C 112.506,32.8659 112.34,31.1992 112.5,29.5C 113.806,28.5326 114.473,27.1993 114.5,25.5C 115.5,25.5 116.5,25.5 117.5,25.5 Z"/></g>
<g><path style="opacity:1" fill="#3b2912" d="M 63.5,31.5 C 62.0304,33.3901 61.0304,35.5568 60.5,38C 60.6387,39.301 61.3054,40.1344 62.5,40.5C 62.5774,41.7498 63.244,42.5831 64.5,43C 63.3333,43.5 62.5,44.3333 62,45.5C 60.3333,44.1667 58.6667,44.1667 57,45.5C 58.4628,42.4137 57.6295,40.0803 54.5,38.5C 53.8933,38.6236 53.56,38.9569 53.5,39.5C 52.8333,39.1667 52.1667,38.8333 51.5,38.5C 50.1667,37.5 50.1667,36.5 51.5,35.5C 53.7099,34.5449 54.0432,33.0449 52.5,31C 55.4911,29.4775 58.4911,28.9775 61.5,29.5C 60.0521,30.3539 58.7187,31.3539 57.5,32.5C 56.8333,32.1667 56.1667,31.8333 55.5,31.5C 54.269,32.6507 54.269,33.8173 55.5,35C 57.8981,33.6437 60.5647,32.4771 63.5,31.5 Z"/></g>
<g><path style="opacity:1" fill="#433019" d="M 72.5,35.5 C 73.4778,35.811 74.1445,36.4777 74.5,37.5C 73.7542,38.7362 73.4208,40.0695 73.5,41.5C 70.3296,42.7917 69.9962,44.4584 72.5,46.5C 70.9951,47.8415 70.3285,49.5082 70.5,51.5C 66.41,51.4569 65.7434,50.1235 68.5,47.5C 67.3959,44.5989 65.7293,44.0989 63.5,46C 65.2705,46.5354 65.6039,47.3687 64.5,48.5C 62.1608,47.276 59.8275,47.276 57.5,48.5C 59.6241,49.1494 61.6241,49.9827 63.5,51C 62.0267,51.7096 61.3601,52.8762 61.5,54.5C 58.3566,56.2417 55.3566,58.2417 52.5,60.5C 51.1667,60.5 49.8333,60.5 48.5,60.5C 47.7659,59.2921 47.4326,57.9587 47.5,56.5C 48.9401,54.6118 50.6068,53.9451 52.5,54.5C 51.1886,53.7425 50.6886,52.7425 51,51.5C 52.0113,52.3366 53.1779,52.67 54.5,52.5C 54.238,53.9778 54.5713,55.3112 55.5,56.5C 56.7112,55.7261 56.7112,54.8928 55.5,54C 59.375,53.0135 59.375,51.8468 55.5,50.5C 53.6267,51.0891 51.96,50.4224 50.5,48.5C 54.3725,46.4805 55.3725,43.4805 53.5,39.5C 53.56,38.9569 53.8933,38.6236 54.5,38.5C 57.6295,40.0803 58.4628,42.4137 57,45.5C 58.6667,44.1667 60.3333,44.1667 62,45.5C 62.5,44.3333 63.3333,43.5 64.5,43C 63.244,42.5831 62.5774,41.7498 62.5,40.5C 64.4672,40.7394 66.3005,40.4061 68,39.5C 68.6667,38.8333 68.6667,38.1667 68,37.5C 63.8598,39.8966 63.5265,39.2299 67,35.5C 68.6895,36.1495 70.5229,36.1495 72.5,35.5 Z"/></g>
<g><path style="opacity:1" fill="#3f2e19" d="M 112.5,29.5 C 112.34,31.1992 112.506,32.8659 113,34.5C 113.667,33.8333 114.333,33.1667 115,32.5C 115.309,34.3914 114.475,35.7248 112.5,36.5C 112.833,37.1667 113.167,37.8333 113.5,38.5C 113.154,39.6956 112.654,39.6956 112,38.5C 111.265,40.8713 110.432,43.2046 109.5,45.5C 109.833,45.8333 110.167,46.1667 110.5,46.5C 112.264,43.8228 113.43,44.1562 114,47.5C 114.718,46.5494 115.551,46.3828 116.5,47C 113.161,48.7638 112.161,51.2638 113.5,54.5C 113.5,55.5 113.5,56.5 113.5,57.5C 103.66,59.9527 99.327,55.9527 100.5,45.5C 100.833,45.5 101.167,45.5 101.5,45.5C 103.416,42.6168 106.083,40.6168 109.5,39.5C 110.865,36.1581 111.865,32.8248 112.5,29.5 Z"/></g>
<g><path style="opacity:1" fill="#3d2b14" d="M 36.5,36.5 C 36.7733,38.451 36.1066,39.951 34.5,41C 36.2556,41.2022 37.9223,41.7022 39.5,42.5C 38.5,43.1667 37.5,43.8333 36.5,44.5C 36.9569,45.2975 37.6236,45.6309 38.5,45.5C 39.5025,47.0109 40.1692,48.6776 40.5,50.5C 41.791,50.2627 42.791,50.596 43.5,51.5C 41.8333,51.5 40.1667,51.5 38.5,51.5C 38.6495,50.448 38.4828,49.448 38,48.5C 37.6667,49.8333 37.3333,51.1667 37,52.5C 36.189,46.5959 33.8556,45.9293 30,50.5C 29.5172,49.552 29.3505,48.552 29.5,47.5C 31.6727,44.9826 32.6727,41.9826 32.5,38.5C 33.8333,37.8333 35.1667,37.1667 36.5,36.5 Z"/></g>
<g><path style="opacity:1" fill="#3e2c15" d="M 137.5,46.5 C 137.167,46.5 136.833,46.5 136.5,46.5C 134.284,46.2746 132.617,47.1079 131.5,49C 132.308,49.3076 132.975,49.8076 133.5,50.5C 131.833,52.5 130.167,54.5 128.5,56.5C 127.583,55.8728 126.583,55.5394 125.5,55.5C 125.278,53.3925 124.278,51.7258 122.5,50.5C 124.205,48.6973 126.038,48.0306 128,48.5C 128.352,46.7525 128.852,45.0858 129.5,43.5C 131.467,43.2606 133.301,43.5939 135,44.5C 135.49,43.2068 135.657,41.8734 135.5,40.5C 134.325,40.719 133.325,40.3857 132.5,39.5C 134.38,34.7034 136.047,35.2034 137.5,41C 136.851,42.6895 136.851,44.5229 137.5,46.5 Z"/></g>
<g><path style="opacity:1" fill="#47341d" d="M 51.5,35.5 C 50.1667,36.5 50.1667,37.5 51.5,38.5C 51.33,39.8221 51.6634,40.9887 52.5,42C 51.2068,42.49 49.8734,42.6567 48.5,42.5C 49.0545,46.0122 48.3878,49.0122 46.5,51.5C 45.6522,50.375 44.6522,50.375 43.5,51.5C 42.791,50.596 41.791,50.2627 40.5,50.5C 40.1692,48.6776 39.5025,47.0109 38.5,45.5C 39.4959,45.5858 40.3292,45.2524 41,44.5C 41.2189,45.938 41.7189,47.2713 42.5,48.5C 43.7202,47.2889 44.8869,47.2889 46,48.5C 46.5,48 47,47.5 47.5,47C 46.0825,44.2565 46.4159,41.7565 48.5,39.5C 48.1667,38.8333 47.8333,38.1667 47.5,37.5C 47.9907,34.9897 48.9907,32.6564 50.5,30.5C 51.4519,32.0453 51.7852,33.712 51.5,35.5 Z"/></g>
<g><path style="opacity:1" fill="#3d2a16" d="M 73.5,41.5 C 74.8734,41.3433 76.2068,41.51 77.5,42C 76.944,42.3826 76.6107,42.8826 76.5,43.5C 76.3505,44.552 76.5172,45.552 77,46.5C 79.3999,47.3978 80.8999,49.0645 81.5,51.5C 79.4401,58.8607 74.7734,61.5273 67.5,59.5C 65.4615,57.7872 63.4615,56.1205 61.5,54.5C 61.3601,52.8762 62.0267,51.7096 63.5,51C 61.6241,49.9827 59.6241,49.1494 57.5,48.5C 59.8275,47.276 62.1608,47.276 64.5,48.5C 65.6039,47.3687 65.2705,46.5354 63.5,46C 65.7293,44.0989 67.3959,44.5989 68.5,47.5C 65.7434,50.1235 66.41,51.4569 70.5,51.5C 70.3285,49.5082 70.9951,47.8415 72.5,46.5C 69.9962,44.4584 70.3296,42.7917 73.5,41.5 Z"/></g>
<g><path style="opacity:1" fill="#392713" d="M 163.5,41.5 C 163.46,46.1925 163.127,50.8592 162.5,55.5C 161.778,55.9175 161.278,56.5842 161,57.5C 159.748,55.9991 158.748,54.3325 158,52.5C 157.329,53.2524 156.496,53.5858 155.5,53.5C 154.745,51.5337 153.579,51.2004 152,52.5C 148.59,51.1259 148.757,50.4592 152.5,50.5C 152.421,49.0695 152.754,47.7362 153.5,46.5C 155.674,45.1068 157.507,45.4402 159,47.5C 161.496,45.6108 162.996,43.6108 163.5,41.5 Z"/></g>
<g><path style="opacity:0.035" fill="#f4f3f3" d="M 22.5,36.5 C 22.1702,53.3417 22.5035,70.0084 23.5,86.5C 23.5,91.5 23.5,96.5 23.5,101.5C 21.9675,89.0377 21.3008,76.371 21.5,63.5C 21.5002,54.327 21.8335,45.327 22.5,36.5 Z"/></g>
<g><path style="opacity:1" fill="#3b2814" d="M 25.5,42.5 C 28.1741,43.4991 28.8408,45.1658 27.5,47.5C 27.2923,53.3797 27.2923,59.3797 27.5,65.5C 26.5,65.5 25.5,65.5 24.5,65.5C 24.1746,57.6484 24.508,49.9818 25.5,42.5 Z"/></g>
<g><path style="opacity:1" fill="#3a2811" d="M 136.5,46.5 C 134.115,50.4497 132.949,54.4497 133,58.5C 135.19,57.4162 136.856,58.0829 138,60.5C 138.624,58.5355 138.124,56.8689 136.5,55.5C 137.098,54.2054 137.598,52.8721 138,51.5C 138.308,52.3081 138.808,52.9747 139.5,53.5C 140.695,51.703 142.362,50.703 144.5,50.5C 144.5,49.5 144.5,48.5 144.5,47.5C 145.959,47.5674 147.292,47.2341 148.5,46.5C 146.438,48.2858 145.104,50.6191 144.5,53.5C 145.355,54.293 146.189,53.9597 147,52.5C 147.236,54.1193 148.069,55.1193 149.5,55.5C 149.167,56.1667 148.833,56.8333 148.5,57.5C 147.417,57.5394 146.417,57.8728 145.5,58.5C 144.833,57.5 144.167,56.5 143.5,55.5C 142.534,57.396 142.201,59.396 142.5,61.5C 141.325,61.281 140.325,61.6143 139.5,62.5C 141.832,63.8203 143.832,65.4869 145.5,67.5C 146.73,69.2972 147.396,71.2972 147.5,73.5C 145.833,72.1667 144.167,72.1667 142.5,73.5C 140.353,72.0679 140.02,70.2345 141.5,68C 140.975,67.3076 140.308,66.8076 139.5,66.5C 139.002,67.6034 138.669,68.6034 138.5,69.5C 137.646,68.0521 136.646,66.7187 135.5,65.5C 136.325,64.6143 137.325,64.281 138.5,64.5C 138.5,63.5 138.5,62.5 138.5,61.5C 136.194,61.9926 133.861,62.3259 131.5,62.5C 129.833,60.1667 127.833,58.1667 125.5,56.5C 125.5,56.1667 125.5,55.8333 125.5,55.5C 126.583,55.5394 127.583,55.8728 128.5,56.5C 130.167,54.5 131.833,52.5 133.5,50.5C 132.975,49.8076 132.308,49.3076 131.5,49C 132.617,47.1079 134.284,46.2746 136.5,46.5 Z"/></g>
<g><path style="opacity:1" fill="#493a2d" d="M 163.5,35.5 C 164.167,36.5 164.833,37.5 165.5,38.5C 165.5,42.5 165.5,46.5 165.5,50.5C 165.5,62.5 165.5,74.5 165.5,86.5C 165.5,87.5 165.5,88.5 165.5,89.5C 164.833,90.1667 164.167,90.8333 163.5,91.5C 163.5,88.1667 163.5,84.8333 163.5,81.5C 163.5,75.5 163.5,69.5 163.5,63.5C 163.737,62.209 163.404,61.209 162.5,60.5C 162.5,58.8333 162.5,57.1667 162.5,55.5C 163.127,50.8592 163.46,46.1925 163.5,41.5C 163.5,39.5 163.5,37.5 163.5,35.5 Z"/></g>
<g><path style="opacity:1" fill="#44311a" d="M 27.5,47.5 C 28.1667,47.5 28.8333,47.5 29.5,47.5C 29.3505,48.552 29.5172,49.552 30,50.5C 33.8556,45.9293 36.189,46.5959 37,52.5C 37.3333,51.1667 37.6667,49.8333 38,48.5C 38.4828,49.448 38.6495,50.448 38.5,51.5C 40.1667,51.5 41.8333,51.5 43.5,51.5C 44.6522,50.375 45.6522,50.375 46.5,51.5C 46.5858,52.4959 46.2524,53.3292 45.5,54C 46.756,54.4169 47.4226,55.2502 47.5,56.5C 45.2133,56.2761 43.0466,55.6094 41,54.5C 37.5944,54.9012 33.761,55.0679 29.5,55C 30.1667,55.6667 30.8333,56.3333 31.5,57C 30.2532,58.4579 30.2532,59.9579 31.5,61.5C 30.1322,64.1863 28.7989,66.853 27.5,69.5C 27.8333,70.5 28.1667,71.5 28.5,72.5C 29.086,72.2907 29.586,71.9574 30,71.5C 31.5066,75.2364 32.3399,75.2364 32.5,71.5C 33.4013,72.2905 34.0679,73.2905 34.5,74.5C 34.8243,75.8121 35.4909,76.6454 36.5,77C 36.1178,79.6542 35.4512,81.4876 34.5,82.5C 33.7375,81.7321 32.7375,81.2321 31.5,81C 31.8346,79.4974 31.8346,78.164 31.5,77C 28.6424,75.3059 26.309,73.1393 24.5,70.5C 24.5,68.8333 24.5,67.1667 24.5,65.5C 25.5,65.5 26.5,65.5 27.5,65.5C 27.2923,59.3797 27.2923,53.3797 27.5,47.5 Z"/></g>
<g><path style="opacity:1" fill="#3c2912" d="M 51.5,38.5 C 52.1667,38.8333 52.8333,39.1667 53.5,39.5C 55.3725,43.4805 54.3725,46.4805 50.5,48.5C 51.96,50.4224 53.6267,51.0891 55.5,50.5C 59.375,51.8468 59.375,53.0135 55.5,54C 56.7112,54.8928 56.7112,55.7261 55.5,56.5C 54.5713,55.3112 54.238,53.9778 54.5,52.5C 53.1779,52.67 52.0113,52.3366 51,51.5C 50.6886,52.7425 51.1886,53.7425 52.5,54.5C 50.6068,53.9451 48.9401,54.6118 47.5,56.5C 47.4226,55.2502 46.756,54.4169 45.5,54C 46.2524,53.3292 46.5858,52.4959 46.5,51.5C 48.3878,49.0122 49.0545,46.0122 48.5,42.5C 49.8734,42.6567 51.2068,42.49 52.5,42C 51.6634,40.9887 51.33,39.8221 51.5,38.5 Z"/></g>
<g><path style="opacity:0.039" fill="#d7d4d2" d="M 90.5,42.5 C 90.5,42.1667 90.5,41.8333 90.5,41.5C 93.5184,41.3354 96.5184,41.502 99.5,42C 100.337,43.0113 100.67,44.1779 100.5,45.5C 99.327,55.9527 103.66,59.9527 113.5,57.5C 115.479,55.8991 117.645,54.5657 120,53.5C 122.192,53.8627 124.026,54.8627 125.5,56.5C 127.833,58.1667 129.833,60.1667 131.5,62.5C 132.412,63.7382 132.579,65.0715 132,66.5C 130.644,68.4089 129.144,70.0755 127.5,71.5C 126.053,72.1342 125.387,73.3009 125.5,75C 125.528,76.0698 125.861,76.9032 126.5,77.5C 127.946,79.5796 128.946,81.9129 129.5,84.5C 131.396,85.4656 133.396,85.7989 135.5,85.5C 135.5,85.8333 135.5,86.1667 135.5,86.5C 132.804,87.7728 130.138,87.4395 127.5,85.5C 127.072,82.7574 125.905,80.4241 124,78.5C 123.333,76.5 123.333,74.5 124,72.5C 125.865,69.6423 128.032,67.1423 130.5,65C 127.656,60.6561 123.989,57.1561 119.5,54.5C 118.509,56.3231 117.176,57.8231 115.5,59C 102.685,61.5126 96.8517,56.3459 98,43.5C 95.6194,42.565 93.1194,42.2317 90.5,42.5 Z"/></g>
<g><path style="opacity:1" fill="#3a2811" d="M 162.5,55.5 C 162.5,57.1667 162.5,58.8333 162.5,60.5C 159.823,59.2861 157.156,57.9528 154.5,56.5C 154.167,57.8333 153.833,59.1667 153.5,60.5C 151.565,61.5634 149.899,62.8967 148.5,64.5C 148.295,62.4476 148.295,60.1143 148.5,57.5C 148.833,56.8333 149.167,56.1667 149.5,55.5C 151.843,54.5977 153.843,53.931 155.5,53.5C 156.496,53.5858 157.329,53.2524 158,52.5C 158.748,54.3325 159.748,55.9991 161,57.5C 161.278,56.5842 161.778,55.9175 162.5,55.5 Z"/></g>
<g><path style="opacity:1" fill="#3d2a13" d="M 47.5,56.5 C 47.4326,57.9587 47.7659,59.2921 48.5,60.5C 47.011,63.8992 46.011,67.5658 45.5,71.5C 44.5344,69.604 44.2011,67.604 44.5,65.5C 45.6016,63.9081 44.935,63.0748 42.5,63C 40.4381,58.8115 37.1048,56.3115 32.5,55.5C 33.1292,59.6285 35.4625,61.9618 39.5,62.5C 39.4802,64.143 40.1468,65.4763 41.5,66.5C 40.302,66.9396 39.1353,67.273 38,67.5C 37.6924,66.6919 37.1924,66.0253 36.5,65.5C 35.2888,66.2739 35.2888,67.1072 36.5,68C 34.7928,68.1953 33.1261,68.1953 31.5,68C 31.0426,68.414 30.7093,68.914 30.5,69.5C 31.2427,70.1818 31.9094,70.8485 32.5,71.5C 32.3399,75.2364 31.5066,75.2364 30,71.5C 29.586,71.9574 29.086,72.2907 28.5,72.5C 28.1667,71.5 27.8333,70.5 27.5,69.5C 28.7989,66.853 30.1322,64.1863 31.5,61.5C 30.2532,59.9579 30.2532,58.4579 31.5,57C 30.8333,56.3333 30.1667,55.6667 29.5,55C 33.761,55.0679 37.5944,54.9012 41,54.5C 43.0466,55.6094 45.2133,56.2761 47.5,56.5 Z"/></g>
<g><path style="opacity:0.145" fill="#d5d2cf" d="M 83.5,41.5 C 85.8333,41.5 88.1667,41.5 90.5,41.5C 90.5,41.8333 90.5,42.1667 90.5,42.5C 88.6089,43.5361 86.7755,43.5361 85,42.5C 83.2197,43.5937 81.3864,44.5937 79.5,45.5C 81.4438,47.28 82.7771,49.4467 83.5,52C 78.1905,64.1412 70.6905,65.6412 61,56.5C 57.8533,58.3206 55.0199,60.4872 52.5,63C 51.1007,64.0616 50.1007,65.395 49.5,67C 51.2708,69.4873 53.4375,71.654 56,73.5C 57.0738,78.109 56.2404,82.2756 53.5,86C 51.0594,87.3923 48.726,87.559 46.5,86.5C 47.791,86.7373 48.791,86.404 49.5,85.5C 54.1986,83.2931 56.0319,79.6265 55,74.5C 53.5123,72.84 51.679,71.84 49.5,71.5C 47.7516,69.8401 47.2516,67.8401 48,65.5C 49.517,63.7605 51.017,62.0938 52.5,60.5C 55.3566,58.2417 58.3566,56.2417 61.5,54.5C 63.4615,56.1205 65.4615,57.7872 67.5,59.5C 74.7734,61.5273 79.4401,58.8607 81.5,51.5C 80.8999,49.0645 79.3999,47.3978 77,46.5C 76.5172,45.552 76.3505,44.552 76.5,43.5C 79.0673,43.2785 81.4006,42.6118 83.5,41.5 Z"/></g>
<g><path style="opacity:1" fill="#433018" d="M 44.5,65.5 C 42.9519,65.8212 42.2852,66.8212 42.5,68.5C 39.2819,68.6509 38.9485,69.4842 41.5,71C 40.6634,72.0113 40.33,73.1779 40.5,74.5C 38.6119,73.7249 36.6119,73.7249 34.5,74.5C 34.0679,73.2905 33.4013,72.2905 32.5,71.5C 31.9094,70.8485 31.2427,70.1818 30.5,69.5C 30.7093,68.914 31.0426,68.414 31.5,68C 33.1261,68.1953 34.7928,68.1953 36.5,68C 35.2888,67.1072 35.2888,66.2739 36.5,65.5C 37.1924,66.0253 37.6924,66.6919 38,67.5C 39.1353,67.273 40.302,66.9396 41.5,66.5C 40.1468,65.4763 39.4802,64.143 39.5,62.5C 35.4625,61.9618 33.1292,59.6285 32.5,55.5C 37.1048,56.3115 40.4381,58.8115 42.5,63C 44.935,63.0748 45.6016,63.9081 44.5,65.5 Z"/></g>
<g><path style="opacity:1" fill="#412f18" d="M 148.5,57.5 C 148.295,60.1143 148.295,62.4476 148.5,64.5C 149.899,62.8967 151.565,61.5634 153.5,60.5C 153.833,59.1667 154.167,57.8333 154.5,56.5C 157.156,57.9528 159.823,59.2861 162.5,60.5C 163.404,61.209 163.737,62.209 163.5,63.5C 162.292,62.7659 160.959,62.4326 159.5,62.5C 159.649,61.448 159.483,60.448 159,59.5C 158.667,60.8333 158.333,62.1667 158,63.5C 157.577,62.0439 156.744,61.5439 155.5,62C 156.227,63.3988 156.727,64.8988 157,66.5C 161.825,63.3781 163.158,64.3781 161,69.5C 160,68.8333 159,68.1667 158,67.5C 156.404,66.9515 155.237,67.6182 154.5,69.5C 154.539,68.2438 154.039,67.2438 153,66.5C 151.701,66.9662 150.201,66.9662 148.5,66.5C 148.649,67.552 148.483,68.552 148,69.5C 147.333,68.1667 146.667,66.8333 146,65.5C 145.536,66.0944 145.369,66.7611 145.5,67.5C 143.832,65.4869 141.832,63.8203 139.5,62.5C 140.325,61.6143 141.325,61.281 142.5,61.5C 142.201,59.396 142.534,57.396 143.5,55.5C 144.167,56.5 144.833,57.5 145.5,58.5C 146.417,57.8728 147.417,57.5394 148.5,57.5 Z"/></g>
<g><path style="opacity:1" fill="#3b2716" d="M 142.5,73.5 C 141.537,74.3635 141.537,75.0302 142.5,75.5C 143.768,74.5721 145.101,74.4054 146.5,75C 144.68,75.9794 143.513,77.4794 143,79.5C 141.989,78.6634 140.822,78.33 139.5,78.5C 139.813,74.9808 138.48,73.6474 135.5,74.5C 137.279,76.1929 137.779,78.1929 137,80.5C 135.506,76.6959 134.672,77.0293 134.5,81.5C 136.262,81.6427 137.929,81.3094 139.5,80.5C 140.642,81.8262 141.976,82.8262 143.5,83.5C 143.5,87.5 143.5,91.5 143.5,95.5C 143.5,96.1667 143.5,96.8333 143.5,97.5C 142.833,95.1667 142.167,92.8333 141.5,90.5C 141.5,88.5 141.5,86.5 141.5,84.5C 139.901,84.2322 138.568,84.5655 137.5,85.5C 136.833,85.5 136.167,85.5 135.5,85.5C 133.396,85.7989 131.396,85.4656 129.5,84.5C 128.946,81.9129 127.946,79.5796 126.5,77.5C 126.517,75.4352 126.85,73.4352 127.5,71.5C 129.144,70.0755 130.644,68.4089 132,66.5C 132.579,65.0715 132.412,63.7382 131.5,62.5C 133.861,62.3259 136.194,61.9926 138.5,61.5C 138.5,62.5 138.5,63.5 138.5,64.5C 137.325,64.281 136.325,64.6143 135.5,65.5C 136.646,66.7187 137.646,68.0521 138.5,69.5C 138.669,68.6034 139.002,67.6034 139.5,66.5C 140.308,66.8076 140.975,67.3076 141.5,68C 140.02,70.2345 140.353,72.0679 142.5,73.5 Z"/></g>
<g><path style="opacity:1" fill="#3b2913" d="M 154.5,69.5 C 153.662,69.8417 153.328,70.5084 153.5,71.5C 152.233,70.913 151.233,70.913 150.5,71.5C 151.65,73.6088 152.984,75.6088 154.5,77.5C 153.484,80.1337 153.484,82.8004 154.5,85.5C 153.178,85.33 152.011,85.6634 151,86.5C 150.283,85.9558 149.783,85.2891 149.5,84.5C 148.34,82.7973 149.007,82.1307 151.5,82.5C 151.649,81.448 151.483,80.448 151,79.5C 150.329,80.2524 149.496,80.5858 148.5,80.5C 149.602,78.9081 148.935,78.0748 146.5,78C 147.38,76.6439 147.714,75.1439 147.5,73.5C 147.396,71.2972 146.73,69.2972 145.5,67.5C 145.369,66.7611 145.536,66.0944 146,65.5C 146.667,66.8333 147.333,68.1667 148,69.5C 148.483,68.552 148.649,67.552 148.5,66.5C 150.201,66.9662 151.701,66.9662 153,66.5C 154.039,67.2438 154.539,68.2438 154.5,69.5 Z"/></g>
<g><path style="opacity:1" fill="#48351e" d="M 48.5,60.5 C 49.8333,60.5 51.1667,60.5 52.5,60.5C 51.017,62.0938 49.517,63.7605 48,65.5C 47.2516,67.8401 47.7516,69.8401 49.5,71.5C 48.5481,73.5701 47.8815,75.9034 47.5,78.5C 46.1667,76.5 44.8333,74.5 43.5,72.5C 42.5481,74.0453 42.2148,75.712 42.5,77.5C 40.9519,77.1788 40.2852,76.1788 40.5,74.5C 40.33,73.1779 40.6634,72.0113 41.5,71C 38.9485,69.4842 39.2819,68.6509 42.5,68.5C 42.2852,66.8212 42.9519,65.8212 44.5,65.5C 44.2011,67.604 44.5344,69.604 45.5,71.5C 46.011,67.5658 47.011,63.8992 48.5,60.5 Z"/></g>
<g><path style="opacity:1" fill="#3a2612" d="M 163.5,63.5 C 163.5,69.5 163.5,75.5 163.5,81.5C 162.417,81.4606 161.417,81.1272 160.5,80.5C 160.538,83.5007 158.871,85.5007 155.5,86.5C 155.986,84.1933 155.986,82.0266 155.5,80C 157.569,79.6758 157.902,78.8425 156.5,77.5C 159.167,73.5 158.5,72.8333 154.5,75.5C 154.212,74.1395 153.879,72.8062 153.5,71.5C 153.328,70.5084 153.662,69.8417 154.5,69.5C 155.237,67.6182 156.404,66.9515 158,67.5C 159,68.1667 160,68.8333 161,69.5C 163.158,64.3781 161.825,63.3781 157,66.5C 156.727,64.8988 156.227,63.3988 155.5,62C 156.744,61.5439 157.577,62.0439 158,63.5C 158.333,62.1667 158.667,60.8333 159,59.5C 159.483,60.448 159.649,61.448 159.5,62.5C 160.959,62.4326 162.292,62.7659 163.5,63.5 Z"/></g>
<g><path style="opacity:0.125" fill="#c4c0bd" d="M 86.5,71.5 C 89.9619,70.5184 93.6286,70.185 97.5,70.5C 103.991,71.6604 108.324,75.3271 110.5,81.5C 107.173,78.1819 103.507,75.1819 99.5,72.5C 95.3656,71.5151 91.0323,71.1818 86.5,71.5 Z"/></g>
<g><path style="opacity:0.061" fill="#eeedec" d="M 166.5,37.5 C 167.164,39.9779 167.497,42.6445 167.5,45.5C 166.993,59.3334 166.326,73 165.5,86.5C 165.5,74.5 165.5,62.5 165.5,50.5C 166.485,46.3656 166.818,42.0323 166.5,37.5 Z"/></g>
<g><path style="opacity:1" fill="#392916" d="M 86.5,71.5 C 91.0323,71.1818 95.3656,71.5151 99.5,72.5C 98.5868,74.0861 98.5868,75.5861 99.5,77C 98.451,77.4922 97.451,77.3256 96.5,76.5C 95.3044,76.8457 95.3044,77.3457 96.5,78C 95.5,78.3333 94.5,78.6667 93.5,79C 95.1922,80.4007 95.8588,82.2341 95.5,84.5C 94.7611,84.631 94.0944,84.4643 93.5,84C 94.8333,83.3333 94.8333,82.6667 93.5,82C 91.2346,80.8822 88.9013,80.0488 86.5,79.5C 84.9982,76.9781 83.6649,76.9781 82.5,79.5C 81.5,79.1667 80.8333,78.5 80.5,77.5C 82.129,75.8041 81.7957,74.8041 79.5,74.5C 81.649,73.2638 83.9823,72.2638 86.5,71.5 Z"/></g>
<g><path style="opacity:0.675" fill="#68574d" d="M 127.5,71.5 C 126.85,73.4352 126.517,75.4352 126.5,77.5C 125.861,76.9032 125.528,76.0698 125.5,75C 125.387,73.3009 126.053,72.1342 127.5,71.5 Z"/></g>
<g><path style="opacity:1" fill="#3e2c15" d="M 24.5,70.5 C 26.309,73.1393 28.6424,75.3059 31.5,77C 31.8346,78.164 31.8346,79.4974 31.5,81C 32.7375,81.2321 33.7375,81.7321 34.5,82.5C 32.955,83.2297 32.1216,84.563 32,86.5C 31.7508,85.376 31.2508,84.376 30.5,83.5C 29.5832,84.1272 28.5832,84.4606 27.5,84.5C 24.9458,80.3101 23.9458,75.6434 24.5,70.5 Z"/></g>
<g><path style="opacity:1" fill="#3f2c15" d="M 40.5,74.5 C 40.2852,76.1788 40.9519,77.1788 42.5,77.5C 41.129,79.4586 40.129,81.6252 39.5,84C 42.028,85.3159 42.028,86.4826 39.5,87.5C 40.0253,88.1924 40.6919,88.6924 41.5,89C 39.944,90.599 38.2773,92.099 36.5,93.5C 38.5078,95.5057 39.8412,97.839 40.5,100.5C 34.3372,97.5558 33.0038,93.0558 36.5,87C 36,86.5 35.5,86 35,85.5C 33.3869,89.0261 30.8869,90.3594 27.5,89.5C 26.9285,87.64 26.9285,85.9733 27.5,84.5C 28.5832,84.4606 29.5832,84.1272 30.5,83.5C 31.2508,84.376 31.7508,85.376 32,86.5C 32.1216,84.563 32.955,83.2297 34.5,82.5C 35.4512,81.4876 36.1178,79.6542 36.5,77C 35.4909,76.6454 34.8243,75.8121 34.5,74.5C 36.6119,73.7249 38.6119,73.7249 40.5,74.5 Z"/></g>
<g><path style="opacity:1" fill="#412b17" d="M 49.5,71.5 C 51.679,71.84 53.5123,72.84 55,74.5C 56.0319,79.6265 54.1986,83.2931 49.5,85.5C 47.5,85.1667 45.5,84.8333 43.5,84.5C 41.3544,84.3036 41.1878,83.3036 43,81.5C 44.7261,82.5762 46.5594,82.7429 48.5,82C 47.8742,81.2496 47.3742,80.4162 47,79.5C 46.6667,79.8333 46.3333,80.1667 46,80.5C 45.2411,78.9371 44.0744,77.9371 42.5,77.5C 42.2148,75.712 42.5481,74.0453 43.5,72.5C 44.8333,74.5 46.1667,76.5 47.5,78.5C 47.8815,75.9034 48.5481,73.5701 49.5,71.5 Z"/></g>
<g><path style="opacity:1" fill="#3d2b16" d="M 147.5,73.5 C 147.714,75.1439 147.38,76.6439 146.5,78C 148.935,78.0748 149.602,78.9081 148.5,80.5C 145.966,80.2591 144.3,81.2591 143.5,83.5C 141.976,82.8262 140.642,81.8262 139.5,80.5C 137.929,81.3094 136.262,81.6427 134.5,81.5C 134.672,77.0293 135.506,76.6959 137,80.5C 137.779,78.1929 137.279,76.1929 135.5,74.5C 138.48,73.6474 139.813,74.9808 139.5,78.5C 140.822,78.33 141.989,78.6634 143,79.5C 143.513,77.4794 144.68,75.9794 146.5,75C 145.101,74.4054 143.768,74.5721 142.5,75.5C 141.537,75.0302 141.537,74.3635 142.5,73.5C 144.167,72.1667 145.833,72.1667 147.5,73.5 Z"/></g>
<g><path style="opacity:1" fill="#47331e" d="M 42.5,77.5 C 44.0744,77.9371 45.2411,78.9371 46,80.5C 46.3333,80.1667 46.6667,79.8333 47,79.5C 47.3742,80.4162 47.8742,81.2496 48.5,82C 46.5594,82.7429 44.7261,82.5762 43,81.5C 41.1878,83.3036 41.3544,84.3036 43.5,84.5C 42.0796,91.121 41.7462,97.7877 42.5,104.5C 41.5028,104.47 40.8361,104.97 40.5,106C 41.7668,111.783 41.1001,111.95 38.5,106.5C 39.4582,104.698 40.1249,102.698 40.5,100.5C 39.8412,97.839 38.5078,95.5057 36.5,93.5C 38.2773,92.099 39.944,90.599 41.5,89C 40.6919,88.6924 40.0253,88.1924 39.5,87.5C 42.028,86.4826 42.028,85.3159 39.5,84C 40.129,81.6252 41.129,79.4586 42.5,77.5 Z"/></g>
<g><path style="opacity:1" fill="#48361f" d="M 86.5,79.5 C 86.0825,80.2216 85.4158,80.7216 84.5,81C 85.3802,82.3561 85.7135,83.8561 85.5,85.5C 86.675,85.281 87.675,85.6143 88.5,86.5C 87.3493,87.731 86.1827,87.731 85,86.5C 83.0073,88.4061 83.5073,89.5727 86.5,90C 85.7129,91.313 86.0462,92.4797 87.5,93.5C 87.2178,94.7777 86.5511,95.7777 85.5,96.5C 84.3634,97.7888 83.0301,98.7888 81.5,99.5C 82.3471,96.8405 82.8471,94.1738 83,91.5C 82.6121,90.572 81.9454,89.9054 81,89.5C 78.8014,90.6454 76.6348,90.6454 74.5,89.5C 75.325,88.6143 76.325,88.281 77.5,88.5C 77.3735,86.0846 77.2068,83.7513 77,81.5C 77.3333,81.1667 77.6667,80.8333 78,80.5C 78.1962,82.2861 79.0295,83.6195 80.5,84.5C 81.1414,82.7045 82.1414,81.2045 83.5,80C 83.2716,79.6012 82.9382,79.4346 82.5,79.5C 83.6649,76.9781 84.9982,76.9781 86.5,79.5 Z"/></g>
<g><path style="opacity:1" fill="#402e16" d="M 86.5,79.5 C 88.9013,80.0488 91.2346,80.8822 93.5,82C 94.8333,82.6667 94.8333,83.3333 93.5,84C 94.0944,84.4643 94.7611,84.631 95.5,84.5C 95.2786,85.7348 94.6119,86.7348 93.5,87.5C 93.9569,88.2975 94.6236,88.6309 95.5,88.5C 94.8166,90.1765 93.4832,90.8432 91.5,90.5C 91.5,91.5 91.5,92.5 91.5,93.5C 93.7659,93.8588 95.5993,93.1922 97,91.5C 97.4643,92.0944 97.631,92.7611 97.5,93.5C 95.2903,94.3509 93.2903,95.6843 91.5,97.5C 91.8333,97.8333 92.1667,98.1667 92.5,98.5C 95.5447,95.8294 97.8781,96.496 99.5,100.5C 97.0143,99.6558 94.3476,99.6558 91.5,100.5C 90.7492,101.376 90.2492,102.376 90,103.5C 89.4242,101.623 89.5909,99.7892 90.5,98C 90.1015,96.0188 89.1015,94.5188 87.5,93.5C 86.0462,92.4797 85.7129,91.313 86.5,90C 83.5073,89.5727 83.0073,88.4061 85,86.5C 86.1827,87.731 87.3493,87.731 88.5,86.5C 87.675,85.6143 86.675,85.281 85.5,85.5C 85.7135,83.8561 85.3802,82.3561 84.5,81C 85.4158,80.7216 86.0825,80.2216 86.5,79.5 Z"/></g>
<g><path style="opacity:1" fill="#3a2913" d="M 149.5,84.5 C 148.761,84.369 148.094,84.5357 147.5,85C 149.037,86.1096 149.703,87.6096 149.5,89.5C 149.5,90.5 149.5,91.5 149.5,92.5C 147.834,91.3336 146.167,91.3336 144.5,92.5C 146.064,94.5751 147.064,96.9084 147.5,99.5C 147.167,99.8333 146.833,100.167 146.5,100.5C 145.065,99.0531 144.065,97.3864 143.5,95.5C 143.5,91.5 143.5,87.5 143.5,83.5C 144.3,81.2591 145.966,80.2591 148.5,80.5C 149.496,80.5858 150.329,80.2524 151,79.5C 151.483,80.448 151.649,81.448 151.5,82.5C 149.007,82.1307 148.34,82.7973 149.5,84.5 Z"/></g>
<g><path style="opacity:0.999" fill="#3d2a16" d="M 163.5,81.5 C 163.5,84.8333 163.5,88.1667 163.5,91.5C 162.793,94.7861 162.46,98.1194 162.5,101.5C 162.5,101.833 162.5,102.167 162.5,102.5C 162.167,102.5 161.833,102.5 161.5,102.5C 160.85,102.804 160.183,103.137 159.5,103.5C 158.824,102.398 158.158,101.398 157.5,100.5C 158.12,98.0233 159.12,98.0233 160.5,100.5C 160.833,99.5 161.167,98.5 161.5,97.5C 160.229,95.2579 159.063,92.9245 158,90.5C 157.617,91.056 157.117,91.3893 156.5,91.5C 156.371,89.7839 156.038,88.1172 155.5,86.5C 158.871,85.5007 160.538,83.5007 160.5,80.5C 161.417,81.1272 162.417,81.4606 163.5,81.5 Z"/></g>
<g><path style="opacity:1" fill="#412f19" d="M 99.5,72.5 C 103.507,75.1819 107.173,78.1819 110.5,81.5C 111.11,82.391 111.443,83.391 111.5,84.5C 110.022,85.4475 109.022,86.7809 108.5,88.5C 107.883,88.6107 107.383,88.944 107,89.5C 107.689,83.47 106.523,83.1366 103.5,88.5C 102.252,87.9598 101.085,87.2931 100,86.5C 101.666,92.4235 100.333,92.7569 96,87.5C 95.6012,87.7284 95.4346,88.0618 95.5,88.5C 94.6236,88.6309 93.9569,88.2975 93.5,87.5C 94.6119,86.7348 95.2786,85.7348 95.5,84.5C 95.8588,82.2341 95.1922,80.4007 93.5,79C 94.5,78.6667 95.5,78.3333 96.5,78C 95.3044,77.3457 95.3044,76.8457 96.5,76.5C 97.451,77.3256 98.451,77.4922 99.5,77C 98.5868,75.5861 98.5868,74.0861 99.5,72.5 Z"/></g>
<g><path style="opacity:1" fill="#412f19" d="M 153.5,71.5 C 153.879,72.8062 154.212,74.1395 154.5,75.5C 158.5,72.8333 159.167,73.5 156.5,77.5C 157.902,78.8425 157.569,79.6758 155.5,80C 155.986,82.0266 155.986,84.1933 155.5,86.5C 156.038,88.1172 156.371,89.7839 156.5,91.5C 153.892,91.5997 151.558,90.9331 149.5,89.5C 149.703,87.6096 149.037,86.1096 147.5,85C 148.094,84.5357 148.761,84.369 149.5,84.5C 149.783,85.2891 150.283,85.9558 151,86.5C 152.011,85.6634 153.178,85.33 154.5,85.5C 153.484,82.8004 153.484,80.1337 154.5,77.5C 152.984,75.6088 151.65,73.6088 150.5,71.5C 151.233,70.913 152.233,70.913 153.5,71.5 Z"/></g>
<g><path style="opacity:0.098" fill="#c4beba" d="M 43.5,84.5 C 45.5,84.8333 47.5,85.1667 49.5,85.5C 48.791,86.404 47.791,86.7373 46.5,86.5C 44.955,87.2297 44.1216,88.563 44,90.5C 43.3333,94.5 43.3333,98.5 44,102.5C 46.369,102.727 48.869,102.893 51.5,103C 53.1393,106.098 54.4726,109.264 55.5,112.5C 52.851,110.588 51.5176,107.921 51.5,104.5C 48.7342,105.232 46.0675,105.232 43.5,104.5C 43.1667,104.5 42.8333,104.5 42.5,104.5C 41.7462,97.7877 42.0796,91.121 43.5,84.5 Z"/></g>
<g><path style="opacity:1" fill="#3e2b14" d="M 108.5,88.5 C 108.414,89.4959 108.748,90.3292 109.5,91C 107.557,90.6948 105.557,90.6948 103.5,91C 105.116,91.6152 106.449,92.6152 107.5,94C 106.551,94.6172 105.718,94.4506 105,93.5C 104.751,94.624 104.251,95.624 103.5,96.5C 102.904,95.2839 102.737,93.9506 103,92.5C 102.259,93.6405 101.425,93.6405 100.5,92.5C 99.7025,92.9569 99.3691,93.6236 99.5,94.5C 98.8333,94.1667 98.1667,93.8333 97.5,93.5C 97.631,92.7611 97.4643,92.0944 97,91.5C 95.5993,93.1922 93.7659,93.8588 91.5,93.5C 91.5,92.5 91.5,91.5 91.5,90.5C 93.4832,90.8432 94.8166,90.1765 95.5,88.5C 95.4346,88.0618 95.6012,87.7284 96,87.5C 100.333,92.7569 101.666,92.4235 100,86.5C 101.085,87.2931 102.252,87.9598 103.5,88.5C 106.523,83.1366 107.689,83.47 107,89.5C 107.383,88.944 107.883,88.6107 108.5,88.5 Z"/></g>
<g><path style="opacity:1" fill="#3b2a1b" d="M 25.5,42.5 C 24.508,49.9818 24.1746,57.6484 24.5,65.5C 24.5,67.1667 24.5,68.8333 24.5,70.5C 23.9458,75.6434 24.9458,80.3101 27.5,84.5C 26.9285,85.9733 26.9285,87.64 27.5,89.5C 28.8695,93.3289 29.8695,97.3289 30.5,101.5C 31.944,100.019 32.6106,100.352 32.5,102.5C 31.5416,102.953 30.7083,103.619 30,104.5C 29.8171,107.365 29.3171,110.031 28.5,112.5C 28.5,111.833 28.1667,111.5 27.5,111.5C 26.0962,103.06 24.7629,94.7269 23.5,86.5C 23.5,70.8333 23.5,55.1667 23.5,39.5C 24.2679,38.7375 24.7679,37.7375 25,36.5C 25.4955,38.4727 25.6621,40.4727 25.5,42.5 Z"/></g>
<g><path style="opacity:1" fill="#3a2711" d="M 149.5,89.5 C 151.558,90.9331 153.892,91.5997 156.5,91.5C 157.117,91.3893 157.617,91.056 158,90.5C 159.063,92.9245 160.229,95.2579 161.5,97.5C 161.167,98.5 160.833,99.5 160.5,100.5C 159.12,98.0233 158.12,98.0233 157.5,100.5C 155.862,99.0864 154.528,99.4197 153.5,101.5C 152.479,100.998 152.312,100.332 153,99.5C 154.074,98.3816 155.24,97.3816 156.5,96.5C 155.934,95.7087 155.101,95.7087 154,96.5C 152.649,94.9818 151.149,93.6485 149.5,92.5C 149.5,91.5 149.5,90.5 149.5,89.5 Z"/></g>
<g><path style="opacity:1" fill="#3d2a15" d="M 80.5,77.5 C 80.8333,78.5 81.5,79.1667 82.5,79.5C 82.9382,79.4346 83.2716,79.6012 83.5,80C 82.1414,81.2045 81.1414,82.7045 80.5,84.5C 79.0295,83.6195 78.1962,82.2861 78,80.5C 77.6667,80.8333 77.3333,81.1667 77,81.5C 77.2068,83.7513 77.3735,86.0846 77.5,88.5C 76.325,88.281 75.325,88.6143 74.5,89.5C 76.6348,90.6454 78.8014,90.6454 81,89.5C 81.9454,89.9054 82.6121,90.572 83,91.5C 82.8471,94.1738 82.3471,96.8405 81.5,99.5C 84.4477,101.959 84.781,104.625 82.5,107.5C 81.4968,105.458 80.1634,105.125 78.5,106.5C 77.4376,107.425 77.4376,108.425 78.5,109.5C 78.5,110.167 78.1667,110.5 77.5,110.5C 76.8333,110.5 76.5,110.167 76.5,109.5C 76.8076,107.076 76.4742,104.743 75.5,102.5C 74.8333,103.167 74.1667,103.833 73.5,104.5C 69.4737,95.9013 69.9737,87.568 75,79.5C 76.4443,77.8446 78.2776,77.178 80.5,77.5 Z"/></g>
<g><path style="opacity:1" fill="#412f1b" d="M 111.5,84.5 C 114.85,94.4036 112.85,103.07 105.5,110.5C 104.449,109.778 103.782,108.778 103.5,107.5C 104.434,106.432 104.768,105.099 104.5,103.5C 103.5,103.5 102.5,103.5 101.5,103.5C 101.5,101.5 101.5,99.5 101.5,97.5C 97.5443,96.9473 97.5443,96.1139 101.5,95C 100.906,94.5357 100.239,94.369 99.5,94.5C 99.3691,93.6236 99.7025,92.9569 100.5,92.5C 101.425,93.6405 102.259,93.6405 103,92.5C 102.737,93.9506 102.904,95.2839 103.5,96.5C 104.251,95.624 104.751,94.624 105,93.5C 105.718,94.4506 106.551,94.6172 107.5,94C 106.449,92.6152 105.116,91.6152 103.5,91C 105.557,90.6948 107.557,90.6948 109.5,91C 108.748,90.3292 108.414,89.4959 108.5,88.5C 109.022,86.7809 110.022,85.4475 111.5,84.5 Z"/></g>
<g><path style="opacity:0.289" fill="#bab4ae" d="M 137.5,85.5 C 138.568,84.5655 139.901,84.2322 141.5,84.5C 141.5,86.5 141.5,88.5 141.5,90.5C 141.5,94.1667 141.5,97.8333 141.5,101.5C 140.508,101.672 139.842,101.338 139.5,100.5C 140.487,95.6946 140.821,90.6946 140.5,85.5C 139.5,85.5 138.5,85.5 137.5,85.5 Z"/></g>
<g><path style="opacity:1" fill="#44321a" d="M 40.5,100.5 C 40.1249,102.698 39.4582,104.698 38.5,106.5C 38.6716,105.508 38.3382,104.842 37.5,104.5C 35.0233,103.88 35.0233,102.88 37.5,101.5C 36.561,99.9466 35.3943,98.6133 34,97.5C 33.5,97.8333 33,98.1667 32.5,98.5C 34.9114,100.319 35.078,102.319 33,104.5C 32.5357,103.906 32.369,103.239 32.5,102.5C 32.6106,100.352 31.944,100.019 30.5,101.5C 29.8695,97.3289 28.8695,93.3289 27.5,89.5C 30.8869,90.3594 33.3869,89.0261 35,85.5C 35.5,86 36,86.5 36.5,87C 33.0038,93.0558 34.3372,97.5558 40.5,100.5 Z"/></g>
<g><path style="opacity:1" fill="#402e16" d="M 149.5,92.5 C 151.149,93.6485 152.649,94.9818 154,96.5C 155.101,95.7087 155.934,95.7087 156.5,96.5C 155.24,97.3816 154.074,98.3816 153,99.5C 152.312,100.332 152.479,100.998 153.5,101.5C 154.528,99.4197 155.862,99.0864 157.5,100.5C 157.461,101.583 157.127,102.583 156.5,103.5C 152.201,104.45 148.201,104.45 144.5,103.5C 143.534,101.604 143.201,99.604 143.5,97.5C 143.5,96.8333 143.5,96.1667 143.5,95.5C 144.065,97.3864 145.065,99.0531 146.5,100.5C 146.833,100.167 147.167,99.8333 147.5,99.5C 147.064,96.9084 146.064,94.5751 144.5,92.5C 146.167,91.3336 147.834,91.3336 149.5,92.5 Z"/></g>
<g><path style="opacity:0.169" fill="#dad8d6" d="M 97.5,70.5 C 93.6286,70.185 89.9619,70.5184 86.5,71.5C 83.9823,72.2638 81.649,73.2638 79.5,74.5C 74.4297,77.0737 70.9297,81.0737 69,86.5C 66.4533,95.9897 68.9533,103.656 76.5,109.5C 76.5,110.167 76.8333,110.5 77.5,110.5C 77.7822,111.778 78.4489,112.778 79.5,113.5C 74.9913,111.835 71.4913,108.835 69,104.5C 63.3856,79.9723 72.8856,68.6389 97.5,70.5 Z"/></g>
<g><path style="opacity:0.663" fill="#978b84" d="M 165.5,89.5 C 165.802,92.0593 165.468,94.3926 164.5,96.5C 163.833,98.1667 163.167,99.8333 162.5,101.5C 162.46,98.1194 162.793,94.7861 163.5,91.5C 164.167,90.8333 164.833,90.1667 165.5,89.5 Z"/></g>
<g><path style="opacity:0.122" fill="#dddad7" d="M 135.5,86.5 C 135.5,86.1667 135.5,85.8333 135.5,85.5C 136.167,85.5 136.833,85.5 137.5,85.5C 138.5,85.5 139.5,85.5 140.5,85.5C 140.821,90.6946 140.487,95.6946 139.5,100.5C 128.913,99.2751 125.08,103.942 128,114.5C 129.379,116.715 131.213,118.381 133.5,119.5C 133.833,119.5 134.167,119.5 134.5,119.5C 135.11,120.391 135.443,121.391 135.5,122.5C 134.833,122.5 134.5,122.833 134.5,123.5C 131.529,125.443 129.529,128.109 128.5,131.5C 126.973,131.427 125.973,132.094 125.5,133.5C 123.315,133.296 121.315,132.63 119.5,131.5C 117.95,130.559 116.284,129.893 114.5,129.5C 112.735,128.539 110.735,128.205 108.5,128.5C 110.265,127.539 112.265,127.205 114.5,127.5C 117.486,128.808 120.486,130.141 123.5,131.5C 127.231,129.39 130.064,126.39 132,122.5C 130.193,119.98 128.193,117.313 126,114.5C 124.948,109.265 125.781,104.432 128.5,100C 131.991,98.4007 135.491,98.234 139,99.5C 139.499,95.1794 139.666,90.8461 139.5,86.5C 138.167,86.5 136.833,86.5 135.5,86.5 Z"/></g>
<g><path style="opacity:1" fill="#402c20" d="M 79.5,74.5 C 81.7957,74.8041 82.129,75.8041 80.5,77.5C 78.2776,77.178 76.4443,77.8446 75,79.5C 69.9737,87.568 69.4737,95.9013 73.5,104.5C 74.1667,103.833 74.8333,103.167 75.5,102.5C 76.4742,104.743 76.8076,107.076 76.5,109.5C 68.9533,103.656 66.4533,95.9897 69,86.5C 70.9297,81.0737 74.4297,77.0737 79.5,74.5 Z"/></g>
<g><path style="opacity:0.086" fill="#bdb8b4" d="M 23.5,86.5 C 24.7629,94.7269 26.0962,103.06 27.5,111.5C 26.8333,110.5 26.1667,109.5 25.5,108.5C 24.0605,106.412 23.3939,104.079 23.5,101.5C 23.5,96.5 23.5,91.5 23.5,86.5 Z"/></g>
<g><path style="opacity:1" fill="#3c2912" d="M 87.5,93.5 C 89.1015,94.5188 90.1015,96.0188 90.5,98C 89.5909,99.7892 89.4242,101.623 90,103.5C 90.2492,102.376 90.7492,101.376 91.5,100.5C 94.3476,99.6558 97.0143,99.6558 99.5,100.5C 97.8781,96.496 95.5447,95.8294 92.5,98.5C 92.1667,98.1667 91.8333,97.8333 91.5,97.5C 93.2903,95.6843 95.2903,94.3509 97.5,93.5C 98.1667,93.8333 98.8333,94.1667 99.5,94.5C 100.239,94.369 100.906,94.5357 101.5,95C 97.5443,96.1139 97.5443,96.9473 101.5,97.5C 101.5,99.5 101.5,101.5 101.5,103.5C 102.5,103.5 103.5,103.5 104.5,103.5C 104.768,105.099 104.434,106.432 103.5,107.5C 101.585,106.421 99.5851,105.421 97.5,104.5C 97.1203,106.021 96.9536,107.687 97,109.5C 95.6012,108.773 94.1012,108.273 92.5,108C 93.3081,107.692 93.9747,107.192 94.5,106.5C 93.7376,106.089 92.7376,105.923 91.5,106C 94.1859,102.524 93.8525,102.024 90.5,104.5C 89.6816,107.107 89.1816,109.774 89,112.5C 88.7679,111.263 88.2679,110.263 87.5,109.5C 86.2317,108.213 86.565,107.213 88.5,106.5C 87.8501,104.442 87.8501,102.276 88.5,100C 88.1667,98.8333 87.8333,97.6667 87.5,96.5C 86.5712,97.5498 85.9046,97.5498 85.5,96.5C 86.5511,95.7777 87.2178,94.7777 87.5,93.5 Z"/></g>
<g><path style="opacity:1" fill="#402d15" d="M 85.5,96.5 C 85.9046,97.5498 86.5712,97.5498 87.5,96.5C 87.8333,97.6667 88.1667,98.8333 88.5,100C 87.8501,102.276 87.8501,104.442 88.5,106.5C 86.565,107.213 86.2317,108.213 87.5,109.5C 85.8863,111.075 83.8863,111.741 81.5,111.5C 81.0269,110.094 80.0269,109.427 78.5,109.5C 77.4376,108.425 77.4376,107.425 78.5,106.5C 80.1634,105.125 81.4968,105.458 82.5,107.5C 84.781,104.625 84.4477,101.959 81.5,99.5C 83.0301,98.7888 84.3634,97.7888 85.5,96.5 Z"/></g>
<g><path style="opacity:1" fill="#3f2c18" d="M 103.5,107.5 C 103.782,108.778 104.449,109.778 105.5,110.5C 102.909,112.961 99.9088,114.628 96.5,115.5C 93.4816,115.665 90.4816,115.498 87.5,115C 84.9502,113.542 82.9502,112.375 81.5,111.5C 83.8863,111.741 85.8863,111.075 87.5,109.5C 88.2679,110.263 88.7679,111.263 89,112.5C 89.1816,109.774 89.6816,107.107 90.5,104.5C 93.8525,102.024 94.1859,102.524 91.5,106C 92.7376,105.923 93.7376,106.089 94.5,106.5C 93.9747,107.192 93.3081,107.692 92.5,108C 94.1012,108.273 95.6012,108.773 97,109.5C 96.9536,107.687 97.1203,106.021 97.5,104.5C 99.5851,105.421 101.585,106.421 103.5,107.5 Z"/></g>
<g><path style="opacity:1" fill="#412e19" d="M 37.5,104.5 C 37.0825,105.222 36.4158,105.722 35.5,106C 36.7112,106.893 36.7112,107.726 35.5,108.5C 34.8333,107.833 34.1667,107.167 33.5,106.5C 33.1667,107 32.8333,107.5 32.5,108C 34.9627,109.96 37.2961,112.127 39.5,114.5C 41.2251,113.985 42.8917,113.318 44.5,112.5C 43.3904,110.504 43.7237,108.671 45.5,107C 44.244,106.583 43.5774,105.75 43.5,104.5C 46.0675,105.232 48.7342,105.232 51.5,104.5C 51.5176,107.921 52.851,110.588 55.5,112.5C 55.8624,116.081 54.8624,119.081 52.5,121.5C 51.1781,118.481 49.6781,116.148 48,114.5C 45.923,115.017 43.923,115.684 42,116.5C 40.7025,115.216 39.5358,115.383 38.5,117C 38.7284,117.399 39.0618,117.565 39.5,117.5C 39.631,118.239 39.4643,118.906 39,119.5C 37.3333,117.5 35.6667,115.5 34,113.5C 32.5862,114.991 31.0862,116.325 29.5,117.5C 29.3713,115.784 29.038,114.117 28.5,112.5C 29.3171,110.031 29.8171,107.365 30,104.5C 30.7083,103.619 31.5416,102.953 32.5,102.5C 32.369,103.239 32.5357,103.906 33,104.5C 35.078,102.319 34.9114,100.319 32.5,98.5C 33,98.1667 33.5,97.8333 34,97.5C 35.3943,98.6133 36.561,99.9466 37.5,101.5C 35.0233,102.88 35.0233,103.88 37.5,104.5 Z"/></g>
<g><path style="opacity:1" fill="#3b2913" d="M 37.5,104.5 C 38.3382,104.842 38.6716,105.508 38.5,106.5C 41.1001,111.95 41.7668,111.783 40.5,106C 40.8361,104.97 41.5028,104.47 42.5,104.5C 42.8333,104.5 43.1667,104.5 43.5,104.5C 43.5774,105.75 44.244,106.583 45.5,107C 43.7237,108.671 43.3904,110.504 44.5,112.5C 42.8917,113.318 41.2251,113.985 39.5,114.5C 37.2961,112.127 34.9627,109.96 32.5,108C 32.8333,107.5 33.1667,107 33.5,106.5C 34.1667,107.167 34.8333,107.833 35.5,108.5C 36.7112,107.726 36.7112,106.893 35.5,106C 36.4158,105.722 37.0825,105.222 37.5,104.5 Z"/></g>
<g><path style="opacity:1" fill="#3a2713" d="M 139.5,114.5 C 137.058,114.354 136.391,115.187 137.5,117C 136.922,118.417 135.922,119.25 134.5,119.5C 134.167,119.5 133.833,119.5 133.5,119.5C 133.178,117.278 133.845,115.444 135.5,114C 128.922,113.115 128.922,111.948 135.5,110.5C 134.975,109.808 134.308,109.308 133.5,109C 134.308,108.692 134.975,108.192 135.5,107.5C 131.683,105.733 132.017,104.4 136.5,103.5C 137.806,104.912 138.64,106.579 139,108.5C 139.333,108.167 139.667,107.833 140,107.5C 140.31,109.743 140.143,112.076 139.5,114.5 Z"/></g>
<g><path style="opacity:1" fill="#422e1c" d="M 139.5,100.5 C 139.842,101.338 140.508,101.672 141.5,101.5C 141.5,105.5 141.5,109.5 141.5,113.5C 142.873,113.657 144.207,113.49 145.5,113C 144.692,112.692 144.025,112.192 143.5,111.5C 144.365,110.417 145.365,110.251 146.5,111C 148.588,113.465 148.588,115.631 146.5,117.5C 144.246,115.517 141.913,114.517 139.5,114.5C 140.143,112.076 140.31,109.743 140,107.5C 139.667,107.833 139.333,108.167 139,108.5C 138.64,106.579 137.806,104.912 136.5,103.5C 132.017,104.4 131.683,105.733 135.5,107.5C 134.975,108.192 134.308,108.692 133.5,109C 134.308,109.308 134.975,109.808 135.5,110.5C 128.922,111.948 128.922,113.115 135.5,114C 133.845,115.444 133.178,117.278 133.5,119.5C 131.213,118.381 129.379,116.715 128,114.5C 125.08,103.942 128.913,99.2751 139.5,100.5 Z"/></g>
<g><path style="opacity:0.043" fill="#dedcda" d="M 110.5,81.5 C 113.858,84.4286 115.192,88.2619 114.5,93C 112.787,111.381 102.787,119.381 84.5,117C 82.4156,116.303 80.7489,115.136 79.5,113.5C 85.0156,116.453 90.6822,117.12 96.5,115.5C 99.9088,114.628 102.909,112.961 105.5,110.5C 112.85,103.07 114.85,94.4036 111.5,84.5C 111.443,83.391 111.11,82.391 110.5,81.5 Z"/></g>
<g><path style="opacity:1" fill="#3c2914" d="M 141.5,90.5 C 142.167,92.8333 142.833,95.1667 143.5,97.5C 143.201,99.604 143.534,101.604 144.5,103.5C 148.201,104.45 152.201,104.45 156.5,103.5C 157.127,102.583 157.461,101.583 157.5,100.5C 158.158,101.398 158.824,102.398 159.5,103.5C 160.183,103.137 160.85,102.804 161.5,102.5C 161.279,103.735 160.612,104.735 159.5,105.5C 159.709,106.086 160.043,106.586 160.5,107C 158.242,108.021 156.242,109.521 154.5,111.5C 155.771,113.585 156.771,115.752 157.5,118C 157.316,120.685 156.15,120.852 154,118.5C 153.517,119.448 153.351,120.448 153.5,121.5C 152.226,122.189 152.226,123.023 153.5,124C 150.455,125.616 147.621,127.45 145,129.5C 142.251,129.026 139.751,128.026 137.5,126.5C 136.818,127.243 136.151,127.909 135.5,128.5C 134.624,128.631 133.957,128.298 133.5,127.5C 134.246,126.264 134.579,124.93 134.5,123.5C 134.5,122.833 134.833,122.5 135.5,122.5C 138.337,120.828 139.004,121.494 137.5,124.5C 138.328,125.415 139.328,126.081 140.5,126.5C 143.221,123.321 146.554,122.321 150.5,123.5C 151.244,122.009 151.91,120.509 152.5,119C 152,118.5 151.5,118 151,117.5C 150.751,118.624 150.251,119.624 149.5,120.5C 148.859,119.007 147.859,118.007 146.5,117.5C 148.588,115.631 148.588,113.465 146.5,111C 145.365,110.251 144.365,110.417 143.5,111.5C 144.025,112.192 144.692,112.692 145.5,113C 144.207,113.49 142.873,113.657 141.5,113.5C 141.5,109.5 141.5,105.5 141.5,101.5C 141.5,97.8333 141.5,94.1667 141.5,90.5 Z"/></g>
<g><path style="opacity:1" fill="#443322" d="M 161.5,102.5 C 161.833,102.5 162.167,102.5 162.5,102.5C 161.339,108.16 160.172,113.827 159,119.5C 156.433,124.633 153.933,129.633 151.5,134.5C 151.5,133.5 151.5,132.5 151.5,131.5C 153.248,130.211 153.581,128.711 152.5,127C 155.716,125.395 156.049,123.562 153.5,121.5C 153.351,120.448 153.517,119.448 154,118.5C 156.15,120.852 157.316,120.685 157.5,118C 156.771,115.752 155.771,113.585 154.5,111.5C 156.242,109.521 158.242,108.021 160.5,107C 160.043,106.586 159.709,106.086 159.5,105.5C 160.612,104.735 161.279,103.735 161.5,102.5 Z"/></g>
<g><path style="opacity:0.965" fill="#605047" d="M 78.5,109.5 C 80.0269,109.427 81.0269,110.094 81.5,111.5C 82.9502,112.375 84.9502,113.542 87.5,115C 90.4816,115.498 93.4816,115.665 96.5,115.5C 90.6822,117.12 85.0156,116.453 79.5,113.5C 78.4489,112.778 77.7822,111.778 77.5,110.5C 78.1667,110.5 78.5,110.167 78.5,109.5 Z"/></g>
<g><path style="opacity:0.033" fill="#f3f3f2" d="M 25.5,108.5 C 26.1667,109.5 26.8333,110.5 27.5,111.5C 27.4095,114.152 28.0762,116.485 29.5,118.5C 29.5,118.833 29.5,119.167 29.5,119.5C 29.5,120.167 29.5,120.833 29.5,121.5C 26.9871,117.622 25.6538,113.289 25.5,108.5 Z"/></g>
<g><path style="opacity:0.231" fill="#b1aaa4" d="M 27.5,111.5 C 28.1667,111.5 28.5,111.833 28.5,112.5C 29.038,114.117 29.3713,115.784 29.5,117.5C 29.5,117.833 29.5,118.167 29.5,118.5C 28.0762,116.485 27.4095,114.152 27.5,111.5 Z"/></g>
<g><path style="opacity:1" fill="#3e2c17" d="M 139.5,114.5 C 141.913,114.517 144.246,115.517 146.5,117.5C 147.859,118.007 148.859,119.007 149.5,120.5C 150.251,119.624 150.751,118.624 151,117.5C 151.5,118 152,118.5 152.5,119C 151.91,120.509 151.244,122.009 150.5,123.5C 146.554,122.321 143.221,123.321 140.5,126.5C 139.328,126.081 138.328,125.415 137.5,124.5C 139.004,121.494 138.337,120.828 135.5,122.5C 135.443,121.391 135.11,120.391 134.5,119.5C 135.922,119.25 136.922,118.417 137.5,117C 136.391,115.187 137.058,114.354 139.5,114.5 Z"/></g>
<g><path style="opacity:1" fill="#48351f" d="M 39.5,117.5 C 40.7498,117.577 41.5831,118.244 42,119.5C 43.1827,118.269 44.3493,118.269 45.5,119.5C 44.3757,120.859 43.0423,121.859 41.5,122.5C 40.8501,122.804 40.1835,123.137 39.5,123.5C 39.0894,122.738 38.9227,121.738 39,120.5C 38.6667,120.833 38.3333,121.167 38,121.5C 36.7592,119.579 35.2592,119.246 33.5,120.5C 35.5803,121.528 35.9136,122.862 34.5,124.5C 33.8333,124.5 33.1667,124.5 32.5,124.5C 31.6873,122.739 30.6873,121.072 29.5,119.5C 29.5,119.167 29.5,118.833 29.5,118.5C 29.5,118.167 29.5,117.833 29.5,117.5C 31.0862,116.325 32.5862,114.991 34,113.5C 35.6667,115.5 37.3333,117.5 39,119.5C 39.4643,118.906 39.631,118.239 39.5,117.5 Z"/></g>
<g><path style="opacity:1" fill="#3c2913" d="M 52.5,121.5 C 51.5084,121.328 50.8417,121.662 50.5,122.5C 48.6481,123.089 46.8148,123.756 45,124.5C 43.917,122.759 42.7503,122.093 41.5,122.5C 43.0423,121.859 44.3757,120.859 45.5,119.5C 44.3493,118.269 43.1827,118.269 42,119.5C 41.5831,118.244 40.7498,117.577 39.5,117.5C 39.0618,117.565 38.7284,117.399 38.5,117C 39.5358,115.383 40.7025,115.216 42,116.5C 43.923,115.684 45.923,115.017 48,114.5C 49.6781,116.148 51.1781,118.481 52.5,121.5 Z"/></g>
<g><path style="opacity:1" fill="#412e17" d="M 41.5,122.5 C 42.7503,122.093 43.917,122.759 45,124.5C 46.8148,123.756 48.6481,123.089 50.5,122.5C 50.5,123.167 50.5,123.833 50.5,124.5C 48.9137,126.081 47.9137,128.081 47.5,130.5C 45.9928,131.739 44.8261,131.405 44,129.5C 43.51,130.793 43.3433,132.127 43.5,133.5C 40.9471,130.12 37.9471,127.12 34.5,124.5C 35.9136,122.862 35.5803,121.528 33.5,120.5C 35.2592,119.246 36.7592,119.579 38,121.5C 38.3333,121.167 38.6667,120.833 39,120.5C 38.9227,121.738 39.0894,122.738 39.5,123.5C 40.1835,123.137 40.8501,122.804 41.5,122.5 Z"/></g>
<g><path style="opacity:0.012" fill="#d5d2cf" d="M 55.5,112.5 C 57.0771,116.433 56.4104,120.1 53.5,123.5C 56.4929,127.325 59.9929,130.659 64,133.5C 65.8006,130.837 68.3006,129.003 71.5,128C 74.7577,127.788 77.9243,127.288 81,126.5C 81.7172,127.044 82.2172,127.711 82.5,128.5C 82.5,128.833 82.5,129.167 82.5,129.5C 78.2984,129.183 74.2984,129.517 70.5,130.5C 68.1604,131.843 65.8271,133.177 63.5,134.5C 59.3128,132.571 55.6461,129.904 52.5,126.5C 52.1667,125.833 51.8333,125.167 51.5,124.5C 51.5569,123.391 51.8902,122.391 52.5,121.5C 54.8624,119.081 55.8624,116.081 55.5,112.5 Z"/></g>
<g><path style="opacity:0.565" fill="#8f857e" d="M 52.5,121.5 C 51.8902,122.391 51.5569,123.391 51.5,124.5C 51.1667,124.5 50.8333,124.5 50.5,124.5C 50.5,123.833 50.5,123.167 50.5,122.5C 50.8417,121.662 51.5084,121.328 52.5,121.5 Z"/></g>
<g><path style="opacity:1" fill="#3f2c17" d="M 153.5,121.5 C 156.049,123.562 155.716,125.395 152.5,127C 153.581,128.711 153.248,130.211 151.5,131.5C 149.833,131.5 148.167,131.5 146.5,131.5C 146.5,133.167 146.5,134.833 146.5,136.5C 143.873,137.092 141.206,137.425 138.5,137.5C 137.614,135.278 137.614,133.112 138.5,131C 138.333,130.5 138.167,130 138,129.5C 136.484,132.051 135.651,131.718 135.5,128.5C 136.151,127.909 136.818,127.243 137.5,126.5C 139.751,128.026 142.251,129.026 145,129.5C 147.621,127.45 150.455,125.616 153.5,124C 152.226,123.023 152.226,122.189 153.5,121.5 Z"/></g>
<g><path style="opacity:0.075" fill="#d4d1ce" d="M 164.5,96.5 C 163.143,117.108 155.809,135.108 142.5,150.5C 141.833,150.5 141.167,150.5 140.5,150.5C 144.973,145.698 148.64,140.365 151.5,134.5C 153.933,129.633 156.433,124.633 159,119.5C 160.172,113.827 161.339,108.16 162.5,102.5C 162.5,102.167 162.5,101.833 162.5,101.5C 163.167,99.8333 163.833,98.1667 164.5,96.5 Z"/></g>
<g><path style="opacity:1" fill="#3b2918" d="M 52.5,126.5 C 55.6461,129.904 59.3128,132.571 63.5,134.5C 65.8271,133.177 68.1604,131.843 70.5,130.5C 74.226,130.177 77.8927,130.511 81.5,131.5C 80.0909,131.654 78.4242,131.821 76.5,132C 77.3081,132.308 77.9747,132.808 78.5,133.5C 76.3635,134.472 75.1968,136.139 75,138.5C 74.0228,137.226 73.1894,137.226 72.5,138.5C 71.5222,138.189 70.8555,137.522 70.5,136.5C 71.3256,135.549 71.4922,134.549 71,133.5C 68.0398,135.2 65.2065,136.867 62.5,138.5C 60.9224,134.524 58.589,133.857 55.5,136.5C 54.7777,135.449 53.7777,134.782 52.5,134.5C 53.3984,133.842 54.3984,133.176 55.5,132.5C 53.585,130.929 52.585,128.929 52.5,126.5 Z"/></g>
<g><path style="opacity:0.03" fill="#f3f3f2" d="M 114.5,127.5 C 112.265,127.205 110.265,127.539 108.5,128.5C 106.517,128.157 105.183,128.824 104.5,130.5C 103.833,130.5 103.5,130.833 103.5,131.5C 102.833,135.5 102.167,139.5 101.5,143.5C 101.112,138.372 101.612,133.372 103,128.5C 106.818,126.455 110.651,126.122 114.5,127.5 Z"/></g>
<g><path style="opacity:0.118" fill="#edeceb" d="M 82.5,128.5 C 83.2216,128.918 83.7216,129.584 84,130.5C 84.4986,134.152 84.6653,137.818 84.5,141.5C 85.791,141.263 86.791,141.596 87.5,142.5C 86.5,142.5 85.5,142.5 84.5,142.5C 83.8333,138.833 83.1667,135.167 82.5,131.5C 82.5,130.833 82.5,130.167 82.5,129.5C 82.5,129.167 82.5,128.833 82.5,128.5 Z"/></g>
<g><path style="opacity:0.996" fill="#736451" d="M 119.5,131.5 C 121.315,132.63 123.315,133.296 125.5,133.5C 122.887,134.993 120.887,134.326 119.5,131.5 Z"/></g>
<g><path style="opacity:0.616" fill="#8f8377" d="M 82.5,131.5 C 83.1667,135.167 83.8333,138.833 84.5,142.5C 84.5,142.833 84.5,143.167 84.5,143.5C 82.5772,139.971 81.9106,135.971 82.5,131.5 Z"/></g>
<g><path style="opacity:1" fill="#3d2a19" d="M 32.5,124.5 C 33.1667,124.5 33.8333,124.5 34.5,124.5C 37.9471,127.12 40.9471,130.12 43.5,133.5C 44.3558,135.923 43.6891,138.089 41.5,140C 44.7808,142.77 47.4474,145.936 49.5,149.5C 49.5,150.167 49.5,150.833 49.5,151.5C 41.0116,144.331 35.345,135.331 32.5,124.5 Z"/></g>
<g><path style="opacity:1" fill="#3d2a17" d="M 134.5,123.5 C 134.579,124.93 134.246,126.264 133.5,127.5C 133.957,128.298 134.624,128.631 135.5,128.5C 135.651,131.718 136.484,132.051 138,129.5C 138.167,130 138.333,130.5 138.5,131C 137.614,133.112 137.614,135.278 138.5,137.5C 141.206,137.425 143.873,137.092 146.5,136.5C 146.5,134.833 146.5,133.167 146.5,131.5C 148.167,131.5 149.833,131.5 151.5,131.5C 151.5,132.5 151.5,133.5 151.5,134.5C 148.64,140.365 144.973,145.698 140.5,150.5C 136.859,153.805 133.192,157.138 129.5,160.5C 129.135,157.921 129.135,155.588 129.5,153.5C 131.368,154.757 133.035,154.424 134.5,152.5C 135.004,149.701 136.004,147.201 137.5,145C 136.051,143.898 134.718,142.731 133.5,141.5C 132.545,139.29 131.045,138.957 129,140.5C 127.073,138.407 127.24,136.407 129.5,134.5C 131.456,135.548 133.456,136.048 135.5,136C 133.318,133.988 130.651,132.988 127.5,133C 128.056,132.617 128.389,132.117 128.5,131.5C 129.529,128.109 131.529,125.443 134.5,123.5 Z"/></g>
<g><path style="opacity:0.086" fill="#d9d7d5" d="M 29.5,119.5 C 30.6873,121.072 31.6873,122.739 32.5,124.5C 35.345,135.331 41.0116,144.331 49.5,151.5C 49.8333,152.5 50.5,153.167 51.5,153.5C 55.714,159.712 61.3807,164.045 68.5,166.5C 68.5,167.167 68.8333,167.5 69.5,167.5C 71.1475,169.326 73.1475,170.66 75.5,171.5C 75.8564,173.19 76.8564,174.19 78.5,174.5C 79.1667,175.5 79.8333,176.5 80.5,177.5C 73.7055,172.728 66.7055,168.228 59.5,164C 50.2959,156.063 42.1292,147.23 35,137.5C 32.822,132.203 30.9886,126.87 29.5,121.5C 29.5,120.833 29.5,120.167 29.5,119.5 Z"/></g>
<g><path style="opacity:1" fill="#3a2813" d="M 114.5,129.5 C 116.284,129.893 117.95,130.559 119.5,131.5C 120.887,134.326 122.887,134.993 125.5,133.5C 126.773,134.077 126.773,134.743 125.5,135.5C 124.264,136.246 122.93,136.579 121.5,136.5C 121.5,137.5 121.5,138.5 121.5,139.5C 120.167,139.833 118.833,140.167 117.5,140.5C 116.2,141.108 114.867,141.775 113.5,142.5C 112.833,142.167 112.167,141.833 111.5,141.5C 113.156,139.671 115.156,138.337 117.5,137.5C 116.313,137.446 114.98,137.113 113.5,136.5C 115.04,135.468 115.54,134.135 115,132.5C 114.667,133.167 114.333,133.833 114,134.5C 113.333,133.167 112.667,133.167 112,134.5C 110.68,132.346 108.847,130.846 106.5,130C 109.146,129.503 111.813,129.336 114.5,129.5 Z"/></g>
<g><path style="opacity:1" fill="#3d2c17" d="M 62.5,138.5 C 62.5,139.833 63.1667,140.5 64.5,140.5C 64.5,141.5 64.5,142.5 64.5,143.5C 68.2233,144.524 68.0567,145.857 64,147.5C 63.6174,146.944 63.1174,146.611 62.5,146.5C 60.3625,144.298 58.1959,141.965 56,139.5C 55.5172,138.552 55.3505,137.552 55.5,136.5C 58.589,133.857 60.9224,134.524 62.5,138.5 Z"/></g>
<g><path style="opacity:1" fill="#3e2b14" d="M 50.5,124.5 C 50.8333,124.5 51.1667,124.5 51.5,124.5C 51.8333,125.167 52.1667,125.833 52.5,126.5C 52.585,128.929 53.585,130.929 55.5,132.5C 54.3984,133.176 53.3984,133.842 52.5,134.5C 53.172,137.908 52.172,140.575 49.5,142.5C 51.4782,145.171 51.4782,147.504 49.5,149.5C 47.4474,145.936 44.7808,142.77 41.5,140C 43.6891,138.089 44.3558,135.923 43.5,133.5C 43.3433,132.127 43.51,130.793 44,129.5C 44.8261,131.405 45.9928,131.739 47.5,130.5C 47.9137,128.081 48.9137,126.081 50.5,124.5 Z"/></g>
<g><path style="opacity:1" fill="#46331c" d="M 108.5,128.5 C 110.735,128.205 112.735,128.539 114.5,129.5C 111.813,129.336 109.146,129.503 106.5,130C 108.847,130.846 110.68,132.346 112,134.5C 112.667,133.167 113.333,133.167 114,134.5C 114.333,133.833 114.667,133.167 115,132.5C 115.54,134.135 115.04,135.468 113.5,136.5C 114.98,137.113 116.313,137.446 117.5,137.5C 115.156,138.337 113.156,139.671 111.5,141.5C 112.167,141.833 112.833,142.167 113.5,142.5C 114.867,141.775 116.2,141.108 117.5,140.5C 117.657,141.873 117.49,143.207 117,144.5C 116.014,143.829 114.847,143.829 113.5,144.5C 111.565,143.85 109.565,143.517 107.5,143.5C 106.698,140.302 107.032,137.135 108.5,134C 108.167,133.833 107.833,133.667 107.5,133.5C 106.749,134.376 106.249,135.376 106,136.5C 105.809,134.292 105.309,132.292 104.5,130.5C 105.183,128.824 106.517,128.157 108.5,128.5 Z"/></g>
<g><path style="opacity:1" fill="#423019" d="M 52.5,134.5 C 53.7777,134.782 54.7777,135.449 55.5,136.5C 55.3505,137.552 55.5172,138.552 56,139.5C 58.1959,141.965 60.3625,144.298 62.5,146.5C 60.549,146.773 59.049,146.107 58,144.5C 57.3333,145.833 56.6667,147.167 56,148.5C 54.927,147.72 53.7604,147.887 52.5,149C 53.9733,149.71 54.6399,150.876 54.5,152.5C 53.5041,152.586 52.6708,152.252 52,151.5C 51.5357,152.094 51.369,152.761 51.5,153.5C 50.5,153.167 49.8333,152.5 49.5,151.5C 49.5,150.833 49.5,150.167 49.5,149.5C 51.4782,147.504 51.4782,145.171 49.5,142.5C 52.172,140.575 53.172,137.908 52.5,134.5 Z"/></g>
<g><path style="opacity:1" fill="#422f19" d="M 70.5,130.5 C 74.2984,129.517 78.2984,129.183 82.5,129.5C 82.5,130.167 82.5,130.833 82.5,131.5C 81.9106,135.971 82.5772,139.971 84.5,143.5C 86.7354,143.205 88.7354,143.539 90.5,144.5C 88.8008,144.34 87.1341,144.506 85.5,145C 89.147,145.774 92.8136,146.441 96.5,147C 93.7074,149.734 94.0407,150.734 97.5,150C 95.5433,151.746 94.5433,153.912 94.5,156.5C 93.3172,156.156 92.4839,156.822 92,158.5C 90.8932,157.288 90.3932,157.621 90.5,159.5C 90.752,162.37 89.752,164.703 87.5,166.5C 87.1667,166.167 86.8333,165.833 86.5,165.5C 88.3119,161.96 88.3119,158.627 86.5,155.5C 87.3554,154.707 88.1887,155.04 89,156.5C 89.6924,155.975 90.1924,155.308 90.5,154.5C 89.1845,153.193 88.1845,151.693 87.5,150C 89.3114,150.875 91.3114,151.209 93.5,151C 91.6508,149.907 89.9842,148.574 88.5,147C 85.3353,147.459 82.3353,147.959 79.5,148.5C 84.1937,154.765 83.5271,155.765 77.5,151.5C 76.9478,149.669 76.9478,148.003 77.5,146.5C 75.9466,145.561 74.6133,144.394 73.5,143C 75.016,141.037 74.6827,139.537 72.5,138.5C 73.1894,137.226 74.0228,137.226 75,138.5C 75.1968,136.139 76.3635,134.472 78.5,133.5C 77.9747,132.808 77.3081,132.308 76.5,132C 78.4242,131.821 80.0909,131.654 81.5,131.5C 77.8927,130.511 74.226,130.177 70.5,130.5 Z"/></g>
<g><path style="opacity:1" fill="#412f19" d="M 128.5,131.5 C 128.389,132.117 128.056,132.617 127.5,133C 130.651,132.988 133.318,133.988 135.5,136C 133.456,136.048 131.456,135.548 129.5,134.5C 127.24,136.407 127.073,138.407 129,140.5C 131.045,138.957 132.545,139.29 133.5,141.5C 133.671,144.797 133.005,145.131 131.5,142.5C 129.588,144.156 127.588,144.489 125.5,143.5C 126.025,142.808 126.692,142.308 127.5,142C 125.527,141.505 123.527,141.338 121.5,141.5C 121.5,140.833 121.5,140.167 121.5,139.5C 121.5,138.5 121.5,137.5 121.5,136.5C 122.93,136.579 124.264,136.246 125.5,135.5C 126.773,134.743 126.773,134.077 125.5,133.5C 125.973,132.094 126.973,131.427 128.5,131.5 Z"/></g>
<g><path style="opacity:0.137" fill="#cac8c4" d="M 103.5,131.5 C 103.5,135.833 103.5,140.167 103.5,144.5C 99.1667,144.5 94.8333,144.5 90.5,144.5C 88.7354,143.539 86.7354,143.205 84.5,143.5C 84.5,143.167 84.5,142.833 84.5,142.5C 85.5,142.5 86.5,142.5 87.5,142.5C 92.1522,142.998 96.8189,143.331 101.5,143.5C 102.167,139.5 102.833,135.5 103.5,131.5 Z"/></g>
<g><path style="opacity:1" fill="#3b2813" d="M 121.5,141.5 C 123.527,141.338 125.527,141.505 127.5,142C 126.692,142.308 126.025,142.808 125.5,143.5C 127.588,144.489 129.588,144.156 131.5,142.5C 133.005,145.131 133.671,144.797 133.5,141.5C 134.718,142.731 136.051,143.898 137.5,145C 136.004,147.201 135.004,149.701 134.5,152.5C 133.035,154.424 131.368,154.757 129.5,153.5C 130.209,152.596 131.209,152.263 132.5,152.5C 132.752,149.68 132.252,147.014 131,144.5C 128.174,146.34 125.007,147.006 121.5,146.5C 122.833,144.833 122.833,143.167 121.5,141.5 Z"/></g>
<g><path style="opacity:1" fill="#3b2913" d="M 72.5,138.5 C 74.6827,139.537 75.016,141.037 73.5,143C 74.6133,144.394 75.9466,145.561 77.5,146.5C 76.9478,148.003 76.9478,149.669 77.5,151.5C 72.6947,149.706 70.3613,151.039 70.5,155.5C 70.1667,155.5 69.8333,155.5 69.5,155.5C 69.0825,154.778 68.4158,154.278 67.5,154C 68.9561,153.577 69.4561,152.744 69,151.5C 68.2825,152.451 67.4491,152.617 66.5,152C 68.422,150.58 69.7554,148.747 70.5,146.5C 72.382,148.693 72.882,148.027 72,144.5C 70.244,143.579 70.0773,142.412 71.5,141C 71.1667,140.5 70.8333,140 70.5,139.5C 68.8437,141.735 66.8437,142.068 64.5,140.5C 63.1667,140.5 62.5,139.833 62.5,138.5C 65.2065,136.867 68.0398,135.2 71,133.5C 71.4922,134.549 71.3256,135.549 70.5,136.5C 70.8555,137.522 71.5222,138.189 72.5,138.5 Z"/></g>
<g><path style="opacity:1" fill="#3f2d1a" d="M 104.5,130.5 C 105.309,132.292 105.809,134.292 106,136.5C 106.249,135.376 106.749,134.376 107.5,133.5C 107.833,133.667 108.167,133.833 108.5,134C 107.032,137.135 106.698,140.302 107.5,143.5C 105.866,144.972 104.366,146.638 103,148.5C 103.347,150.61 103.18,152.61 102.5,154.5C 101.778,154.082 101.278,153.416 101,152.5C 99.0281,154.232 96.8614,155.565 94.5,156.5C 94.5433,153.912 95.5433,151.746 97.5,150C 94.0407,150.734 93.7074,149.734 96.5,147C 92.8136,146.441 89.147,145.774 85.5,145C 87.1341,144.506 88.8008,144.34 90.5,144.5C 94.8333,144.5 99.1667,144.5 103.5,144.5C 103.5,140.167 103.5,135.833 103.5,131.5C 103.5,130.833 103.833,130.5 104.5,130.5 Z"/></g>
<g><path style="opacity:1" fill="#3e2c16" d="M 129.5,153.5 C 129.135,155.588 129.135,157.921 129.5,160.5C 128.833,161.833 127.833,162.833 126.5,163.5C 126.461,162.417 126.127,161.417 125.5,160.5C 126.167,159.833 126.833,159.167 127.5,158.5C 125.614,157.594 123.78,156.594 122,155.5C 122.074,152.403 121.907,149.403 121.5,146.5C 125.007,147.006 128.174,146.34 131,144.5C 132.252,147.014 132.752,149.68 132.5,152.5C 131.209,152.263 130.209,152.596 129.5,153.5 Z"/></g>
<g><path style="opacity:1" fill="#3d2a12" d="M 90.5,159.5 C 92.4804,159.854 94.4804,160.187 96.5,160.5C 95.1667,161.5 93.8333,162.5 92.5,163.5C 93.0047,164.919 94.0047,165.585 95.5,165.5C 93.5787,166.671 91.7453,168.004 90,169.5C 87.8301,168.238 85.6635,167.238 83.5,166.5C 85.3783,165.126 86.3783,163.126 86.5,160.5C 85.6578,157.99 84.1578,157.323 82,158.5C 80.324,157.939 78.9906,156.939 78,155.5C 77.6905,156.766 77.1905,157.933 76.5,159C 78.7536,160.054 79.087,161.554 77.5,163.5C 76.2354,165.868 74.5688,166.535 72.5,165.5C 72.5,164.5 72.5,163.5 72.5,162.5C 74.4286,162.769 76.0953,162.269 77.5,161C 76.5509,160.383 75.7175,160.549 75,161.5C 74.6824,159.939 73.8491,158.772 72.5,158C 74.4181,156.23 74.9181,154.063 74,151.5C 73.2597,153.319 72.0931,154.652 70.5,155.5C 70.3613,151.039 72.6947,149.706 77.5,151.5C 83.5271,155.765 84.1937,154.765 79.5,148.5C 82.3353,147.959 85.3353,147.459 88.5,147C 89.9842,148.574 91.6508,149.907 93.5,151C 91.3114,151.209 89.3114,150.875 87.5,150C 88.1845,151.693 89.1845,153.193 90.5,154.5C 90.1924,155.308 89.6924,155.975 89,156.5C 88.1887,155.04 87.3554,154.707 86.5,155.5C 88.3119,158.627 88.3119,161.96 86.5,165.5C 86.8333,165.833 87.1667,166.167 87.5,166.5C 89.752,164.703 90.752,162.37 90.5,159.5 Z"/></g>
<g><path style="opacity:1" fill="#3f2c15" d="M 69.5,155.5 C 69.44,156.043 69.1067,156.376 68.5,156.5C 67.1311,154.876 65.4645,154.376 63.5,155C 65.0009,156.252 66.6675,157.252 68.5,158C 67.1416,158.934 65.8083,159.768 64.5,160.5C 63.0875,158.504 61.7541,156.337 60.5,154C 62.3008,153.683 62.6341,153.016 61.5,152C 59.4328,151.464 57.5994,151.964 56,153.5C 55.6174,152.944 55.1174,152.611 54.5,152.5C 54.6399,150.876 53.9733,149.71 52.5,149C 53.7604,147.887 54.927,147.72 56,148.5C 56.6667,147.167 57.3333,145.833 58,144.5C 59.049,146.107 60.549,146.773 62.5,146.5C 63.1174,146.611 63.6174,146.944 64,147.5C 68.0567,145.857 68.2233,144.524 64.5,143.5C 64.5,142.5 64.5,141.5 64.5,140.5C 66.8437,142.068 68.8437,141.735 70.5,139.5C 70.8333,140 71.1667,140.5 71.5,141C 70.0773,142.412 70.244,143.579 72,144.5C 72.882,148.027 72.382,148.693 70.5,146.5C 69.7554,148.747 68.422,150.58 66.5,152C 67.4491,152.617 68.2825,152.451 69,151.5C 69.4561,152.744 68.9561,153.577 67.5,154C 68.4158,154.278 69.0825,154.778 69.5,155.5 Z"/></g>
<g><path style="opacity:1" fill="#433019" d="M 107.5,143.5 C 109.565,143.517 111.565,143.85 113.5,144.5C 114.105,146.026 115.271,147.026 117,147.5C 117.492,148.549 117.326,149.549 116.5,150.5C 117.833,150.833 119.167,151.167 120.5,151.5C 119.147,152.524 118.48,153.857 118.5,155.5C 116.167,155.5 113.833,155.5 111.5,155.5C 111.286,151.743 112.286,151.076 114.5,153.5C 115.347,151.939 115.014,150.439 113.5,149C 113.833,148.667 114.167,148.333 114.5,148C 112.553,147.009 110.553,146.675 108.5,147C 107.359,147.741 107.359,148.575 108.5,149.5C 107.167,150.167 105.833,150.833 104.5,151.5C 104.863,152.183 105.196,152.85 105.5,153.5C 104.391,153.557 103.391,153.89 102.5,154.5C 103.18,152.61 103.347,150.61 103,148.5C 104.366,146.638 105.866,144.972 107.5,143.5 Z"/></g>
<g><path style="opacity:1" fill="#402c16" d="M 72.5,165.5 C 71.7777,166.551 70.7777,167.218 69.5,167.5C 68.8333,167.5 68.5,167.167 68.5,166.5C 68.0523,163.828 66.719,161.828 64.5,160.5C 65.8083,159.768 67.1416,158.934 68.5,158C 66.6675,157.252 65.0009,156.252 63.5,155C 65.4645,154.376 67.1311,154.876 68.5,156.5C 69.1067,156.376 69.44,156.043 69.5,155.5C 69.8333,155.5 70.1667,155.5 70.5,155.5C 72.0931,154.652 73.2597,153.319 74,151.5C 74.9181,154.063 74.4181,156.23 72.5,158C 73.8491,158.772 74.6824,159.939 75,161.5C 75.7175,160.549 76.5509,160.383 77.5,161C 76.0953,162.269 74.4286,162.769 72.5,162.5C 72.5,163.5 72.5,164.5 72.5,165.5 Z"/></g>
<g><path style="opacity:1" fill="#402d15" d="M 111.5,155.5 C 109.169,155.859 109.335,156.526 112,157.5C 114.825,155.916 116.992,156.582 118.5,159.5C 117.675,160.386 116.675,160.719 115.5,160.5C 115.719,159.325 115.386,158.325 114.5,157.5C 114.467,158.989 113.967,160.322 113,161.5C 112.085,160.672 111.419,159.672 111,158.5C 110.632,159.91 109.799,160.91 108.5,161.5C 107.83,159.709 107.163,158.042 106.5,156.5C 105.761,156.631 105.094,156.464 104.5,156C 105.252,155.329 105.586,154.496 105.5,153.5C 105.196,152.85 104.863,152.183 104.5,151.5C 105.833,150.833 107.167,150.167 108.5,149.5C 107.359,148.575 107.359,147.741 108.5,147C 110.553,146.675 112.553,147.009 114.5,148C 114.167,148.333 113.833,148.667 113.5,149C 115.014,150.439 115.347,151.939 114.5,153.5C 112.286,151.076 111.286,151.743 111.5,155.5 Z"/></g>
<g><path style="opacity:1" fill="#3c2913" d="M 121.5,139.5 C 121.5,140.167 121.5,140.833 121.5,141.5C 122.833,143.167 122.833,144.833 121.5,146.5C 121.907,149.403 122.074,152.403 122,155.5C 123.78,156.594 125.614,157.594 127.5,158.5C 126.833,159.167 126.167,159.833 125.5,160.5C 126.127,161.417 126.461,162.417 126.5,163.5C 123.884,162.474 121.55,163.141 119.5,165.5C 118.148,163.364 116.482,163.03 114.5,164.5C 114.167,163.833 113.833,163.167 113.5,162.5C 112.8,165.015 111.467,165.682 109.5,164.5C 108.167,165.5 106.833,166.5 105.5,167.5C 109.231,168.893 108.898,169.893 104.5,170.5C 105.167,166.167 105.833,161.833 106.5,157.5C 106.5,157.167 106.5,156.833 106.5,156.5C 107.163,158.042 107.83,159.709 108.5,161.5C 109.799,160.91 110.632,159.91 111,158.5C 111.419,159.672 112.085,160.672 113,161.5C 113.967,160.322 114.467,158.989 114.5,157.5C 115.386,158.325 115.719,159.325 115.5,160.5C 116.675,160.719 117.675,160.386 118.5,159.5C 116.992,156.582 114.825,155.916 112,157.5C 109.335,156.526 109.169,155.859 111.5,155.5C 113.833,155.5 116.167,155.5 118.5,155.5C 118.48,153.857 119.147,152.524 120.5,151.5C 119.167,151.167 117.833,150.833 116.5,150.5C 117.326,149.549 117.492,148.549 117,147.5C 115.271,147.026 114.105,146.026 113.5,144.5C 114.847,143.829 116.014,143.829 117,144.5C 117.49,143.207 117.657,141.873 117.5,140.5C 118.833,140.167 120.167,139.833 121.5,139.5 Z"/></g>
<g><path style="opacity:1" fill="#48351d" d="M 102.5,154.5 C 103.391,153.89 104.391,153.557 105.5,153.5C 105.586,154.496 105.252,155.329 104.5,156C 105.094,156.464 105.761,156.631 106.5,156.5C 106.5,156.833 106.5,157.167 106.5,157.5C 105.153,158.171 103.986,158.171 103,157.5C 102.51,158.793 102.343,160.127 102.5,161.5C 100.833,161.5 99.1667,161.5 97.5,161.5C 97.4729,163.199 96.8062,164.533 95.5,165.5C 94.0047,165.585 93.0047,164.919 92.5,163.5C 93.8333,162.5 95.1667,161.5 96.5,160.5C 94.4804,160.187 92.4804,159.854 90.5,159.5C 90.3932,157.621 90.8932,157.288 92,158.5C 92.4839,156.822 93.3172,156.156 94.5,156.5C 96.8614,155.565 99.0281,154.232 101,152.5C 101.278,153.416 101.778,154.082 102.5,154.5 Z"/></g>
<g><path style="opacity:1" fill="#422f1e" d="M 54.5,152.5 C 55.1174,152.611 55.6174,152.944 56,153.5C 57.5994,151.964 59.4328,151.464 61.5,152C 62.6341,153.016 62.3008,153.683 60.5,154C 61.7541,156.337 63.0875,158.504 64.5,160.5C 66.719,161.828 68.0523,163.828 68.5,166.5C 61.3807,164.045 55.714,159.712 51.5,153.5C 51.369,152.761 51.5357,152.094 52,151.5C 52.6708,152.252 53.5041,152.586 54.5,152.5 Z"/></g>
<g><path style="opacity:1" fill="#48341d" d="M 83.5,166.5 C 82.0057,165.601 80.5057,165.935 79,167.5C 78.2825,166.549 77.4491,166.383 76.5,167C 75.6198,168.356 75.2865,169.856 75.5,171.5C 73.1475,170.66 71.1475,169.326 69.5,167.5C 70.7777,167.218 71.7777,166.551 72.5,165.5C 74.5688,166.535 76.2354,165.868 77.5,163.5C 79.087,161.554 78.7536,160.054 76.5,159C 77.1905,157.933 77.6905,156.766 78,155.5C 78.9906,156.939 80.324,157.939 82,158.5C 84.1578,157.323 85.6578,157.99 86.5,160.5C 86.3783,163.126 85.3783,165.126 83.5,166.5 Z"/></g>
<g><path style="opacity:1" fill="#44311a" d="M 106.5,157.5 C 105.833,161.833 105.167,166.167 104.5,170.5C 103.624,170.369 102.957,170.702 102.5,171.5C 103.325,172.386 104.325,172.719 105.5,172.5C 105.5,173.5 105.5,174.5 105.5,175.5C 103.664,177.588 101.331,178.921 98.5,179.5C 99.252,177.9 100.252,176.4 101.5,175C 100.107,173.829 99.2735,172.329 99,170.5C 98.6667,170.833 98.3333,171.167 98,171.5C 97.9378,169.885 97.7711,168.552 97.5,167.5C 97.5,166.167 96.8333,165.5 95.5,165.5C 96.8062,164.533 97.4729,163.199 97.5,161.5C 99.1667,161.5 100.833,161.5 102.5,161.5C 102.343,160.127 102.51,158.793 103,157.5C 103.986,158.171 105.153,158.171 106.5,157.5 Z"/></g>
<g><path style="opacity:0.114" fill="#d2cfcd" d="M 140.5,150.5 C 141.167,150.5 141.833,150.5 142.5,150.5C 129.85,164.31 114.85,174.81 97.5,182C 94.3035,182.805 91.3035,182.638 88.5,181.5C 88.5,181.167 88.5,180.833 88.5,180.5C 91.9387,180.747 95.272,180.414 98.5,179.5C 101.331,178.921 103.664,177.588 105.5,175.5C 107.482,175.005 109.482,174.505 111.5,174C 116.403,170.248 121.403,166.748 126.5,163.5C 127.833,162.833 128.833,161.833 129.5,160.5C 133.192,157.138 136.859,153.805 140.5,150.5 Z"/></g>
<g><path style="opacity:1" fill="#412e1a" d="M 126.5,163.5 C 121.403,166.748 116.403,170.248 111.5,174C 109.482,174.505 107.482,175.005 105.5,175.5C 105.5,174.5 105.5,173.5 105.5,172.5C 104.325,172.719 103.325,172.386 102.5,171.5C 102.957,170.702 103.624,170.369 104.5,170.5C 108.898,169.893 109.231,168.893 105.5,167.5C 106.833,166.5 108.167,165.5 109.5,164.5C 111.467,165.682 112.8,165.015 113.5,162.5C 113.833,163.167 114.167,163.833 114.5,164.5C 116.482,163.03 118.148,163.364 119.5,165.5C 121.55,163.141 123.884,162.474 126.5,163.5 Z"/></g>
<g><path style="opacity:1" fill="#3c2813" d="M 83.5,166.5 C 85.6635,167.238 87.8301,168.238 90,169.5C 91.7453,168.004 93.5787,166.671 95.5,165.5C 96.8333,165.5 97.5,166.167 97.5,167.5C 94.2729,170.224 90.6063,172.224 86.5,173.5C 85.4063,172.132 85.7397,170.965 87.5,170C 85.7412,169.202 84.0745,169.369 82.5,170.5C 82.723,171.967 83.0563,173.467 83.5,175C 82.9056,175.464 82.2389,175.631 81.5,175.5C 80.609,174.89 79.609,174.557 78.5,174.5C 76.8564,174.19 75.8564,173.19 75.5,171.5C 75.2865,169.856 75.6198,168.356 76.5,167C 77.4491,166.383 78.2825,166.549 79,167.5C 80.5057,165.935 82.0057,165.601 83.5,166.5 Z"/></g>
<g><path style="opacity:1" fill="#402d18" d="M 97.5,167.5 C 97.7711,168.552 97.9378,169.885 98,171.5C 98.3333,171.167 98.6667,170.833 99,170.5C 99.2735,172.329 100.107,173.829 101.5,175C 100.252,176.4 99.252,177.9 98.5,179.5C 95.272,180.414 91.9387,180.747 88.5,180.5C 86.5659,179.89 84.8993,178.89 83.5,177.5C 82.8333,176.833 82.1667,176.167 81.5,175.5C 82.2389,175.631 82.9056,175.464 83.5,175C 83.0563,173.467 82.723,171.967 82.5,170.5C 84.0745,169.369 85.7412,169.202 87.5,170C 85.7397,170.965 85.4063,172.132 86.5,173.5C 90.6063,172.224 94.2729,170.224 97.5,167.5 Z"/></g>
<g><path style="opacity:0.722" fill="#786d68" d="M 78.5,174.5 C 79.609,174.557 80.609,174.89 81.5,175.5C 82.1667,176.167 82.8333,176.833 83.5,177.5C 82.5,177.5 81.5,177.5 80.5,177.5C 79.8333,176.5 79.1667,175.5 78.5,174.5 Z"/></g>
<g><path style="opacity:0.059" fill="#edeceb" d="M 80.5,177.5 C 81.5,177.5 82.5,177.5 83.5,177.5C 84.8993,178.89 86.5659,179.89 88.5,180.5C 88.5,180.833 88.5,181.167 88.5,181.5C 85.5578,180.696 82.8911,179.362 80.5,177.5 Z"/></g>
</svg>
