<?xml version="1.0" encoding="UTF-8"?>
<!DOCTYPE svg PUBLIC "-//W3C//DTD SVG 1.1//EN" "http://www.w3.org/Graphics/SVG/1.1/DTD/svg11.dtd">
<svg xmlns="http://www.w3.org/2000/svg" version="1.1" width="190px" height="190px" style="shape-rendering:geometricPrecision; text-rendering:geometricPrecision; image-rendering:optimizeQuality; fill-rule:evenodd; clip-rule:evenodd" xmlns:xlink="http://www.w3.org/1999/xlink">
<g><path style="opacity:0.576" fill="#a69e95" d="M 93.5,13.5 C 93.5,13.8333 93.5,14.1667 93.5,14.5C 69.455,14.1864 45.455,14.5197 21.5,15.5C 21.5,15.1667 21.5,14.8333 21.5,14.5C 24.4043,13.5849 27.4043,12.9183 30.5,12.5C 51.4799,13.4663 72.4799,13.7997 93.5,13.5 Z"/></g>
<g><path style="opacity:0.385" fill="#c4c1be" d="M 93.5,14.5 C 93.5,14.1667 93.5,13.8333 93.5,13.5C 106.171,13.3334 118.838,13.5001 131.5,14C 136.799,14.8065 140.465,17.6399 142.5,22.5C 140.833,21.1667 139.167,19.8333 137.5,18.5C 134.925,16.4245 131.925,15.0912 128.5,14.5C 116.833,14.5 105.167,14.5 93.5,14.5 Z"/></g>
<g><path style="opacity:1" fill="#1e0f07" d="M 93.5,14.5 C 105.167,14.5 116.833,14.5 128.5,14.5C 119.682,15.4933 110.682,15.8266 101.5,15.5C 95.1667,15.5 88.8333,15.5 82.5,15.5C 69.1667,15.5 55.8333,15.5 42.5,15.5C 35.7895,15.287 29.1228,15.6204 22.5,16.5C 22.1667,16.5 21.8333,16.5 21.5,16.5C 21.5,16.1667 21.5,15.8333 21.5,15.5C 45.455,14.5197 69.455,14.1864 93.5,14.5 Z"/></g>
<g><path style="opacity:1" fill="#412e17" d="M 42.5,15.5 C 46.3978,17.0704 49.7311,19.4037 52.5,22.5C 51.791,23.404 50.791,23.7373 49.5,23.5C 43.8838,23.3101 38.2171,23.3101 32.5,23.5C 29.5,23.5 26.5,23.5 23.5,23.5C 23.5191,21.9397 23.8524,20.4397 24.5,19C 23.9444,17.9889 23.2778,17.1556 22.5,16.5C 29.1228,15.6204 35.7895,15.287 42.5,15.5 Z"/></g>
<g><path style="opacity:1" fill="#412e18" d="M 82.5,15.5 C 88.8333,15.5 95.1667,15.5 101.5,15.5C 104.305,16.3195 107.305,16.8195 110.5,17C 108.527,17.4955 106.527,17.6621 104.5,17.5C 104.33,18.8221 104.663,19.9887 105.5,21C 104.058,21.3768 103.058,22.2101 102.5,23.5C 89.9138,22.8919 77.2472,22.8919 64.5,23.5C 66.631,22.6862 68.9644,22.1862 71.5,22C 72.1122,20.6967 72.4455,19.5301 72.5,18.5C 74.0983,19.4847 75.765,19.6514 77.5,19C 76.8333,18.6667 76.1667,18.3333 75.5,18C 78.5,17.6667 81.5,17.3333 84.5,17C 83.5842,16.7216 82.9175,16.2216 82.5,15.5 Z"/></g>
<g><path style="opacity:1" fill="#402d17" d="M 128.5,14.5 C 131.925,15.0912 134.925,16.4245 137.5,18.5C 139.082,21.3351 140.415,24.3351 141.5,27.5C 140.959,30.2076 140.292,32.8743 139.5,35.5C 140.577,38.4742 140.577,41.4742 139.5,44.5C 138.167,44.5 136.833,44.5 135.5,44.5C 135.626,37.1872 133.959,30.3539 130.5,24C 121.1,22.4763 111.767,22.3096 102.5,23.5C 103.058,22.2101 104.058,21.3768 105.5,21C 104.663,19.9887 104.33,18.8221 104.5,17.5C 106.527,17.6621 108.527,17.4955 110.5,17C 107.305,16.8195 104.305,16.3195 101.5,15.5C 110.682,15.8266 119.682,15.4933 128.5,14.5 Z"/></g>
<g><path style="opacity:1" fill="#412d16" d="M 42.5,15.5 C 55.8333,15.5 69.1667,15.5 82.5,15.5C 82.9175,16.2216 83.5842,16.7216 84.5,17C 81.5,17.3333 78.5,17.6667 75.5,18C 76.1667,18.3333 76.8333,18.6667 77.5,19C 75.765,19.6514 74.0983,19.4847 72.5,18.5C 72.4455,19.5301 72.1122,20.6967 71.5,22C 68.9644,22.1862 66.631,22.6862 64.5,23.5C 60.2032,23.452 56.2032,23.1187 52.5,22.5C 49.7311,19.4037 46.3978,17.0704 42.5,15.5 Z"/></g>
<g><path style="opacity:1" fill="#3f2d17" d="M 21.5,16.5 C 21.8333,16.5 22.1667,16.5 22.5,16.5C 23.2778,17.1556 23.9444,17.9889 24.5,19C 23.8524,20.4397 23.5191,21.9397 23.5,23.5C 21.1676,24.1617 20.5009,25.495 21.5,27.5C 20.7668,32.2336 18.1002,34.9002 13.5,35.5C 13.5,37.1667 13.5,38.8333 13.5,40.5C 12.5,40.5 11.5,40.5 10.5,40.5C 9.5738,30.2356 13.2405,22.2356 21.5,16.5 Z"/></g>
<g><path style="opacity:1" fill="#41301a" d="M 49.5,23.5 C 48.2905,23.9321 47.2905,24.5987 46.5,25.5C 45.8333,33.1667 45.1667,40.8333 44.5,48.5C 44.3568,42.8315 44.3568,37.3315 44.5,32C 43.9931,29.6587 42.8265,29.1587 41,30.5C 41.2068,32.7513 41.3735,35.0846 41.5,37.5C 37.7331,39.7856 33.7331,40.119 29.5,38.5C 28.791,37.596 27.791,37.2627 26.5,37.5C 26.5,37.1667 26.5,36.8333 26.5,36.5C 26.8333,36.5 27.1667,36.5 27.5,36.5C 29.5,36.5 31.5,36.5 33.5,36.5C 33.5,33.8333 33.5,31.1667 33.5,28.5C 34.7652,26.6431 34.4318,24.9764 32.5,23.5C 38.2171,23.3101 43.8838,23.3101 49.5,23.5 Z"/></g>
<g><path style="opacity:0.52" fill="#87817e" d="M 46.5,25.5 C 74.0051,25.1688 101.338,25.5021 128.5,26.5C 101.328,26.1688 74.3282,26.5021 47.5,27.5C 47.9829,35.5469 47.9829,43.5469 47.5,51.5C 47.1667,51.5 46.8333,51.5 46.5,51.5C 46.5,42.8333 46.5,34.1667 46.5,25.5 Z"/></g>
<g><path style="opacity:0.059" fill="#d4d1ce" d="M 33.5,28.5 C 33.5,31.1667 33.5,33.8333 33.5,36.5C 31.5,36.5 29.5,36.5 27.5,36.5C 28.5676,35.5655 29.901,35.2322 31.5,35.5C 32.5405,27.3987 29.5405,25.3987 22.5,29.5C 23.0332,26.4752 24.8665,25.1419 28,25.5C 30.6546,25.124 32.488,26.124 33.5,28.5 Z"/></g>
<g><path style="opacity:0.064" fill="#edeceb" d="M 47.5,27.5 C 74.3282,26.5021 101.328,26.1688 128.5,26.5C 129.496,26.4142 130.329,26.7476 131,27.5C 132.658,33.4337 133.991,39.4337 135,45.5C 136.699,46.4061 138.533,46.7394 140.5,46.5C 137.857,47.9791 135.357,47.6458 133,45.5C 132.041,39.8002 130.875,34.1335 129.5,28.5C 102.175,27.5002 74.8415,27.1669 47.5,27.5 Z"/></g>
<g><path style="opacity:0.073" fill="#ecebea" d="M 177.5,29.5 C 179.966,28.3659 182.633,28.1993 185.5,29C 186.337,30.0113 186.67,31.1779 186.5,32.5C 185.5,32.1667 184.833,31.5 184.5,30.5C 182.393,29.5318 180.059,29.1984 177.5,29.5 Z"/></g>
<g><path style="opacity:0.639" fill="#b7b0a9" d="M 177.5,29.5 C 180.059,29.1984 182.393,29.5318 184.5,30.5C 180.452,30.3946 176.452,30.7279 172.5,31.5C 173.78,30.0687 175.447,29.4021 177.5,29.5 Z"/></g>
<g><path style="opacity:1" fill="#3d2c1d" d="M 21.5,15.5 C 21.5,15.8333 21.5,16.1667 21.5,16.5C 13.2405,22.2356 9.5738,30.2356 10.5,40.5C 11.5,40.5 12.5,40.5 13.5,40.5C 13.5,38.8333 13.5,37.1667 13.5,35.5C 18.1002,34.9002 20.7668,32.2336 21.5,27.5C 20.5009,25.495 21.1676,24.1617 23.5,23.5C 26.5,23.5 29.5,23.5 32.5,23.5C 34.4318,24.9764 34.7652,26.6431 33.5,28.5C 32.488,26.124 30.6546,25.124 28,25.5C 24.8665,25.1419 23.0332,26.4752 22.5,29.5C 21.0744,31.6789 20.4078,34.1789 20.5,37C 20.5085,38.7067 20.8418,40.2067 21.5,41.5C 21.8256,44.0014 23.1589,45.1681 25.5,45C 25.7024,42.4135 26.0357,39.9135 26.5,37.5C 27.791,37.2627 28.791,37.596 29.5,38.5C 28.0161,41.1204 26.6828,43.9537 25.5,47C 27.3008,47.3173 27.6341,47.984 26.5,49C 22.789,49.1747 19.1224,49.6747 15.5,50.5C 16.6053,51.8924 17.9386,53.059 19.5,54C 19.2716,54.3988 18.9382,54.5654 18.5,54.5C 12.2158,50.0958 9.21578,43.9292 9.5,36C 8.77528,26.2689 12.7753,19.4355 21.5,15.5 Z"/></g>
<g><path style="opacity:0.161" fill="#dddcd9" d="M 172.5,31.5 C 169.912,33.6246 166.912,34.9579 163.5,35.5C 166.088,33.3754 169.088,32.0421 172.5,31.5 Z"/></g>
<g><path style="opacity:1" fill="#35271b" d="M 137.5,18.5 C 139.167,19.8333 140.833,21.1667 142.5,22.5C 145.349,30.3675 145.016,38.0342 141.5,45.5C 141.5,46.1667 141.167,46.5 140.5,46.5C 138.533,46.7394 136.699,46.4061 135,45.5C 133.991,39.4337 132.658,33.4337 131,27.5C 130.329,26.7476 129.496,26.4142 128.5,26.5C 101.338,25.5021 74.0051,25.1688 46.5,25.5C 47.2905,24.5987 48.2905,23.9321 49.5,23.5C 50.791,23.7373 51.791,23.404 52.5,22.5C 56.2032,23.1187 60.2032,23.452 64.5,23.5C 77.2472,22.8919 89.9138,22.8919 102.5,23.5C 111.767,22.3096 121.1,22.4763 130.5,24C 133.959,30.3539 135.626,37.1872 135.5,44.5C 136.833,44.5 138.167,44.5 139.5,44.5C 140.577,41.4742 140.577,38.4742 139.5,35.5C 140.292,32.8743 140.959,30.2076 141.5,27.5C 140.415,24.3351 139.082,21.3351 137.5,18.5 Z"/></g>
<g><path style="opacity:0.18" fill="#cecbc9" d="M 142.5,22.5 C 145.663,29.1777 146.163,36.1777 144,43.5C 143.583,44.756 142.75,45.4226 141.5,45.5C 145.016,38.0342 145.349,30.3675 142.5,22.5 Z"/></g>
<g><path style="opacity:0.096" fill="#e0dedd" d="M 22.5,29.5 C 21.8379,33.4659 21.5045,37.4659 21.5,41.5C 20.8418,40.2067 20.5085,38.7067 20.5,37C 20.4078,34.1789 21.0744,31.6789 22.5,29.5 Z"/></g>
<g><path style="opacity:1" fill="#413016" d="M 41.5,37.5 C 40.9564,41.6803 40.2898,45.847 39.5,50C 39.7355,50.8732 40.0688,51.7065 40.5,52.5C 38.2573,53.4742 35.924,53.8076 33.5,53.5C 33.557,49.8669 32.557,49.7002 30.5,53C 26.9101,53.3106 23.5767,54.144 20.5,55.5C 19.5084,55.6716 18.8417,55.3382 18.5,54.5C 18.9382,54.5654 19.2716,54.3988 19.5,54C 17.9386,53.059 16.6053,51.8924 15.5,50.5C 19.1224,49.6747 22.789,49.1747 26.5,49C 27.6341,47.984 27.3008,47.3173 25.5,47C 26.6828,43.9537 28.0161,41.1204 29.5,38.5C 33.7331,40.119 37.7331,39.7856 41.5,37.5 Z"/></g>
<g><path style="opacity:1" fill="#423220" d="M 184.5,30.5 C 184.833,31.5 185.5,32.1667 186.5,32.5C 187.833,34.8333 187.833,37.1667 186.5,39.5C 183.877,45.9931 181.877,52.6598 180.5,59.5C 181.4,54.1333 181.4,48.8 180.5,43.5C 181.5,43.5 182.5,43.5 183.5,43.5C 183.64,41.8762 182.973,40.7096 181.5,40C 184.633,38.715 185.467,36.8817 184,34.5C 182.192,32.6041 180.025,32.1041 177.5,33C 178.406,34.6995 178.739,36.5328 178.5,38.5C 174.516,38.7188 170.682,38.7188 167,38.5C 166.508,39.549 166.674,40.549 167.5,41.5C 166.725,43.3022 165.725,43.9689 164.5,43.5C 163.883,43.3893 163.383,43.056 163,42.5C 162.95,44.744 162.117,46.4107 160.5,47.5C 161.412,46.2618 161.579,44.9285 161,43.5C 159.239,41.6366 157.405,40.97 155.5,41.5C 158.45,39.8847 161.116,37.8847 163.5,35.5C 166.912,34.9579 169.912,33.6246 172.5,31.5C 176.452,30.7279 180.452,30.3946 184.5,30.5 Z"/></g>
<g><path style="opacity:1" fill="#402e17" d="M 180.5,59.5 C 180.5,59.8333 180.5,60.1667 180.5,60.5C 180.167,60.5 179.833,60.5 179.5,60.5C 179.307,58.9137 178.973,57.247 178.5,55.5C 176.228,54.5589 174.228,53.2255 172.5,51.5C 172.167,51.6667 171.833,51.8333 171.5,52C 175.593,55.0335 175.259,56.2001 170.5,55.5C 171.981,54.056 171.648,53.3894 169.5,53.5C 169.721,51.2797 169.721,48.9464 169.5,46.5C 169.167,45.8333 168.833,45.1667 168.5,44.5C 167.304,44.8457 167.304,45.3457 168.5,46C 167.167,46.6667 165.833,46.6667 164.5,46C 165.598,45.2303 165.598,44.397 164.5,43.5C 165.725,43.9689 166.725,43.3022 167.5,41.5C 166.674,40.549 166.508,39.549 167,38.5C 170.682,38.7188 174.516,38.7188 178.5,38.5C 178.739,36.5328 178.406,34.6995 177.5,33C 180.025,32.1041 182.192,32.6041 184,34.5C 185.467,36.8817 184.633,38.715 181.5,40C 182.973,40.7096 183.64,41.8762 183.5,43.5C 182.5,43.5 181.5,43.5 180.5,43.5C 181.4,48.8 181.4,54.1333 180.5,59.5 Z"/></g>
<g><path style="opacity:0.094" fill="#d5d2ce" d="M 26.5,36.5 C 26.5,36.8333 26.5,37.1667 26.5,37.5C 26.0357,39.9135 25.7024,42.4135 25.5,45C 23.1589,45.1681 21.8256,44.0014 21.5,41.5C 22.4584,41.9528 23.2917,42.6195 24,43.5C 23.6948,41.5568 23.6948,39.5568 24,37.5C 24.6708,36.7476 25.5041,36.4142 26.5,36.5 Z"/></g>
<g><path style="opacity:0.064" fill="#e6e4e3" d="M 87.5,45.5 C 82.8333,45.5 78.1667,45.5 73.5,45.5C 69.5,45.5 65.5,45.5 61.5,45.5C 61.2641,48.6085 61.5975,51.6085 62.5,54.5C 61.5041,54.5858 60.6708,54.2524 60,53.5C 59.2228,50.5706 59.3895,47.7372 60.5,45C 69.6762,44.176 78.6762,44.3427 87.5,45.5 Z"/></g>
<g><path style="opacity:0.834" fill="#83766c" d="M 114.5,45.5 C 114.5,45.8333 114.5,46.1667 114.5,46.5C 100.656,46.829 86.9898,46.4957 73.5,45.5C 78.1667,45.5 82.8333,45.5 87.5,45.5C 96.5347,44.454 105.535,44.454 114.5,45.5 Z"/></g>
<g><path style="opacity:0.063" fill="#ebe9e7" d="M 114.5,45.5 C 115.947,46.1342 116.613,47.3009 116.5,49C 116.472,50.0698 116.139,50.9032 115.5,51.5C 115.768,49.901 115.434,48.5676 114.5,47.5C 114.5,47.1667 114.5,46.8333 114.5,46.5C 114.5,46.1667 114.5,45.8333 114.5,45.5 Z"/></g>
<g><path style="opacity:1" fill="#45321a" d="M 164.5,43.5 C 165.598,44.397 165.598,45.2303 164.5,46C 165.833,46.6667 167.167,46.6667 168.5,46C 167.304,45.3457 167.304,44.8457 168.5,44.5C 168.833,45.1667 169.167,45.8333 169.5,46.5C 169.721,48.9464 169.721,51.2797 169.5,53.5C 168.811,54.7736 167.977,54.7736 167,53.5C 166.333,54.5 166.333,55.5 167,56.5C 168.84,55.1669 169.34,55.3335 168.5,57C 166.466,58.2053 164.466,58.372 162.5,57.5C 164.305,55.2529 165.638,52.7529 166.5,50C 166.167,49.8333 165.833,49.6667 165.5,49.5C 164.066,51.2199 163.233,53.2199 163,55.5C 160.057,52.5151 156.557,51.8485 152.5,53.5C 153.833,54.5 155.167,55.5 156.5,56.5C 157.623,54.711 158.956,54.3776 160.5,55.5C 158.009,56.5407 158.009,57.3741 160.5,58C 160.167,58.3333 159.833,58.6667 159.5,59C 157.314,59.0613 155.314,59.2279 153.5,59.5C 152.226,58.8106 152.226,57.9772 153.5,57C 152.333,56.5 151.5,55.6667 151,54.5C 150.667,55.1667 150.333,55.8333 150,56.5C 149.46,54.8654 149.96,53.5321 151.5,52.5C 151.291,51.914 150.957,51.414 150.5,51C 151.646,50.3551 152.646,49.5217 153.5,48.5C 154.506,48.9377 154.506,49.6043 153.5,50.5C 154.365,51.5827 155.365,51.7494 156.5,51C 157.532,49.3732 158.866,48.2066 160.5,47.5C 162.117,46.4107 162.95,44.744 163,42.5C 163.383,43.056 163.883,43.3893 164.5,43.5 Z"/></g>
<g><path style="opacity:1" fill="#4f3d2b" d="M 73.5,45.5 C 86.9898,46.4957 100.656,46.829 114.5,46.5C 114.5,46.8333 114.5,47.1667 114.5,47.5C 114.167,52.8333 113.833,52.8333 113.5,47.5C 107.85,46.8246 102.684,47.8246 98,50.5C 91.167,50.0126 84.0003,50.0126 76.5,50.5C 76.5,49.5 76.5,48.5 76.5,47.5C 72.7104,47.0077 72.0437,47.841 74.5,50C 72.2663,51.585 69.933,52.7516 67.5,53.5C 79.8015,54.5102 94.8015,54.8435 112.5,54.5C 95.8333,55.8333 79.1667,55.8333 62.5,54.5C 61.5975,51.6085 61.2641,48.6085 61.5,45.5C 65.5,45.5 69.5,45.5 73.5,45.5 Z"/></g>
<g><path style="opacity:1" fill="#463219" d="M 114.5,47.5 C 115.434,48.5676 115.768,49.901 115.5,51.5C 115.5,53.5 114.5,54.5 112.5,54.5C 113.463,53.6365 113.463,52.9698 112.5,52.5C 97.5484,53.4837 82.5484,53.8171 67.5,53.5C 69.933,52.7516 72.2663,51.585 74.5,50C 72.0437,47.841 72.7104,47.0077 76.5,47.5C 76.5,48.5 76.5,49.5 76.5,50.5C 84.0003,50.0126 91.167,50.0126 98,50.5C 102.684,47.8246 107.85,46.8246 113.5,47.5C 113.833,52.8333 114.167,52.8333 114.5,47.5 Z"/></g>
<g><path style="opacity:1" fill="#1e0c09" d="M 112.5,54.5 C 94.8015,54.8435 79.8015,54.5102 67.5,53.5C 82.5484,53.8171 97.5484,53.4837 112.5,52.5C 113.463,52.9698 113.463,53.6365 112.5,54.5 Z"/></g>
<g><path style="opacity:1" fill="#412e18" d="M 44.5,48.5 C 43.6849,52.1441 42.8516,55.8107 42,59.5C 40.8525,60.4581 39.8525,60.1247 39,58.5C 37.2988,60.024 37.7988,61.024 40.5,61.5C 41.9329,66.268 40.9329,70.4347 37.5,74C 38.7691,76.1385 38.7691,78.3052 37.5,80.5C 36.2798,81.7111 35.1131,81.7111 34,80.5C 33.3333,81.8333 32.6667,83.1667 32,84.5C 30.4961,80.9613 30.1628,77.2946 31,73.5C 33.312,67.956 34.1453,62.2894 33.5,56.5C 32.8933,56.6236 32.56,56.9569 32.5,57.5C 28.2357,57.6558 24.2357,56.9891 20.5,55.5C 23.5767,54.144 26.9101,53.3106 30.5,53C 32.557,49.7002 33.557,49.8669 33.5,53.5C 35.924,53.8076 38.2573,53.4742 40.5,52.5C 40.0688,51.7065 39.7355,50.8732 39.5,50C 40.2898,45.847 40.9564,41.6803 41.5,37.5C 41.3735,35.0846 41.2068,32.7513 41,30.5C 42.8265,29.1587 43.9931,29.6587 44.5,32C 44.3568,37.3315 44.3568,42.8315 44.5,48.5 Z"/></g>
<g><path style="opacity:1" fill="#3e2e20" d="M 46.5,25.5 C 46.5,34.1667 46.5,42.8333 46.5,51.5C 45.8231,57.2286 44.8231,62.8952 43.5,68.5C 42.469,70.9608 41.8023,73.6275 41.5,76.5C 41.7373,77.791 41.404,78.791 40.5,79.5C 37.8626,84.0787 36.1959,89.0787 35.5,94.5C 34.8333,95.8333 34.1667,97.1667 33.5,98.5C 33.5,94.5 33.5,90.5 33.5,86.5C 31.1451,87.7852 29.3118,87.7852 28,86.5C 25.5223,94.7031 23.689,103.036 22.5,111.5C 21.678,113.389 20.8447,115.389 20,117.5C 19.7216,116.584 19.2216,115.918 18.5,115.5C 22.6504,99.8547 26.817,84.188 31,68.5C 31.9358,64.8865 32.4358,61.2198 32.5,57.5C 32.56,56.9569 32.8933,56.6236 33.5,56.5C 34.1453,62.2894 33.312,67.956 31,73.5C 30.1628,77.2946 30.4961,80.9613 32,84.5C 32.6667,83.1667 33.3333,81.8333 34,80.5C 35.1131,81.7111 36.2798,81.7111 37.5,80.5C 38.7691,78.3052 38.7691,76.1385 37.5,74C 40.9329,70.4347 41.9329,66.268 40.5,61.5C 37.7988,61.024 37.2988,60.024 39,58.5C 39.8525,60.1247 40.8525,60.4581 42,59.5C 42.8516,55.8107 43.6849,52.1441 44.5,48.5C 45.1667,40.8333 45.8333,33.1667 46.5,25.5 Z"/></g>
<g><path style="opacity:1" fill="#3e2d1a" d="M 153.5,42.5 C 153.938,42.4346 154.272,42.6012 154.5,43C 151.573,45.3824 148.739,47.8824 146,50.5C 145.508,51.549 145.674,52.549 146.5,53.5C 145.019,54.4803 143.685,55.647 142.5,57C 142.957,57.414 143.291,57.914 143.5,58.5C 142.294,60.1491 140.961,61.6491 139.5,63C 140.646,63.6449 141.646,64.4783 142.5,65.5C 143.59,64.6086 143.59,63.6086 142.5,62.5C 143.328,61.5853 144.328,60.9186 145.5,60.5C 146.72,61.7111 147.887,61.7111 149,60.5C 149.708,61.3805 150.542,62.0472 151.5,62.5C 152.506,62.9377 152.506,63.6043 151.5,64.5C 145.485,68.8498 140.485,74.1831 136.5,80.5C 134.413,81.5846 133.08,83.2512 132.5,85.5C 132.5,86.1667 132.167,86.5 131.5,86.5C 131.167,86.5 130.833,86.5 130.5,86.5C 130.433,81.4816 132.767,77.9816 137.5,76C 136.521,74.2215 136.854,72.5548 138.5,71C 136.924,70.5604 135.59,69.727 134.5,68.5C 133.833,69.1667 133.167,69.8333 132.5,70.5C 131.5,69.1667 130.5,69.1667 129.5,70.5C 128.749,69.624 128.249,68.624 128,67.5C 124.754,68.9125 121.92,70.9125 119.5,73.5C 128.939,61.0596 140.272,50.7262 153.5,42.5 Z"/></g>
<g><path style="opacity:1" fill="#402e16" d="M 153.5,42.5 C 153.842,41.6618 154.508,41.3284 155.5,41.5C 157.405,40.97 159.239,41.6366 161,43.5C 161.579,44.9285 161.412,46.2618 160.5,47.5C 158.866,48.2066 157.532,49.3732 156.5,51C 155.365,51.7494 154.365,51.5827 153.5,50.5C 154.506,49.6043 154.506,48.9377 153.5,48.5C 152.646,49.5217 151.646,50.3551 150.5,51C 150.957,51.414 151.291,51.914 151.5,52.5C 149.96,53.5321 149.46,54.8654 150,56.5C 150.333,55.8333 150.667,55.1667 151,54.5C 151.5,55.6667 152.333,56.5 153.5,57C 152.226,57.9772 152.226,58.8106 153.5,59.5C 152.833,60.5 152.167,61.5 151.5,62.5C 150.542,62.0472 149.708,61.3805 149,60.5C 147.887,61.7111 146.72,61.7111 145.5,60.5C 144.328,60.9186 143.328,61.5853 142.5,62.5C 143.59,63.6086 143.59,64.6086 142.5,65.5C 141.646,64.4783 140.646,63.6449 139.5,63C 140.961,61.6491 142.294,60.1491 143.5,58.5C 143.291,57.914 142.957,57.414 142.5,57C 143.685,55.647 145.019,54.4803 146.5,53.5C 145.674,52.549 145.508,51.549 146,50.5C 148.739,47.8824 151.573,45.3824 154.5,43C 154.272,42.6012 153.938,42.4346 153.5,42.5 Z"/></g>
<g><path style="opacity:1" fill="#412e16" d="M 169.5,53.5 C 171.648,53.3894 171.981,54.056 170.5,55.5C 175.259,56.2001 175.593,55.0335 171.5,52C 171.833,51.8333 172.167,51.6667 172.5,51.5C 174.228,53.2255 176.228,54.5589 178.5,55.5C 178.973,57.247 179.307,58.9137 179.5,60.5C 177.752,62.8492 176.418,65.5158 175.5,68.5C 173.509,70.4572 171.509,72.4572 169.5,74.5C 165.402,75.7418 161.069,75.7418 156.5,74.5C 156.423,71.4908 157.756,69.3241 160.5,68C 158.625,64.5498 155.958,63.3831 152.5,64.5C 152.167,64.5 151.833,64.5 151.5,64.5C 152.506,63.6043 152.506,62.9377 151.5,62.5C 152.167,61.5 152.833,60.5 153.5,59.5C 155.314,59.2279 157.314,59.0613 159.5,59C 159.833,58.6667 160.167,58.3333 160.5,58C 158.009,57.3741 158.009,56.5407 160.5,55.5C 158.956,54.3776 157.623,54.711 156.5,56.5C 155.167,55.5 153.833,54.5 152.5,53.5C 156.557,51.8485 160.057,52.5151 163,55.5C 163.233,53.2199 164.066,51.2199 165.5,49.5C 165.833,49.6667 166.167,49.8333 166.5,50C 165.638,52.7529 164.305,55.2529 162.5,57.5C 164.466,58.372 166.466,58.2053 168.5,57C 169.34,55.3335 168.84,55.1669 167,56.5C 166.333,55.5 166.333,54.5 167,53.5C 167.977,54.7736 168.811,54.7736 169.5,53.5 Z"/></g>
<g><path style="opacity:0.139" fill="#e1dfde" d="M 21.5,14.5 C 21.5,14.8333 21.5,15.1667 21.5,15.5C 12.7753,19.4355 8.77528,26.2689 9.5,36C 9.21578,43.9292 12.2158,50.0958 18.5,54.5C 18.8417,55.3382 19.5084,55.6716 20.5,55.5C 24.2357,56.9891 28.2357,57.6558 32.5,57.5C 32.4358,61.2198 31.9358,64.8865 31,68.5C 26.817,84.188 22.6504,99.8547 18.5,115.5C 16.01,128.647 15.8434,141.98 18,155.5C 20.4577,162.763 24.291,169.097 29.5,174.5C 31.9573,177.558 34.9573,179.892 38.5,181.5C 33.0272,180.512 28.5272,177.846 25,173.5C 22.6667,169.5 20.3333,165.5 18,161.5C 13.2148,141.778 13.5481,122.112 19,102.5C 24.6457,88.2765 28.479,73.6099 30.5,58.5C 12.1126,57.5873 4.61257,47.9206 8,29.5C 9.57625,21.7619 14.0763,16.7619 21.5,14.5 Z"/></g>
<g><path style="opacity:0.216" fill="#d2cfcc" d="M 46.5,51.5 C 46.8333,51.5 47.1667,51.5 47.5,51.5C 47.5541,57.611 46.2208,63.2777 43.5,68.5C 44.8231,62.8952 45.8231,57.2286 46.5,51.5 Z"/></g>
<g><path style="opacity:0.843" fill="#938b7f" d="M 102.5,66.5 C 102.5,66.8333 102.5,67.1667 102.5,67.5C 87.5,67.5 72.5,67.5 57.5,67.5C 57.5,67.1667 57.5,66.8333 57.5,66.5C 72.3491,65.2424 87.3491,65.2424 102.5,66.5 Z"/></g>
<g><path style="opacity:0.122" fill="#e4e3e1" d="M 102.5,67.5 C 102.5,67.1667 102.5,66.8333 102.5,66.5C 104.017,66.5106 105.184,67.1772 106,68.5C 106.497,71.146 106.664,73.8127 106.5,76.5C 105.5,76.5 104.5,76.5 103.5,76.5C 106.412,73.0767 106.079,70.0767 102.5,67.5 Z"/></g>
<g><path style="opacity:1" fill="#402d18" d="M 130.5,86.5 C 130.167,87.5 129.5,88.1667 128.5,88.5C 126.184,89.9465 123.851,90.6132 121.5,90.5C 120.815,92.7808 120.649,95.1141 121,97.5C 119,98.1667 117,98.8333 115,99.5C 114.667,99.1667 114.333,98.8333 114,98.5C 113.665,100.503 112.832,102.17 111.5,103.5C 110.778,103.918 110.278,104.584 110,105.5C 109.424,103.623 109.591,101.789 110.5,100C 110.095,99.0546 109.428,98.3879 108.5,98C 109.567,95.9019 110.067,93.7352 110,91.5C 109.167,92.3333 108.333,93.1667 107.5,94C 108.451,94.7175 108.617,95.5509 108,96.5C 106.667,97.1667 105.333,97.8333 104,98.5C 102.794,101.737 101.294,104.07 99.5,105.5C 104.155,93.5123 110.822,82.8457 119.5,73.5C 121.92,70.9125 124.754,68.9125 128,67.5C 128.249,68.624 128.749,69.624 129.5,70.5C 130.5,69.1667 131.5,69.1667 132.5,70.5C 133.167,69.8333 133.833,69.1667 134.5,68.5C 135.59,69.727 136.924,70.5604 138.5,71C 136.854,72.5548 136.521,74.2215 137.5,76C 132.767,77.9816 130.433,81.4816 130.5,86.5 Z"/></g>
<g><path style="opacity:0.043" fill="#cfcdcb" d="M 186.5,39.5 C 184.754,50.1533 181.92,60.4866 178,70.5C 175.855,73.1664 173.355,75.1664 170.5,76.5C 172.461,74.0365 174.628,71.7032 177,69.5C 178.18,66.4788 179.346,63.4788 180.5,60.5C 180.5,60.1667 180.5,59.8333 180.5,59.5C 181.877,52.6598 183.877,45.9931 186.5,39.5 Z"/></g>
<g><path style="opacity:0.165" fill="#dcdad8" d="M 43.5,68.5 C 43.8893,71.5533 43.2227,74.22 41.5,76.5C 41.8023,73.6275 42.469,70.9608 43.5,68.5 Z"/></g>
<g><path style="opacity:1" fill="#3e2c19" d="M 179.5,60.5 C 179.833,60.5 180.167,60.5 180.5,60.5C 179.346,63.4788 178.18,66.4788 177,69.5C 174.628,71.7032 172.461,74.0365 170.5,76.5C 167.883,77.7859 165.55,79.4525 163.5,81.5C 163.158,82.3382 162.492,82.6716 161.5,82.5C 159.277,83.1145 157.611,84.4478 156.5,86.5C 159.74,86.9756 163.073,86.9756 166.5,86.5C 166.5,87.8333 166.5,89.1667 166.5,90.5C 163.129,93.8706 160.129,97.5373 157.5,101.5C 157.5,102.167 157.167,102.5 156.5,102.5C 153.883,103.786 151.55,105.453 149.5,107.5C 145.646,108.93 141.979,110.597 138.5,112.5C 137.833,112.5 137.167,112.5 136.5,112.5C 136.062,112.565 135.728,112.399 135.5,112C 140.404,110.215 145.071,107.881 149.5,105C 148.328,104.581 147.328,103.915 146.5,103C 148.526,101.041 150.692,100.207 153,100.5C 153.536,98.4328 153.036,96.5994 151.5,95C 152.623,93.9563 153.956,93.2896 155.5,93C 154.167,92.3333 152.833,92.3333 151.5,93C 150.339,94.828 148.839,96.328 147,97.5C 144.644,96.1073 144.144,94.274 145.5,92C 144.318,90.3217 143.152,90.4883 142,92.5C 139.748,91.0381 138.248,91.7048 137.5,94.5C 136.614,93.675 136.281,92.675 136.5,91.5C 135.325,91.281 134.325,91.6143 133.5,92.5C 128.154,99.1223 125.82,106.622 126.5,115C 126.241,116.261 125.574,117.261 124.5,118C 125.956,118.423 126.456,119.256 126,120.5C 123.599,121.602 121.099,121.769 118.5,121C 119.861,119.416 120.528,117.582 120.5,115.5C 121.5,115.5 122.5,115.5 123.5,115.5C 123.5,114.5 123.5,113.5 123.5,112.5C 121.821,112.715 120.821,112.048 120.5,110.5C 129.998,94.3388 140.664,79.0054 152.5,64.5C 155.958,63.3831 158.625,64.5498 160.5,68C 157.756,69.3241 156.423,71.4908 156.5,74.5C 161.069,75.7418 165.402,75.7418 169.5,74.5C 171.509,72.4572 173.509,70.4572 175.5,68.5C 176.418,65.5158 177.752,62.8492 179.5,60.5 Z"/></g>
<g><path style="opacity:0.094" fill="#dddbd8" d="M 57.5,66.5 C 57.5,66.8333 57.5,67.1667 57.5,67.5C 55.4136,68.1485 54.4136,69.6485 54.5,72C 54.5221,74.1829 55.5221,75.6829 57.5,76.5C 57.5,76.8333 57.5,77.1667 57.5,77.5C 51.4999,75.3393 50.4999,71.8393 54.5,67C 55.448,66.5172 56.448,66.3505 57.5,66.5 Z"/></g>
<g><path style="opacity:1" fill="#241812" d="M 57.5,67.5 C 72.5,67.5 87.5,67.5 102.5,67.5C 106.079,70.0767 106.412,73.0767 103.5,76.5C 88.1667,76.5 72.8333,76.5 57.5,76.5C 55.5221,75.6829 54.5221,74.1829 54.5,72C 54.4136,69.6485 55.4136,68.1485 57.5,67.5 Z"/></g>
<g><path style="opacity:1" fill="#422f19" d="M 58.5,68.5 C 73.1705,68.3334 87.8371,68.5001 102.5,69C 103.406,70.6995 103.739,72.5328 103.5,74.5C 88.1986,75.6191 72.8653,75.7858 57.5,75C 54.777,72.3413 55.1103,70.1747 58.5,68.5 Z"/></g>
<g><path style="opacity:0.729" fill="#8e857c" d="M 57.5,77.5 C 57.5,77.1667 57.5,76.8333 57.5,76.5C 72.8333,76.5 88.1667,76.5 103.5,76.5C 96.1426,77.2132 88.6426,77.8798 81,78.5C 73.2102,77.5475 65.3768,77.2141 57.5,77.5 Z"/></g>
<g><path style="opacity:0.11" fill="#e0dedd" d="M 170.5,76.5 C 169.008,79.3231 166.674,80.9898 163.5,81.5C 165.55,79.4525 167.883,77.7859 170.5,76.5 Z"/></g>
<g><path style="opacity:0.043" fill="#dcd8d6" d="M 161.5,82.5 C 161.423,83.7498 160.756,84.5831 159.5,85C 162.426,85.2178 165.26,85.7178 168,86.5C 168.773,88.3524 168.273,89.6857 166.5,90.5C 166.5,89.1667 166.5,87.8333 166.5,86.5C 163.073,86.9756 159.74,86.9756 156.5,86.5C 157.611,84.4478 159.277,83.1145 161.5,82.5 Z"/></g>
<g><path style="opacity:0.176" fill="#dfdcdb" d="M 163.5,35.5 C 161.116,37.8847 158.45,39.8847 155.5,41.5C 154.508,41.3284 153.842,41.6618 153.5,42.5C 140.272,50.7262 128.939,61.0596 119.5,73.5C 110.822,82.8457 104.155,93.5123 99.5,105.5C 97.9261,107.102 97.2594,109.102 97.5,111.5C 95.8234,118.596 95.1567,125.929 95.5,133.5C 90.9598,139.747 87.6264,146.58 85.5,154C 85.4393,155.711 86.1059,157.044 87.5,158C 90.1922,158.43 92.8589,158.263 95.5,157.5C 90.1104,162.261 86.1104,161.261 83.5,154.5C 85.3052,147.222 88.4719,140.555 93,134.5C 93.0223,119.622 96.3556,105.622 103,92.5C 115.395,72.4384 131.228,55.6051 150.5,42C 154.577,39.2951 158.91,37.1284 163.5,35.5 Z"/></g>
<g><path style="opacity:0.153" fill="#cfccc9" d="M 40.5,79.5 C 40.1813,85.0956 38.5147,90.0956 35.5,94.5C 36.1959,89.0787 37.8626,84.0787 40.5,79.5 Z"/></g>
<g><path style="opacity:0.031" fill="#d7d5d3" d="M 130.5,86.5 C 130.833,86.5 131.167,86.5 131.5,86.5C 131.5,87.1667 131.5,87.8333 131.5,88.5C 130.5,89.1667 129.5,89.8333 128.5,90.5C 128.5,89.8333 128.5,89.1667 128.5,88.5C 129.5,88.1667 130.167,87.5 130.5,86.5 Z"/></g>
<g><path style="opacity:0.984" fill="#1e130e" d="M 90.5,89.5 C 90.7359,92.6085 90.4025,95.6085 89.5,98.5C 76.1667,98.5 62.8333,98.5 49.5,98.5C 49.0196,95.3148 49.6863,92.4815 51.5,90C 64.4957,89.5001 77.4957,89.3334 90.5,89.5 Z"/></g>
<g><path style="opacity:1" fill="#412f19" d="M 55.5,90.5 C 66.505,90.3335 77.505,90.5002 88.5,91C 89.4061,92.6995 89.7394,94.5328 89.5,96.5C 76.5368,97.4434 63.5368,97.7767 50.5,97.5C 49.5744,93.1138 51.241,90.7805 55.5,90.5 Z"/></g>
<g><path style="opacity:0.094" fill="#dad7d5" d="M 151.5,64.5 C 151.833,64.5 152.167,64.5 152.5,64.5C 140.664,79.0054 129.998,94.3388 120.5,110.5C 116.61,114.9 113.276,119.734 110.5,125C 109.4,125.432 108.733,124.932 108.5,123.5C 109.591,120.978 110.925,118.645 112.5,116.5C 112.461,113.911 113.461,111.911 115.5,110.5C 115.369,111.239 115.536,111.906 116,112.5C 117.947,110.937 119.114,108.937 119.5,106.5C 121.822,105.198 123.155,103.198 123.5,100.5C 125.822,99.1979 127.155,97.1979 127.5,94.5C 129.326,92.8525 130.66,90.8525 131.5,88.5C 133.757,87.4382 134.923,85.7715 135,83.5C 134.292,84.3805 133.458,85.0472 132.5,85.5C 133.08,83.2512 134.413,81.5846 136.5,80.5C 140.485,74.1831 145.485,68.8498 151.5,64.5 Z"/></g>
<g><path style="opacity:0.039" fill="#c1bdba" d="M 90.5,89.5 C 77.4957,89.3334 64.4957,89.5001 51.5,90C 49.6863,92.4815 49.0196,95.3148 49.5,98.5C 62.8333,98.5 76.1667,98.5 89.5,98.5C 77.2947,99.185 64.9614,99.8516 52.5,100.5C 48.6293,100.298 46.9626,98.2983 47.5,94.5C 47.0456,91.7759 48.0456,89.9425 50.5,89C 64.0064,88.173 77.3397,88.3396 90.5,89.5 Z"/></g>
<g><path style="opacity:1" fill="#412d15" d="M 33.5,98.5 C 32.0125,101.931 30.3458,105.431 28.5,109C 27.9496,112.324 27.2829,115.491 26.5,118.5C 25.7326,117.828 25.0659,116.995 24.5,116C 25.8331,114.16 25.6665,113.66 24,114.5C 22.8437,113.498 22.3437,112.498 22.5,111.5C 23.689,103.036 25.5223,94.7031 28,86.5C 29.3118,87.7852 31.1451,87.7852 33.5,86.5C 33.5,90.5 33.5,94.5 33.5,98.5 Z"/></g>
<g><path style="opacity:0.569" fill="#c1beb9" d="M 90.5,89.5 C 93.0121,92.8116 92.6788,95.8116 89.5,98.5C 90.4025,95.6085 90.7359,92.6085 90.5,89.5 Z"/></g>
<g><path style="opacity:0.18" fill="#d3d0ce" d="M 127.5,91.5 C 127.5,92.5 127.5,93.5 127.5,94.5C 125.178,95.8021 123.845,97.8021 123.5,100.5C 122.167,101.5 120.833,102.5 119.5,103.5C 121.673,99.1477 124.34,95.1477 127.5,91.5 Z"/></g>
<g><path style="opacity:0.024" fill="#d6d4d2" d="M 166.5,90.5 C 164.628,95.0432 161.628,98.7099 157.5,101.5C 160.129,97.5373 163.129,93.8706 166.5,90.5 Z"/></g>
<g><path style="opacity:0.055" fill="#d8d6d4" d="M 35.5,94.5 C 35.6918,98.9019 34.6918,102.902 32.5,106.5C 32.4013,103.763 32.7347,101.096 33.5,98.5C 34.1667,97.1667 34.8333,95.8333 35.5,94.5 Z"/></g>
<g><path style="opacity:1" fill="#412e17" d="M 136.5,112.5 C 136.167,113.167 135.833,113.833 135.5,114.5C 136.635,115.474 137.635,116.641 138.5,118C 136.508,118.574 135.008,119.741 134,121.5C 133.692,120.692 133.192,120.025 132.5,119.5C 131.646,120.522 130.646,121.355 129.5,122C 130.543,123.976 131.877,124.476 133.5,123.5C 134.583,124.365 134.749,125.365 134,126.5C 132.333,127.833 130.667,129.167 129,130.5C 128.445,128.279 128.612,125.946 129.5,123.5C 124.427,123.451 119.76,123.451 115.5,123.5C 114.697,122.577 114.53,121.577 115,120.5C 116.076,117.921 117.909,116.254 120.5,115.5C 120.528,117.582 119.861,119.416 118.5,121C 121.099,121.769 123.599,121.602 126,120.5C 126.456,119.256 125.956,118.423 124.5,118C 125.574,117.261 126.241,116.261 126.5,115C 125.82,106.622 128.154,99.1223 133.5,92.5C 134.325,91.6143 135.325,91.281 136.5,91.5C 136.281,92.675 136.614,93.675 137.5,94.5C 138.248,91.7048 139.748,91.0381 142,92.5C 143.152,90.4883 144.318,90.3217 145.5,92C 144.144,94.274 144.644,96.1073 147,97.5C 148.839,96.328 150.339,94.828 151.5,93C 152.833,92.3333 154.167,92.3333 155.5,93C 153.956,93.2896 152.623,93.9563 151.5,95C 153.036,96.5994 153.536,98.4328 153,100.5C 150.692,100.207 148.526,101.041 146.5,103C 147.328,103.915 148.328,104.581 149.5,105C 145.071,107.881 140.404,110.215 135.5,112C 135.728,112.399 136.062,112.565 136.5,112.5 Z"/></g>
<g><path style="opacity:1" fill="#432f18" d="M 111.5,103.5 C 114.248,111.264 111.581,116.097 103.5,118C 104.448,118.483 105.448,118.649 106.5,118.5C 106.649,119.552 106.483,120.552 106,121.5C 104.604,119.473 102.938,119.14 101,120.5C 100.814,118.1 100.314,115.766 99.5,113.5C 98.8165,113.137 98.1499,112.804 97.5,112.5C 97.5,112.167 97.5,111.833 97.5,111.5C 97.2594,109.102 97.9261,107.102 99.5,105.5C 101.294,104.07 102.794,101.737 104,98.5C 105.333,97.8333 106.667,97.1667 108,96.5C 108.617,95.5509 108.451,94.7175 107.5,94C 108.333,93.1667 109.167,92.3333 110,91.5C 110.067,93.7352 109.567,95.9019 108.5,98C 109.428,98.3879 110.095,99.0546 110.5,100C 109.591,101.789 109.424,103.623 110,105.5C 110.278,104.584 110.778,103.918 111.5,103.5 Z"/></g>
<g><path style="opacity:0.122" fill="#c9c5c2" d="M 156.5,102.5 C 154.977,105.364 152.643,107.031 149.5,107.5C 151.55,105.453 153.883,103.786 156.5,102.5 Z"/></g>
<g><path style="opacity:0.231" fill="#cbc8c6" d="M 119.5,103.5 C 119.5,104.5 119.5,105.5 119.5,106.5C 118.5,107.167 117.5,107.833 116.5,108.5C 116.75,106.326 117.75,104.659 119.5,103.5 Z"/></g>
<g><path style="opacity:0.184" fill="#d6d3d1" d="M 149.5,107.5 C 146.461,110.538 142.794,112.205 138.5,112.5C 141.979,110.597 145.646,108.93 149.5,107.5 Z"/></g>
<g><path style="opacity:0.769" fill="#908a81" d="M 78.5,111.5 C 78.5,111.833 78.5,112.167 78.5,112.5C 67.5,112.5 56.5,112.5 45.5,112.5C 45.5,112.167 45.5,111.833 45.5,111.5C 56.6885,111.272 67.6885,111.272 78.5,111.5 Z"/></g>
<g><path style="opacity:1" fill="#170704" d="M 45.5,112.5 C 56.5,112.5 67.5,112.5 78.5,112.5C 67.4315,113.177 56.2648,113.843 45,114.5C 44.6012,114.272 44.4346,113.938 44.5,113.5C 44.5,112.833 44.8333,112.5 45.5,112.5 Z"/></g>
<g><path style="opacity:1" fill="#3c2b17" d="M 78.5,112.5 C 80.7798,115.146 81.1132,118.146 79.5,121.5C 67.8286,121.667 56.1619,121.5 44.5,121C 43.1857,118.395 43.1857,115.895 44.5,113.5C 44.4346,113.938 44.6012,114.272 45,114.5C 56.2648,113.843 67.4315,113.177 78.5,112.5 Z"/></g>
<g><path style="opacity:0.08" fill="#d0cecb" d="M 45.5,111.5 C 45.5,111.833 45.5,112.167 45.5,112.5C 44.8333,112.5 44.5,112.833 44.5,113.5C 43.1857,115.895 43.1857,118.395 44.5,121C 56.1619,121.5 67.8286,121.667 79.5,121.5C 67.6738,122.66 55.6738,122.826 43.5,122C 41.5218,119.503 41.0218,116.669 42,113.5C 42.8159,112.177 43.9826,111.511 45.5,111.5 Z"/></g>
<g><path style="opacity:0.525" fill="#bebab7" d="M 78.5,112.5 C 78.5,112.167 78.5,111.833 78.5,111.5C 79.4959,111.414 80.3292,111.748 81,112.5C 81.1667,114 81.3333,115.5 81.5,117C 81.4313,118.986 80.7647,120.486 79.5,121.5C 81.1132,118.146 80.7798,115.146 78.5,112.5 Z"/></g>
<g><path style="opacity:0.096" fill="#d8d4d1" d="M 136.5,112.5 C 137.167,112.5 137.833,112.5 138.5,112.5C 141.782,112.981 144.949,113.981 148,115.5C 149.122,118.872 147.955,120.872 144.5,121.5C 145.476,120.185 146.476,118.852 147.5,117.5C 143.809,115.244 139.809,114.244 135.5,114.5C 135.833,113.833 136.167,113.167 136.5,112.5 Z"/></g>
<g><path style="opacity:0.02" fill="#e2e1df" d="M 144.5,121.5 C 143.871,123.997 142.204,125.33 139.5,125.5C 140.945,123.937 142.611,122.604 144.5,121.5 Z"/></g>
<g><path style="opacity:0.367" fill="#aea9a5" d="M 97.5,111.5 C 97.5,111.833 97.5,112.167 97.5,112.5C 97.1575,119.677 96.4909,126.677 95.5,133.5C 95.1567,125.929 95.8234,118.596 97.5,111.5 Z"/></g>
<g><path style="opacity:1" fill="#43311d" d="M 135.5,114.5 C 139.809,114.244 143.809,115.244 147.5,117.5C 146.476,118.852 145.476,120.185 144.5,121.5C 142.611,122.604 140.945,123.937 139.5,125.5C 137.973,125.427 136.973,126.094 136.5,127.5C 134.596,127.738 133.262,128.738 132.5,130.5C 129.669,131.079 127.336,132.412 125.5,134.5C 125.5,135.167 125.167,135.5 124.5,135.5C 124.167,135.5 123.833,135.5 123.5,135.5C 122.669,131.808 120.669,129.975 117.5,130C 119.007,129.163 119.507,127.996 119,126.5C 117.506,127.747 116.006,127.747 114.5,126.5C 116.435,125.787 116.768,124.787 115.5,123.5C 119.76,123.451 124.427,123.451 129.5,123.5C 128.612,125.946 128.445,128.279 129,130.5C 130.667,129.167 132.333,127.833 134,126.5C 134.749,125.365 134.583,124.365 133.5,123.5C 131.877,124.476 130.543,123.976 129.5,122C 130.646,121.355 131.646,120.522 132.5,119.5C 133.192,120.025 133.692,120.692 134,121.5C 135.008,119.741 136.508,118.574 138.5,118C 137.635,116.641 136.635,115.474 135.5,114.5 Z"/></g>
<g><path style="opacity:1" fill="#3f2e1d" d="M 128.5,88.5 C 128.5,89.1667 128.5,89.8333 128.5,90.5C 128.5,91.1667 128.167,91.5 127.5,91.5C 124.34,95.1477 121.673,99.1477 119.5,103.5C 117.75,104.659 116.75,106.326 116.5,108.5C 116.672,109.492 116.338,110.158 115.5,110.5C 113.461,111.911 112.461,113.911 112.5,116.5C 110.925,118.645 109.591,120.978 108.5,123.5C 108.733,124.932 109.4,125.432 110.5,125C 113.276,119.734 116.61,114.9 120.5,110.5C 120.821,112.048 121.821,112.715 123.5,112.5C 123.5,113.5 123.5,114.5 123.5,115.5C 122.5,115.5 121.5,115.5 120.5,115.5C 117.909,116.254 116.076,117.921 115,120.5C 114.53,121.577 114.697,122.577 115.5,123.5C 116.768,124.787 116.435,125.787 114.5,126.5C 116.006,127.747 117.506,127.747 119,126.5C 119.507,127.996 119.007,129.163 117.5,130C 120.669,129.975 122.669,131.808 123.5,135.5C 121.181,135.992 119.181,136.992 117.5,138.5C 115.485,139.924 113.152,140.59 110.5,140.5C 108.027,140.088 106.694,141.088 106.5,143.5C 104.738,144.262 103.738,145.596 103.5,147.5C 103.167,148.167 102.833,148.833 102.5,149.5C 101.094,149.973 100.427,150.973 100.5,152.5C 98.5,153.833 96.8333,155.5 95.5,157.5C 92.8589,158.263 90.1922,158.43 87.5,158C 86.1059,157.044 85.4393,155.711 85.5,154C 87.6264,146.58 90.9598,139.747 95.5,133.5C 96.4909,126.677 97.1575,119.677 97.5,112.5C 98.1499,112.804 98.8165,113.137 99.5,113.5C 100.314,115.766 100.814,118.1 101,120.5C 102.938,119.14 104.604,119.473 106,121.5C 106.483,120.552 106.649,119.552 106.5,118.5C 105.448,118.649 104.448,118.483 103.5,118C 111.581,116.097 114.248,111.264 111.5,103.5C 112.832,102.17 113.665,100.503 114,98.5C 114.333,98.8333 114.667,99.1667 115,99.5C 117,98.8333 119,98.1667 121,97.5C 120.649,95.1141 120.815,92.7808 121.5,90.5C 123.851,90.6132 126.184,89.9465 128.5,88.5 Z"/></g>
<g><path style="opacity:0.031" fill="#e1dfde" d="M 139.5,125.5 C 139.027,126.906 138.027,127.573 136.5,127.5C 136.973,126.094 137.973,125.427 139.5,125.5 Z"/></g>
<g><path style="opacity:0.055" fill="#e0dddc" d="M 136.5,127.5 C 135.738,129.262 134.404,130.262 132.5,130.5C 133.262,128.738 134.596,127.738 136.5,127.5 Z"/></g>
<g><path style="opacity:0.363" fill="#c5c2be" d="M 69.5,142.5 C 69.3259,140.139 68.9926,137.806 68.5,135.5C 59.4754,134.334 50.4754,134.667 41.5,136.5C 40.1783,138.865 40.1783,141.198 41.5,143.5C 39.1104,143.315 38.1104,141.982 38.5,139.5C 38.3898,137.626 39.0564,136.126 40.5,135C 49.8462,133.461 59.1796,133.294 68.5,134.5C 70.4395,137.138 70.7728,139.804 69.5,142.5 Z"/></g>
<g><path style="opacity:0.09" fill="#cfcbc9" d="M 132.5,130.5 C 130.948,133.112 128.614,134.445 125.5,134.5C 127.336,132.412 129.669,131.079 132.5,130.5 Z"/></g>
<g><path style="opacity:0.004" fill="#dfdcdb" d="M 123.5,135.5 C 123.833,135.5 124.167,135.5 124.5,135.5C 122.824,137.834 120.491,138.834 117.5,138.5C 119.181,136.992 121.181,135.992 123.5,135.5 Z"/></g>
<g><path style="opacity:1" fill="#453629" d="M 33.5,98.5 C 32.7347,101.096 32.4013,103.763 32.5,106.5C 32.7373,107.791 32.404,108.791 31.5,109.5C 28.1091,117.882 26.7757,126.716 27.5,136C 27.6667,140.833 27.8333,145.667 28,150.5C 28.7568,152.315 29.5902,153.981 30.5,155.5C 30.3552,159.547 32.0219,162.547 35.5,164.5C 36.1667,164.5 36.5,164.833 36.5,165.5C 37.2495,167.246 38.5828,168.246 40.5,168.5C 45.0014,170.061 49.3348,169.728 53.5,167.5C 54.8333,164.5 56.1667,161.5 57.5,158.5C 60.5328,157.073 63.3661,157.406 66,159.5C 65.9296,162.992 66.7629,165.992 68.5,168.5C 71.1667,168.5 73.8333,168.5 76.5,168.5C 95.5,168.5 114.5,168.5 133.5,168.5C 111.673,169.497 89.673,169.831 67.5,169.5C 64.7359,166.843 61.5693,164.51 58,162.5C 56.3545,164.609 55.1878,166.943 54.5,169.5C 48.5227,170.747 42.5227,170.747 36.5,169.5C 36,168.5 35.5,167.5 35,166.5C 32.2562,168.064 31.4229,167.564 32.5,165C 29.8119,160.755 27.8119,156.255 26.5,151.5C 26.1609,146.803 25.4942,142.137 24.5,137.5C 25.1679,131.16 25.8346,124.827 26.5,118.5C 27.2829,115.491 27.9496,112.324 28.5,109C 30.3458,105.431 32.0125,101.931 33.5,98.5 Z"/></g>
<g><path style="opacity:0.204" fill="#cdcbc8" d="M 31.5,109.5 C 30.065,118.112 29.065,126.778 28.5,135.5C 28.7314,142.218 29.398,148.885 30.5,155.5C 29.5902,153.981 28.7568,152.315 28,150.5C 27.8333,145.667 27.6667,140.833 27.5,136C 26.7757,126.716 28.1091,117.882 31.5,109.5 Z"/></g>
<g><path style="opacity:0.09" fill="#cdcac8" d="M 142.5,138.5 C 143.117,138.611 143.617,138.944 144,139.5C 144.497,141.81 144.663,144.143 144.5,146.5C 143.629,143.997 142.963,141.33 142.5,138.5 Z"/></g>
<g><path style="opacity:0.027" fill="#e7e4e4" d="M 110.5,140.5 C 109.205,141.488 107.872,142.488 106.5,143.5C 106.694,141.088 108.027,140.088 110.5,140.5 Z"/></g>
<g><path style="opacity:1" fill="#42301c" d="M 22.5,111.5 C 22.3437,112.498 22.8437,113.498 24,114.5C 25.6665,113.66 25.8331,114.16 24.5,116C 25.0659,116.995 25.7326,117.828 26.5,118.5C 25.8346,124.827 25.1679,131.16 24.5,137.5C 25.4942,142.137 26.1609,146.803 26.5,151.5C 25.8485,150.909 25.1818,150.243 24.5,149.5C 23.3044,149.846 23.3044,150.346 24.5,151C 23.2068,151.49 21.8734,151.657 20.5,151.5C 20.0708,155.257 20.7375,158.757 22.5,162C 23.4491,162.617 24.2825,162.451 25,161.5C 25,163.5 25,165.5 25,167.5C 25.9078,169.439 27.4078,170.439 29.5,170.5C 29.5,171.833 29.5,173.167 29.5,174.5C 24.291,169.097 20.4577,162.763 18,155.5C 15.8434,141.98 16.01,128.647 18.5,115.5C 19.2216,115.918 19.7216,116.584 20,117.5C 20.8447,115.389 21.678,113.389 22.5,111.5 Z"/></g>
<g><path style="opacity:0.921" fill="#2c1f17" d="M 69.5,142.5 C 69.5,143.167 69.1667,143.5 68.5,143.5C 59.5301,144.808 50.5301,144.808 41.5,143.5C 40.1783,141.198 40.1783,138.865 41.5,136.5C 50.4754,134.667 59.4754,134.334 68.5,135.5C 68.9926,137.806 69.3259,140.139 69.5,142.5 Z"/></g>
<g><path style="opacity:1" fill="#402d1a" d="M 45.5,136.5 C 52.5079,136.334 59.5079,136.5 66.5,137C 67.4061,138.699 67.7394,140.533 67.5,142.5C 61.3709,142.451 55.2042,142.785 49,143.5C 47.1886,142.922 45.3553,142.422 43.5,142C 42.6198,140.644 42.2865,139.144 42.5,137.5C 43.791,137.737 44.791,137.404 45.5,136.5 Z"/></g>
<g><path style="opacity:1" fill="#3b2d21" d="M 142.5,138.5 C 142.963,141.33 143.629,143.997 144.5,146.5C 145.338,146.842 145.672,147.508 145.5,148.5C 149.298,149.483 153.298,149.817 157.5,149.5C 157.5,149.833 157.5,150.167 157.5,150.5C 152.821,150.666 148.155,150.499 143.5,150C 142.313,148.981 141.313,147.814 140.5,146.5C 141.025,145.808 141.692,145.308 142.5,145C 141.663,143.989 141.33,142.822 141.5,141.5C 140.167,141.5 138.833,141.5 137.5,141.5C 137.657,142.873 137.49,144.207 137,145.5C 136.026,143.122 135.359,143.456 135,146.5C 134.333,150.167 134.333,153.833 135,157.5C 140.063,156.139 145.23,155.639 150.5,156C 149.849,157.308 150.515,158.141 152.5,158.5C 155.076,158.722 155.91,160.055 155,162.5C 154.722,161.584 154.222,160.918 153.5,160.5C 150.863,159.147 148.03,158.481 145,158.5C 141.12,159.46 137.287,159.46 133.5,158.5C 132.337,152.863 132.17,147.196 133,141.5C 135.642,138.971 138.808,137.971 142.5,138.5 Z"/></g>
<g><path style="opacity:0.241" fill="#d5d2d0" d="M 41.5,143.5 C 50.5301,144.808 59.5301,144.808 68.5,143.5C 64.5549,144.825 60.2216,145.492 55.5,145.5C 51.1667,145.333 46.8333,145.167 42.5,145C 41.944,144.617 41.6107,144.117 41.5,143.5 Z"/></g>
<g><path style="opacity:0.008" fill="#e6e5e4" d="M 106.5,143.5 C 106.262,145.404 105.262,146.738 103.5,147.5C 103.738,145.596 104.738,144.262 106.5,143.5 Z"/></g>
<g><path style="opacity:1" fill="#422f19" d="M 97.5,129.5 C 98.8068,130.153 100.14,130.82 101.5,131.5C 102.869,129.876 104.536,129.376 106.5,130C 105.833,130.333 105.167,130.667 104.5,131C 105.667,131.5 106.5,132.333 107,133.5C 108,132.167 109,132.167 110,133.5C 110.617,132.551 110.451,131.718 109.5,131C 111.433,130.749 113.266,130.249 115,129.5C 115.5,130 116,130.5 116.5,131C 115.377,132.044 114.044,132.71 112.5,133C 115.003,133.129 117.003,134.129 118.5,136C 114.171,136.977 109.838,137.81 105.5,138.5C 105.647,141.943 103.98,143.943 100.5,144.5C 100.931,145.293 101.265,146.127 101.5,147C 99.6041,148.4 98.2707,150.233 97.5,152.5C 95.9291,153.309 94.2624,153.643 92.5,153.5C 92.6499,157.161 91.1499,158.161 88,156.5C 87.0248,150.026 89.0248,144.693 94,140.5C 95.9878,137.043 97.1544,133.377 97.5,129.5 Z"/></g>
<g><path style="opacity:1" fill="#3f2d16" d="M 157.5,150.5 C 155.083,150.713 153.083,152.213 151.5,155C 154.706,155.927 155.039,157.093 152.5,158.5C 150.515,158.141 149.849,157.308 150.5,156C 145.23,155.639 140.063,156.139 135,157.5C 134.333,153.833 134.333,150.167 135,146.5C 135.359,143.456 136.026,143.122 137,145.5C 137.49,144.207 137.657,142.873 137.5,141.5C 138.833,141.5 140.167,141.5 141.5,141.5C 141.33,142.822 141.663,143.989 142.5,145C 141.692,145.308 141.025,145.808 140.5,146.5C 141.313,147.814 142.313,148.981 143.5,150C 148.155,150.499 152.821,150.666 157.5,150.5 Z"/></g>
<g><path style="opacity:0.157" fill="#cfccc8" d="M 145.5,148.5 C 150.844,148.334 156.177,148.501 161.5,149C 163.819,150.147 165.152,151.981 165.5,154.5C 164.5,153.833 163.5,153.167 162.5,152.5C 161.599,150.273 159.933,149.273 157.5,149.5C 153.298,149.817 149.298,149.483 145.5,148.5 Z"/></g>
<g><path style="opacity:0.122" fill="#dad8d6" d="M 102.5,149.5 C 102.573,151.027 101.906,152.027 100.5,152.5C 100.427,150.973 101.094,149.973 102.5,149.5 Z"/></g>
<g><path style="opacity:1" fill="#412e17" d="M 26.5,151.5 C 27.8119,156.255 29.8119,160.755 32.5,165C 31.4229,167.564 32.2562,168.064 35,166.5C 35.5,167.5 36,168.5 36.5,169.5C 42.5227,170.747 48.5227,170.747 54.5,169.5C 54.4406,171.765 55.2739,172.098 57,170.5C 57.9454,170.905 58.6121,171.572 59,172.5C 59.3333,171.833 59.6667,171.167 60,170.5C 61.1563,171.502 61.6563,172.502 61.5,173.5C 61.67,174.822 61.3366,175.989 60.5,177C 61.1667,177.333 61.8333,177.667 62.5,178C 61.2068,178.49 59.8734,178.657 58.5,178.5C 58.5,177.5 58.5,176.5 58.5,175.5C 56.5714,175.769 54.9047,175.269 53.5,174C 54.549,173.508 55.549,173.674 56.5,174.5C 57.5827,173.635 57.7494,172.635 57,171.5C 52.9262,172.045 49.0929,173.379 45.5,175.5C 43.3821,174.054 41.0488,173.387 38.5,173.5C 38.5,174.5 38.5,175.5 38.5,176.5C 37.8485,177.091 37.1818,177.757 36.5,178.5C 34.1324,177.111 31.7991,175.778 29.5,174.5C 29.5,173.167 29.5,171.833 29.5,170.5C 27.4078,170.439 25.9078,169.439 25,167.5C 25,165.5 25,163.5 25,161.5C 24.2825,162.451 23.4491,162.617 22.5,162C 20.7375,158.757 20.0708,155.257 20.5,151.5C 21.8734,151.657 23.2068,151.49 24.5,151C 23.3044,150.346 23.3044,149.846 24.5,149.5C 25.1818,150.243 25.8485,150.909 26.5,151.5 Z"/></g>
<g><path style="opacity:0.016" fill="#e2e0de" d="M 100.5,152.5 C 99.8333,155.167 98.1667,156.833 95.5,157.5C 96.8333,155.5 98.5,153.833 100.5,152.5 Z"/></g>
<g><path style="opacity:0.012" fill="#dddbd7" d="M 30.5,155.5 C 31.8953,158.621 33.5619,161.621 35.5,164.5C 32.0219,162.547 30.3552,159.547 30.5,155.5 Z"/></g>
<g><path style="opacity:0.184" fill="#d1cecb" d="M 68.5,168.5 C 66.7629,165.992 65.9296,162.992 66,159.5C 63.3661,157.406 60.5328,157.073 57.5,158.5C 56.1667,161.5 54.8333,164.5 53.5,167.5C 49.3348,169.728 45.0014,170.061 40.5,168.5C 38.5828,168.246 37.2495,167.246 36.5,165.5C 41.2907,168.428 46.2907,168.928 51.5,167C 52.7958,164.239 53.9625,161.405 55,158.5C 65.099,154.139 69.599,157.472 68.5,168.5 Z"/></g>
<g><path style="opacity:1" fill="#3f2e17" d="M 157.5,149.5 C 159.933,149.273 161.599,150.273 162.5,152.5C 164.297,159.205 163.464,165.539 160,171.5C 152.919,175.21 151.419,174.043 155.5,168C 153.711,166.56 153.045,165.06 153.5,163.5C 153.5,162.5 153.5,161.5 153.5,160.5C 154.222,160.918 154.722,161.584 155,162.5C 155.91,160.055 155.076,158.722 152.5,158.5C 155.039,157.093 154.706,155.927 151.5,155C 153.083,152.213 155.083,150.713 157.5,150.5C 157.5,150.167 157.5,149.833 157.5,149.5 Z"/></g>
<g><path style="opacity:0.153" fill="#dad8d6" d="M 142.5,138.5 C 138.808,137.971 135.642,138.971 133,141.5C 132.17,147.196 132.337,152.863 133.5,158.5C 137.287,159.46 141.12,159.46 145,158.5C 148.03,158.481 150.863,159.147 153.5,160.5C 153.5,161.5 153.5,162.5 153.5,163.5C 151.293,166.067 148.627,167.733 145.5,168.5C 141.5,168.5 137.5,168.5 133.5,168.5C 114.5,168.5 95.5,168.5 76.5,168.5C 98.6629,167.668 120.996,167.168 143.5,167C 148.167,167.157 150.834,164.991 151.5,160.5C 146.557,158.941 141.724,159.274 137,161.5C 135.237,161.025 133.57,160.358 132,159.5C 131.169,152.808 131.336,146.142 132.5,139.5C 135.815,137.449 139.148,137.115 142.5,138.5 Z"/></g>
<g><path style="opacity:0.067" fill="#d2d0ce" d="M 165.5,164.5 C 165.818,167.481 164.818,169.815 162.5,171.5C 162.552,168.654 163.552,166.32 165.5,164.5 Z"/></g>
<g><path style="opacity:1" fill="#22110a" d="M 133.5,168.5 C 137.5,168.5 141.5,168.5 145.5,168.5C 147.667,168.631 147.834,168.964 146,169.5C 143.901,170.287 141.734,170.62 139.5,170.5C 131.167,170.5 122.833,170.5 114.5,170.5C 113.833,170.5 113.167,170.5 112.5,170.5C 107.5,170.5 102.5,170.5 97.5,170.5C 87.3194,170.827 77.3194,170.494 67.5,169.5C 89.673,169.831 111.673,169.497 133.5,168.5 Z"/></g>
<g><path style="opacity:1" fill="#453424" d="M 162.5,152.5 C 163.5,153.167 164.5,153.833 165.5,154.5C 166.833,157.833 166.833,161.167 165.5,164.5C 163.552,166.32 162.552,168.654 162.5,171.5C 159.474,174.195 156.474,176.862 153.5,179.5C 152.167,179.833 150.833,180.167 149.5,180.5C 149.158,179.662 148.492,179.328 147.5,179.5C 147.918,178.778 148.584,178.278 149.5,178C 148.833,177.667 148.167,177.333 147.5,177C 147.057,175.482 147.724,174.315 149.5,173.5C 148.624,172.749 147.624,172.249 146.5,172C 148.595,171.444 148.762,170.944 147,170.5C 145.968,172.145 144.801,172.478 143.5,171.5C 142.396,172.631 142.729,173.465 144.5,174C 143.376,174.249 142.376,174.749 141.5,175.5C 142.061,178.187 141.394,178.187 139.5,175.5C 140.167,174.5 140.833,173.5 141.5,172.5C 140.757,171.818 140.091,171.151 139.5,170.5C 141.734,170.62 143.901,170.287 146,169.5C 147.834,168.964 147.667,168.631 145.5,168.5C 148.627,167.733 151.293,166.067 153.5,163.5C 153.045,165.06 153.711,166.56 155.5,168C 151.419,174.043 152.919,175.21 160,171.5C 163.464,165.539 164.297,159.205 162.5,152.5 Z"/></g>
<g><path style="opacity:1" fill="#422f18" d="M 67.5,169.5 C 77.3194,170.494 87.3194,170.827 97.5,170.5C 94.9617,171.189 92.4617,172.189 90,173.5C 88.5272,173.097 87.1939,172.43 86,171.5C 85.51,172.793 85.3433,174.127 85.5,175.5C 83.3881,174.725 81.3881,174.725 79.5,175.5C 78.7387,174.609 77.7387,173.942 76.5,173.5C 75.4823,175.612 73.9823,177.279 72,178.5C 69.3844,177.385 66.8844,176.051 64.5,174.5C 63.914,174.709 63.414,175.043 63,175.5C 62.7216,174.584 62.2216,173.918 61.5,173.5C 61.6563,172.502 61.1563,171.502 60,170.5C 59.6667,171.167 59.3333,171.833 59,172.5C 58.6121,171.572 57.9454,170.905 57,170.5C 55.2739,172.098 54.4406,171.765 54.5,169.5C 55.1878,166.943 56.3545,164.609 58,162.5C 61.5693,164.51 64.7359,166.843 67.5,169.5 Z"/></g>
<g><path style="opacity:1" fill="#402c15" d="M 97.5,170.5 C 102.5,170.5 107.5,170.5 112.5,170.5C 112.852,173.073 112.352,175.406 111,177.5C 109.951,175.893 108.451,175.227 106.5,175.5C 106.649,174.448 106.483,173.448 106,172.5C 104.582,174.363 102.749,174.863 100.5,174C 104.511,173.834 105.011,173 102,171.5C 100.601,172.227 99.1012,172.727 97.5,173C 98.1667,173.333 98.8333,173.667 99.5,174C 96.7351,174.125 95.0684,174.958 94.5,176.5C 93.3527,176.182 92.5194,175.516 92,174.5C 90.8456,176.957 89.5123,176.957 88,174.5C 87.5172,175.448 87.3505,176.448 87.5,177.5C 90.2492,177.274 92.9159,177.607 95.5,178.5C 96.8333,177.5 98.1667,176.5 99.5,175.5C 100.598,176.615 101.765,176.615 103,175.5C 104.762,175.944 104.595,176.444 102.5,177C 102.833,177.333 103.167,177.667 103.5,178C 101.618,178.198 99.9516,178.698 98.5,179.5C 92.5,179.5 86.5,179.5 80.5,179.5C 80.5774,178.25 81.244,177.417 82.5,177C 81.2625,176.768 80.2625,176.268 79.5,175.5C 81.3881,174.725 83.3881,174.725 85.5,175.5C 85.3433,174.127 85.51,172.793 86,171.5C 87.1939,172.43 88.5272,173.097 90,173.5C 92.4617,172.189 94.9617,171.189 97.5,170.5 Z"/></g>
<g><path style="opacity:1" fill="#422f18" d="M 112.5,170.5 C 113.167,170.5 113.833,170.5 114.5,170.5C 116.369,171.165 118.369,171.831 120.5,172.5C 119.126,174.967 119.793,176.801 122.5,178C 120.618,178.198 118.952,178.698 117.5,179.5C 111.167,179.5 104.833,179.5 98.5,179.5C 99.9516,178.698 101.618,178.198 103.5,178C 103.167,177.667 102.833,177.333 102.5,177C 104.595,176.444 104.762,175.944 103,175.5C 101.765,176.615 100.598,176.615 99.5,175.5C 98.1667,176.5 96.8333,177.5 95.5,178.5C 92.9159,177.607 90.2492,177.274 87.5,177.5C 87.3505,176.448 87.5172,175.448 88,174.5C 89.5123,176.957 90.8456,176.957 92,174.5C 92.5194,175.516 93.3527,176.182 94.5,176.5C 95.0684,174.958 96.7351,174.125 99.5,174C 98.8333,173.667 98.1667,173.333 97.5,173C 99.1012,172.727 100.601,172.227 102,171.5C 105.011,173 104.511,173.834 100.5,174C 102.749,174.863 104.582,174.363 106,172.5C 106.483,173.448 106.649,174.448 106.5,175.5C 108.451,175.227 109.951,175.893 111,177.5C 112.352,175.406 112.852,173.073 112.5,170.5 Z"/></g>
<g><path style="opacity:1" fill="#422e17" d="M 114.5,170.5 C 122.833,170.5 131.167,170.5 139.5,170.5C 140.091,171.151 140.757,171.818 141.5,172.5C 140.833,173.5 140.167,174.5 139.5,175.5C 141.394,178.187 142.061,178.187 141.5,175.5C 142.376,174.749 143.376,174.249 144.5,174C 142.729,173.465 142.396,172.631 143.5,171.5C 144.801,172.478 145.968,172.145 147,170.5C 148.762,170.944 148.595,171.444 146.5,172C 147.624,172.249 148.624,172.749 149.5,173.5C 147.724,174.315 147.057,175.482 147.5,177C 148.167,177.333 148.833,177.667 149.5,178C 148.584,178.278 147.918,178.778 147.5,179.5C 137.5,179.5 127.5,179.5 117.5,179.5C 118.952,178.698 120.618,178.198 122.5,178C 119.793,176.801 119.126,174.967 120.5,172.5C 118.369,171.831 116.369,171.165 114.5,170.5 Z"/></g>
<g><path style="opacity:0.035" fill="#e0dedd" d="M 162.5,171.5 C 160.767,175.565 157.767,178.232 153.5,179.5C 156.474,176.862 159.474,174.195 162.5,171.5 Z"/></g>
<g><path style="opacity:1" fill="#433018" d="M 61.5,173.5 C 62.2216,173.918 62.7216,174.584 63,175.5C 63.414,175.043 63.914,174.709 64.5,174.5C 66.8844,176.051 69.3844,177.385 72,178.5C 73.9823,177.279 75.4823,175.612 76.5,173.5C 77.7387,173.942 78.7387,174.609 79.5,175.5C 80.2625,176.268 81.2625,176.768 82.5,177C 81.244,177.417 80.5774,178.25 80.5,179.5C 69.8281,179.667 59.1615,179.5 48.5,179C 49.938,178.781 51.2713,178.281 52.5,177.5C 47.7126,176.804 43.0459,176.47 38.5,176.5C 38.5,175.5 38.5,174.5 38.5,173.5C 41.0488,173.387 43.3821,174.054 45.5,175.5C 49.0929,173.379 52.9262,172.045 57,171.5C 57.7494,172.635 57.5827,173.635 56.5,174.5C 55.549,173.674 54.549,173.508 53.5,174C 54.9047,175.269 56.5714,175.769 58.5,175.5C 58.5,176.5 58.5,177.5 58.5,178.5C 59.8734,178.657 61.2068,178.49 62.5,178C 61.8333,177.667 61.1667,177.333 60.5,177C 61.3366,175.989 61.67,174.822 61.5,173.5 Z"/></g>
<g><path style="opacity:1" fill="#4a3828" d="M 29.5,174.5 C 31.7991,175.778 34.1324,177.111 36.5,178.5C 37.1818,177.757 37.8485,177.091 38.5,176.5C 43.0459,176.47 47.7126,176.804 52.5,177.5C 51.2713,178.281 49.938,178.781 48.5,179C 59.1615,179.5 69.8281,179.667 80.5,179.5C 86.5,179.5 92.5,179.5 98.5,179.5C 104.833,179.5 111.167,179.5 117.5,179.5C 127.5,179.5 137.5,179.5 147.5,179.5C 148.492,179.328 149.158,179.662 149.5,180.5C 112.573,181.493 75.5728,181.827 38.5,181.5C 34.9573,179.892 31.9573,177.558 29.5,174.5 Z"/></g>
<g><path style="opacity:0.171" fill="#dedbd8" d="M 153.5,179.5 C 152.653,180.966 151.32,181.8 149.5,182C 112.331,182.831 75.3311,182.664 38.5,181.5C 75.5728,181.827 112.573,181.493 149.5,180.5C 150.833,180.167 152.167,179.833 153.5,179.5 Z"/></g>
</svg>
