<?xml version="1.0" encoding="UTF-8"?>
<svg version="1.1" xmlns="http://www.w3.org/2000/svg" width="220" height="220">
<path d="M0 0 C0 0.66 0 1.32 0 2 C0.57878906 2.25523438 1.15757813 2.51046875 1.75390625 2.7734375 C8.56362746 6.49213743 13.41494703 13.28124965 17 20 C17.35835938 20.64066406 17.71671875 21.28132813 18.0859375 21.94140625 C24.78636776 35.21631883 25.57678412 50.47823107 21.34765625 64.484375 C19.6255425 68.97684566 17.32676085 72.75762306 14.5859375 76.6953125 C13.1754147 78.74508702 12.04784684 80.7486855 11 83 C13.19882856 85.19882856 15.31135187 85.9813108 18.140625 87.16796875 C26.73916135 91.01563313 32.49882667 97.93167616 36.17578125 106.43359375 C38.51191056 113.70770254 39.27878541 120.43829232 39.125 128.0625 C39.11597656 128.92810547 39.10695312 129.79371094 39.09765625 130.68554688 C39.07439723 132.79048779 39.03854008 134.89528342 39 137 C41.92406715 132.34031955 43.44446086 129.0652637 43.9375 123.5 C44.72986965 117.50555136 45.81163171 114.37874867 50 110 C55.80363174 106.44675608 60.27045386 105.87058565 67 106 C67 105.34 67 104.68 67 104 C68.32 103.67 69.64 103.34 71 103 C72.1875 105.6875 72.1875 105.6875 73 109 C71.66873553 111.92878184 70.26695035 113.73304965 68 116 C73.83589041 113.40627093 76.17261447 111.09791595 78.5625 105.3125 C80 102 80 102 82 101 C85.4375 100.6875 85.4375 100.6875 89 101 C91.56682865 103.37713231 91.98638926 104.90154898 92.46875 108.390625 C92.58157129 122.32405432 92.58157129 122.32405432 87 128 C82.30194161 132.37371545 78.2584767 134.38636866 72 136 C71.87882813 137.08796875 71.75765625 138.1759375 71.6328125 139.296875 C71.19928193 143.13941262 70.73809795 146.97810752 70.26464844 150.81591797 C70.04015405 152.66861797 69.83443204 154.52357755 69.6328125 156.37890625 C68.17752553 167.53115641 63.87059302 176.18955242 55.24609375 183.4765625 C50.43679559 186.73852125 45.77175035 187.84878682 40 187 C35.70993107 185.65169262 32.84363966 184.35525283 30.421875 180.46484375 C28.6676541 176.19013512 28.52478033 172.67249042 28.48828125 168.1015625 C28.47033005 167.26660248 28.45237885 166.43164246 28.43388367 165.57138062 C28.38000078 162.92263739 28.34595639 160.27407206 28.3125 157.625 C28.27930741 155.82158995 28.24481596 154.0182033 28.20898438 152.21484375 C28.12428725 147.81002466 28.05737166 143.4052563 28 139 C27.01 139 26.02 139 25 139 C25.00523682 139.93682617 25.01047363 140.87365234 25.01586914 141.83886719 C25.03308862 145.37256507 25.04553544 148.90621725 25.05493164 152.43994141 C25.05990685 153.95850333 25.06668941 155.4770606 25.07543945 156.99560547 C25.23054735 184.64130669 25.23054735 184.64130669 21 190 C14.65796407 192.53038627 8.35099016 192.2730597 1.6015625 192.23046875 C0.41202972 192.23001053 -0.77750305 192.22955231 -2.00308228 192.2290802 C-4.51280721 192.22606674 -7.02253043 192.21820769 -9.53222656 192.20581055 C-13.35488588 192.18759584 -17.17730186 192.18530082 -21 192.18554688 C-23.44531458 192.18062928 -25.89062752 192.17479992 -28.3359375 192.16796875 C-29.47058441 192.16685593 -30.60523132 192.1657431 -31.77426147 192.16459656 C-48.93698888 192.06301112 -48.93698888 192.06301112 -52 189 C-52.24529581 186.42420615 -52.37341793 183.94770993 -52.4140625 181.3671875 C-52.43342865 180.61535187 -52.4527948 179.86351624 -52.4727478 179.08889771 C-52.53259147 176.68438101 -52.57894726 174.27981656 -52.625 171.875 C-52.66317546 170.24607272 -52.70222693 168.61716572 -52.7421875 166.98828125 C-52.83829666 162.99235194 -52.92230941 158.99632813 -53 155 C-56.9455089 158.9455089 -55.36350312 172.06218127 -55.51757812 177.3984375 C-55.70318299 182.24517582 -55.9708538 186.50533207 -58 191 C-61.04728705 192.52364352 -64.22692706 192.16287318 -67.5703125 192.16796875 C-68.32537079 192.17129715 -69.08042908 192.17462555 -69.85836792 192.17805481 C-71.46058544 192.18312362 -73.06281353 192.18546315 -74.66503906 192.18530273 C-77.09458361 192.18747283 -79.52366183 192.20558286 -81.953125 192.22460938 C-83.51301929 192.22754675 -85.07291573 192.22952924 -86.6328125 192.23046875 C-87.35083038 192.23765427 -88.06884827 192.24483978 -88.80862427 192.25224304 C-93.83559318 192.22994686 -98.18396543 191.47935604 -103 190 C-108.83858695 183.55552195 -107.63192838 171.36654282 -107.3984375 163.21484375 C-106.75581288 150.52403086 -105.24730827 137.02204206 -101 125 C-100.67112053 123.0893669 -100.37952865 121.17195102 -100.125 119.25 C-98.28114794 107.78975028 -94.05193816 98.50363508 -84.54443359 91.54345703 C-78.03913737 86.99032048 -71.19855904 83.35200077 -64 80 C-63.31035156 79.59652344 -62.62070312 79.19304687 -61.91015625 78.77734375 C-60 78 -60 78 -57.97265625 78.1015625 C-55.26683727 79.3339157 -54.18692344 80.97946121 -52.4375 83.375 C-43.62424287 94.80443736 -33.1573467 105.77763344 -19 110 C-18.01 110 -17.02 110 -16 110 C-16.71542969 109.63390625 -17.43085937 109.2678125 -18.16796875 108.890625 C-27.04894041 104.06525877 -33.85390894 98.06421351 -41 91 C-41.48307617 90.52530273 -41.96615234 90.05060547 -42.46386719 89.56152344 C-45.33584827 86.73351145 -48.17246875 83.87233368 -51 81 C-54.31108566 77.64496392 -54.31108566 77.64496392 -57.78515625 74.46484375 C-59.94562178 71.85978081 -59.454211 69.13485171 -59.359375 65.88671875 C-58.70922682 60.66433282 -56.87027124 55.89354124 -55 51 C-54.69191406 50.16210938 -54.38382813 49.32421875 -54.06640625 48.4609375 C-53.3922234 46.63516002 -52.69867196 44.81654711 -52 43 C-52.5775 42.773125 -53.155 42.54625 -53.75 42.3125 C-56.7527084 40.5609201 -58.18551589 38.98093817 -60 36 C-61.29380634 27.37462439 -57.04112035 21.69055779 -52.125 14.9375 C-51.09535325 13.61554944 -50.0533381 12.30315178 -49 11 C-48.44183594 10.30648438 -47.88367188 9.61296875 -47.30859375 8.8984375 C-40.71833989 1.02551678 -34.06925644 -3.11486495 -24.1875 -5.75 C-14.91224944 -6.47747063 -8.00356801 -4.70491742 0 0 Z M-13.87890625 34.33984375 C-21.74199253 46.47198383 -25.18882407 59.58994589 -23 74 C-21.77165078 77.42577672 -20.30310013 80.1869277 -18 83 C-17.34 83 -16.68 83 -16 83 C-15.690625 84.051875 -15.690625 84.051875 -15.375 85.125 C-13.62699106 88.77992778 -11.26721936 91.58076124 -8 94 C-7.01 94 -6.02 94 -5 94 C-5.37833598 90.72108813 -6.26119062 89.71332737 -8.5625 87.1875 C-10.57773421 84.81453191 -11.07449309 83.72685868 -11.9375 80.5625 C-10.80766594 76.26913058 -9.95024417 76.02494747 -6.3125 73.75 C-5.00732422 73.06164062 -5.00732422 73.06164062 -3.67578125 72.359375 C1.2245965 68.03845798 3.52430202 62.2736369 4.45629883 55.85986328 C4.63149419 52.62011192 4.63457324 49.43079589 4.5625 46.1875 C4.57345703 45.09501953 4.58441406 44.00253906 4.59570312 42.87695312 C4.53958028 36.72963077 4.34901857 32.54386707 0 28 C-6.58928452 26.80194827 -9.85145887 29.32437394 -13.87890625 34.33984375 Z " fill="#43311E" transform="translate(118,20)"/>
<path d="M0 0 C2.56682865 2.37713231 2.98638926 3.90154898 3.46875 7.390625 C3.58157129 21.32405432 3.58157129 21.32405432 -2 27 C-6.69805839 31.37371545 -10.7415233 33.38636866 -17 35 C-17.18175781 36.63195312 -17.18175781 36.63195312 -17.3671875 38.296875 C-17.80071807 42.13941262 -18.26190205 45.97810752 -18.73535156 49.81591797 C-18.95984595 51.66861797 -19.16556796 53.52357755 -19.3671875 55.37890625 C-20.82247447 66.53115641 -25.12940698 75.18955242 -33.75390625 82.4765625 C-38.56320441 85.73852125 -43.22824965 86.84878682 -49 86 C-53.29006893 84.65169262 -56.15636034 83.35525283 -58.578125 79.46484375 C-60.3323459 75.19013512 -60.47521967 71.67249042 -60.51171875 67.1015625 C-60.52966995 66.26660248 -60.54762115 65.43164246 -60.56611633 64.57138062 C-60.61999922 61.92263739 -60.65404361 59.27407206 -60.6875 56.625 C-60.72069259 54.82158995 -60.75518404 53.0182033 -60.79101562 51.21484375 C-60.87571275 46.81002466 -60.94262834 42.4052563 -61 38 C-61.99 38 -62.98 38 -64 38 C-63.67 36.68 -63.34 35.36 -63 34 C-61.35 34.66 -59.7 35.32 -58 36 C-58 36.99 -58 37.98 -58 39 C-56.68 39 -55.36 39 -54 39 C-53.05489349 34.22946237 -52.84465086 29.59664883 -52.875 24.75 C-52.87790039 23.63153687 -52.87790039 23.63153687 -52.88085938 22.49047852 C-52.92418197 16.93977063 -53.30026732 11.51039485 -54 6 C-54.66 6 -55.32 6 -56 6 C-55.67 4.68 -55.34 3.36 -55 2 C-50.45225544 10.06191081 -49.69145619 17.96296282 -49.875 27.0625 C-49.88402344 27.92810547 -49.89304688 28.79371094 -49.90234375 29.68554688 C-49.92560277 31.79048779 -49.96145992 33.89528342 -50 36 C-47.07593285 31.34031955 -45.55553914 28.0652637 -45.0625 22.5 C-44.27013035 16.50555136 -43.18836829 13.37874867 -39 9 C-33.19636826 5.44675608 -28.72954614 4.87058565 -22 5 C-22 4.34 -22 3.68 -22 3 C-20.68 2.67 -19.36 2.34 -18 2 C-16.8125 4.6875 -16.8125 4.6875 -16 8 C-17.33126447 10.92878184 -18.73304965 12.73304965 -21 15 C-15.16410959 12.40627093 -12.82738553 10.09791595 -10.4375 4.3125 C-8.15558653 -0.94582233 -5.43610595 -0.4768514 0 0 Z " fill="#43311E" transform="translate(207,121)"/>
<path d="M0 0 C-0.03480469 0.556875 -0.06960937 1.11375 -0.10546875 1.6875 C-0.13253906 2.450625 -0.15960938 3.21375 -0.1875 4 C-0.22230469 4.7425 -0.25710937 5.485 -0.29296875 6.25 C0.46010877 13.31888764 3.94551459 18.77802119 8 24.4375 C14.39214448 33.75928166 17.35944068 41.44475421 16 53 C13.92616745 60.85093751 8.71262532 67.52491645 2 72 C-1.5625 72.25 -1.5625 72.25 -5 72 C-7 70 -7 70 -7.265625 67.94140625 C-7.26046875 67.15636719 -7.2553125 66.37132813 -7.25 65.5625 C-7.25515625 64.78003906 -7.2603125 63.99757813 -7.265625 63.19140625 C-7 61 -7 61 -5 58 C-4.5832448 54.95788569 -4.5832448 54.95788569 -5 52 C-5.99 51.34 -6.98 50.68 -8 50 C-8 50.66 -8 51.32 -8 52 C-8.474375 52.37125 -8.94875 52.7425 -9.4375 53.125 C-11.85462269 56.02554722 -12.03593746 59.34156664 -12 63 C-11.37400383 64.68236471 -10.71247732 66.3523962 -10 68 C-10.375 70.8125 -10.375 70.8125 -11 73 C-17.19360551 71.70966552 -21.29757894 69.20842936 -26 65 C-26.60714844 64.48050781 -27.21429688 63.96101563 -27.83984375 63.42578125 C-32.52674047 58.51832469 -32.79108228 53.01322041 -32.72851562 46.52050781 C-32.34484671 39.37231571 -29.89400771 34.0148512 -26 28 C-24.02 28 -22.04 28 -20 28 C-19.54625 28.969375 -19.0925 29.93875 -18.625 30.9375 C-17.34213779 34.07079582 -17.34213779 34.07079582 -15 35 C-15.28875 34.03320312 -15.5775 33.06640625 -15.875 32.0703125 C-21.06571035 14.13142071 -21.06571035 14.13142071 -17.3125 6.625 C-11.75758184 0.31941722 -8.32457577 -1.41360721 0 0 Z " fill="#433321" transform="translate(190,46)"/>
<path d="M0 0 C0 0.66 0 1.32 0 2 C0.57878906 2.25523438 1.15757813 2.51046875 1.75390625 2.7734375 C8.56362746 6.49213743 13.41494703 13.28124965 17 20 C17.53753906 20.96099609 17.53753906 20.96099609 18.0859375 21.94140625 C24.78636776 35.21631883 25.57678412 50.47823107 21.34765625 64.484375 C19.6255425 68.97684566 17.32676085 72.75762306 14.5859375 76.6953125 C13.1754147 78.74508702 12.04784684 80.7486855 11 83 C13.02108003 85.27261129 13.02108003 85.27261129 16.5625 86.5 C20 88 20 88 21 90 C19.56068883 89.54738642 18.12361001 89.08767021 16.6875 88.625 C15.88699219 88.36976562 15.08648437 88.11453125 14.26171875 87.8515625 C12 87 12 87 9 85 C8.5 82.25 8.5 82.25 9 79 C10.60118397 76.94720004 12.26776336 74.94348501 14 73 C14.85279338 70.78264561 14.85279338 70.78264561 15 69 C14.236875 69.226875 13.47375 69.45375 12.6875 69.6875 C11.800625 69.790625 10.91375 69.89375 10 70 C8.1875 68.5625 8.1875 68.5625 7 67 C1.95353157 68.29095704 -0.48888807 70.21169503 -4 74 C-7.62068966 77 -7.62068966 77 -10 77 C-9.76493462 82.7591018 -8.37425566 85.2851456 -4.27734375 89.32421875 C-3 91 -3 91 -3 95 C-5.5625 95.4375 -5.5625 95.4375 -9 95 C-12.93502276 91.98646991 -16.21877582 88.09003557 -19 84 C-18.505 83.01 -18.505 83.01 -18 82 C-15.00985313 84.89898386 -12.38606167 88.06405774 -9.71875 91.2578125 C-8.01680772 93.24620869 -8.01680772 93.24620869 -5 94 C-6.56127368 91.26777106 -8.04761196 88.94830701 -10.1875 86.625 C-12 84 -12 84 -12.8125 80.625 C-11.70145227 75.6680178 -9.17103948 74.17908407 -5.1640625 71.28515625 C-3 70 -3 70 -1 70 C-0.79503906 69.37351562 -0.59007813 68.74703125 -0.37890625 68.1015625 C-0.10949219 67.28429687 0.15992187 66.46703125 0.4375 65.625 C0.70433594 64.81289062 0.97117187 64.00078125 1.24609375 63.1640625 C2 61 2 61 3 59 C3.27037128 54.90141725 3.23163672 50.79398957 3.25 46.6875 C3.270625 45.54603516 3.29125 44.40457031 3.3125 43.22851562 C3.31765625 42.12572266 3.3228125 41.02292969 3.328125 39.88671875 C3.3374707 38.87826904 3.34681641 37.86981934 3.35644531 36.83081055 C2.93765692 33.50488495 2.05357171 31.63755246 0 29 C-3.41408529 28.16616698 -3.41408529 28.16616698 -7 29 C-9.74942433 30.91201326 -9.74942433 30.91201326 -12 34 C-12.495 34.62003906 -12.99 35.24007812 -13.5 35.87890625 C-21.96291647 47.36731536 -22.69149005 60.25588189 -23 74 C-23.33 74 -23.66 74 -24 74 C-24.33 66.08 -24.66 58.16 -25 50 C-24.01 49.505 -24.01 49.505 -23 49 C-22.1076033 47.20263763 -21.22262354 45.40096051 -20.38720703 43.57641602 C-13.85256487 29.36443618 -13.85256487 29.36443618 -7 26 C-3.63575338 25.22882599 -0.44663411 24.95056058 3 25 C3 24.01 3 23.02 3 22 C1.68 21.34 0.36 20.68 -1 20 C0.32 19.67 1.64 19.34 3 19 C3 18.34 3 17.68 3 17 C3 16.34 3 15.68 3 15 C3.66 14.67 4.32 14.34 5 14 C3.96341924 8.40246391 1.17047286 4.87586469 -3.109375 1.2109375 C-9.13224204 -2.64668395 -13.93191132 -3.42161993 -20.9375 -3.1875 C-21.71673828 -3.17396484 -22.49597656 -3.16042969 -23.29882812 -3.14648438 C-25.19952404 -3.11150224 -27.09985834 -3.05770959 -29 -3 C-21.55488574 -10.44511426 -7.51897558 -4.42004855 0 0 Z " fill="#4D3E2F" transform="translate(118,20)"/>
<path d="M0 0 C1.485 0.495 1.485 0.495 3 1 C2.2265625 1.47308594 1.453125 1.94617188 0.65625 2.43359375 C-12.14402881 10.56050344 -17.66565532 17.12493804 -21 32 C-21.5583565 34.25103182 -22.12055447 36.50111605 -22.6875 38.75 C-22.91824219 39.71421875 -23.14898438 40.6784375 -23.38671875 41.671875 C-24 44 -24 44 -25 46 C-30.22200455 74.92092679 -30.22200455 74.92092679 -25 103 C-11.14 103.33 2.72 103.66 17 104 C17.24903022 95.05567877 17.24903022 95.05567877 17.47802734 86.11083984 C17.5136377 84.98887207 17.54924805 83.8669043 17.5859375 82.7109375 C17.6173584 81.56931152 17.6487793 80.42768555 17.68115234 79.25146484 C18.00910846 75.907116 18.8165928 73.134991 20 70 C20.33 70 20.66 70 21 70 C20.90592956 74.02055525 20.79972181 78.04059488 20.68261719 82.06054688 C20.64450798 83.42601921 20.60962464 84.79158577 20.578125 86.15722656 C20.53208122 88.12847607 20.47318951 90.09941204 20.4140625 92.0703125 C20.3826416 93.25383301 20.3512207 94.43735352 20.31884766 95.65673828 C19.9929428 99.07399788 19.32244948 101.83634364 18 105 C14.95271295 106.52364352 11.77307294 106.16287318 8.4296875 106.16796875 C7.29710007 106.17296135 7.29710007 106.17296135 6.14163208 106.17805481 C4.53941456 106.18312362 2.93718647 106.18546315 1.33496094 106.18530273 C-1.09458361 106.18747283 -3.52366183 106.20558286 -5.953125 106.22460938 C-7.51301929 106.22754675 -9.07291573 106.22952924 -10.6328125 106.23046875 C-11.35083038 106.23765427 -12.06884827 106.24483978 -12.80862427 106.25224304 C-17.83559318 106.22994686 -22.18396543 105.47935604 -27 104 C-32.83858695 97.55552195 -31.63192838 85.36654282 -31.3984375 77.21484375 C-30.75581288 64.52403086 -29.24730827 51.02204206 -25 39 C-24.67112053 37.0893669 -24.37952865 35.17195102 -24.125 33.25 C-22.23204229 21.48453979 -17.77530897 12.28704522 -8.08374023 5.19165039 C-7.49923096 4.77778076 -6.91472168 4.36391113 -6.3125 3.9375 C-5.74152588 3.53072021 -5.17055176 3.12394043 -4.58227539 2.70483398 C-2.92578125 1.58984375 -2.92578125 1.58984375 0 0 Z " fill="#D6D4D3" transform="translate(42,106)"/>
<path d="M0 0 C1.06488041 3.47698788 1.12915361 6.68706239 1.1328125 10.3125 C1.13410156 11.55386719 1.13539063 12.79523438 1.13671875 14.07421875 C1.13285156 15.36972656 1.12898438 16.66523438 1.125 18 C1.12886719 19.26457031 1.13273437 20.52914062 1.13671875 21.83203125 C1.1120438 45.79141119 1.1120438 45.79141119 -3 51 C-9.34203593 53.53038627 -15.64900984 53.2730597 -22.3984375 53.23046875 C-24.18273666 53.22978142 -24.18273666 53.22978142 -26.00308228 53.2290802 C-28.51280721 53.22606674 -31.02253043 53.21820769 -33.53222656 53.20581055 C-37.35488588 53.18759584 -41.17730186 53.18530082 -45 53.18554688 C-47.44531458 53.18062928 -49.89062752 53.17479992 -52.3359375 53.16796875 C-53.47058441 53.16685593 -54.60523132 53.1657431 -55.77426147 53.16459656 C-72.93698888 53.06301112 -72.93698888 53.06301112 -76 50 C-76.24529581 47.42420615 -76.37341793 44.94770993 -76.4140625 42.3671875 C-76.43342865 41.61535187 -76.4527948 40.86351624 -76.4727478 40.08889771 C-76.53259147 37.68438101 -76.57894726 35.27981656 -76.625 32.875 C-76.66317546 31.24607272 -76.70222693 29.61716572 -76.7421875 27.98828125 C-76.83829666 23.99235194 -76.92230941 19.99632813 -77 16 C-77.66 16.33 -78.32 16.66 -79 17 C-78.67 15.68 -78.34 14.36 -78 13 C-75 14 -75 14 -74 16 C-73.85578207 18.46675841 -73.76606474 20.90999274 -73.71875 23.37890625 C-73.70034058 24.10617416 -73.68193115 24.83344208 -73.66296387 25.58274841 C-73.58416867 28.70011489 -73.51639957 31.81769883 -73.44775391 34.93530273 C-73.39614368 37.20828322 -73.33885834 39.48107119 -73.28125 41.75390625 C-73.26767456 42.46430557 -73.25409912 43.1747049 -73.2401123 43.90663147 C-73.43825689 47.2391776 -73.43825689 47.2391776 -72 50 C-69.99667574 50.10986014 -67.98945264 50.14912069 -65.9831543 50.16113281 C-64.69479172 50.17074036 -63.40642914 50.1803479 -62.07902527 50.19024658 C-60.66075822 50.19509468 -59.24248912 50.19937348 -57.82421875 50.203125 C-56.3779144 50.20887473 -54.93161008 50.21463248 -53.48530579 50.22039795 C-50.4479639 50.23091853 -47.41064857 50.23675389 -44.37329102 50.24023438 C-40.48255912 50.24571371 -36.59217815 50.26972486 -32.70155621 50.29820633 C-29.7118274 50.31684027 -26.72218286 50.32203875 -23.73240089 50.32357025 C-22.29827778 50.32659691 -20.86415616 50.33462593 -19.43008995 50.34775543 C-17.42180686 50.36482562 -15.41337957 50.36108946 -13.4050293 50.35644531 C-11.69080025 50.36191376 -11.69080025 50.36191376 -9.94194031 50.36749268 C-6.68716215 49.96092184 -5.32416141 49.27249996 -3 47 C-1.42149776 42.47706493 -1.79306374 37.32902204 -1.71875 32.578125 C-1.70034058 31.67753357 -1.68193115 30.77694214 -1.66296387 29.84906006 C-1.58442924 26.00544856 -1.51624463 22.16167281 -1.44775391 18.31787109 C-1.3961964 15.50869638 -1.33891629 12.69967986 -1.28125 9.890625 C-1.26767456 9.01464661 -1.25409912 8.13866821 -1.2401123 7.23614502 C-1.11289261 1.11289261 -1.11289261 1.11289261 0 0 Z " fill="#D2D1D0" transform="translate(142,159)"/>
<path d="M0 0 C3.15954305 2.54137159 4.71540886 4.14622659 6 8 C6.2856634 11.8491666 6.27777974 15.70392165 6.3125 19.5625 C6.34150391 20.60986328 6.37050781 21.65722656 6.40039062 22.73632812 C6.46866293 31.18633936 4.75479119 37.77598684 0.125 44.875 C-2.37637426 47.37637426 -4.95207208 49.21099883 -8 51 C-8.66 51 -9.32 51 -10 51 C-9.76493462 56.7591018 -8.37425566 59.2851456 -4.27734375 63.32421875 C-3 65 -3 65 -3 69 C-5.5625 69.4375 -5.5625 69.4375 -9 69 C-12.93502276 65.98646991 -16.21877582 62.09003557 -19 58 C-18.67 57.34 -18.34 56.68 -18 56 C-15.00985313 58.89898386 -12.38606167 62.06405774 -9.71875 65.2578125 C-8.01680772 67.24620869 -8.01680772 67.24620869 -5 68 C-6.56127368 65.26777106 -8.04761196 62.94830701 -10.1875 60.625 C-12 58 -12 58 -12.8125 54.625 C-11.70145227 49.6680178 -9.17103948 48.17908407 -5.1640625 45.28515625 C-3 44 -3 44 -1 44 C-0.79503906 43.37351563 -0.59007813 42.74703125 -0.37890625 42.1015625 C-0.10949219 41.28429687 0.15992187 40.46703125 0.4375 39.625 C0.70433594 38.81289062 0.97117187 38.00078125 1.24609375 37.1640625 C2 35 2 35 3 33 C3.27037128 28.90141725 3.23163672 24.79398957 3.25 20.6875 C3.270625 19.54603516 3.29125 18.40457031 3.3125 17.22851562 C3.31765625 16.12572266 3.3228125 15.02292969 3.328125 13.88671875 C3.3374707 12.87826904 3.34681641 11.86981934 3.35644531 10.83081055 C2.93765692 7.50488495 2.05357171 5.63755246 0 3 C-3.41408529 2.16616698 -3.41408529 2.16616698 -7 3 C-9.74942433 4.91201326 -9.74942433 4.91201326 -12 8 C-12.495 8.62003906 -12.99 9.24007812 -13.5 9.87890625 C-21.96291647 21.36731536 -22.69149005 34.25588189 -23 48 C-23.33 48 -23.66 48 -24 48 C-24.33 40.08 -24.66 32.16 -25 24 C-24.34 23.67 -23.68 23.34 -23 23 C-22.10752357 21.20247705 -21.22241746 19.40067249 -20.38647461 17.57617188 C-11.1498849 -2.52450224 -11.1498849 -2.52450224 0 0 Z " fill="#D5D4D3" transform="translate(118,46)"/>
<path d="M0 0 C3.875 0.875 3.875 0.875 5 2 C6.35806865 11.17188396 6.30126378 20.43572526 6.4296875 29.69140625 C6.460625 30.94308594 6.4915625 32.19476563 6.5234375 33.484375 C6.54325684 34.61584961 6.56307617 35.74732422 6.58349609 36.91308594 C7.04799963 40.35574876 7.8955877 42.25361576 10 45 C15.16906569 47.22979304 19.642312 47.42942269 25 46 C31.09128862 43.37444456 34.74273526 39.78958946 38 34 C39.2725151 30.72122119 40.16478552 27.41276381 41 24 C41.3901648 22.62338079 41.78526665 21.24814142 42.1875 19.875 C42.455625 18.92625 42.72375 17.9775 43 17 C43.33 17 43.66 17 44 17 C44.94666264 25.14129869 41.69678342 33.02670076 37.16796875 39.69921875 C32.68641409 45.04703053 27.9872934 49.0746233 21 50.37109375 C15.87804227 50.70121993 10.97665802 49.2977164 7 46 C3.86274164 40.96019634 3.53421292 36.85377071 3.48828125 31.1015625 C3.47033005 30.26660248 3.45237885 29.43164246 3.43388367 28.57138062 C3.38000078 25.92263739 3.34595639 23.27407206 3.3125 20.625 C3.27930741 18.82158995 3.24481596 17.0182033 3.20898438 15.21484375 C3.12428725 10.81002466 3.05737166 6.4052563 3 2 C2.01 2 1.02 2 0 2 C0 1.34 0 0.68 0 0 Z " fill="#D6D4D2" transform="translate(143,157)"/>
<path d="M0 0 C6.57087611 6.10152781 10.33976398 13.03401191 11.32421875 21.9296875 C11.70711018 32.30736554 8.56220925 38.78776485 1.68359375 46.37109375 C-1.11094337 49.07485704 -2.63372099 49.97429621 -6.5625 50.25 C-10 50 -10 50 -12 48 C-12.265625 45.94140625 -12.265625 45.94140625 -12.25 43.5625 C-12.25773438 42.38880859 -12.25773438 42.38880859 -12.265625 41.19140625 C-12 39 -12 39 -10 36 C-9.5832448 32.95788569 -9.5832448 32.95788569 -10 30 C-10.99 29.34 -11.98 28.68 -13 28 C-13 28.66 -13 29.32 -13 30 C-13.7115625 30.556875 -13.7115625 30.556875 -14.4375 31.125 C-16.8553555 34.0264266 -16.90774748 37.35247722 -17 41 C-16.64933615 43.85622487 -16.64933615 43.85622487 -16 46 C-18.67555523 43.32444477 -19.00799083 41.91609626 -19.375 38.0625 C-19.22873904 34.31543348 -18.32300849 32.01130731 -16 29 C-15.525625 28.38125 -15.05125 27.7625 -14.5625 27.125 C-13 26 -13 26 -10.875 26.25 C-9 27 -9 27 -8 28 C-7.90176063 29.66429051 -7.87026369 31.33281931 -7.875 33 C-7.87242187 33.9075 -7.86984375 34.815 -7.8671875 35.75 C-8 38 -8 38 -9 39 C-9.07148199 40.35243917 -9.08399454 41.70834367 -9.0625 43.0625 C-9.041875 44.361875 -9.02125 45.66125 -9 47 C-5.06473626 47.46848378 -3.3306259 47.20917148 0.0625 45.0625 C5.66258834 39.69882699 8.21241232 34.44361761 8.59350586 26.70068359 C8.68322984 20.25307636 8.58393988 14.65660625 4.4453125 9.3828125 C2.47573313 7.49840413 0.47667862 6.13219594 -2 5 C-1.34 3.35 -0.68 1.7 0 0 Z " fill="#E3E2E2" transform="translate(195,68)"/>
<path d="M0 0 C-0.6290625 0.3403125 -1.258125 0.680625 -1.90625 1.03125 C-13.26693552 7.46440927 -23.30009334 17.5590706 -28 30 C-28.5235859 34.97406607 -28.14440838 38.04037464 -25 42 C-24.01 42.33 -23.02 42.66 -22 43 C-20.78662757 47.90465601 -21.25056059 50.5143217 -23.375 55.0625 C-26.0500399 60.86838268 -27.13952472 65.41944859 -27.0625 71.8125 C-27.05347656 72.78832031 -27.04445312 73.76414062 -27.03515625 74.76953125 C-27.02355469 75.50558594 -27.01195312 76.24164063 -27 77 C-27.66 77 -28.32 77 -29 77 C-31.80200634 71.39598733 -30.06385717 64.51839485 -28.1875 58.875 C-27.474386 56.9107643 -26.74602778 54.95197234 -26 53 C-25.69191406 52.16210938 -25.38382813 51.32421875 -25.06640625 50.4609375 C-24.3922234 48.63516002 -23.69867196 46.81654711 -23 45 C-23.5775 44.773125 -24.155 44.54625 -24.75 44.3125 C-27.7527084 42.5609201 -29.18551589 40.98093817 -31 38 C-32.29380634 29.37462439 -28.04112035 23.69055779 -23.125 16.9375 C-22.09535325 15.61554944 -21.0533381 14.30315178 -20 13 C-19.44183594 12.30648438 -18.88367188 11.61296875 -18.30859375 10.8984375 C-7.1818265 -2.39394217 -7.1818265 -2.39394217 0 0 Z " fill="#CECCCB" transform="translate(89,18)"/>
<path d="M0 0 C0.33 0 0.66 0 1 0 C0.90592956 4.02055525 0.79972181 8.04059488 0.68261719 12.06054688 C0.64450798 13.42601921 0.60962464 14.79158577 0.578125 16.15722656 C0.53208122 18.12847607 0.47318951 20.09941204 0.4140625 22.0703125 C0.3826416 23.25383301 0.3512207 24.43735352 0.31884766 25.65673828 C-0.0070572 29.07399788 -0.67755052 31.83634364 -2 35 C-5.11954128 36.55977064 -8.42959384 36.12104126 -11.8515625 36.09765625 C-12.62559418 36.0962413 -13.39962585 36.09482635 -14.19711304 36.09336853 C-16.67311442 36.08776403 -19.14902588 36.07521083 -21.625 36.0625 C-23.30208203 36.05748558 -24.97916547 36.05292257 -26.65625 36.04882812 C-30.77086806 36.03779315 -34.88541878 36.02052554 -39 36 C-39.33 35.34 -39.66 34.68 -40 34 C-27.79 34 -15.58 34 -3 34 C-2.75096978 25.05567877 -2.75096978 25.05567877 -2.52197266 16.11083984 C-2.4863623 14.98887207 -2.45075195 13.8669043 -2.4140625 12.7109375 C-2.3826416 11.56931152 -2.3512207 10.42768555 -2.31884766 9.25146484 C-1.99089154 5.907116 -1.1834072 3.134991 0 0 Z " fill="#AEABAA" transform="translate(62,176)"/>
<path d="M0 0 C-0.01160156 0.56847656 -0.02320313 1.13695312 -0.03515625 1.72265625 C-0.09223194 6.60670484 0.18043228 11.18503965 1 16 C0.34 15.34 -0.32 14.68 -1 14 C-1 12.68 -1 11.36 -1 10 C-1.99 9.67 -2.98 9.34 -4 9 C-4 7.02 -4 5.04 -4 3 C-4.78375 3.165 -5.5675 3.33 -6.375 3.5 C-9 4 -9 4 -11 4 C-13.78308362 6.58429193 -15.70171098 8.36974714 -16.39453125 12.15625 C-16.46395308 15.84191784 -16.05145871 18.82632686 -15 22.375 C-13.64580138 27.28397001 -13.83532196 31.94072481 -14 37 C-15.32 36.67 -16.64 36.34 -18 36 C-18 35.01 -18 34.02 -18 33 C-17.01 33.66 -16.02 34.32 -15 35 C-15.28875 34.03320312 -15.5775 33.06640625 -15.875 32.0703125 C-21.06571035 14.13142071 -21.06571035 14.13142071 -17.3125 6.625 C-11.75758184 0.31941722 -8.32457577 -1.41360721 0 0 Z " fill="#D1CFCE" transform="translate(190,46)"/>
<path d="M0 0 C0.33 0 0.66 0 1 0 C1.08760181 4.18736668 1.14059435 8.37449531 1.1875 12.5625 C1.21263672 13.74392578 1.23777344 14.92535156 1.26367188 16.14257812 C1.33940729 25.15509209 0.40012605 31.23415247 -6 38 C-11.40540541 42 -11.40540541 42 -14 42 C-13.76493462 47.7591018 -12.37425566 50.2851456 -8.27734375 54.32421875 C-7 56 -7 56 -7 60 C-9.5625 60.4375 -9.5625 60.4375 -13 60 C-16.93502276 56.98646991 -20.21877582 53.09003557 -23 49 C-22.67 48.34 -22.34 47.68 -22 47 C-19.00985313 49.89898386 -16.38606167 53.06405774 -13.71875 56.2578125 C-12.01680772 58.24620869 -12.01680772 58.24620869 -9 59 C-10.56127368 56.26777106 -12.04761196 53.94830701 -14.1875 51.625 C-16 49 -16 49 -16.8125 45.625 C-15.70145227 40.6680178 -13.17103948 39.17908407 -9.1640625 36.28515625 C-7 35 -7 35 -5 35 C-4.79503906 34.37351563 -4.59007813 33.74703125 -4.37890625 33.1015625 C-4.10949219 32.28429687 -3.84007813 31.46703125 -3.5625 30.625 C-3.29566406 29.81289062 -3.02882813 29.00078125 -2.75390625 28.1640625 C-2 26 -2 26 -1 24 C-0.84693099 22.18828902 -0.75053339 20.3716206 -0.68359375 18.5546875 C-0.64169922 17.47832031 -0.59980469 16.40195313 -0.55664062 15.29296875 C-0.51732422 14.16503906 -0.47800781 13.03710938 -0.4375 11.875 C-0.39431641 10.73933594 -0.35113281 9.60367188 -0.30664062 8.43359375 C-0.2003396 5.62252232 -0.09830595 2.81136055 0 0 Z " fill="#D7D5D4" transform="translate(122,55)"/>
<path d="M0 0 C1.98 0 3.96 0 6 0 C6.33 1.65 6.66 3.3 7 5 C6.01 4.01 5.02 3.02 4 2 C1.50120014 2.9654454 0.25382727 3.53307147 -1.046875 5.92578125 C-3.43676176 14.0381191 -4.96080511 23.33130534 -1.5625 31.375 C1.17040269 35.97213274 5.41964181 39.33520476 10 42 C12.67317703 42.71520245 12.67317703 42.71520245 15 43 C15.33 42.01 15.66 41.02 16 40 C15.67 41.65 15.34 43.3 15 45 C8.80639449 43.70966552 4.70242106 41.20842936 0 37 C-0.60714844 36.48050781 -1.21429688 35.96101563 -1.83984375 35.42578125 C-6.52674047 30.51832469 -6.79108228 25.01322041 -6.72851562 18.52050781 C-6.34484671 11.37231571 -3.89400771 6.0148512 0 0 Z " fill="#D5D4D3" transform="translate(164,74)"/>
<path d="M0 0 C4.56289003 3.88548619 5.16175693 9.29529021 6 15 C6.33722576 21.33064728 6.17887837 27.66638083 6 34 C8.92406715 29.34031955 10.44446086 26.0652637 10.9375 20.5 C11.68222625 14.57635177 13.06935801 11.44783172 17 7 C17.66 7.33 18.32 7.66 19 8 C18.38125 8.80179688 17.7625 9.60359375 17.125 10.4296875 C14.05334914 15.03445987 13.51322358 20.18346856 12.578125 25.54296875 C11.69225498 30.11741826 11.02757515 33.1776462 7 36 C6.01 36 5.02 36 4 36 C3.96241577 35.07888428 3.96241577 35.07888428 3.92407227 34.13916016 C3.80654736 31.30097366 3.68454474 28.4629956 3.5625 25.625 C3.52318359 24.65949219 3.48386719 23.69398438 3.44335938 22.69921875 C3.17019178 16.43737688 2.69676872 10.22902691 2 4 C1.34 4 0.68 4 0 4 C0 2.68 0 1.36 0 0 Z " fill="#C6C4C3" transform="translate(151,123)"/>
<path d="M0 0 C0.66 0.33 1.32 0.66 2 1 C-0.96268577 10.13204319 -0.96268577 10.13204319 -5.0625 13.5625 C-9.63494197 15.80007799 -12.9393869 16.09548327 -18 16 C-18 15.34 -18 14.68 -18 14 C-16.25 12.88671875 -16.25 12.88671875 -14 11.6875 C-11.79856719 10.44659233 -11.79856719 10.44659233 -10 9 C-9.32845316 6.28341743 -9.32845316 6.28341743 -10 4 C-10.33 4.33 -10.66 4.66 -11 5 C-13.85227019 5.56344744 -16.69631608 6.08134945 -19.5625 6.5625 C-20.77196289 6.77036133 -20.77196289 6.77036133 -22.00585938 6.98242188 C-24.00329811 7.32517763 -26.00157472 7.66304388 -28 8 C-27 6 -27 6 -23.875 4.875 C-20.09941262 4.02244801 -16.85361088 3.84270976 -13 4 C-13 3.34 -13 2.68 -13 2 C-11.68 1.67 -10.36 1.34 -9 1 C-7.8125 3.6875 -7.8125 3.6875 -7 7 C-8.33126447 9.92878184 -9.73304965 11.73304965 -12 14 C-4.74375265 10.77500118 -2.85157849 7.06105149 0 0 Z " fill="#D7D5D3" transform="translate(198,122)"/>
<path d="M0 0 C3.3125 -0.25 3.3125 -0.25 7 0 C9.57671239 2.36939071 9.98638277 3.90150203 10.46875 7.390625 C10.58157129 21.32405432 10.58157129 21.32405432 5 27 C0.07555573 31.58447218 -3.28501222 33.08143206 -10 35 C-10.66 40.61 -11.32 46.22 -12 52 C-12.33 52 -12.66 52 -13 52 C-13.10349817 45.58311325 -12.74507544 39.37305598 -12 33 C-10.80375 32.566875 -9.6075 32.13375 -8.375 31.6875 C-1.26846178 28.96771377 3.16007112 26.73134943 7 20 C8.06924537 16.79226388 8.16684956 14.37015182 8.1875 11 C8.20876953 9.4221875 8.20876953 9.4221875 8.23046875 7.8125 C8.21180926 4.79241312 8.21180926 4.79241312 6 2 C2.93443402 1.26656572 2.93443402 1.26656572 0 1 C0 0.67 0 0.34 0 0 Z " fill="#D9D7D6" transform="translate(200,121)"/>
<path d="M0 0 C1.75390625 1.8984375 1.75390625 1.8984375 3.5625 4.375 C11.59918322 14.79734057 20.9910426 24.28275149 33 30 C32.01 30.495 32.01 30.495 31 31 C22.84007063 27.97780394 17.12410788 21.94615284 11 16 C10.12085937 15.16082031 9.24171875 14.32164063 8.3359375 13.45703125 C4.60111844 9.82561923 1.55755538 6.57332334 -1 2 C-5.7609549 2.47609549 -9.16187865 3.95144343 -13.265625 6.2578125 C-13.83796875 6.50273438 -14.4103125 6.74765625 -15 7 C-15.66 6.67 -16.32 6.34 -17 6 C-12.74838153 2.30294046 -5.65689546 -2.57235085 0 0 Z " fill="#D9D7D6" transform="translate(62,99)"/>
<path d="M0 0 C3.66531981 1.27406912 6.03695264 2.66014558 8.76953125 5.40625 C9.43017578 6.06753906 10.09082031 6.72882813 10.77148438 7.41015625 C11.78178711 8.44462891 11.78178711 8.44462891 12.8125 9.5 C13.50537109 10.18964844 14.19824219 10.87929687 14.91210938 11.58984375 C20 16.73287408 20 16.73287408 20 19 C20.57878906 19.25910156 21.15757813 19.51820312 21.75390625 19.78515625 C24.16823238 21.09099178 25.92129473 22.58099416 27.9375 24.4375 C30.80671864 27.01175224 33.57665878 29.18134998 37 31 C36.01 31.33 35.02 31.66 34 32 C21.3993902 25.30683544 8.7429476 11.15479521 0 0 Z " fill="#D9D8D7" transform="translate(62,95)"/>
<path d="M0 0 C-0.6290625 0.3403125 -1.258125 0.680625 -1.90625 1.03125 C-12.13897074 6.82568223 -18.661837 14.18710805 -25 24 C-25.63808594 24.96292969 -25.63808594 24.96292969 -26.2890625 25.9453125 C-28.82769053 30.01807546 -29.61737463 33.31283919 -30 38 C-30.33 38 -30.66 38 -31 38 C-31.93811186 27.68076952 -26.24925306 20.73134975 -20 13 C-19.44183594 12.30648438 -18.88367188 11.61296875 -18.30859375 10.8984375 C-7.1818265 -2.39394217 -7.1818265 -2.39394217 0 0 Z " fill="#DEDDDC" transform="translate(89,18)"/>
<path d="M0 0 C0.66 0.33 1.32 0.66 2 1 C2.2734375 3.30078125 2.2734375 3.30078125 2 6 C0.1015625 7.73046875 0.1015625 7.73046875 -2.375 9.1875 C-5.90461573 11.30976468 -5.90461573 11.30976468 -9 14 C-8.42415568 11.61435923 -7.77772405 9.33317216 -7 7 C-8.65 7 -10.3 7 -12 7 C-11.67 5.68 -11.34 4.36 -11 3 C-7.32589215 1.82428549 -3.83070817 1.92633254 0 2 C0 1.34 0 0.68 0 0 Z " fill="#3A2D21" transform="translate(187,125)"/>
<path d="M0 0 C0.33 0 0.66 0 1 0 C1 1.65 1 3.3 1 5 C0.01 5.495 0.01 5.495 -1 6 C-0.67 4.02 -0.34 2.04 0 0 Z M-10 1 C-7.525 1.99 -7.525 1.99 -5 3 C-5 3.99 -5 4.98 -5 6 C-3.68 6.33 -2.36 6.66 -1 7 C-1.66 7 -2.32 7 -3 7 C-2.67 10.96 -2.34 14.92 -2 19 C-2.33 19 -2.66 19 -3 19 C-3.33 26.92 -3.66 34.84 -4 43 C-4.33 43 -4.66 43 -5 43 C-5.02505615 42.16863525 -5.0501123 41.33727051 -5.07592773 40.48071289 C-5.17185531 37.35512698 -5.27103303 34.2296647 -5.37231445 31.10424805 C-5.43621405 29.10277877 -5.49646484 27.10119407 -5.55664062 25.09960938 C-5.80096722 15.00454574 -5.80096722 15.00454574 -7 5 C-7.99 4.34 -8.98 3.68 -10 3 C-10 2.34 -10 1.68 -10 1 Z " fill="#42362C" transform="translate(154,154)"/>
<path d="M0 0 C5.05462789 0.84801704 7.89211722 4.11514652 11 8 C11.9375 10.9375 11.9375 10.9375 12 13 C10.35 13 8.7 13 7 13 C6.67 11.68 6.34 10.36 6 9 C4.02 9.99 4.02 9.99 2 11 C2.33 12.65 2.66 14.3 3 16 C1.68 15.67 0.36 15.34 -1 15 C-1.1875 12.625 -1.1875 12.625 -1 10 C-0.01 9.34 0.98 8.68 2 8 C2.73343428 4.93443402 2.73343428 4.93443402 3 2 C2.01 1.67 1.02 1.34 0 1 C0 0.67 0 0.34 0 0 Z " fill="#746A61" transform="translate(139,110)"/>
<path d="M0 0 C0 0.66 0 1.32 0 2 C0.57363281 2.25007813 1.14726563 2.50015625 1.73828125 2.7578125 C4.31489181 4.17294576 6.10491296 5.80413484 8.1875 7.875 C8.88230469 8.55304687 9.57710937 9.23109375 10.29296875 9.9296875 C12.0254452 12.03086032 12.60055703 13.34102145 13 16 C12.38125 15.360625 11.7625 14.72125 11.125 14.0625 C0.28626879 2.34901569 0.28626879 2.34901569 -14.01464844 -3.11352539 C-15.05153809 -3.10567017 -15.05153809 -3.10567017 -16.109375 -3.09765625 C-17.24052734 -3.09282227 -17.24052734 -3.09282227 -18.39453125 -3.08789062 C-19.17183594 -3.07951172 -19.94914062 -3.07113281 -20.75 -3.0625 C-21.54277344 -3.05798828 -22.33554688 -3.05347656 -23.15234375 -3.04882812 C-25.10159508 -3.03708565 -27.05080738 -3.01915146 -29 -3 C-21.55488574 -10.44511426 -7.51897558 -4.42004855 0 0 Z " fill="#DFDEDD" transform="translate(118,20)"/>
<path d="M0 0 C6.57681452 6.10704206 10.4378464 13.09738718 11.2890625 22.03515625 C11.44737305 27.8422751 11.25508042 32.11737937 8 37 C7.67 36.34 7.34 35.68 7 35 C7.33 34.34 7.66 33.68 8 33 C9.1781147 20.50882035 9.1781147 20.50882035 4.4453125 9.3828125 C2.47573313 7.49840413 0.47667862 6.13219594 -2 5 C-1.34 3.35 -0.68 1.7 0 0 Z " fill="#C7C5C3" transform="translate(195,68)"/>
<path d="M0 0 C0.33 0 0.66 0 1 0 C1.94778047 8.15091205 -1.2597868 16.22021175 -6.0078125 22.76953125 C-8.82733043 25.989608 -11.43081132 28.62054088 -15 31 C-18.1875 31.125 -18.1875 31.125 -21 31 C-18 29 -18 29 -14.6875 27.375 C-8.60063767 23.87473245 -5.26498945 18.55674036 -3.25 11.9375 C-2.82093225 10.29485599 -2.40358597 8.6490897 -2 7 C-1.6098352 5.62338079 -1.21473335 4.24814142 -0.8125 2.875 C-0.544375 1.92625 -0.27625 0.9775 0 0 Z " fill="#CECCCB" transform="translate(186,174)"/>
<path d="M0 0 C0.33 0 0.66 0 1 0 C1.08760181 4.18736668 1.14059435 8.37449531 1.1875 12.5625 C1.21263672 13.74392578 1.23777344 14.92535156 1.26367188 16.14257812 C1.33946515 25.1619775 0.40156866 31.22186848 -6 38 C-8.5625 39.875 -8.5625 39.875 -11 41 C-11.99 40.67 -12.98 40.34 -14 40 C-12.87926138 39.16094435 -11.75325453 38.32892169 -10.625 37.5 C-9.99851562 37.0359375 -9.37203125 36.571875 -8.7265625 36.09375 C-7 35 -7 35 -5 35 C-4.69255859 34.06027344 -4.69255859 34.06027344 -4.37890625 33.1015625 C-4.10949219 32.28429687 -3.84007813 31.46703125 -3.5625 30.625 C-3.16224609 29.40683594 -3.16224609 29.40683594 -2.75390625 28.1640625 C-2 26 -2 26 -1 24 C-0.84693099 22.18828902 -0.75053339 20.3716206 -0.68359375 18.5546875 C-0.64169922 17.47832031 -0.59980469 16.40195313 -0.55664062 15.29296875 C-0.51732422 14.16503906 -0.47800781 13.03710938 -0.4375 11.875 C-0.39431641 10.73933594 -0.35113281 9.60367188 -0.30664062 8.43359375 C-0.2003396 5.62252232 -0.09830595 2.81136055 0 0 Z " fill="#E1E0DF" transform="translate(122,55)"/>
<path d="M0 0 C2.31 0.33 4.62 0.66 7 1 C6.98839844 1.56847656 6.97679687 2.13695312 6.96484375 2.72265625 C6.90776806 7.60670484 7.18043228 12.18503965 8 17 C7.34 16.34 6.68 15.68 6 15 C6 13.68 6 12.36 6 11 C5.01 10.67 4.02 10.34 3 10 C3 8.02 3 6.04 3 4 C1.35 4.33 -0.3 4.66 -2 5 C-1.34 3.35 -0.68 1.7 0 0 Z " fill="#948E8C" transform="translate(183,45)"/>
<path d="M0 0 C4.51659916 0.62297919 5.83868661 1.97613306 8.625 5.5 C9.6644775 8.6184325 9.73994838 10.77475586 9.72265625 14.04296875 C9.71943359 15.11611328 9.71621094 16.18925781 9.71289062 17.29492188 C9.70451172 18.41447266 9.69613281 19.53402344 9.6875 20.6875 C9.68298828 21.81865234 9.67847656 22.94980469 9.67382812 24.11523438 C9.66203498 26.91020927 9.6455765 29.7050782 9.625 32.5 C9.295 32.5 8.965 32.5 8.625 32.5 C8.61098145 31.50202393 8.61098145 31.50202393 8.59667969 30.48388672 C8.54273981 27.44685981 8.45913938 24.41133421 8.375 21.375 C8.36082031 20.32828125 8.34664062 19.2815625 8.33203125 18.203125 C8.07620722 10.02945702 8.07620722 10.02945702 3.625 3.5 C1.05056328 2.78038491 1.05056328 2.78038491 -1.625 3.125 C-2.51703125 3.17914063 -3.4090625 3.23328125 -4.328125 3.2890625 C-5.00359375 3.35867187 -5.6790625 3.42828125 -6.375 3.5 C-4.11579325 0.92587353 -3.5878254 0.53152969 0 0 Z " fill="#BBB8B6" transform="translate(114.375,45.5)"/>
<path d="M0 0 C1.32 0 2.64 0 4 0 C4 1.65 4 3.3 4 5 C3.01 5.495 3.01 5.495 2 6 C2.33 8.31 2.66 10.62 3 13 C2.01 13.495 2.01 13.495 1 14 C0.68758629 16.54941373 0.48696579 19.00361513 0.375 21.5625 C0.33632812 22.27341797 0.29765625 22.98433594 0.2578125 23.71679688 C0.16328217 25.47742425 0.08054183 27.23867728 0 29 C-0.33 29 -0.66 29 -1 29 C-1.02903892 24.91668161 -1.04681189 20.8333898 -1.0625 16.75 C-1.07087891 15.59113281 -1.07925781 14.43226563 -1.08789062 13.23828125 C-1.09111328 12.12324219 -1.09433594 11.00820312 -1.09765625 9.859375 C-1.10289307 8.83295898 -1.10812988 7.80654297 -1.11352539 6.74902344 C-1.01336951 4.32374344 -0.69923078 2.31302639 0 0 Z " fill="#312315" transform="translate(15,165)"/>
<path d="M0 0 C1 3 1 3 -0.07421875 5.3046875 C-0.60660156 6.15289062 -1.13898438 7.00109375 -1.6875 7.875 C-2.24050781 8.75671875 -2.79351562 9.6384375 -3.36328125 10.546875 C-5.10600348 13.15887873 -6.94293669 15.62646542 -9 18 C-8.4818964 19.9648239 -8.4818964 19.9648239 -7 22 C-4.69034152 23.05352843 -2.3570226 24.05719096 0 25 C0.33 25.66 0.66 26.32 1 27 C-0.43931117 26.54738642 -1.87638999 26.08767021 -3.3125 25.625 C-4.11300781 25.36976562 -4.91351563 25.11453125 -5.73828125 24.8515625 C-8 24 -8 24 -11 22 C-11.5625 19.3125 -11.5625 19.3125 -11 16 C-9.68425479 14.16672835 -8.21655039 12.58585267 -6.66796875 10.9453125 C-3.8478823 7.65631238 -1.96771871 3.83966351 0 0 Z " fill="#D5D3D2" transform="translate(138,83)"/>
<path d="M0 0 C0.33 0 0.66 0 1 0 C1.06058594 1.29035156 1.12117187 2.58070313 1.18359375 3.91015625 C1.26805881 5.62761255 1.35270377 7.34506002 1.4375 9.0625 C1.47681641 9.91005859 1.51613281 10.75761719 1.55664062 11.63085938 C1.7820102 21.18889959 1.7820102 21.18889959 5 30 C6.65 30 8.3 30 10 30 C10 30.66 10 31.32 10 32 C6.6875 31.9375 6.6875 31.9375 3 31 C-0.81051921 24.83388709 -0.35101046 18.62699033 -0.1875 11.5625 C-0.17396484 10.44939453 -0.16042969 9.33628906 -0.14648438 8.18945312 C-0.11132997 5.45912788 -0.06212106 2.72982256 0 0 Z " fill="#C4C1BF" transform="translate(12,179)"/>
<path d="M0 0 C2.86724686 0.57344937 3.8614515 0.8614515 6 3 C6 3.99 6 4.98 6 6 C-1.42455611 7.78739314 -5.54521713 5.82260707 -12 2 C-8.42619658 0.80873219 -6.49116698 1.2650555 -2.8125 1.9375 C-1.72582031 2.13214844 -0.63914062 2.32679688 0.48046875 2.52734375 C1.31191406 2.68332031 2.14335938 2.83929688 3 3 C2.01 2.01 1.02 1.02 0 0 Z " fill="#88827E" transform="translate(99,127)"/>
<path d="M0 0 C1.875 0.75 1.875 0.75 2.875 1.75 C2.94705511 3.43608966 2.95886068 5.12500659 2.9375 6.8125 C2.92847656 7.73160156 2.91945312 8.65070313 2.91015625 9.59765625 C2.89855469 10.30792969 2.88695312 11.01820312 2.875 11.75 C2.545 11.75 2.215 11.75 1.875 11.75 C1.63085938 8.72265625 1.63085938 8.72265625 1.38671875 5.6953125 C1.00106964 3.35480784 1.00106964 3.35480784 -2.125 1.75 C-2.125 2.41 -2.125 3.07 -2.125 3.75 C-2.8365625 4.306875 -2.8365625 4.306875 -3.5625 4.875 C-5.9803555 7.7764266 -6.03274748 11.10247722 -6.125 14.75 C-5.77433615 17.60622487 -5.77433615 17.60622487 -5.125 19.75 C-7.80055523 17.07444477 -8.13299083 15.66609626 -8.5 11.8125 C-8.35373904 8.06543348 -7.44800849 5.76130731 -5.125 2.75 C-4.4134375 1.821875 -4.4134375 1.821875 -3.6875 0.875 C-2.125 -0.25 -2.125 -0.25 0 0 Z " fill="#DFDDDC" transform="translate(184.125,94.25)"/>
<path d="M0 0 C1.4540625 0.0309375 1.4540625 0.0309375 2.9375 0.0625 C3.5975 1.3825 4.2575 2.7025 4.9375 4.0625 C4.2775 4.0625 3.6175 4.0625 2.9375 4.0625 C2.2775 4.7225 1.6175 5.3825 0.9375 6.0625 C-1.0625 6.75 -1.0625 6.75 -3.0625 7.0625 C-3.7225 6.7325 -4.3825 6.4025 -5.0625 6.0625 C-3.98897059 0.08140756 -3.98897059 0.08140756 0 0 Z " fill="#473C30" transform="translate(203.0625,121.9375)"/>
<path d="M0 0 C3 1 3 1 4 3 C4.08649451 5.48099734 4.11565054 7.93344928 4.09765625 10.4140625 C4.0962413 11.14370209 4.09482635 11.87334167 4.09336853 12.62509155 C4.08776531 14.95843585 4.07521235 17.29168464 4.0625 19.625 C4.05748541 21.20572778 4.05292243 22.78645707 4.04882812 24.3671875 C4.03779484 28.24482854 4.02052811 32.12239807 4 36 C3.67 36 3.34 36 3 36 C2.97494385 35.0713916 2.9498877 34.1427832 2.92407227 33.18603516 C2.82902068 29.74564196 2.72978293 26.30542287 2.62768555 22.86523438 C2.58433411 21.37537359 2.54265916 19.88546305 2.50268555 18.39550781 C2.44498785 16.25570673 2.38129245 14.11615615 2.31640625 11.9765625 C2.27974854 10.68830566 2.24309082 9.40004883 2.20532227 8.07275391 C2.20469325 5.0872318 2.20469325 5.0872318 1 3 C0.01 3.495 0.01 3.495 -1 4 C-0.67 2.68 -0.34 1.36 0 0 Z " fill="#BDBAB7" transform="translate(64,172)"/>
<path d="M0 0 C0.99 0.33 1.98 0.66 3 1 C3.80967438 3.91482778 4.21845993 5.46113217 3.0625 8.3125 C2.5365625 9.1478125 2.5365625 9.1478125 2 10 C0.768606 7.53721199 0.92840804 5.7204945 1 3 C0.67 3.33 0.34 3.66 0 4 C-2.85227019 4.56344744 -5.69631608 5.08134945 -8.5625 5.5625 C-9.77196289 5.77036133 -9.77196289 5.77036133 -11.00585938 5.98242188 C-13.00329811 6.32517763 -15.00157472 6.66304388 -17 7 C-16 5 -16 5 -12.875 3.875 C-9.09941262 3.02244801 -5.85361088 2.84270976 -2 3 C-2 2.34 -2 1.68 -2 1 C-1.34 0.67 -0.68 0.34 0 0 Z " fill="#DBD9D8" transform="translate(187,123)"/>
<path d="M0 0 C0.66 0.33 1.32 0.66 2 1 C0.95125002 3.62187494 0.35068687 4.79371361 -2.125 6.25 C-2.74375 6.4975 -3.3625 6.745 -4 7 C-4 7.99 -4 8.98 -4 10 C-4.99 10 -5.98 10 -7 10 C-7.103125 10.639375 -7.20625 11.27875 -7.3125 11.9375 C-7.539375 12.618125 -7.76625 13.29875 -8 14 C-8.99 14.33 -9.98 14.66 -11 15 C-9.2645544 8.82952674 -4.42122925 4.42122925 0 0 Z " fill="#443932" transform="translate(34,113)"/>
<path d="M0 0 C0 0.66 0 1.32 0 2 C-1.65 2.33 -3.3 2.66 -5 3 C-5.33 3.99 -5.66 4.98 -6 6 C-6.33 5.34 -6.66 4.68 -7 4 C-7.928125 4.309375 -7.928125 4.309375 -8.875 4.625 C-9.57625 4.74875 -10.2775 4.8725 -11 5 C-11.66 4.34 -12.32 3.68 -13 3 C-4.738041 -1.77676538 -4.738041 -1.77676538 0 0 Z " fill="#4A3F35" transform="translate(62,101)"/>
<path d="M0 0 C2.56687367 3.8503105 1.83288724 5.58569763 1 10 C1.61875 10.309375 2.2375 10.61875 2.875 10.9375 C4.25 11.625 5.625 12.3125 7 13 C6.67 13.66 6.34 14.32 6 15 C2.17559618 13.49755564 0.16527042 11.47989889 -2 8 C-2.25 4.1875 -2.25 4.1875 -2 1 C-1.34 0.67 -0.68 0.34 0 0 Z " fill="#463A30" transform="translate(110,96)"/>
<path d="M0 0 C0.66 0.33 1.32 0.66 2 1 C1.67 2.65 1.34 4.3 1 6 C0.34 6 -0.32 6 -1 6 C-1 6.99 -1 7.98 -1 9 C-1.66 9 -2.32 9 -3 9 C-3 11.31 -3 13.62 -3 16 C-5.13586678 12.79619983 -5.23132175 11.98060033 -5.125 8.3125 C-5.10695312 7.50425781 -5.08890625 6.69601563 -5.0703125 5.86328125 C-5.04710937 5.24839844 -5.02390625 4.63351563 -5 4 C-4.01 3.67 -3.02 3.34 -2 3 C-1.67 3.33 -1.34 3.66 -1 4 C-0.67 2.68 -0.34 1.36 0 0 Z " fill="#35261B" transform="translate(178,52)"/>
<path d="M0 0 C0.33 0 0.66 0 1 0 C1 10.23 1 20.46 1 31 C2.32 31.66 3.64 32.32 5 33 C3.515 33.495 3.515 33.495 2 34 C0 32 0 32 -0.22705078 28.83544922 C-0.22673389 27.49182037 -0.21542181 26.1481659 -0.1953125 24.8046875 C-0.1924826 24.09724396 -0.18965271 23.38980042 -0.18673706 22.66091919 C-0.17553137 20.3987749 -0.15042679 18.13702485 -0.125 15.875 C-0.11497067 14.34245363 -0.10584474 12.80990106 -0.09765625 11.27734375 C-0.07559086 7.51807699 -0.04105896 3.75910536 0 0 Z " fill="#F3F2F2" transform="translate(66,177)"/>
<path d="M0 0 C0 2.96530268 -0.45149229 4.41635508 -1.5 7.125 C-3.81369014 13.83688412 -3.41603547 20.09682709 -2 27 C-4 26 -4 26 -5 23 C-5.54309955 15.36527364 -5.39527774 8.92114309 -2 2 C-1.34 1.34 -0.68 0.68 0 0 Z " fill="#2B221C" transform="translate(165,78)"/>
<path d="M0 0 C0.33 0 0.66 0 1 0 C1.33 4.62 1.66 9.24 2 14 C2.33 14 2.66 14 3 14 C3.05422947 15.4370809 3.09289723 16.87475462 3.125 18.3125 C3.14820313 19.11300781 3.17140625 19.91351563 3.1953125 20.73828125 C3 23 3 23 1 26 C0.0197752 20.31160882 -0.11948801 14.82705667 -0.0625 9.0625 C-0.05573242 7.75055664 -0.05573242 7.75055664 -0.04882812 6.41210938 C-0.03714834 4.27470953 -0.01921689 2.13734537 0 0 Z " fill="#3D3129" transform="translate(13,179)"/>
<path d="M0 0 C0.66 0.33 1.32 0.66 2 1 C2 2.65 2 4.3 2 6 C-0.9154476 6 -3.34154481 5.59136731 -6.1875 5 C-7.08855469 4.814375 -7.98960937 4.62875 -8.91796875 4.4375 C-9.60503906 4.293125 -10.29210937 4.14875 -11 4 C-7.20960634 1.87000003 -4.34263862 1.83297544 0 2 C0 1.34 0 0.68 0 0 Z " fill="#4C4540" transform="translate(187,125)"/>
<path d="M0 0 C4.17935777 1.37829884 6.66524027 3.25918564 9.75 6.375 C10.52859375 7.14585938 11.3071875 7.91671875 12.109375 8.7109375 C13.94259986 10.93050313 14.61537643 12.19224793 15 15 C14.38125 14.360625 13.7625 13.72125 13.125 13.0625 C9.5806068 9.49755959 5.7808117 6.21402959 2.01171875 2.890625 C1.34785156 2.26671875 0.68398437 1.6428125 0 1 C0 0.67 0 0.34 0 0 Z " fill="#C5C2C1" transform="translate(116,21)"/>
<path d="M0 0 C1.65 0.33 3.3 0.66 5 1 C5.33 1.99 5.66 2.98 6 4 C5.01 4.495 5.01 4.495 4 5 C4.33 5.66 4.66 6.32 5 7 C1.625 7.625 1.625 7.625 -2 8 C-2.66 7.34 -3.32 6.68 -4 6 C-2.68 6 -1.36 6 0 6 C0 4.02 0 2.04 0 0 Z " fill="#37291B" transform="translate(162,197)"/>
<path d="M0 0 C3.85593074 1.58561638 6.33216291 4.06509954 9.25 7 C10.14203125 7.886875 11.0340625 8.77375 11.953125 9.6875 C14 12 14 12 14 14 C10.27382578 12.75794193 8.60708543 10.8889325 6 8 C6 7.34 6 6.68 6 6 C5.38125 5.7525 4.7625 5.505 4.125 5.25 C1.64931313 3.79371361 1.04874998 2.62187494 0 0 Z " fill="#362D27" transform="translate(66,109)"/>
<path d="M0 0 C-0.33 8.25 -0.66 16.5 -1 25 C-1.33 25 -1.66 25 -2 25 C-2.33 17.08 -2.66 9.16 -3 1 C-1 0 -1 0 0 0 Z " fill="#ABA9A7" transform="translate(96,69)"/>
<path d="M0 0 C0.66 1.32 1.32 2.64 2 4 C-0.1875 6.5625 -0.1875 6.5625 -3 9 C-5.8125 8.8125 -5.8125 8.8125 -8 8 C-5.33333333 5.33333333 -2.66666667 2.66666667 0 0 Z " fill="#45372D" transform="translate(119,88)"/>
<path d="M0 0 C0.66 0.33 1.32 0.66 2 1 C2.21917317 3.70313576 2.32851983 5.43958382 0.9375 7.8125 C-1.99268751 9.60842137 -4.6472953 9.18977574 -8 9 C-8 8.34 -8 7.68 -8 7 C-7.05125 6.773125 -6.1025 6.54625 -5.125 6.3125 C-1.80676612 5.30916286 -1.80676612 5.30916286 -0.625 2.375 C-0.41875 1.59125 -0.2125 0.8075 0 0 Z " fill="#463B2D" transform="translate(138,200)"/>
<path d="M0 0 C0.33 0.66 0.66 1.32 1 2 C1.66 2.33 2.32 2.66 3 3 C2.01 3.33 1.02 3.66 0 4 C0 5.65 0 7.3 0 9 C-2 7.625 -2 7.625 -4 6 C-4 5.34 -4 4.68 -4 4 C-5.32 3.67 -6.64 3.34 -8 3 C-5.36095629 1.58622659 -2.92879371 0.62759865 0 0 Z " fill="#463627" transform="translate(71,57)"/>
<path d="M0 0 C1.67542976 0.28604898 3.34385343 0.61781233 5 1 C4 4 4 4 2 5 C0.45976004 5.06950541 -1.08334988 5.08452357 -2.625 5.0625 C-3.85089844 5.04896484 -3.85089844 5.04896484 -5.1015625 5.03515625 C-6.04128906 5.01775391 -6.04128906 5.01775391 -7 5 C-5 3.66666667 -3 2.33333333 -1 1 C-0.67 0.67 -0.34 0.34 0 0 Z " fill="#382819" transform="translate(117,41)"/>
<path d="M0 0 C0.50789063 0.38671875 1.01578125 0.7734375 1.5390625 1.171875 C5.61331983 4.25427193 9.71647931 7.21571155 14 10 C13.01 10.33 12.02 10.66 11 11 C9.0625 9.85546875 9.0625 9.85546875 7 8.1875 C4.69617671 6.35054999 2.45723941 4.63815961 0 3 C0 2.01 0 1.02 0 0 Z " fill="#DFDDDD" transform="translate(85,116)"/>
<path d="M0 0 C1.485 0.99 1.485 0.99 3 2 C3.29296875 5.0390625 3.29296875 5.0390625 3.1875 8.625 C3.16042969 9.81351563 3.13335937 11.00203125 3.10546875 12.2265625 C3.07066406 13.14179687 3.03585938 14.05703125 3 15 C0.73045369 11.59568053 0.63450051 9.83475798 0.375 5.8125 C0.30023438 4.72582031 0.22546875 3.63914062 0.1484375 2.51953125 C0.09945312 1.68808594 0.05046875 0.85664062 0 0 Z " fill="#362B23" transform="translate(201,82)"/>
<path d="M0 0 C0.33 1.32 0.66 2.64 1 4 C1.66 3.67 2.32 3.34 3 3 C2.38722388 5.96175123 1.74627478 7.38058783 0 10 C-0.66 10 -1.32 10 -2 10 C-2.25 3.375 -2.25 3.375 0 0 Z " fill="#34271A" transform="translate(64,76)"/>
<path d="M0 0 C0.99 0 1.98 0 3 0 C3.625 2.875 3.625 2.875 4 6 C1.8614515 8.1385485 0.86724686 8.42655063 -2 9 C-2.33 8.34 -2.66 7.68 -3 7 C-2.505 6.566875 -2.01 6.13375 -1.5 5.6875 C0.33218192 4.00259517 0.33218192 4.00259517 0 1 C0 0.67 0 0.34 0 0 Z " fill="#4C3924" transform="translate(94,34)"/>
<path d="M0 0 C0.33 0 0.66 0 1 0 C1.2475 1.2375 1.495 2.475 1.75 3.75 C2.67839533 7.55776636 4.00468856 9.40406342 7 12 C7 12.66 7 13.32 7 14 C4.11043313 12.70467692 1.98958312 11.4869789 0 9 C-0.29296875 6.73828125 -0.29296875 6.73828125 -0.1875 4.3125 C-0.16042969 3.50425781 -0.13335937 2.69601563 -0.10546875 1.86328125 C-0.07066406 1.24839844 -0.03585938 0.63351563 0 0 Z " fill="#CCCAC9" transform="translate(59,49)"/>
<path d="M0 0 C1.32 0.33 2.64 0.66 4 1 C4.1875 3.875 4.1875 3.875 4 7 C3.01 7.66 2.02 8.32 1 9 C0.67 6.03 0.34 3.06 0 0 Z " fill="#3A2C20" transform="translate(138,111)"/>
<path d="M0 0 C3.69230769 0.69230769 3.69230769 0.69230769 5 2 C5.07205511 3.68608966 5.08386068 5.37500659 5.0625 7.0625 C5.05347656 7.98160156 5.04445312 8.90070313 5.03515625 9.84765625 C5.02355469 10.55792969 5.01195312 11.26820312 5 12 C4.67 12 4.34 12 4 12 C3.83723958 9.98177083 3.67447917 7.96354167 3.51171875 5.9453125 C3.12606964 3.60480784 3.12606964 3.60480784 0 2 C-0.33 2.66 -0.66 3.32 -1 4 C-1 1 -1 1 0 0 Z " fill="#C4C2C0" transform="translate(182,94)"/>
<path d="M0 0 C2.0625 1.75 2.0625 1.75 4 4 C3.75 6.25 3.75 6.25 3 8 C1.35 7.01 -0.3 6.02 -2 5 C-1.34 3.35 -0.68 1.7 0 0 Z " fill="#8A8680" transform="translate(195,68)"/>
<path d="M0 0 C0.78375 0.165 1.5675 0.33 2.375 0.5 C6.93966142 1.12960847 11.40072601 1.08180527 16 1 C16 1.66 16 2.32 16 3 C13.70890403 3.08075665 11.41700733 3.13907731 9.125 3.1875 C7.21074219 3.23970703 7.21074219 3.23970703 5.2578125 3.29296875 C4.18273437 3.19628906 3.10765625 3.09960938 2 3 C1.34 2.01 0.68 1.02 0 0 Z " fill="#4E3A23" transform="translate(96,205)"/>
<path d="M0 0 C0.66 0 1.32 0 2 0 C2.98248524 4.0527516 3.08159574 7.83861737 3 12 C2.67 10.68 2.34 9.36 2 8 C1.34 8 0.68 8 0 8 C0 5.36 0 2.72 0 0 Z " fill="#4C3E35" transform="translate(184,162)"/>
<path d="M0 0 C0.33 0.99 0.66 1.98 1 3 C-3.75 7 -3.75 7 -6 7 C-6 6.01 -6 5.02 -6 4 C-3 1.8125 -3 1.8125 0 0 Z " fill="#3F362F" transform="translate(203,144)"/>
<path d="M0 0 C0.66 0.66 1.32 1.32 2 2 C1.67 2.99 1.34 3.98 1 5 C-1.97 5 -4.94 5 -8 5 C-5.37352812 3.24901874 -2.71224618 1.61268692 0 0 Z " fill="#473A30" transform="translate(195,133)"/>
<path d="M0 0 C0.66 0 1.32 0 2 0 C0.6062718 4.43458973 -1.60582235 6.87378374 -5 10 C-5.99 9.67 -6.98 9.34 -8 9 C-6.8553125 8.1646875 -6.8553125 8.1646875 -5.6875 7.3125 C-3.03204493 5.02757355 -1.7420893 2.9864388 0 0 Z " fill="#DAD8D7" transform="translate(201,105)"/>
<path d="M0 0 C0.66 0 1.32 0 2 0 C2.433125 1.2065625 2.433125 1.2065625 2.875 2.4375 C3.73262568 5.1326468 3.73262568 5.1326468 6 6 C6 6.66 6 7.32 6 8 C4.68 8 3.36 8 2 8 C0.23537317 4.91190305 0 3.76687864 0 0 Z " fill="#3B2C18" transform="translate(90,92)"/>
<path d="M0 0 C-1 3 -1 3 -3 4 C-2.34 4.66 -1.68 5.32 -1 6 C-3.31 6 -5.62 6 -8 6 C-8 5.34 -8 4.68 -8 4 C-2.58823529 0 -2.58823529 0 0 0 Z " fill="#C7C4C2" transform="translate(188,132)"/>
<path d="M0 0 C0.99 0.33 1.98 0.66 3 1 C2.16855469 1.72316406 2.16855469 1.72316406 1.3203125 2.4609375 C0.59585938 3.09257813 -0.12859375 3.72421875 -0.875 4.375 C-1.59429687 5.00148438 -2.31359375 5.62796875 -3.0546875 6.2734375 C-4.4076598 7.47426834 -5.7208345 8.7208345 -7 10 C-6.84819155 7.34335221 -6.47988575 5.54782138 -4.703125 3.51953125 C-3.125 2.125 -3.125 2.125 0 0 Z " fill="#DAD9D8" transform="translate(180,46)"/>
<path d="M0 0 C1.67542976 0.28604898 3.34385343 0.61781233 5 1 C5 1.66 5 2.32 5 3 C4.34 3 3.68 3 3 3 C2.67 3.99 2.34 4.98 2 6 C1.34 6 0.68 6 0 6 C-0.38218767 4.34385343 -0.71395102 2.67542976 -1 1 C-0.67 0.67 -0.34 0.34 0 0 Z " fill="#463627" transform="translate(167,134)"/>
<path d="M0 0 C2 3 2 3 2 5 C-4.93 4.505 -4.93 4.505 -12 4 C-12 3.67 -12 3.34 -12 3 C-11.21753906 2.95101562 -10.43507812 2.90203125 -9.62890625 2.8515625 C-8.61699219 2.77679688 -7.60507812 2.70203125 -6.5625 2.625 C-5.55316406 2.55539063 -4.54382812 2.48578125 -3.50390625 2.4140625 C-2.26447266 2.20910156 -2.26447266 2.20910156 -1 2 C-0.67 1.34 -0.34 0.68 0 0 Z " fill="#493C2F" transform="translate(57,205)"/>
<path d="M0 0 C0.99 0.33 1.98 0.66 3 1 C3.80967438 3.91482778 4.21845993 5.46113217 3.0625 8.3125 C2.5365625 9.1478125 2.5365625 9.1478125 2 10 C0.768606 7.53721199 0.92840804 5.7204945 1 3 C0.01 3 -0.98 3 -2 3 C-2 2.34 -2 1.68 -2 1 C-1.34 0.67 -0.68 0.34 0 0 Z " fill="#E9E8E7" transform="translate(187,123)"/>
<path d="M0 0 C-0.61875 0.0825 -1.2375 0.165 -1.875 0.25 C-4.18437567 0.81258459 -4.18437567 0.81258459 -5.25 3.0625 C-5.4975 3.701875 -5.745 4.34125 -6 5 C-6.99 5 -7.98 5 -9 5 C-7.93411431 2.09303901 -7.29651501 1.15567038 -4.5 -0.3125 C-2 -1 -2 -1 0 0 Z " fill="#392F25" transform="translate(86,22)"/>
<path d="M0 0 C2.97 0.495 2.97 0.495 6 1 C4.35 2.65 2.7 4.3 1 6 C-0.0625 4.125 -0.0625 4.125 -1 2 C-0.67 1.34 -0.34 0.68 0 0 Z " fill="#45382E" transform="translate(105,45)"/>
<path d="M0 0 C1.1875 1.625 1.1875 1.625 2 4 C0.625 7.25 0.625 7.25 -1 10 C-2 7 -2 7 -2 3 C-1.34 3 -0.68 3 0 3 C0 2.01 0 1.02 0 0 Z " fill="#42372F" transform="translate(181,184)"/>
<path d="M0 0 C0.33 0 0.66 0 1 0 C1.2475 1.11375 1.495 2.2275 1.75 3.375 C2.61005339 7.04615198 2.61005339 7.04615198 5.125 8.4375 C5.74375 8.623125 6.3625 8.80875 7 9 C5.00045254 9.04254356 2.99958364 9.04080783 1 9 C0 8 0 8 -0.09765625 6.15234375 C-0.06510417 4.1015625 -0.03255208 2.05078125 0 0 Z " fill="#554E48" transform="translate(185,107)"/>
<path d="M0 0 C2.75 0.25 2.75 0.25 5 1 C5 1.33 5 1.66 5 2 C2.03 2.66 -0.94 3.32 -4 4 C-2.3125 1.9375 -2.3125 1.9375 0 0 Z " fill="#473D37" transform="translate(172,129)"/>
<path d="M0 0 C0.33 0 0.66 0 1 0 C1.66 3.63 2.32 7.26 3 11 C2.01 10.67 1.02 10.34 0 10 C-1.51675663 6.58729758 -0.72783588 3.55830874 0 0 Z " fill="#5D544F" transform="translate(175,103)"/>
<path d="M0 0 C0.33 0 0.66 0 1 0 C1 1.98 1 3.96 1 6 C-0.32 6 -1.64 6 -3 6 C-2.01 4.02 -1.02 2.04 0 0 Z " fill="#3E352C" transform="translate(67,36)"/>
<path d="M0 0 C5.78461538 4.43076923 5.78461538 4.43076923 6.875 7.3125 C6.936875 8.1478125 6.936875 8.1478125 7 9 C4.03595495 6.19195732 1.55500981 3.81684226 0 0 Z " fill="#E0DEDD" transform="translate(124,27)"/>
</svg>
